<?xml version="1.0" standalone="no"?>
<!DOCTYPE svg PUBLIC "-//W3C//DTD SVG 1.1//EN" "http://www.w3.org/Graphics/SVG/1.1/DTD/svg11.dtd" >
<svg xmlns="http://www.w3.org/2000/svg" xmlns:xlink="http://www.w3.org/1999/xlink" version="1.1">
<metadata>
Created by FontForge 20190801 at Sat Oct  6 13:53:02 2018
 By Jimmy Wärting
https://creativemarket.com/DmitriyChirkov
</metadata>
<defs>
<font id="RozoviiChulok-Regular" horiz-adv-x="414" >
  <font-face 
    font-family="Rozovii Chulok"
    font-weight="400"
    font-stretch="normal"
    units-per-em="1000"
    panose-1="0 0 0 0 0 0 0 0 0 0"
    ascent="800"
    descent="-200"
    x-height="368"
    cap-height="640"
    bbox="-255.75 -466 907 964"
    underline-thickness="50"
    underline-position="-125"
    unicode-range="U+000D-FB02"
  />
<missing-glyph horiz-adv-x="333" 
 />
    <glyph glyph-name=".notdef" horiz-adv-x="333" 
 />
    <glyph glyph-name="uni0000" horiz-adv-x="0" 
 />
    <glyph glyph-name="uni0000" horiz-adv-x="0" 
 />
    <glyph glyph-name="uni000D" unicode="&#xd;" horiz-adv-x="250" 
 />
    <glyph glyph-name="space" unicode=" " horiz-adv-x="205" 
 />
    <glyph glyph-name="uni0401" unicode="&#x401;" horiz-adv-x="321" 
d="M-69 283q-12 17 11 23l27 6q13 3 16.5 5.5t6.5 14.5q15 60 38 117t51 114q2 3 3 5.5t2 5.5q5 11 -6 9q-8 0 -17 -0.5t-18 -1.5l-15 -3h-3q-11 0 -17.5 8.5t-4.5 19.5q1 2 2.5 4t3.5 2q5 2 10.5 3t10.5 2q15 2 30.5 4t31.5 4q8 1 16 3t14 10q3 6 9 6q3 0 7 -2q8 -7 21 -7
q5 0 11 1l12 2q46 8 91 14.5t90 14.5h6q11 0 16 -9q7 -12 3.5 -18t-19.5 -9q-52 -9 -103.5 -18t-103.5 -17q-13 -2 -20.5 -7t-12.5 -16q-29 -57 -54 -116.5t-42 -122.5q-3 -9 7 -9q5 0 9 1t9 1q29 5 56.5 8.5t56.5 7.5q2 1 7 1q20 0 26 -18q2 -4 -0.5 -7t-6.5 -4
q-37 -3 -74 -10.5t-74 -14.5q-15 0 -23.5 -5.5t-10.5 -21.5q-8 -45 -13 -89t-3 -88q1 -16 4.5 -33t11.5 -31t21 -23.5t32 -9.5q17 0 38.5 9t43 21.5t40.5 27t30 25.5q17 14 28 14q8 0 15 -3q3 -2 3.5 -5t-1.5 -5q-15 -18 -38.5 -36t-49.5 -33t-53.5 -24t-50.5 -9
q-38 0 -69 18t-41 59q-5 24 -6 49t1 51t5.5 53t8.5 55q1 4 1 8v8q-4 2 -8 2q-3 0 -6.5 -1t-6.5 -1q-8 0 -13 2t-10 9zM242 702q0 1 11 15.5t24.5 32t25.5 33t15 19.5q8 9 14 9q5 0 10 -3.5t9 -6.5q8 -8 1 -18q-2 -2 -3 -4l-2 -4q-17 -22 -34 -43.5t-34 -43.5q-7 -9 -15 -9
q-16 2 -22 14q-1 5 0 9zM198 696q-12 3 -18 10.5t-4 21.5q5 21 8.5 42t7.5 42q1 5 3.5 9.5t7.5 4.5q6 0 12.5 -4.5t10.5 -8.5q5 -4 3 -13q-2 -11 -4 -23t-4 -23q-3 -13 -5.5 -25t-4.5 -25q-2 -9 -10 -9q-2 0 -3 1z" />
    <glyph glyph-name="uni0410" unicode="&#x410;" horiz-adv-x="431" 
d="M-88 -36q-5 2 -3 9q0 2 2 6q31 72 61 142t61 142q5 11 10 22.5t10 22.5q2 4 0.5 7t-6.5 2q-9 0 -18 -0.5t-17 -0.5q-10 -1 -19.5 -1.5t-19.5 -0.5q-13 -2 -19 8q-3 4 -5.5 8.5t-0.5 9.5q2 6 7.5 6.5t10.5 1.5q20 2 40 3.5t40 3.5q5 1 10.5 1t10.5 1q10 2 14 11
q7 10 13 25q15 31 32 64.5t35.5 67.5t38.5 66t42 59q11 13 24.5 25t30.5 12q20 0 34 -13t17 -32q4 -21 4 -42.5v-42.5q-1 -74 -9 -149q-1 -7 0.5 -12t10.5 -5q6 0 9 -3.5t5 -8.5q5 -11 2.5 -15.5t-15.5 -7.5q-11 -3 -14 -6t-5 -14q-2 -23 -4 -44.5t-4 -43.5
q-5 -60 -10.5 -119.5t-10.5 -119.5q0 -7 -0.5 -14t-0.5 -15q0 -12 -8.5 -14t-17.5 -2q-16 2 -15 16q0 30 3 58q6 71 12.5 141t12.5 142q1 14 -0.5 19t-10.5 5q-2 0 -5.5 -0.5t-8.5 -0.5q-35 -5 -71 -9t-71 -8q-12 -2 -18.5 -7t-11.5 -16q-21 -50 -43 -99t-44 -99
q-12 -28 -23.5 -55.5t-23.5 -55.5q-2 -4 -6 -14q-5 -11 -12.5 -16t-15.5 -5q-9 0 -16 4zM129 369q4 -2 7.5 -2h6.5q5 0 9 0.5t9 1.5q32 3 62.5 7t62.5 8q8 2 10.5 4t3.5 9q1 3 1 6t1 6q5 47 7 93l4 92v18t-1 17t-0.5 16.5t-8.5 10.5q-7 1 -12.5 -6.5t-10.5 -13.5
q-19 -24 -41 -58.5t-43 -72t-38.5 -73.5t-28.5 -63z" />
    <glyph glyph-name="uni0411" unicode="&#x411;" horiz-adv-x="501" 
d="M-18 -44q-22 0 -22 20q1 11 1.5 23t2.5 23q5 40 11 79t11 78q14 66 27.5 130t32.5 128q12 42 23.5 83t23.5 83q0 2 0.5 4t0.5 4q2 9 -8 9q-10 -2 -19.5 -3t-18.5 -3q-4 -1 -7.5 -1t-7.5 -2q-2 0 -4 -0.5t-4 -0.5q-15 0 -21 16q-7 17 12 21q13 3 25.5 5.5t24.5 4.5l12 2
l12 2q16 1 23 17q5 12 14 12q4 0 11 -2.5t9 -4.5q5 -6 11 -8t12 -2q5 0 10 0.5t10 1.5l267 39q8 1 16.5 1.5t16.5 0.5q11 0 15 -4t6 -15v-11q0 -8 -10 -10q-11 -1 -22 -1.5t-22 -2.5q-59 -8 -117 -16t-117 -16q-17 -2 -33 -4.5t-33 -5.5q-11 -2 -14 -4.5t-6 -13.5l-30 -105
q-16 -59 -31.5 -116.5t-27.5 -116.5q-8 -42 -15 -82t-14 -82q-1 -3 -2 -7t4 -4q5 -1 7 3t4 7q24 37 54 80t66 79.5t78.5 60.5t91.5 24q35 0 62.5 -16.5t32.5 -54.5q2 -20 -1 -41.5t-9 -42.5q-15 -55 -47 -107q-13 -20 -32 -42t-41.5 -40.5t-48 -30.5t-51.5 -12t-50.5 10.5
t-42.5 28.5q-11 11 -10 25t12 29q6 7 19 7q5 0 8.5 -0.5t7.5 -2.5q8 -3 5 -11q0 -2 -1 -3t-1 -2q-8 -20 -6 -29t16 -20q7 -5 16.5 -9.5t17.5 -4.5q5 0 9.5 1t9.5 3q36 14 64.5 40.5t50.5 59.5t37 70t24 72q3 14 3.5 26.5t-0.5 25.5q-1 19 -10 36t-31 17q-4 0 -12 -2
q-48 -9 -92.5 -42.5t-82 -78.5t-67 -94.5t-48.5 -90.5q-6 -13 -11.5 -25.5t-11.5 -25.5q-9 -20 -28 -20z" />
    <glyph glyph-name="uni0412" unicode="&#x412;" horiz-adv-x="425" 
d="M-7 27q-14 2 -18.5 8t-2.5 21q5 20 7.5 40.5t6.5 41.5q20 110 40.5 219t40.5 219q2 10 2.5 19.5t2.5 18.5q2 12 11 12q4 0 6 -1q13 -5 17.5 -12t2.5 -21q-2 -15 -4.5 -29.5t-5.5 -29.5q-5 -31 -11 -61.5t-11 -61.5q-1 -5 -2.5 -10t3.5 -13q15 27 42 67.5t59 79t66.5 65.5
t65.5 27q32 0 44 -28q2 -5 2 -8.5v-8.5q-5 -29 -23.5 -57.5t-35.5 -51.5q-4 -5 -8.5 -9t-4.5 -12q21 -4 39 -10.5t31 -17t19.5 -27.5t6.5 -43q0 -30 -13 -67.5t-32.5 -74.5t-42 -70t-40.5 -55q-12 -15 -29.5 -33.5t-37.5 -34t-41.5 -26t-42.5 -10.5q-33 0 -56 21
q-19 19 -18 48q3 38 20.5 72t46.5 63q9 9 23 17.5t27 8.5t26.5 -9.5t13.5 -23.5q0 -8 -2 -19t-6 -20.5t-10.5 -16t-17.5 -6.5q-8 0 -14 3t-11 8q-6 8 1 12q16 9 19 24q2 6 0 8q-1 1 -3 1q-4 0 -8 -4q-63 -56 -67 -131q-1 -33 20 -33q9 0 27 8q36 18 70 52.5t63 76t52 85
t36 80.5q8 20 11.5 40.5t1.5 40.5q-2 17 -9.5 25t-24.5 8q-38 0 -64 -16t-53 -39q-8 -7 -20 -7q-8 0 -14 4t-8 12q-1 5 2 8l9 9t9 8q38 32 69.5 68.5t57.5 77.5q7 11 13 22.5t4 24.5q-12 -1 -28 -11.5t-32 -24t-29.5 -28t-21.5 -22.5q-42 -48 -73.5 -103.5t-55 -115.5
t-39 -122t-25.5 -124q-3 -16 -16 -16q-3 0 -5 1z" />
    <glyph glyph-name="uni0413" unicode="&#x413;" horiz-adv-x="293" 
d="M319 223q4 -2 2 -7q-2 -3 -4.5 -6.5t-5.5 -5.5q-32 -36 -64 -71t-66 -69q-11 -11 -25 -24t-30 -24t-32.5 -18.5t-32.5 -7.5q-3 0 -5.5 0.5t-4.5 0.5q-37 7 -37 46q0 8 1 16t2 13q14 66 45 127.5t66 119.5q29 51 58.5 100t58.5 100q10 17 20 36.5t19 40t15 42t7 40.5
q2 18 -15 18q-4 0 -6 -1q-31 -5 -62.5 -21t-59.5 -38.5t-52 -48.5t-41 -51q-5 -6 -8 -12t-3 -13q-1 -4 1 -8t-4 -7q-4 -2 -6 -2q-5 0 -11 4q-29 11 -13 41q14 29 43 61t64 59t72 44.5t68 17.5q21 -1 36.5 -10t26.5 -24q5 -8 6 -16.5t-1 -18.5q-6 -40 -26.5 -84.5
t-40.5 -79.5q-29 -50 -58.5 -98.5t-58.5 -98.5q-14 -24 -31 -55t-32 -64.5t-25.5 -66.5t-12.5 -62v-14q2 -8 7 -8q6 0 18 8t24.5 19t24 21.5t15.5 14.5q34 34 67 68.5t65 69.5q13 13 25 13q8 0 17 -6z" />
    <glyph glyph-name="uni0414" unicode="&#x414;" horiz-adv-x="640" 
d="M-89 -30q-20 16 -22 46t13 54q13 21 31.5 29t41.5 8q24 0 50 -10.5t46 -24.5q4 -4 8 -4q5 0 11 9q41 55 74 117.5t60.5 128.5t49.5 133.5t41 131.5q5 17 7.5 32.5t6.5 32.5q1 9 11 7q7 0 12 -3t10 -7q6 -4 4 -15q-3 -14 -5 -26.5t-6 -26.5q-20 -67 -42.5 -135.5
t-50 -135.5t-61.5 -130.5t-76 -120.5q-2 -2 -3.5 -5t-3.5 -5q-8 -9 -1 -16q10 -8 24.5 -18.5t30.5 -19.5t32.5 -15.5t29.5 -6.5q15 0 33 5q62 14 110.5 58.5t84 103t58.5 124t33 120.5q7 38 8 74.5t-6 71.5q-14 71 -55.5 111.5t-118.5 40.5q-47 0 -95 -17.5t-90 -48
t-74.5 -71.5t-47.5 -88q-9 -29 -12.5 -56t1.5 -54q2 -7 5 -18.5t8.5 -22t13 -18t16.5 -7.5q8 0 15 -2t13 -8q2 -2 1 -6.5t-5 -6.5q-7 -4 -16 -4q-11 0 -22 5t-19 13q-59 50 -50 137q8 71 43.5 128.5t98.5 102.5q95 69 190 69q68 0 123.5 -30.5t87.5 -92.5q38 -77 29 -174
q-4 -45 -17 -97t-35 -102.5t-51.5 -97t-67.5 -82.5t-83.5 -57t-98.5 -21q-36 0 -67 15t-60 35q-3 2 -6 3.5t-5 3.5q-7 4 -10 4q-2 0 -11 -6q-8 -7 -15.5 -14t-16.5 -13q-18 -14 -39.5 -24.5t-44.5 -10.5q-31 0 -56 21zM-68 34q-5 -34 10 -56q7 -9 18 -9q10 0 24 8t28.5 18.5
t27 22.5t18.5 19q5 7 0 10q-14 14 -33.5 27.5t-39.5 13.5q-21 0 -35.5 -17t-17.5 -37z" />
    <glyph glyph-name="uni0415" unicode="&#x415;" horiz-adv-x="330" 
d="M-43 293q-11 17 12 23q7 2 13.5 3t12.5 3q14 3 17 5.5t7 14.5q15 60 38 117t51 114q2 3 3 5.5t2 5.5q4 11 -6 9q-17 0 -35 -3q-4 0 -7.5 -1t-7.5 -1h-3q-11 0 -17.5 8.5t-4.5 19.5q1 2 2.5 4t3.5 2q5 2 10 3l10 2q16 2 31.5 3.5t31.5 3.5q8 2 15.5 4t14.5 10q3 5 9 5
q5 0 7 -1q8 -7 21 -7q5 0 11 1l12 2q46 8 91 14.5t90 14.5h6q10 0 16 -9q7 -12 3.5 -18t-19.5 -9q-52 -9 -103.5 -18t-104.5 -17q-12 -2 -19.5 -7t-13.5 -16q-29 -57 -54 -117t-42 -122q-1 -9 8 -9q5 0 9 1t9 1q28 5 56 8.5t56 7.5q3 1 8 1q19 0 26 -18q2 -4 -0.5 -7
t-6.5 -4q-38 -3 -74.5 -10.5t-74.5 -14.5q-8 -2 -14 -2q-11 -2 -14 -9t-5 -16q-8 -45 -13 -89t-3 -88q1 -16 4.5 -33t11.5 -31t20.5 -23.5t31.5 -9.5q17 0 38.5 9t43.5 21.5t41 27t30 25.5q16 14 28 14q6 0 15 -3q7 -4 1 -10q-15 -18 -38 -36t-49.5 -33t-53.5 -24t-50 -9
q-38 0 -69.5 18t-40.5 59q-5 24 -6 49t1 51t5.5 53t8.5 54q1 5 1 9v8q-6 2 -8 2q-4 0 -7 -1t-6 -1q-8 0 -13.5 2t-10.5 9z" />
    <glyph glyph-name="uni0416" unicode="&#x416;" horiz-adv-x="749" 
d="M137 208q20 25 32 46.5t20 53.5q12 50 17 98.5t2 96.5q-1 12 -4.5 29.5t-10 33t-17.5 27t-27 11.5q-27 0 -58.5 -21t-60.5 -50t-52.5 -61t-34.5 -54q-6 -12 -15 -12q-5 0 -10 2.5t-10 4.5q-8 6 -4 17q12 27 37.5 61t57 64t66 51t64.5 21q27 0 48 -11.5t35.5 -30t23 -42.5
t10.5 -48q2 -32 1 -64.5t-6 -65.5q-1 -5 -1.5 -10t-0.5 -10q0 -4 3 -4q1 0 1.5 0.5t1.5 0.5q11 9 18 18q30 33 59.5 65t61.5 62q4 4 7.5 7t6.5 7q8 11 20 11t22 -12q3 -3 2 -6.5t-3 -6.5q-20 -65 -34 -130t-18 -133q-1 -2 -0.5 -5t3.5 -4q6 -1 10 5q8 11 15 22.5t14 22.5
q17 26 32 52.5t32 52.5q30 48 61.5 91t66 83t71.5 79t76 79q11 11 18 11q6 0 12 -4.5t11 -9.5q4 -4 0 -10q-2 -2 -3 -4t-3 -4q-44 -50 -82.5 -111.5t-69 -128.5t-51.5 -136.5t-31 -135.5q-6 -35 -6.5 -69.5t4.5 -68.5q2 -15 7.5 -36t15.5 -40.5t24 -33.5t33 -14q10 0 18 10
q6 7 15 8.5t17 1.5q7 0 7 -5q1 -5 -2 -8.5t-7 -7.5q-13 -11 -35.5 -15t-39.5 -4q-30 0 -49.5 21t-30.5 51t-16 62.5t-5 54.5q0 101 29 199t69 189q2 4 4.5 8t0.5 10q-8 -5 -12.5 -11.5t-9.5 -13.5q-35 -45 -65 -93t-59 -96q-8 -14 -16.5 -27t-17.5 -26q-13 -20 -34 -38
q-17 -12 -34 -11q-11 0 -20 5.5t-9 20.5q-1 22 -0.5 43t5.5 44q5 28 10 55.5t10 55.5l2 10l2 10q0 2 -3 5q-2 2 -5 -1t-6 -5.5t-5 -5.5q-59 -63 -118 -130q-23 -27 -34 -62q-6 -21 -19 -52t-30.5 -65t-38.5 -68.5t-44.5 -61.5t-48.5 -44t-50 -17q-12 0 -22 6q-12 7 -5 21
q5 9 10 16q45 66 89 132t93 130zM18 -31q-6 -5 -3 -9q29 26 50 57t38 66q4 5 2 13q6 0 5 4q-1 -1 -2 -1.5t-2 -1.5q-6 -4 -19 -22.5t-27 -39.5t-26 -40t-16 -26z" />
    <glyph glyph-name="uni0417" unicode="&#x417;" horiz-adv-x="437" 
d="M20 -58q-42 5 -65.5 32.5t-21.5 69.5q0 20 6.5 41.5t18.5 39.5t29.5 29.5t39.5 11.5q15 0 36 -9.5t27 -23.5q3 -7 -5 -9q-10 0 -14.5 1.5t-13.5 7.5q-10 9 -18 9q-6 0 -13.5 -4.5t-14.5 -11t-12.5 -13.5t-8.5 -12q-33 -59 -8 -115q12 -25 38 -25q15 0 32 6t30 12
q47 24 88 61t74.5 81t59 93t42.5 98q12 36 9 72q-3 32 -21 43t-47 11q-18 0 -38.5 -3.5t-41 -9.5t-39 -14.5t-33.5 -19.5q-10 -6 -18 -6q-9 0 -17 6q-15 10 2 23q24 19 58.5 50t66 66.5t54.5 72.5t24 68q0 19 -18 20q-30 0 -60.5 -13.5t-59 -34.5t-52.5 -46t-41 -48
q-8 -11 -14.5 -22t-5.5 -25q0 -4 -3 -5t-6 -1q-10 0 -18 6q-14 9 -10 26q6 17 16 31q17 24 42.5 52t56 52t64 39.5t66.5 15.5q46 0 70 -38q8 -11 6 -26q-1 -19 -8.5 -39t-18.5 -38.5t-24 -35t-25 -30.5q-8 -9 -16.5 -17.5t-16.5 -17.5l-4.5 -4.5t-1.5 -5.5q1 -4 5 -4
q3 0 4 1q6 0 12 0.5t12 0.5q32 0 58.5 -7t49.5 -32q28 -31 25 -77q-2 -36 -18 -80t-41.5 -89.5t-59.5 -88.5t-72 -76t-79 -53.5t-80 -20.5q-5 0 -9.5 0.5t-9.5 1.5z" />
    <glyph glyph-name="uni0418" unicode="&#x418;" horiz-adv-x="510" 
d="M-17 84q-6 48 -2 95q4 37 7.5 74t8.5 74q7 63 23.5 134t32.5 132q2 5 3.5 10t3.5 10q5 12 16 12q12 0 21 -6q7 -4 4 -12q-33 -111 -50.5 -221.5t-27.5 -224.5q-2 -20 0 -38t5 -36q1 -4 3 -11t7 -7t16 12.5t22.5 29t21 31.5t12.5 21q20 35 39.5 69.5t39.5 69.5
q17 31 45.5 82t61.5 104.5t66.5 99.5t59.5 67q6 5 14 7.5t16 2.5q35 0 36 -31q1 -16 -1.5 -31.5t-7.5 -32.5q-11 -39 -20.5 -78t-18.5 -79q-8 -39 -18 -77.5t-18 -77.5q-9 -45 -15 -88.5t-6 -88.5q0 -29 6 -55t24 -47q10 -11 -5 -22q-3 -2 -10 -6t-12 -4q-6 0 -12 7
t-11.5 16.5t-9 19t-4.5 14.5q-7 24 -8 50t1 52q5 57 14.5 113.5t22.5 113.5q10 42 19 83.5t19 83.5q5 22 11.5 43.5t11.5 43.5q2 8 4.5 16.5t-3.5 16.5q-10 -4 -28.5 -28t-41.5 -58.5t-47 -74.5t-45.5 -76.5t-37.5 -65t-22 -38.5q-21 -38 -43 -75t-46 -73q-8 -13 -20 -29
t-26 -30t-30 -23.5t-33 -9.5q-20 0 -27.5 14t-10.5 31z" />
    <glyph glyph-name="uni0419" unicode="&#x419;" horiz-adv-x="536" 
d="M-12 53q-7 46 -3 94q4 38 8 74.5t8 74.5q1 6 1.5 12t2.5 11q11 61 24 121.5t28 121.5q3 11 7 20q5 12 16 12q6 -1 11.5 -2t10.5 -4q6 -4 3 -12q-32 -111 -50 -221.5t-27 -224.5q-2 -20 -0.5 -38t4.5 -36q1 -4 3 -11t7 -7q6 0 17 12.5t22.5 29t21 31.5t12.5 21
q20 35 39 69.5t39 69.5q30 55 61 108.5t65 107.5q10 15 22.5 34t26.5 38t29 36t30 29q13 10 30 10q35 0 36 -31q1 -16 -1.5 -32t-7.5 -32q-11 -39 -21 -78.5t-18 -78.5q-9 -39 -18.5 -77.5t-17.5 -77.5q-10 -45 -16 -89t-6 -89q1 -29 7 -54.5t24 -46.5q10 -11 -5 -22
q-4 -2 -10.5 -6t-11.5 -4q-6 0 -12.5 7t-11.5 16t-9 18.5t-5 14.5q-6 25 -7 50.5t1 51.5q4 57 13.5 114t22.5 114q10 42 19.5 83.5t19.5 83.5q5 22 11 43.5t11 43.5q2 8 5 16.5t-4 15.5q-9 -3 -14 -10l-10 -14q-16 -19 -29.5 -39t-27.5 -40q-38 -59 -72.5 -118.5
t-68.5 -119.5q-21 -38 -42.5 -75t-45.5 -73q-9 -12 -20.5 -28t-25.5 -30.5t-30 -24t-33 -9.5q-21 1 -28.5 15t-9.5 31zM204 689q-14 16 -9 36q1 4 1.5 8t4.5 6q1 0 1.5 0.5t1.5 0.5q3 0 4.5 -2.5t3.5 -4.5q8 -10 19.5 -13.5t24.5 -3.5h7.5t8.5 1q16 2 31 5.5t31 5.5
q5 1 10.5 1.5t10.5 0.5q27 -3 24 -30l-2 -12t-6 -13q-10 7 -16.5 9.5t-14.5 2.5q-3 0 -7 -0.5t-9 -1.5q-10 -2 -19.5 -4t-18.5 -4q-18 -3 -34 -3q-14 0 -25.5 2t-22.5 13z" />
    <glyph glyph-name="uni041A" unicode="&#x41a;" horiz-adv-x="291" 
d="M-20 -29q-7 -28 -34 -28q-9 0 -9 12q1 6 2 12.5t2 13.5l39 243q16 89 35 175.5t40 174.5q4 17 8 35t8 35q2 5 2.5 10.5t2.5 10.5q3 12 14 12q3 0 5 -1q5 -2 8.5 -4t8.5 -4q6 -4 3 -12q-11 -50 -22 -98.5t-23 -97.5q-6 -22 -10 -43.5t-9 -43.5q-13 -66 -24 -132q0 -1 2 -5
q3 -2 6 1q38 32 76.5 68.5t76 75.5t73 78.5t68.5 77.5q21 25 41 50.5t35 54.5q4 4 7 4q7 0 12.5 -8t8.5 -13q3 -6 -2 -14q-4 -7 -7.5 -13.5t-8.5 -12.5q-80 -107 -171 -201t-193 -181q-8 -7 -9 -10.5t4 -9.5q18 -22 33.5 -45t34.5 -44q20 -23 41.5 -42t47.5 -35q6 -2 9 -6
q5 -4 -1 -10q-14 -14 -28 -14q-7 0 -15 5q-45 24 -73.5 57.5t-57.5 74.5q-4 6 -8.5 12t-9.5 11q-1 1 -5 1l-4 -4l-2 -12l-2 -12q-7 -38 -13.5 -74.5t-12.5 -74.5z" />
    <glyph glyph-name="uni041B" unicode="&#x41b;" horiz-adv-x="457" 
d="M-95 8q-3 2 -2.5 5t3.5 5q10 5 23.5 21.5t26.5 37t24.5 39.5t16.5 29q51 88 97.5 176.5t94.5 177.5q11 21 25.5 48t31 54t33.5 52t33 43q13 16 28 16q18 0 31 -16.5t15 -32.5q2 -14 2 -28.5t-1 -28.5q-3 -62 -15 -125q-5 -25 -9 -50t-9 -50h2q-8 -38 -15 -77t-12 -78
q-5 -32 -8.5 -64t-1.5 -64q2 -42 13 -76q6 -17 -14 -20q-14 0 -20 3t-11 17q-9 27 -10.5 56t0.5 59q3 57 12.5 114t20.5 114q8 48 17 95t17 95q5 25 6.5 49t3.5 47q0 6 0.5 13.5t-7.5 8.5q-4 0 -13 -11t-21 -29t-24.5 -39t-24 -40.5t-19.5 -35t-11 -20.5q-42 -78 -82 -154.5
t-84 -153.5q-31 -57 -66 -114q-10 -16 -21 -31.5t-24 -29.5q-14 -15 -31 -15q-11 0 -21 8z" />
    <glyph glyph-name="uni041C" unicode="&#x41c;" horiz-adv-x="526" 
d="M-34 47q-2 12 0 26q2 32 6 75.5t10.5 92.5t16 100t21.5 98t28 87t35 67q10 16 26 16q15 0 27 -8t16 -23q5 -21 5.5 -42t2.5 -43l2 -54t3 -54l2 -18t6 -17q8 2 13 13q11 19 21 38t21 39q18 35 36.5 70t40.5 69q8 14 21.5 33t29.5 37t34 30.5t36 12.5q22 0 38.5 -15
t19.5 -37q2 -18 1.5 -36.5t-2.5 -38.5q-11 -85 -27 -168.5t-34 -167.5l-51 -222q-1 -8 -3.5 -18.5t-7 -19.5t-11.5 -15.5t-18 -6.5t-8 12q5 23 9 47t10 47q11 44 19.5 87t17.5 88q17 81 32 162t29 163q3 18 5 36t2 36q1 8 0 15.5t-2 15.5q-1 9 -8 9q-10 0 -24.5 -13.5
t-29 -31t-27 -35t-17.5 -26.5q-20 -32 -38 -66l-36 -68q-9 -17 -18 -33l-18 -32q-11 -17 -24.5 -34t-36.5 -17q-13 0 -23.5 6.5t-12.5 18.5q-7 25 -8 47q-4 32 -4.5 65t-1.5 66q-1 9 -1 17.5t-1 16.5q0 10 -5 12q-5 -4 -8 -9.5t-5 -10.5q-22 -49 -38 -110.5t-26.5 -125
t-16.5 -126t-9 -115.5q0 -11 -3 -18.5t-18 -7.5q-7 0 -14 1.5t-7 10.5z" />
    <glyph glyph-name="uni041D" unicode="&#x41d;" horiz-adv-x="485" 
d="M-22 228q-5 14 10 18q14 4 27 6.5t27 5.5q9 3 10 10q2 6 2.5 12t1.5 12q11 89 26 177t30 177q1 0 1 2q2 7 2 14t8 10q2 0 3.5 0.5t3.5 0.5q7 0 12 -4t10 -9q3 -3 2 -7.5t-2 -8.5q-14 -88 -27 -175.5t-26 -175.5q-1 -5 -1 -9v-9q0 -8 9 -8l30 3q42 4 82.5 7.5t82.5 5.5
q11 1 16.5 3t8.5 14q5 17 9 33.5t8 33.5q20 75 41 149.5t47 149.5q3 8 11 8q4 0 8.5 -1.5t7.5 -3.5q8 -5 9.5 -8.5t-1.5 -14.5q-26 -86 -49.5 -171t-46.5 -172q-2 -10 0 -12.5t12 -3.5q3 0 6 0.5t6 0.5q13 -1 18 -5.5t7 -17.5q2 -9 -11 -11q-11 -2 -20.5 -2.5t-20.5 -2.5
q-10 -2 -11 -10q-2 -4 -2.5 -8t-1.5 -9q-10 -47 -19.5 -93.5t-19.5 -93.5q-3 -15 -9 -27t-26 -12q-11 0 -8 20q9 50 18.5 99t18.5 100q4 17 4 23t-12 6h-7t-9 -1q-43 -4 -86 -7t-86 -7q-6 0 -13 -1.5t-9 -9.5t-3.5 -16.5t-3.5 -16.5l-8 -48t-9 -48h3q-5 -29 -10 -57t-10 -57
q-3 -15 -12 -20t-23 -5q-5 1 -5 8v13.5t2 13.5q4 29 8.5 57t8.5 57q9 54 15 108q2 11 -7 11h-4q-5 -2 -10.5 -3t-10.5 -2q-10 -2 -14 -2q-8 0 -11.5 4t-7.5 13z" />
    <glyph glyph-name="uni041E" unicode="&#x41e;" horiz-adv-x="441" 
d="M36 76q-18 35 -25.5 74.5t-5.5 82.5q3 69 21.5 136.5t49.5 134.5q7 17 22 42.5t34.5 50.5t41.5 42.5t42 17.5q4 0 7.5 -1t8.5 -3q4 -2 6 -2q4 0 7 1t7 3q17 7 36 7q25 0 47.5 -9t40 -24.5t28.5 -36.5t14 -46q2 -23 0 -47t-7 -53q-9 -45 -25 -93.5t-36 -98.5
q-14 -34 -35 -77.5t-49 -81.5t-62.5 -64.5t-76.5 -26.5q-33 0 -55 22.5t-36 49.5zM73 382q-14 -49 -21.5 -97.5t-3.5 -96.5q4 -43 18 -80t42 -67q8 -9 14 -14t14 -5q13 0 39 20q23 17 45.5 47.5t43 69.5t39 82.5t33 85.5t25 80t14.5 65q9 46 5 90q-4 30 -20 53t-51 23
q-15 0 -33 -7.5t-31 -15.5q-14 -9 -22 -9q-7 0 -12 4q-2 1 -6 1q-6 0 -12 -6q-22 -20 -40.5 -47t-33.5 -57t-26.5 -60.5t-19.5 -58.5z" />
    <glyph glyph-name="uni041F" unicode="&#x41f;" horiz-adv-x="457" 
d="M-41 -2q-8 4 -5 12q1 2 3 5t4 4q19 6 28.5 20t18.5 29q17 31 31 71.5t24.5 84t18.5 86t14 76.5q8 51 13.5 101t12.5 101q1 4 1 8v9q0 10 -9 8q-9 0 -28.5 -3t-39 -8.5t-34.5 -14.5t-15 -23q0 -5 -6 -5q-8 0 -13 11t-6 17q-2 14 10 25q15 14 38.5 23t49 13.5t50.5 6
t44 1.5h10.5t10.5 -1q47 -3 93.5 -6.5t93.5 -7.5h7q3 0 6.5 0.5t6.5 2.5q7 4 13 4q5 0 8.5 -1t7.5 -2q8 -4 16.5 -5t17.5 -1q26 0 55.5 8.5t46.5 29.5q6 9 14 17q1 2 5 2q3 0 5 -2q4 -11 3 -22.5t-9 -22.5q-19 -27 -47 -38.5t-60 -11.5q-8 -1 -16.5 -1t-16.5 -1
q-10 0 -13 -10q-2 -5 -2.5 -9t-1.5 -9q-10 -55 -20 -109.5t-21 -109.5q-3 -17 -6.5 -32.5t-6.5 -32.5q-14 -71 -23.5 -141t-18.5 -142q-2 -13 -7 -18.5t-19 -5.5q-6 0 -11.5 2.5t-6.5 9.5q0 5 0.5 9t1.5 9q8 72 18 138.5t19 111.5q17 89 29 156t25 129q2 6 3 12.5t2 13.5
q5 23 2 27.5t-25 6.5q-39 4 -78.5 7t-79.5 6h-12q-11 0 -14 -5.5t-5 -22.5q-5 -36 -9 -72.5t-8 -72.5q-3 -24 -10 -66.5t-17.5 -92t-25 -101t-33 -93.5t-40.5 -68.5t-47 -26.5q-8 0 -15 3z" />
    <glyph glyph-name="uni0420" unicode="&#x420;" horiz-adv-x="330" 
d="M-15 15q-3 17 -3.5 35t1.5 36q2 38 7.5 76t11.5 76q17 104 40.5 204.5t51.5 201.5l3 12q4 11 7 16.5t10 5.5q9 0 19 -5q7 -3 8 -6.5t-1 -12.5q-32 -119 -60.5 -238.5t-43.5 -242.5q0 -2 1.5 -3t3.5 -4q12 36 23 69.5t22 66.5q8 25 22 61t32.5 75t41 77.5t48.5 69t55 49.5
t59 19q26 0 41.5 -15t16.5 -41q2 -42 -14 -87q-12 -36 -30.5 -81.5t-45 -85t-61.5 -67t-79 -27.5q-6 0 -15.5 2.5t-11.5 7.5q2 7 9 7q39 0 71.5 30t58 72.5t43 88t26.5 76.5q6 21 8.5 42.5t0.5 41.5q-1 13 -10 13q-6 0 -15 -4.5t-19 -11t-18 -13.5t-13 -11q-36 -34 -65 -81
t-52 -99.5t-41 -106t-32 -98.5q-14 -43 -27.5 -85.5t-27.5 -85.5q-5 -16 -12 -24.5t-25 -9.5q-9 0 -13.5 3t-6.5 12z" />
    <glyph glyph-name="uni0421" unicode="&#x421;" horiz-adv-x="321" 
d="M365 224q-1 -3 -20 -26.5t-43 -52t-45 -54.5t-27 -32q-12 -15 -32 -36.5t-43 -41.5t-47.5 -34t-44.5 -14q-23 0 -40.5 12t-28.5 32q-11 21 -14.5 44t-2.5 49q2 46 12 96t26 99t36.5 96t44.5 87q13 22 34.5 51.5t47 55.5t54 44.5t55.5 18.5q29 0 47 -30q6 -10 6.5 -21
t-2.5 -23q-2 -7 -8.5 -23.5t-15.5 -33.5t-18.5 -30t-18.5 -13q-7 0 -13.5 5t-9.5 11q-4 5 1 10q17 24 33 50.5t19 57.5q0 9 -8 9q-3 0 -5 -1q-37 -12 -68.5 -38.5t-58.5 -62t-49 -77t-39 -84.5t-29.5 -84t-20.5 -75q-6 -32 -10 -63t-2 -63q0 -6 2 -20t6.5 -28t11 -25
t15.5 -11q12 0 31.5 14t40 33t38.5 37.5t26 27.5q32 38 62.5 74.5t62.5 74.5q6 8 10 12q10 13 23 13q11 0 18 -9q3 -3 1 -8z" />
    <glyph glyph-name="uni0422" unicode="&#x422;" horiz-adv-x="214" 
d="M358 603q11 -4 13.5 -15.5t-5.5 -22.5q-2 -3 -5 -3.5t-6 -0.5q-4 0 -5 1q-10 3 -19.5 4t-19.5 1q-8 0 -15 -0.5t-15 -1.5q-28 -2 -55 -5.5t-55 -7.5q-5 0 -9 -1t-9 -2q-7 -2 -8 -9q-1 -4 -1.5 -8t-1.5 -9q-9 -64 -18 -127.5t-19 -126.5h-1q-8 -49 -15.5 -97t-15.5 -96
q-3 -18 -4.5 -35.5t-3.5 -34.5q-3 -23 -28 -23q-5 0 -10 3q-5 2 -5 12q2 14 3 29t3 29q14 91 28.5 180t28.5 180q4 26 7 52.5t7 52.5q1 3 1 9q0 8 -2.5 9.5t-9.5 1.5q-20 -3 -39 -4t-38 -1q-24 0 -47.5 1.5t-46.5 6.5q-13 3 -20.5 10t-8.5 21q0 13 9 13q2 0 3 -1
q46 -10 97 -10q48 0 94 6q10 2 13 5t5 12q1 5 1.5 10t1.5 10q2 12 14 10q4 -1 8 -1.5t8 -2.5q11 -5 10 -17q-1 -9 0.5 -12t6.5 -3t9 1q19 2 37 4.5t37 4.5q18 2 35.5 3t35.5 2q12 0 23 -1t22 -5z" />
    <glyph glyph-name="uni0423" unicode="&#x423;" horiz-adv-x="428" 
d="M11 284q-7 26 -9 53.5t0 56.5q2 59 10.5 118t28.5 115q5 11 14 11q5 0 11 -2.5t10 -4.5q5 -1 5 -9q-2 -5 -2.5 -10t-2.5 -10q-10 -27 -15 -54t-8 -54q-5 -37 -8 -73t-1 -72q0 -6 2.5 -25.5t7 -39.5t11.5 -36t16 -16q6 0 14.5 7t17.5 16t16.5 18t11.5 13q20 26 36.5 52.5
t33.5 52.5q24 40 48.5 79.5t49.5 78.5q6 10 17.5 27.5t25.5 35t28.5 30.5t26.5 13q11 0 21 -6q18 -8 16 -26q-2 -23 -5.5 -43.5t-8.5 -41.5q-11 -50 -24 -99t-30 -99q-9 -27 -23.5 -66t-33.5 -81.5t-42.5 -84.5t-51 -75.5t-58 -54.5t-64.5 -21q-19 0 -35 7.5t-24 25.5
q-27 65 22 128q26 32 69 32q3 0 10.5 -0.5t15.5 -2t14 -4t6 -5.5q0 -5 -6.5 -6.5t-10.5 -1.5q-6 0 -14 2q-2 0 -4 0.5t-4 0.5q-13 0 -28 -13q-14 -13 -23 -31t-12 -37t0 -36.5t13 -30.5q9 -10 16 -10t17 6q35 20 66.5 61.5t59 95.5t50.5 115t41.5 120.5t32 112.5t21.5 89
q1 5 1.5 10t1.5 10q0 4 -3 4t-5 -2q-5 -6 -9.5 -12t-9.5 -13q-32 -48 -62.5 -96t-61.5 -98q-17 -27 -35 -53.5t-38 -52.5q-19 -23 -43 -42.5t-56 -19.5q-16 0 -27 6.5t-18.5 17t-12 24t-7.5 26.5z" />
    <glyph glyph-name="uni0424" unicode="&#x424;" horiz-adv-x="382" 
d="M-124 403q-9 26 -4 57q5 35 21.5 67.5t41.5 58t57.5 41t69.5 15.5q15 0 28.5 -3t26.5 -8q7 -2 11.5 -4t7.5 -2q5 0 8.5 5t11.5 17q10 16 19.5 32t19.5 32q10 15 23 15q7 0 11 -1q14 -4 18.5 -10.5t2.5 -21.5q-5 -32 -11.5 -63t-14.5 -63q-14 -54 -25.5 -106.5
t-20.5 -106.5q-1 -2 -0.5 -4.5t0.5 -4.5q2 0 4 -1q6 15 11.5 30t11.5 30q12 30 32 71.5t47 78.5t59.5 63t70.5 26q27 0 48.5 -15.5t23.5 -43.5q3 -28 -4 -55q-6 -23 -19.5 -56t-32.5 -63t-43.5 -51t-53.5 -21q-18 0 -37 11.5t-26 28.5q-4 10 1.5 18.5t16.5 10.5h4
q5 0 8.5 -1t7.5 -2q10 -3 5 -13q-5 -11 0 -17t11 -11q3 -3 6 -3t7 2q21 12 39 36t32 52.5t23.5 57.5t13.5 51q2 13 2.5 25t-3.5 23q-4 14 -16 14q-7 0 -11 -2q-32 -10 -60.5 -38.5t-53 -68t-45 -86t-36.5 -92t-28 -87t-19 -70.5q-11 -44 -21 -87.5t-21 -87.5q-2 -9 -5 -19
t-8 -18t-12.5 -13.5t-18.5 -5.5q-4 0 -8 2q-8 2 -6 11q1 12 1.5 24.5t2.5 24.5q13 87 24.5 172.5t30.5 172.5q14 63 27.5 125.5t28.5 125.5l3 15l-1 2q-5 0 -5 -1q-8 -9 -12 -18.5t-1 -20.5q2 -7 -0.5 -9.5t-10.5 -4.5q-12 -3 -20 -14q-10 -15 -19.5 -30t-20.5 -30
q-13 -19 -30.5 -42.5t-38.5 -43t-45 -33t-50 -13.5q-23 0 -39 10t-24 32zM-88 439q0 -5 1 -15t3.5 -19.5t7 -17t12.5 -7.5q9 0 20 6.5t21.5 15t20 18t14.5 15.5q32 36 57.5 75.5t51.5 79.5q8 13 -3 20q-18 12 -40 12q-15 0 -32 -6q-57 -19 -94 -68t-40 -109z" />
    <glyph glyph-name="uni0425" unicode="&#x425;" horiz-adv-x="383" 
d="M406 651q-5 -8 -10.5 -15.5t-10.5 -15.5q-49 -69 -93 -139.5t-86 -142.5q-6 -11 -12 -21.5t-13 -21.5q-8 -12 -5 -25q18 -59 43 -112.5t60 -101.5q13 -17 28.5 -30.5t32.5 -25.5q8 -5 16 -5.5t17 -1.5q-2 -12 -15.5 -19.5t-25.5 -7.5q-8 0 -14 3t-12 8q-57 40 -92 98.5
t-60 122.5q-2 6 -4 12.5t-7 11.5q-8 -2 -10.5 -7t-5.5 -10q-30 -50 -60 -98.5t-60 -97.5q-2 -4 -4.5 -8t-5.5 -8q-3 -5 -6.5 -9t-9.5 -4q-17 0 -24 11q-2 3 1 8q3 6 6 11.5t6 10.5l129 216q5 7 8.5 13.5t8.5 12.5q12 19 6 36q-28 98 -43.5 198.5t-32.5 202.5l2 6q4 2 11 2
q8 0 17.5 -4t11.5 -12q1 -5 1.5 -9.5t1.5 -9.5q11 -62 22 -123l22 -122l8 -36t8 -35q2 -10 7 -14q8 5 11.5 11.5t7.5 13.5q23 38 45.5 75t46.5 75t49.5 74.5t50.5 74.5q8 12 16 12q5 0 10.5 -3.5t9.5 -7.5q5 -4 5.5 -7.5t-4.5 -9.5z" />
    <glyph glyph-name="uni0426" unicode="&#x426;" horiz-adv-x="620" 
d="M-3 79q-4 28 -5 56.5t1 57.5q5 107 27.5 208t51.5 203q1 2 1 4.5t2 4.5q3 10 14 10q10 -2 16 -4q12 -4 9 -18q-16 -53 -29.5 -106t-24.5 -107q-15 -74 -22 -147t1 -145q0 -5 2 -17.5t6 -25t9.5 -22.5t13.5 -10q3 0 6 3q38 31 68 68.5t56 79.5l165 264q19 29 37.5 58
t39.5 58q8 11 16 21t18 20q18 19 39 19q14 0 24 -8t13 -24q2 -11 2.5 -22.5t0.5 -22.5q-1 -18 -2.5 -36.5t-4.5 -36.5q-5 -40 -9 -78.5t-12 -74.5q-8 -41 -14 -77.5t-13 -73.5q-4 -20 -9 -39.5t-10 -39.5q-5 -17 9 -22q23 -9 36 -26t20 -40q4 -13 7 -25.5t6 -25.5
q3 -10 -8 -15q-5 -2 -11 -4.5t-11 -2.5q-9 0 -12 10q-3 11 -6 22.5t-7 23.5q-1 4 -4.5 13t-8.5 18.5t-10.5 16.5t-10.5 7t-12 -14q-9 -20 -22 -41t-29.5 -38t-37 -28.5t-44.5 -11.5t-38 16t-4 48q14 46 52.5 73.5t85.5 31.5q10 2 13.5 5t5.5 12l4 16l4 16q23 103 38.5 207.5
t28.5 210.5q1 10 1.5 20t-3.5 19q-14 -3 -19.5 -13t-12.5 -19q-17 -24 -33 -48t-32 -49l-162 -255q-12 -20 -34 -52t-48.5 -62t-55.5 -51.5t-56 -21.5q-17 0 -28 7t-18.5 18.5t-11 25.5t-5.5 28zM325 -42q-5 -20 6 -33q6 -7 12 -7t13 6q28 24 44 54t27 62q2 7 -6 7
q-17 0 -33 -8t-29 -20.5t-22 -28.5t-12 -32z" />
    <glyph glyph-name="uni0427" unicode="&#x427;" horiz-adv-x="491" 
d="M36 279q-14 29 -19 60.5t-3 65.5l3.5 35t7.5 56.5t11 65.5t13.5 62.5t16 47t16.5 18.5q5 0 8.5 -1.5t7.5 -3.5q7 -3 9 -6t0 -11q-2 -10 -4 -15q-8 -25 -15.5 -55t-13.5 -61.5t-10.5 -62t-7.5 -57.5q-4 -33 -0.5 -64.5t16.5 -60.5q9 -22 16 -22q6 0 16.5 7.5t21 18t19 21
t12.5 15.5q15 21 29.5 42.5t28.5 43.5l105 165q11 17 23.5 33t24.5 33q10 14 23.5 25t30.5 11q9 0 17 -3t13 -10q5 -6 3 -16q-1 -22 -6 -47q-11 -63 -25.5 -125.5t-28.5 -125.5q-20 -94 -37.5 -187.5t-31.5 -187.5q-2 -11 -2 -21.5t-2 -21.5q-2 -12 -10.5 -19.5t-19.5 -7.5
q-5 0 -9.5 2t-4.5 7q0 6 0.5 12t1.5 11q9 60 16.5 120t21.5 120q6 24 9.5 48.5t8.5 48.5q11 57 24 112.5t26 112.5q6 28 11.5 55.5t11.5 55.5q0 2 0.5 4.5t0.5 4.5q0 5 -4 5q-2 0 -5.5 -4t-7.5 -9t-7.5 -9.5t-4.5 -6.5q-20 -30 -40 -60.5t-40 -60.5q-20 -32 -40.5 -63.5
t-41.5 -63.5q-10 -16 -24.5 -34.5t-31.5 -34.5t-36 -27t-39 -11q-17 0 -30.5 7.5t-21.5 23.5z" />
    <glyph glyph-name="uni0428" unicode="&#x428;" horiz-adv-x="803" 
d="M280 274l-42 -80t-45 -78q-10 -15 -22.5 -33.5t-27.5 -34.5t-32.5 -26.5t-37.5 -10.5q-16 0 -27.5 8t-19 20.5t-11.5 27.5t-6 28q-5 30 -6.5 60.5t-0.5 62.5q2 80 15 159.5t31 160.5q5 21 11.5 41.5t12.5 40.5q2 8 7.5 18t15.5 10q5 0 10 -1.5t10 -3.5q6 -3 7 -6.5
t-4 -11.5q-12 -25 -22 -60t-18 -73t-13.5 -74.5t-8.5 -63.5q-8 -53 -11 -105t1 -103q0 -6 2.5 -24t6.5 -37t10.5 -34t14.5 -15q11 0 27.5 20t33 46t30.5 50.5t19 34.5q20 38 40 77l40 78q23 45 49.5 90.5t60.5 84.5q11 11 22 11q3 0 5.5 -0.5t5.5 -1.5q4 -2 7.5 -3.5
t7.5 -3.5q11 -6 9 -18q-1 -8 -1.5 -15t-2.5 -15q-9 -57 -19 -112.5t-16 -112.5q-5 -42 -7 -82.5t1 -81.5q1 -10 2.5 -18.5t3.5 -17.5q0 -4 4 -4q2 0 5 3q7 11 13 21q55 90 104.5 180.5t98.5 181.5q24 45 48.5 89.5t49.5 89.5q3 6 6.5 12t7.5 12q9 15 19 15q6 0 12 -3
q19 -9 13 -30q-40 -162 -68 -321t-50 -325q-4 -24 -31 -24q-10 0 -9 15q0 7 0.5 13.5t1.5 12.5q13 115 31 229.5t43 229.5q2 9 4.5 17.5t0.5 17.5q0 1 -2 1q-5 -2 -7.5 -6.5t-4.5 -9.5q-18 -32 -35.5 -64.5t-34.5 -64.5q-37 -69 -76 -137t-81 -134q-12 -21 -28.5 -39.5
t-43.5 -18.5q-26 0 -32 24q-6 22 -8 45.5t-1 46.5q1 78 11.5 153t24.5 151q1 5 1.5 10t1.5 10q0 6 -2 7q-1 1 -2 1q-2 0 -3 -1.5t-2 -2.5q-4 -5 -7 -10.5t-7 -10.5q-23 -38 -43.5 -76.5t-40.5 -77.5zM201 -69q51 9 101 18.5t101 17.5q27 5 54 7.5t53 2.5q18 0 36.5 -1.5
t35.5 -9.5q14 -7 20.5 -21t1.5 -31q-2 -5 -6 -12t-10 -7q-8 0 -10 8t-2 14q1 8 -3 10.5t-9 4.5q-8 3 -17 3.5t-17 1.5q-65 0 -124 -10q-51 -8 -101 -17.5t-101 -17.5q-23 -4 -45 -6.5t-45 -2.5q-7 0 -15.5 1t-16.5 5q-16 8 -23.5 22.5t-3.5 31.5q0 3 1.5 6t5.5 3
q5 0 8.5 -3.5t4.5 -8.5q2 -14 11 -16.5t20 -2.5q23 0 47 3t48 7z" />
    <glyph glyph-name="uni0429" unicode="&#x429;" horiz-adv-x="753" 
d="M361 21q2 -7 3 -13t3 -12q4 -13 9 -13t14 11q21 25 40.5 57t37 66.5t32.5 69.5t27 65q19 46 36.5 92.5t36.5 92.5q13 32 26.5 62.5t27.5 62.5q4 9 7.5 18.5t7.5 18.5q2 7 9 7q13 0 20.5 -6.5t6.5 -18.5q-10 -115 -28 -228.5t-40 -227.5q-5 -25 -11.5 -49.5t-14.5 -49.5
q-3 -10 -2.5 -12.5t10.5 -6.5q20 -10 33 -31q5 -8 9.5 -16t9.5 -16q5 -10 -8 -13q-3 -1 -10 -1q-17 0 -24 13q-5 8 -9.5 15t-9.5 15q-2 3 -4.5 6t-7.5 3q-6 -6 -8.5 -13t-6.5 -14q-6 -12 -13.5 -24.5t-17.5 -22t-22 -15.5t-28 -6q-34 0 -42 28q-9 28 15 55q26 29 61 38
q12 3 18 5t9 5t5 9l6 18q10 32 17.5 64t13.5 64q11 59 20 117t19 117q1 5 1.5 10t-4.5 10q-5 -8 -8 -15t-6 -15q-32 -85 -66 -167t-78 -161q-10 -16 -22.5 -35.5t-28 -36.5t-34 -28.5t-39.5 -11.5q-26 0 -35 28q-6 19 -8 39.5t-3 40.5q-3 76 9 151q21 140 51 275l3 15
q0 4 -2 4q-1 1 -2 1q-4 0 -14.5 -17t-24.5 -42.5t-30 -57t-30 -60t-25 -50.5l-15 -30q-18 -40 -37.5 -79t-41.5 -77q-7 -13 -17 -29.5t-23 -31t-27.5 -24.5t-31.5 -10q-18 0 -28 12t-15 28.5t-6 34.5t-1 30q0 111 16.5 213t45.5 209q6 25 18 49q4 10 14 10q5 0 10 -1.5
t9 -3.5q10 -5 6 -16q-30 -81 -46 -162.5t-24 -164.5q-3 -35 -5 -70.5t0 -70.5q0 -4 0.5 -14.5t2.5 -21.5t5 -20t8 -9t15 13t21.5 32.5t24 42.5t23 44.5t18.5 37.5t10 21q26 57 53 113.5t57 112.5q13 23 26 45t29 43q12 17 22 27q8 8 20 8q6 0 8 -1q17 -4 23.5 -12t5.5 -27
q0 -14 -3 -29q-8 -38 -15 -75l-14 -74q-12 -60 -21.5 -120t-11.5 -120q-1 -25 0 -49t5 -47zM500 -70q0 -4 1.5 -10t6.5 -6t11.5 8.5t12.5 20t11 22.5t6 16q1 2 -0.5 3.5t-4.5 0.5q-16 -5 -30 -22.5t-14 -32.5z" />
    <glyph glyph-name="uni042A" unicode="&#x42a;" horiz-adv-x="342" 
d="M-19 683l-2 8t4 8q2 1 4 1t4 -2t4 -3q12 -5 24 -7.5t25 -2.5h9.5t9.5 1q18 3 36.5 6.5t37.5 6.5q5 1 9 1.5t9 2.5q2 0 4.5 0.5t4.5 0.5q9 0 15 -5.5t11 -11.5q3 -3 1 -11q-2 -5 -4 -11l-4 -12q-50 -111 -84.5 -227.5t-42.5 -237.5q-2 -27 -2 -53.5t3 -52.5
q1 -7 3.5 -19.5t7 -24.5t11.5 -20.5t16 -8.5q6 0 18 9q22 17 39 40.5t29.5 49.5t21.5 54t15 55q2 14 3.5 27.5t-1.5 27.5q-1 5 -2 9t-3 9q-4 7 -10 7t-9 -2q-12 -6 -19 -16t-11.5 -21.5t-6.5 -23.5t-3 -24q-1 -5 1 -7.5t4 -5.5q3 -6 0 -10t-11 -5q-34 0 -34 31q0 17 4 35.5
t12.5 34.5t22.5 26.5t34 10.5q32 0 51.5 -19.5t20.5 -51.5q0 -31 -12 -75.5t-33.5 -85t-50.5 -69.5t-62 -29q-30 0 -52.5 17.5t-29.5 46.5q-6 23 -8 47t-1 49q2 67 13 131t28 126.5t39 124t47 122.5q-8 2 -12 2q-5 0 -10 -1l-10 -2q-23 -4 -49 -4q-10 0 -22.5 1t-23.5 4.5
t-19.5 10t-11.5 18.5z" />
    <glyph glyph-name="uni042B" unicode="&#x42b;" horiz-adv-x="611" 
d="M4 125q-5 36 -2.5 72.5t7.5 74.5q13 88 40.5 173t69.5 170q2 3 6 11q5 8 8.5 11.5t9.5 3.5q4 0 11 -3q11 -5 13.5 -9t-5.5 -19q-26 -54 -49 -108t-37 -111q-14 -58 -24 -115.5t-8 -114.5q0 -7 3.5 -31.5t9.5 -51t14.5 -47t19.5 -20.5q9 0 25 16q23 21 41.5 50t33 60.5
t23 65t9.5 63.5q0 5 -0.5 14.5t-2.5 20t-6 18t-11 7.5q-2 0 -8 -2q-18 -9 -34 -20.5t-32 -23.5q-9 -8 -22 -8q-8 0 -12 2q-19 6 -1 23q16 14 32 26q104 81 215.5 147t229.5 126q11 6 21 6q5 0 15 -4q7 -4 9 -8.5t-2 -12.5q-5 -14 -10.5 -28.5t-11.5 -28.5
q-37 -88 -63 -182.5t-41 -188.5q-10 -57 -9 -114q0 -6 1.5 -20t5 -27.5t10 -24t15.5 -10.5q1 0 7 2q5 2 10.5 3t11.5 1q13 0 11 -7q-3 -12 -17 -17q-13 -7 -23 -6q-23 1 -40.5 9t-24.5 31q-4 13 -7 25.5t-3 26.5q-1 21 -0.5 42t3.5 42q15 106 41.5 209.5t67.5 206.5
q2 5 5 11t2 14q-16 -6 -43 -20t-60 -32t-68 -39t-67 -41t-57.5 -37.5t-39.5 -28.5q0 -6 3.5 -7t7.5 -3q14 -7 21 -18.5t10 -26.5q5 -23 2.5 -47t-9.5 -48q-7 -26 -22 -61.5t-37 -67.5t-49.5 -54.5t-59.5 -22.5q-5 0 -9.5 0.5t-9.5 1.5q-18 3 -29.5 18.5t-18.5 36t-10.5 41.5
t-5.5 35z" />
    <glyph glyph-name="uni042C" unicode="&#x42c;" horiz-adv-x="342" 
d="M23 57q-18 40 -25.5 82.5t-6.5 89.5t9.5 99.5t22 105t30.5 103t36 92.5q2 6 6.5 14t12.5 8q10 0 18 -6q7 -3 8 -6.5t-2 -11.5q-28 -75 -53.5 -150t-36.5 -154q-8 -54 -9 -106t13 -102q2 -7 7.5 -23t13 -32t17 -28.5t18.5 -12.5t32 17q19 15 34 36.5t26 46t18 50t10 48.5
q2 16 0 30.5t-9 27.5q-12 21 -27 21q-9 0 -18.5 -7.5t-18 -18t-15.5 -22t-11 -18.5q-2 -5 -4 -9.5t0 -9.5q1 -8 -9 -10q-3 -1 -8 -1q-11 0 -21 8q-7 5 -4 12q2 10 6 17q8 14 16.5 28t19 25t24.5 18t32 7q4 0 8.5 -0.5t9.5 -0.5q73 -12 71 -83q-1 -33 -13 -73.5t-33.5 -75.5
t-52 -58.5t-69.5 -23.5q-29 0 -45.5 17t-27.5 40z" />
    <glyph glyph-name="uni042D" unicode="&#x42d;" horiz-adv-x="504" 
d="M18 -11q-45 28 -35 81q3 15 5.5 30.5t9.5 30.5q9 21 24 21q6 0 12 -2t10 -7q5 -3 1 -10q-17 -24 -20.5 -49t-3.5 -51q0 -23 13.5 -32t34.5 -9q28 0 58 16q38 20 71.5 49.5t62.5 65t53 73.5t43 75l3 9q2 6 -3 9q-3 2 -19 5.5t-36 7.5l-37.5 7.5t-23.5 4.5q-5 1 -10.5 1
h-10.5q-13 0 -22 -1t-21 -7q-14 -7 -11 -21q2 -6 2 -8q0 -3 -3.5 -5.5t-5.5 -1.5q-12 4 -20.5 15.5t-6.5 24.5q2 12 9.5 19.5t17.5 12t21.5 6t21.5 1.5q18 0 36 -3q29 -6 58.5 -11.5t58.5 -11.5q6 -2 11 -2q8 0 12 2t6 10q14 31 23 65t14 66q7 48 -2 94q-6 26 -17.5 42.5
t-28 26t-37 13t-44.5 3.5q-51 0 -98.5 -18.5t-92.5 -57.5q-11 -9 -19.5 -19t-13.5 -23q-1 -5 -7 -5t-11 3.5t-9 8.5q-8 11 1 27q17 27 44.5 48.5t60 37t67.5 23.5t65 8q44 0 81 -17t62 -55q22 -35 28 -74t1 -83q-1 -8 -2.5 -15t-2.5 -14q-7 -36 -18 -73q-1 -4 -2 -7.5
t-2 -7.5q0 -8 7 -6l36 9q4 2 9 2q8 0 12 -8q2 -4 3 -7.5t3 -7.5q3 -8 -7 -12q-12 -5 -24.5 -9t-25.5 -5q-14 0 -20.5 -1t-10.5 -4.5t-6.5 -10t-8.5 -18.5q-19 -39 -51 -88t-72 -92.5t-86 -73t-94 -29.5q-37 0 -70 19z" />
    <glyph glyph-name="uni042E" unicode="&#x42e;" horiz-adv-x="624" 
d="M-37 -1q-10 3 -9 13q1 3 1 9q13 65 21 129.5t17 130.5q13 91 29.5 180t35.5 179q6 24 20 24q6 0 15 -3q7 -3 8.5 -6.5t-0.5 -11.5q-26 -124 -46.5 -246.5t-36.5 -247.5q0 -4 -0.5 -7t-0.5 -7q0 -2 2 -2h5q8 8 11 12q34 41 69 80l70 78q52 57 103 114.5t103 115.5
q10 11 18.5 23.5t18.5 24.5q12 15 26 15q16 0 22 -19q1 -6 6 -4q3 2 11 6q14 10 31 10q26 0 48 -18t28 -43q4 -17 4.5 -34t-0.5 -34q-1 -35 -7.5 -70t-17.5 -70q-7 -23 -18.5 -57.5t-27 -72t-34.5 -75t-41 -68t-46.5 -49t-51.5 -18.5q-18 0 -32.5 8t-25.5 20.5t-18 28
t-10 31.5q-5 21 -4.5 43t2.5 45q7 56 18 111t31 111q2 8 3 11q0 4 -1 7q-6 -2 -9 -5t-5 -6q-48 -53 -95.5 -105t-95.5 -105q-11 -13 -28.5 -33t-34.5 -42.5t-30 -45t-15 -39.5q-1 -10 -8.5 -13.5t-15.5 -3.5t-12 1zM310 203q-4 -26 -6.5 -51t-0.5 -51q1 -22 6.5 -41
t19.5 -36q4 -5 13 -14t16 -9t16.5 8.5t18.5 20t16.5 23t10.5 17.5q22 40 43.5 86t39.5 95t31 98.5t18 95.5q2 19 2 37.5t-2 36.5q0 5 -1.5 12.5t-4.5 15.5t-7.5 13.5t-10.5 5.5q-2 0 -8 -2q-16 -8 -28.5 -21.5t-19.5 -29t-8 -32.5t5 -31q2 -5 4 -8t7 -3q2 0 8 2q5 1 14 1
q12 0 22 -7q5 -4 -1 -10q-13 -8 -30 -8q-23 0 -42.5 13t-24.5 33q-7 29 7 62q-2 1 -4 1q-4 0 -6 -3.5t-4 -5.5q-45 -69 -71.5 -151t-37.5 -163z" />
    <glyph glyph-name="uni042F" unicode="&#x42f;" horiz-adv-x="505" 
d="M-9 69q-17 57 -2 116q4 20 23 20q4 0 8 -0.5t9 -1.5q3 -1 5 -3t0 -7q-10 -27 -9.5 -52.5t4.5 -51.5q1 -4 3 -11.5t5.5 -15t8 -13t10.5 -5.5t13 7q36 29 67.5 75.5t57.5 99t46.5 106.5t35.5 97q2 4 -0.5 6.5t-7.5 1.5q-9 -2 -17.5 -3.5t-17.5 -3.5q-11 -2 -21 -3t-20 -1
q-21 0 -43 5t-40 16t-29.5 28.5t-12.5 41.5q-1 26 8.5 52.5t27 49.5t40.5 40.5t49 26.5q21 7 43 7q41 0 71 -23t38 -55q2 -13 3.5 -25t0.5 -26q-2 -10 -3 -19t-2 -19q0 -8 -4 -17.5t4 -14.5q2 -2 5 -2q2 0 15 4.5t29 10.5t29.5 11.5t16.5 6.5q8 4 18 4q11 0 18 -5
q11 -6 14 -11.5t-5 -20.5q-39 -85 -70 -184t-48 -191q-5 -27 -8 -54t-2 -54q0 -6 2 -21t6.5 -30.5t11 -27t16.5 -11.5q2 0 6 2q14 9 29 9q8 0 9 -4q0 -8 -5.5 -14.5t-13.5 -11.5t-16.5 -7.5t-15.5 -2.5q-17 0 -32 10t-23 25q-11 21 -15 44.5t-3 48.5q2 51 13.5 110t28 118.5
t36.5 116.5t39 104q2 5 4 10.5t3 14.5q-26 -10 -50.5 -18.5t-48.5 -16.5q-9 -4 -12 -14q-10 -29 -25.5 -71t-35.5 -88.5t-44.5 -93t-51.5 -83.5t-57 -60t-61 -23q-46 0 -58 45zM106 522q-3 -41 13 -57t50 -16q29 0 55.5 6t53.5 14q12 3 16 17q2 11 4 21t4 17q5 28 7.5 51.5
t-2.5 46.5q-12 49 -51 49q-27 0 -53 -14t-47 -35.5t-34.5 -48t-15.5 -51.5z" />
    <glyph glyph-name="uni0430" unicode="&#x430;" horiz-adv-x="545" 
d="M118 129q-8 -8 -18.5 -18t-22.5 -18.5t-25 -14.5t-25 -6q-19 0 -30 11t-10 31q0 29 13 61q12 33 33 70.5t49.5 68.5t63 51.5t74.5 20.5q32 0 56 -15q9 -6 12 -6t6.5 3t9.5 8l24 26t26 24q17 14 27 14q5 0 9.5 -2t10.5 -5q18 -11 11 -31q-5 -17 -10 -33.5t-10 -33.5
q-11 -34 -21.5 -67.5t-21.5 -68.5q-13 -43 -23 -85.5t-15 -86.5q-5 -43 -2 -81q0 -6 1 -12t3 -13q2 -10 8 -8q6 1 16 11t21 22.5t20 24t13 16.5q29 41 58.5 81t59.5 80q11 17 23 32.5t24 31.5q11 14 25 14q11 0 20 -9q3 -3 0 -8l-2 -4t-3 -4q-42 -55 -81 -111t-83 -110
q-10 -12 -19 -24t-20 -23q-15 -16 -34.5 -31.5t-43.5 -14.5q-37 0 -44 33q-4 17 -5 34.5t0 35.5q5 82 27 161t48 156q5 15 9 29.5t9 28.5q2 6 -3 7q-3 0 -5 -3q-12 -10 -22 -22q-53 -56 -105 -110t-106 -108zM27 113q0 -8 5 -8q6 0 24 15t41.5 38.5t50 51t50 52.5t40.5 44
t22 25q6 6 4 14q-4 18 -23 18q-40 0 -74.5 -24t-62 -59.5t-46.5 -76t-28 -73.5q-2 -8 -2 -12q-1 -1 -1 -5z" />
    <glyph glyph-name="uni0431" unicode="&#x431;" horiz-adv-x="302" 
d="M-53 -47q-9 26 -8.5 54t8.5 57q7 27 22.5 65t38.5 72t52.5 58t62.5 24q21 0 37 -9q1 0 1.5 -0.5t2.5 -0.5q5 0 7 7l3 12q8 48 10.5 95.5t-0.5 95.5t-9.5 95.5t-17.5 93.5q-2 8 -3.5 15t-1.5 15q0 20 22 26q5 2 9 2h8q11 0 21 -0.5t20 -1.5q21 -3 41 -3q48 0 94 12t92 35
q12 6 28.5 15t33 19.5t30.5 22t20 22.5q11 0 18 -9q10 -9 9 -16t-13 -18q-2 -2 -4.5 -4t-4.5 -4q-61 -45 -131 -73t-147 -28q-17 0 -32.5 1t-32.5 3q-5 1 -9.5 1h-9.5q-21 0 -24.5 -10t4.5 -36q23 -92 28 -195q8 -144 -31 -287q-8 -30 -24.5 -75t-40.5 -86.5t-55 -71.5
t-67 -30q-20 0 -35 10t-22 30zM-20 -1q-1 -25 8 -50q6 -15 13 -15t17 9q29 21 51.5 54.5t40 71t29.5 77t21 72.5q2 8 3 13.5t1 10.5q2 5 -1 8q-2 4 -12 6.5t-18 2.5q-7 0 -9 -1q-32 -14 -58 -44.5t-44.5 -67.5t-29.5 -76t-12 -71z" />
    <glyph glyph-name="uni0432" unicode="&#x432;" horiz-adv-x="447" 
d="M262 40q-6 -27 -16.5 -54t-25.5 -52t-34 -47t-42 -37q-15 -9 -30 -9q-5 0 -13 2q-32 9 -23 43q5 20 21.5 45t37 49.5t41.5 46.5t36 35q15 15 18 35q5 29 2 52l-2.5 10t-3.5 12t-5.5 10t-8.5 4q-3 0 -11 -2q-33 -12 -60.5 -41t-49 -65.5t-36.5 -75t-23 -69.5l-4 -18
t-5 -17q-4 -15 -22 -15q-22 0 -23 27q-2 51 1 102t13 104q15 85 45 178.5t69.5 186t86.5 177t98 151.5q13 17 34.5 43t47 51t52.5 42.5t50 17.5q28 0 47 -29q14 -20 11 -50q-3 -27 -11 -52.5t-21 -51.5q-21 -42 -44.5 -82.5t-49.5 -80.5q-13 -19 -37 -53.5t-55 -76
t-65.5 -86t-67.5 -83t-62 -68t-49 -41.5q-11 -7 -17 -16t-9 -20q-5 -27 -10 -54.5t-8 -54.5q-2 -5 2 -7q3 -1 7 5q12 21 29 46t38 47t45 37t50 15t47 -14.5t25 -37.5q1 -8 1.5 -14.5t2.5 -13.5q0 -5 5 -5q1 0 1.5 0.5t2.5 0.5l12 8t11 8q32 23 65.5 42.5t68.5 36.5
q2 2 5 2.5t6 2.5q11 6 20 6q14 0 27 -13q4 -6 -3 -10q-112 -51 -208 -126q-11 -8 -18 -17t-9 -22zM493 931q-19 0 -43 -16t-49.5 -41.5t-50.5 -57t-47 -62.5t-39 -58.5t-26 -43.5q-47 -82 -83 -166t-65 -172q-4 -12 -8.5 -24.5t-6.5 -29.5q11 7 18 14t13 14q29 32 69.5 81
t84.5 107t88 120.5t79 121.5t56.5 111t21.5 87q0 15 -12 15zM197 -12q-5 0 -17 -14t-25 -32t-23 -36t-12 -25q0 -2 1 -2q4 -2 5 -1q23 16 42.5 47t29.5 56q2 6 -1 7z" />
    <glyph glyph-name="uni0433" unicode="&#x433;" horiz-adv-x="404" 
d="M39 211q-12 5 -14 12t6 20q14 27 45 64t68 70.5t75.5 57.5t67.5 24q20 0 37 -13q17 -12 14 -36q-2 -10 -4.5 -19t-5.5 -19q-11 -27 -23.5 -53.5t-25.5 -53.5q-11 -24 -26 -55t-28.5 -64.5t-24 -66.5t-13.5 -59q0 -9 6 -9q1 0 5 2q61 45 117 104t105 116q7 8 17 8
q5 0 8 -1q2 -1 3.5 -1.5t3.5 -1.5q10 -4 10.5 -8.5t-7.5 -12.5q-42 -46 -83 -90.5t-87 -86.5q-25 -22 -50 -41q-10 -8 -22.5 -13.5t-26.5 -5.5q-19 0 -30 12.5t-9 32.5q5 41 18.5 80.5t30.5 75.5q18 41 37 80.5t37 79.5q8 17 15.5 34t11.5 34q7 25 -3 25q-13 0 -34 -12
t-45.5 -31.5t-49.5 -44t-46 -48.5t-36.5 -45.5t-19.5 -34.5q-3 -9 -12 -9q-6 0 -12 3z" />
    <glyph glyph-name="uni0434" unicode="&#x434;" horiz-adv-x="448" 
d="M-51 -323q-1 19 5 41q13 42 42 87.5t65 89t74.5 82t69.5 66.5q12 9 20 18t13 23q23 63 45 126t44 127q5 11 4 20h-3q-6 0 -10 -4t-9 -8q-29 -25 -57.5 -50t-57.5 -51q-23 -20 -45.5 -40t-46.5 -38q-9 -7 -18.5 -13t-18.5 -12q-13 -7 -26 -7q-6 0 -9 1q-34 5 -27 39
q8 35 33 75t59.5 74.5t74 57.5t77.5 23q22 0 41 -10q5 -3 10 -3q9 0 16 5q16 8 27 8q16 0 25 -11t7 -31q-2 -17 -7.5 -34.5t-10.5 -34.5q-12 -37 -25 -73t-25 -72q-2 -5 -4.5 -10.5t-0.5 -11.5q8 0 13.5 4.5t10.5 8.5q60 44 122 80q8 4 11 7q13 8 22 8t21 -10q2 -2 4 -3.5
t1 -5.5q-4 -6 -10.5 -8.5t-12.5 -6.5q-51 -29 -98.5 -63t-94.5 -71q-11 -8 -18.5 -18.5t-12.5 -23.5q-14 -38 -29.5 -74.5t-32.5 -72.5q-12 -24 -34.5 -63.5t-51 -77t-60.5 -64.5t-62 -27q-16 0 -27 7.5t-12 24.5zM-5 -297q-2 -8 -4.5 -17t5.5 -12h3q6 0 12 5.5t11 10.5
q30 27 55 60.5t46 70.5t38 75t32 75q0 2 -0.5 2.5t-0.5 2.5q-6 0 -9.5 -4t-7.5 -9q-21 -21 -50 -53t-56.5 -68t-48.5 -72.5t-25 -66.5zM53 193q-2 -5 -4 -9t1 -8q1 0 1 -0.5t1 -0.5q2 0 8 4t13 9.5t12.5 10.5t7.5 6q45 39 88.5 78t87.5 78l3.5 3.5l3.5 3.5q2 3 1 7t-4 5h-13
t-13 -2q-69 -21 -116.5 -71.5t-77.5 -113.5z" />
    <glyph glyph-name="uni0435" unicode="&#x435;" horiz-adv-x="285" 
d="M7 104q-6 42 5 94q5 6 3.5 13.5t2.5 15.5l30 58t35 56q11 14 25.5 29.5t31 29.5t35 23t36.5 9q14 0 24.5 -6t17.5 -15.5t8.5 -22.5t-4.5 -27q-11 -27 -31.5 -51t-46 -43.5t-53.5 -34.5t-54 -23q-11 -3 -16 -9t-7 -16q-11 -47 -5 -89q4 -35 26 -35q17 0 38 10t41.5 24.5
t38.5 30.5t30 27q18 17 35.5 34.5t35.5 34.5q15 14 25 14q5 0 9 -2t10 -6q9 -7 0 -16q-46 -46 -94 -91q-15 -13 -32.5 -28t-37.5 -27t-40.5 -20t-41.5 -8q-31 0 -53 17.5t-27 49.5zM78 259q-1 -2 -1.5 -5t1.5 -6q1 0 2 -0.5t3 0.5q19 9 41 24t42 33t36 38.5t22 41.5q2 5 3 9
t-2 8q-2 2 -5 2q-2 0 -5.5 -1.5t-5.5 -2.5q-20 -7 -39.5 -23.5t-37 -36.5t-31.5 -41.5t-23 -39.5z" />
    <glyph glyph-name="uni0436" unicode="&#x436;" horiz-adv-x="858" 
d="M315 252q-14 -12 -21 -31q-17 -45 -40 -87t-54 -81q-7 -10 -19.5 -24.5t-27.5 -28t-30 -23t-29 -9.5q-13 0 -26 8q-20 13 -13 40q8 24 32 56t52.5 63.5t57.5 59.5t48 44q11 11 18.5 22t11.5 25q9 29 16.5 58t8.5 58q0 28 -11 28q-5 0 -11 -2.5t-15 -7.5q-30 -16 -58 -41
t-54 -54t-49 -59.5t-43 -57.5q-9 -12 -18 -12q-11 0 -22 9q-6 4 -1 12q13 19 31.5 43.5t40 51t45.5 52t48 46t48 33t45 12.5q24 0 40.5 -15t18.5 -42q1 -13 -0.5 -25t-3.5 -25q-2 -6 -2.5 -12.5t-1.5 -13.5q0 -4 3 -4q2 0 3 1q4 2 7.5 5t7.5 6q22 17 43 33.5t42 33.5
q16 11 23 11q9 0 19 -9q12 -12 4 -28q-23 -42 -37.5 -86t-27.5 -89q-1 -2 -0.5 -4t2.5 -2q5 0 8 5q4 5 8 11l8 12q24 34 55.5 75.5t66 82.5t70.5 78t69 62q6 5 12 9t13 4q6 0 10 -4q26 -17 14 -43q-3 -7 -6.5 -13.5t-7.5 -14.5q-24 -46 -48.5 -91.5t-45.5 -93.5
q-16 -37 -29 -73t-23 -74q-7 -25 -9 -49.5t0 -49.5q1 -5 1.5 -9.5t2.5 -9.5q2 -8 9 -8q9 0 24.5 10t32.5 23t32 26t22 19q38 35 75.5 71t75.5 72q20 20 28 20t23 -20q0 -3 -11.5 -15.5t-28.5 -29t-37.5 -35.5t-39 -36.5t-33 -30.5t-19.5 -17q-20 -17 -39.5 -32.5
t-41.5 -29.5q-12 -8 -24.5 -13t-26.5 -5q-26 0 -42.5 12.5t-19.5 37.5q-7 53 8 110q18 71 47.5 137.5t64.5 131.5q5 10 10.5 19.5t12.5 23.5q-12 -4 -31.5 -23t-43.5 -47t-49.5 -60.5t-49.5 -64.5t-44 -60t-32 -45q-5 -7 -11 -13.5t-11 -13.5q-11 -14 -25 -14q-5 0 -7 1
q-10 3 -17 9t-7 18q1 8 2 17t3 18q10 37 21.5 72.5t24.5 71.5q2 5 3.5 8.5t-1.5 8.5h-2q-2 0 -4.5 -1.5t-4.5 -3.5q-22 -17 -43 -35t-43 -36zM98 11q0 -4 5 -4q16 11 32.5 28.5t32 38t28 41.5t21.5 38q-12 -8 -30.5 -26.5t-36.5 -39.5t-33 -41.5t-19 -34.5z" />
    <glyph glyph-name="uni0437" unicode="&#x437;" horiz-adv-x="447" 
d="M-5 -330q-22 3 -32 13.5t-1 38.5q13 42 44 88t69.5 90t79 83t71.5 66q23 20 30 47q5 17 8 34.5t1 34.5q-1 14 -12 14q-20 0 -47 -12.5t-43 -23.5q-5 -3 -10.5 -7t-10.5 -7q-4 -3 -11 -3q-9 0 -16.5 4.5t-8.5 12.5q-1 4 3 8q5 6 9 11.5t9 10.5q14 16 38.5 45t49 61
t44.5 63t24 51q3 18 -8 18h-4.5t-6.5 -2q-25 -7 -53 -26.5t-54.5 -44t-49 -50.5t-36.5 -47q-5 -8 -9 -15t-4 -16q-1 -12 -13 -12q-10 0 -18 5q-15 7 -8 24q7 18 22.5 40.5t36 46t44.5 46t48.5 40.5t47 29t40.5 11q20 0 35 -10t22 -27q6 -13 1 -31q-5 -13 -10 -25.5
t-13 -24.5q-15 -24 -32 -47l-34 -46q-4 -5 -8.5 -9.5t-4.5 -11.5q2 -1 6 -1q26 0 41 -5.5t23 -16.5t11 -27.5t5 -39.5q7 -1 11 3t9 8q32 26 66 48.5t69 45.5q6 4 8 6q6 3 10 3q6 0 11.5 -5t9.5 -9q8 -9 -3 -17q-50 -30 -97 -64.5t-92 -71.5q-22 -19 -29 -42
q-7 -24 -22.5 -59t-37 -74.5t-48 -78.5t-55 -70.5t-58 -51t-57.5 -19.5zM1 -297q0 -6 5 -6q1 0 1.5 0.5t1.5 0.5q30 18 58 49.5t53.5 67.5t46.5 73.5t36 68.5q2 5 4.5 9.5t0.5 9.5q-4 1 -6 -1.5t-4 -4.5q-21 -20 -54 -54.5t-64.5 -73t-54.5 -76t-24 -63.5z" />
    <glyph glyph-name="uni0438" unicode="&#x438;" horiz-adv-x="473" 
d="M20 139q-4 35 0 72q1 7 4 25t7.5 41t10.5 48t12.5 46t13 35.5t13.5 15.5q6 0 16.5 -2.5t11.5 -10.5q1 -4 -1 -11q-14 -35 -22.5 -71t-16.5 -72q-5 -26 -7.5 -52t-0.5 -52q0 -2 0.5 -7.5t1.5 -11.5t2.5 -10.5t4.5 -4.5q2 0 6 3.5t8.5 7.5t8.5 8.5t5 5.5q23 26 44 54l42 56
q22 29 44.5 56t48.5 53q5 5 11 10.5t12 10.5q8 7 18 7q7 0 10 -1q17 -6 21 -13t-1 -25q-8 -30 -15.5 -60t-15.5 -60q-12 -48 -17 -94.5t-2 -93.5q0 -3 1 -10t2.5 -14.5t4.5 -13.5t7 -6q2 0 6 3.5t8.5 8.5t9 9.5t5.5 6.5q17 21 32.5 42.5t32.5 43.5q16 22 31 43.5t31 43.5
q5 7 9.5 13t9.5 13q6 9 16 9q5 0 10.5 -2t10.5 -4q10 -5 2 -14l-26 -36l-26 -36q-29 -40 -56 -75.5t-60 -71.5q-11 -11 -25 -17t-29 -6t-26 8t-16 23q-6 19 -7.5 38.5t-1.5 39.5q0 48 9.5 99t23.5 96q3 10 4.5 19.5t3.5 18.5q1 4 -3 4q-4 -1 -8 -5t-6 -7q-14 -17 -29 -35
t-29 -36q-19 -24 -37.5 -47.5t-37.5 -46.5q-7 -9 -16 -18.5t-19 -17.5t-21 -13t-23 -5q-26 0 -34.5 14.5t-11.5 37.5z" />
    <glyph glyph-name="uni0439" unicode="&#x439;" horiz-adv-x="478" 
d="M21 135q-4 35 0 72q3 18 7.5 44.5t11 54.5t14 53.5t15.5 41.5l4 10t9 7q6 0 16 -3t12 -10q1 -4 -1 -11q-14 -35 -22.5 -71t-16.5 -72q-5 -26 -7.5 -52t-0.5 -52q0 -2 0.5 -7.5t1.5 -11.5t2.5 -10.5t4.5 -4.5q5 0 15 10.5t13 14.5q23 26 44 54t42 55q22 29 44.5 56.5
t48.5 53.5q5 5 11 10.5t12 10.5q8 7 18 7q4 0 10 -2q17 -5 21 -12t-1 -26q-8 -30 -15.5 -59.5t-15.5 -59.5q-12 -48 -17 -95t-1 -94q0 -3 0.5 -10t2 -14.5t4.5 -13t7 -5.5q2 0 6 3.5t8.5 8.5t9 9.5l5.5 5.5q17 22 32.5 43t32.5 43q16 22 31 44t31 44q5 7 9.5 13t9.5 12
q6 10 16 10q5 0 10.5 -2t10.5 -4q10 -5 2 -14l-26 -36l-26 -36q-29 -40 -56 -75.5t-60 -71.5q-11 -11 -25 -17t-29 -6t-26 7.5t-16 23.5q-6 18 -7.5 38t-1.5 40q0 47 9.5 98.5t23.5 96.5q3 10 4.5 19t3.5 19q1 4 -3 4q-3 0 -7.5 -5t-6.5 -7q-14 -18 -29 -35.5t-29 -35.5
q-19 -24 -37.5 -47.5t-37.5 -46.5q-7 -9 -16 -18.5t-19 -17.5t-21 -13.5t-23 -5.5q-26 0 -34.5 15t-11.5 38zM167 498q-5 28 20 46q16 11 29 11q9 0 16 -4q12 -6 26 -14q7 -4 13 -8t13 -8q8 -5 18 -5q7 1 10 5.5t7 8.5q4 2 8 2l1 -2v-3q0 -7 -3.5 -16.5t-9 -17.5t-13 -13.5
t-16.5 -5.5t-16 3t-14 7q-8 5 -16.5 11t-16.5 11q-10 6 -21 6q-10 0 -21 -7q-3 -2 -5.5 -5t-8.5 -2z" />
    <glyph glyph-name="uni043A" unicode="&#x43a;" horiz-adv-x="384" 
d="M429 220q5 -3 0 -10q-5 -6 -11 -11q-25 -22 -55 -44.5t-62.5 -41.5t-67 -31t-69.5 -12q-53 0 -97 36l-6 6q-5 4 -8.5 9.5t-11.5 7.5q-8 -7 -8 -14.5t-1 -15.5q-2 -17 -5 -33.5t-3 -33.5q0 -9 -6 -13.5t-15 -3.5q-6 0 -8 1q-10 2 -13 6.5t-2 15.5q1 8 2 15t3 14
q8 45 15.5 89.5t15.5 89.5q7 51 19 100.5t22 100.5l3 12q3 9 12 8q7 0 13 -3q16 -6 12 -22l-24 -111q-6 -23 -10.5 -46.5t-8.5 -46.5q-1 -9 5 -9q1 0 5 2q72 45 131.5 106t110.5 127q14 18 21 18t18 -11q5 -5 5 -9.5t-7 -13.5q-28 -40 -57 -73t-60.5 -62t-66 -56t-72.5 -54
q-22 -17 -26 -29.5t7 -32.5q13 -23 31.5 -36t44.5 -13q33 0 66 13t64.5 32t60 42t52.5 42q11 10 22 10q10 0 20 -11z" />
    <glyph glyph-name="uni043B" unicode="&#x43b;" horiz-adv-x="451" 
d="M22 116q-8 21 -8 43t7 45q5 14 19 12q5 0 9.5 -2t8.5 -4q7 -3 5 -11q-3 -11 -5 -22t-3 -22q-1 -15 3 -28q2 -3 5 -3q4 0 10.5 7.5t8.5 10.5q37 56 75.5 109.5t78.5 107.5q6 8 19.5 25.5t29 35t31.5 31t26 13.5q4 0 7 -1t7 -3q12 -5 18 -14.5t3 -25.5q-3 -15 -6 -30.5
t-7 -30.5q-11 -51 -22.5 -101t-19.5 -101q-5 -28 -8 -55.5t-3 -54.5q1 -7 1 -13t1 -13q2 -5 5 -5q4 0 13 9.5t20 24t23 31.5t22.5 33.5t18.5 29t11 17.5q10 16 19 31t19 31q6 10 15 10q5 0 10 -2.5t10 -4.5q9 -5 4 -14q0 -1 -0.5 -1.5t-0.5 -1.5q-26 -42 -51 -83.5
t-55 -80.5q-10 -13 -20.5 -24.5t-21.5 -23.5q-18 -16 -40 -16q-14 0 -26 8t-15 25q-2 14 -2.5 29t0.5 30q2 42 9 83.5t16 83.5q7 33 15 65.5t16 65.5q2 9 4.5 18.5t2.5 18.5q-7 0 -10 -3.5t-6 -6.5q-47 -57 -88.5 -114.5t-83.5 -117.5q-7 -10 -13.5 -19.5t-13.5 -18.5
q-11 -14 -24.5 -27t-32.5 -13q-14 0 -24.5 8t-15.5 20z" />
    <glyph glyph-name="uni043C" unicode="&#x43c;" horiz-adv-x="653" 
d="M5 71q-6 22 -4 51q0 6 1 23t4 34.5t8.5 31t14.5 13.5q5 0 10 -2.5l9 -4.5q7 -4 7.5 -7t-2.5 -12q-19 -58 -11 -118q0 -1 1 -2t1 -2q7 0 13 8q8 11 15.5 22t14.5 23q22 37 43 74t43 75q32 56 65 109.5t73 104.5q6 8 15 8q2 0 3.5 -0.5t3.5 -0.5q15 -5 20.5 -14.5
t1.5 -26.5q-2 -11 -5 -23t-6 -23q-11 -43 -21 -85t-13 -85q0 -4 -0.5 -8t0.5 -9q0 -3 3 -3t8.5 6t7.5 9q15 18 29.5 37t29.5 37q23 30 48 59.5t51 57.5l10 10t11 10q10 8 18 8q7 0 14 -4q11 -8 16.5 -17.5t0.5 -25.5q-5 -14 -9 -28.5t-9 -29.5q-17 -48 -30 -95.5t-22 -96.5
q-5 -27 -8.5 -54t-2.5 -53q1 -8 1.5 -16t1.5 -18q13 6 20.5 13.5l15.5 15.5q20 22 39.5 45t38.5 47q15 20 30 39t31 38q14 18 23 18q8 0 14.5 -5t11.5 -10q-1 -4 -12.5 -20t-28.5 -37t-37 -45.5t-39.5 -46.5t-36 -39.5t-25.5 -24.5q-19 -16 -39 -16q-18 0 -31 10.5t-15 29.5
q-2 14 -2 29.5t1 30.5q2 45 12 90.5t23 90.5q7 24 14.5 47.5t15.5 47.5q2 5 3 9t-1 8q-6 1 -9 -2.5t-6 -7.5q-33 -39 -64.5 -78.5t-63.5 -79.5q-11 -13 -23 -24.5t-31 -11.5q-11 0 -20.5 7t-13.5 20q-5 14 -3 28q2 26 4.5 51t9.5 51q5 16 8 31l6 30q-8 1 -10.5 -3t-4.5 -8
l-159 -270q-8 -14 -16.5 -27t-19.5 -25q-8 -11 -17.5 -18t-22.5 -7q-16 0 -27.5 8t-16.5 24z" />
    <glyph glyph-name="uni043D" unicode="&#x43d;" horiz-adv-x="468" 
d="M2 10q-14 1 -13 17q0 5 1 11l2 12q14 86 26.5 171t26.5 171q2 7 2.5 13.5t2.5 12.5q3 15 13 15q5 0 10.5 -2.5t10.5 -5.5q7 -3 5 -11q0 -5 -2 -15q-10 -66 -18.5 -131.5t-21.5 -131.5q0 -2 -0.5 -4t-0.5 -4q0 -3 2 -5q1 0 1 -0.5t1 -0.5q2 0 6 4q2 2 3 3.5t3 3.5
q60 72 118 145t113 150q3 5 6.5 10.5t7.5 10.5q6 6 11 6q2 0 3 -0.5t2 -0.5q5 -2 8.5 -5t7.5 -5q9 -6 4 -18q-23 -66 -40.5 -132.5t-28.5 -135.5q-5 -33 -7 -65.5t1 -64.5q1 -6 1.5 -12t2.5 -12t7 -6t16.5 10t26 25.5t30.5 34t30 35.5t25 31t15 19q14 17 27 33.5t27 33.5
q10 13 19 13q6 0 15 -4t11 -10q-1 -2 -1 -3t-1 -3q-39 -48 -77.5 -96.5t-82.5 -93.5l-19.5 -19.5t-20.5 -17.5q-19 -15 -40 -15q-17 0 -27.5 6.5t-16 16.5t-7.5 23t-3 26q-2 38 1.5 75.5t11.5 75.5q5 25 10 49.5t13 49.5q2 5 2.5 10t1.5 10q-1 1 -3 1q-4 0 -10 -8
q-34 -42 -67.5 -82t-66.5 -82q-23 -28 -43.5 -55.5t-36.5 -58.5q-12 -19 -29 -19q-5 0 -7 1z" />
    <glyph glyph-name="uni043E" unicode="&#x43e;" horiz-adv-x="378" 
d="M9 213q-11 16 -13 37t2 43.5t13.5 44t23.5 38.5q25 30 57 46.5t70 16.5q32 0 59 -12t46 -32.5t28.5 -48t6.5 -59.5q-3 -28 -10.5 -54.5t-18.5 -52.5q-5 -10 3 -10t23 7t31.5 16.5t31 19t21.5 14.5q8 5 12.5 8t9.5 3q8 0 20 -8q13 -8 -2 -18q-37 -26 -77 -46.5t-85 -31.5
q-10 -1 -17 -12q-12 -20 -27.5 -41.5t-34.5 -39.5t-41 -29.5t-47 -11.5q-35 0 -61 26q-20 20 -27.5 46t-5.5 56q2 28 10 53q3 9 3.5 16.5t-4.5 15.5zM45 314q-13 -30 -12 -61q0 -2 0.5 -3.5t1.5 -0.5q4 0 8 2q3 3 7 11q3 5 9 12.5t13 15t14.5 13t13.5 5.5q9 0 22 -11
q7 -7 0 -11.5t-11 -9.5q-2 -4 -5 -6.5t-5 -5.5q-13 -15 -22.5 -31t-17.5 -33q-5 -11 3 -18q19 -18 47 -26.5t54 -8.5q21 0 40 4q9 2 18.5 18.5t17 37t13 40.5t6.5 28q5 27 3.5 52t-13.5 48q-22 41 -65 41q-49 0 -85 -29.5t-55 -72.5zM46 156q-13 -47 3 -93q2 -5 6 -12.5
t9 -14.5t11.5 -12t12.5 -5q14 0 30.5 11.5t32 28t27.5 34t17 29.5q-3 1 -5.5 1.5t-5.5 0.5q-70 3 -122 35q-1 1 -5 3q-10 0 -11 -6z" />
    <glyph glyph-name="uni043F" unicode="&#x43f;" horiz-adv-x="530" 
d="M-11 -14q0 47 7.5 102.5t20 111.5t30.5 109t39 94q4 10 15 10q6 0 16 -4q8 -4 9.5 -8t-3.5 -12q-16 -29 -30 -70t-25 -85.5t-19 -87t-12 -75.5q0 -2 -0.5 -4.5t0.5 -4.5q0 -4 2 -4q3 0 5 2q4 6 7 12t7 12q7 13 24.5 42.5t41 65.5t50.5 74.5t54 70.5t51 52.5t41 20.5
q9 0 17 -3.5t16 -9.5q5 -4 6.5 -10t0.5 -13q-5 -46 -13 -90.5t-18 -90.5q-7 -32 -11 -63t-6 -62q-1 -14 -0.5 -27.5t2.5 -26.5q1 -5 3.5 -12.5t8.5 -7.5q7 0 20 9.5t27 22.5t26.5 25t16.5 18q23 26 45.5 53t45.5 53q6 8 12 15t13 15q12 14 27 14q10 0 17 -5q6 -2 2 -7
q-3 -6 -9 -12q-26 -32 -53 -63.5t-54 -63.5q-11 -13 -27 -29.5t-34.5 -31t-38.5 -24.5t-38 -10q-20 0 -34 9t-18 31q-6 41 0 86q4 31 10 64.5t16 78.5q3 19 8.5 49t10.5 62q1 4 1 7.5v6.5q0 4 -3 4t-7 -3.5t-6 -5.5q-79 -86 -138.5 -181t-115.5 -197q-5 -11 -14 -15.5
t-18 -4.5q-11 0 -19 5t-8 17z" />
    <glyph glyph-name="uni0440" unicode="&#x440;" horiz-adv-x="478" 
d="M-31 -209q-13 2 -13 15q2 43 4 85.5t8 86.5q19 131 50 257t70 253q4 13 15 13q3 0 5 -1q6 -2 8 -3q9 -5 10.5 -8t-0.5 -14q-5 -20 -10.5 -39.5t-11.5 -39.5q-22 -74 -39.5 -148t-33.5 -149q-2 -5 -3 -10t2 -10q6 4 8.5 9.5t4.5 10.5q14 32 40 80t58 92.5t69 76t74 31.5
q26 0 43 -16.5t18 -44.5q0 -25 -6.5 -49.5t-15.5 -49.5q-5 -10 -9.5 -19.5t-9.5 -19.5l-3.5 -7t0.5 -7h3q4 0 7 2t7 4q15 8 37.5 18.5t46.5 20.5t47 17t40 7q5 0 10 -2l10 -4q13 -8 10 -15q-4 -5 -8 -4.5t-9 -0.5q-11 -3 -22 -5t-22 -7q-66 -25 -132.5 -59t-117.5 -85
q-8 -8 -16.5 -15t-16.5 -14q-11 -8 -22 -8q-10 0 -19 6q-4 2 -4.5 6.5t3.5 8.5q6 5 11.5 10.5t12.5 10.5q27 21 52.5 51.5t46 65.5t34.5 72t19 72q3 14 0 28q-3 9 -12 9q-10 0 -22 -6.5t-23.5 -15.5t-22 -19t-16.5 -17q-40 -45 -72 -96t-56.5 -106.5t-43 -113.5t-32.5 -116
q-7 -28 -9 -58q0 -11 -6.5 -14.5t-15.5 -3.5q-7 0 -9 1z" />
    <glyph glyph-name="uni0441" unicode="&#x441;" horiz-adv-x="371" 
d="M-12 19q-5 26 -2 51q10 72 32.5 134.5t65.5 122.5q11 15 27 34t35 35.5t39.5 27.5t40.5 11q9 0 20 -3.5t21.5 -9.5t17.5 -14.5t8 -18.5q2 -13 -7 -20q-4 -3 -8 -3q-3 0 -5.5 1.5t-4.5 3.5q-7 5 -11 10t0 16q2 5 -1 7t-8 3q-13 0 -22.5 -4t-20.5 -11q-38 -24 -69 -61
t-53.5 -80.5t-37 -90t-19.5 -89.5q-2 -15 -1.5 -29t3.5 -28q2 -10 6 -20t15 -10q21 0 56 21t72.5 48.5t71 56t50.5 43.5l87 75q8 6 17 6q8 0 14.5 -4t8.5 -11q0 -5 -1 -6l-9 -9q-38 -32 -75.5 -64t-75.5 -64q-18 -15 -43.5 -34.5t-53.5 -37t-55.5 -30t-50.5 -12.5
q-27 0 -48 14.5t-26 42.5z" />
    <glyph glyph-name="uni0442" unicode="&#x442;" horiz-adv-x="643" 
d="M264 375q-6 -3 -17 -16.5t-24 -32t-27 -40.5t-26 -41.5t-21.5 -35.5t-13.5 -23q-11 -17 -20.5 -33.5t-20.5 -33.5q-10 -14 -22 -27t-31 -13q-11 0 -20.5 6.5t-11.5 17.5q-1 5 -1.5 10t0.5 10q8 75 26.5 141t55.5 132q5 9 14 9q5 0 10 -2.5l9 -4.5q9 -5 9 -8t-7 -13
q-16 -23 -28 -52.5t-21 -61t-15 -63t-10 -58.5q-2 -5 1 -5l2 -1q2 0 6 4q5 8 10.5 16.5t10.5 17.5q24 40 48 79.5t51 78.5q18 27 38.5 54t43.5 50q11 11 23 11q6 0 13 -3q17 -8 20 -16t-1 -24q-5 -23 -11 -46.5t-12 -46.5q-8 -28 -13 -55.5t-9 -55.5q-1 -2 -1.5 -5.5
t2.5 -4.5h2q4 0 5.5 3t3.5 5q40 58 83 112.5t97 100.5q9 9 21 9q9 0 17 -5q9 -6 15 -13.5t1 -20.5q-29 -81 -52.5 -160t-32.5 -166q-2 -16 -1.5 -31.5t3.5 -30.5q2 -5 7 -5t14 7.5t19.5 17.5t19.5 19.5t12 13.5q20 23 38.5 46.5t38.5 46.5q17 19 32.5 37.5t32.5 37.5
q14 15 24 15t20 -10q6 -4 0 -12q-2 -3 -5 -6t-5 -6q-21 -23 -40 -46l-38 -46q-20 -25 -40 -48.5t-41 -46.5q-15 -15 -36 -32t-44 -17q-15 0 -27.5 7.5t-17.5 22.5q-5 16 -6 32t0 33q5 57 17.5 113.5t31.5 113.5q6 19 13 37.5t11 37.5q-7 0 -23.5 -17t-34.5 -38.5
t-33.5 -42.5t-21.5 -29l-36 -52t-38 -51q-8 -8 -19 -8q-14 0 -23 7.5t-9 22.5q0 47 9.5 94t21.5 92q8 26 8.5 34.5t-3.5 6.5zM281 538q26 5 50.5 9.5t50.5 8.5q15 2 30 3.5t30 1.5q13 0 25 -1t22 -5.5t17 -13t9 -24.5q2 -8 2.5 -16.5t-1.5 -17.5q0 -2 -4 -4q-4 0 -5 1
q-9 8 -9 22q0 11 -6 15t-15 5q-6 1 -12.5 1.5t-12.5 0.5q-8 0 -15 -0.5t-15 -1.5q-28 -5 -55 -9t-55 -9q-23 -4 -46 -7t-47 -5q-26 0 -48 12t-22 44q0 2 1 5t5 4q2 1 4 0t3 -2q6 -6 9 -14q2 -8 8 -10t14 -3q23 0 44 3t44 7z" />
    <glyph glyph-name="uni0443" unicode="&#x443;" horiz-adv-x="476" 
d="M-3 -352q0 23 11 53t28.5 62.5t40.5 65.5t46 63.5t44.5 56t37.5 42.5q15 17 22 40q23 75 43 151.5t33 154.5q0 4 -3 4q-4 0 -5 -1q-5 -5 -10 -10.5t-10 -10.5q-25 -30 -48.5 -61t-46.5 -62q-14 -20 -28.5 -38t-29.5 -37q-13 -17 -32 -33.5t-41 -16.5q-14 0 -23.5 7.5
t-12.5 21.5q-2 15 -1.5 31t2.5 32q5 54 18.5 107t39.5 101q5 9 14 9q8 0 16 -4q3 -2 5.5 -4.5t6.5 -4.5q-34 -64 -47 -128t-13 -130q1 0 1.5 -0.5t2.5 -0.5q6 0 11 7q12 15 24.5 30.5t24.5 31.5q23 29 44 58t44 58q14 18 28 35l28 34q7 8 20 20.5t24 12.5q12 0 24.5 -9
t12.5 -21q2 -20 -1 -35q-3 -19 -5.5 -38t-7.5 -38q-9 -40 -19 -79t-20 -79q-2 -8 -2 -14q0 -1 1.5 -2t2.5 0l12 9q12 11 40.5 34.5t61 48t61 43t40.5 18.5q6 0 11.5 -3.5t14.5 -11.5q-3 -7 -8.5 -9.5t-10.5 -5.5q-66 -38 -123.5 -85.5t-111.5 -100.5q-20 -20 -30 -47
q-7 -21 -19 -55t-28.5 -72.5t-36 -77t-42 -70t-47 -51t-50.5 -19.5q-12 0 -20.5 4.5t-8.5 18.5zM47 -302q-4 -10 -6 -19t-1 -19q0 -4 5 -4q2 0 4 2q47 48 75.5 106.5t52.5 119.5q2 8 0 11q-5 0 -10 -7q-35 -45 -67 -91t-53 -99z" />
    <glyph glyph-name="uni0444" unicode="&#x444;" horiz-adv-x="761" 
d="M266 381q4 0 6.5 0.5t4.5 4.5q4 5 7.5 10.5t6.5 10.5q20 31 40.5 62t40.5 62q5 8 10 14.5t10 13.5q5 9 15 9q11 0 21 -10t8 -21q-2 -8 -3.5 -16t-3.5 -16q-20 -67 -38 -134t-33 -136q-2 -8 3 -10q5 4 8 9l6 10q13 21 33 50t44 54.5t51 43.5t54 18q26 0 45.5 -16.5
t22.5 -45.5q2 -18 -1 -36.5t-9 -36.5q-13 -44 -36 -88q-2 -5 -5 -9.5t-3 -10.5q1 -2 5 -2t8 3q17 8 43.5 19t55 21.5t54 18t39.5 7.5q17 0 27 -12q2 -2 1 -5t-4 -4q-7 -2 -13.5 -4t-12.5 -4q-25 -6 -63.5 -19t-78.5 -30.5t-74.5 -37.5t-51.5 -41q-7 -7 -18 -18.5t-24 -22.5
t-26.5 -18.5t-24.5 -7.5q-4 0 -8 1t-9 3q-20 9 -2 27q16 16 34 29.5t36 25.5q22 15 43 45.5t38.5 66.5t28.5 71.5t14 59.5q3 15 -1 31q-3 16 -14 16q-12 0 -27.5 -9t-24.5 -16q-48 -37 -87 -97t-69.5 -128t-51.5 -137t-32 -126q-10 -51 -17 -101t-15 -101l-3 -18
q-3 -14 -10 -18.5t-21 -4.5q-17 0 -16 19q5 60 14 119.5t26 117.5q2 10 4.5 20t4.5 21q11 50 20.5 99t20.5 100q17 74 35.5 147.5t38.5 146.5q2 5 3.5 11t-1.5 11q-5 -2 -7.5 -6t-5.5 -8q-8 -12 -16 -24.5t-16 -25.5q-8 -11 -13 -22t0 -24q2 -5 -1.5 -9.5t-9.5 -4.5
q-9 0 -14.5 -3.5t-10.5 -11.5q-8 -13 -23 -35t-33.5 -47.5t-39.5 -51.5t-43 -47t-42.5 -34.5t-38.5 -13.5t-31 9.5t-15 28.5q-3 27 5 58q9 34 28 72.5t45.5 71.5t60 54.5t73.5 21.5q13 0 28 -3q5 -1 10.5 -2.5t10.5 -3.5zM257 356q4 7 -3 9q-9 3 -17 3q-37 -1 -69 -24
t-56 -56.5t-40.5 -71.5t-24.5 -69q-2 -9 -2.5 -18.5t0.5 -20.5q0 -6 6 -6q2 0 4 2q24 14 52 44.5t55 66t50.5 71t38.5 59.5q5 7 6 11z" />
    <glyph glyph-name="uni0445" unicode="&#x445;" horiz-adv-x="351" 
d="M-122 -210q-2 5 2 8.5t8 5.5q28 21 47.5 48t35.5 58q25 50 45.5 101.5t40.5 104.5q-10 23 -16.5 44t-12.5 42.5t-11.5 44t-13.5 48.5l-10 52l-10 52q-2 7 -2 13.5v14.5q1 11 10.5 12.5t17.5 1.5q9 0 11 -2.5t4 -13.5q2 -18 6.5 -45t12 -59t17.5 -68t22 -71
q29 73 62.5 143.5t70.5 140.5q2 5 6 11q3 7 10 5q5 0 13 -2q13 -5 13.5 -10.5t-5.5 -16.5q-42 -81 -79 -161t-70 -165q5 -12 13.5 -31.5t20 -37.5t26 -31.5t30.5 -13.5q14 0 34.5 18.5t40.5 43.5t36.5 49t23.5 36l27 42q8 12 14.5 17t17.5 5q7 0 19 -3q0 -2 -6 -12.5
t-15.5 -24.5t-20.5 -30t-21.5 -30.5t-18.5 -25.5t-11 -15q-12 -15 -27.5 -31t-32.5 -29.5t-36.5 -22t-40.5 -8.5q-19 0 -33.5 6.5t-25.5 17.5t-20 24.5t-17 28.5q-11 -27 -21.5 -54.5t-21.5 -54.5q-10 -23 -20.5 -44.5t-23.5 -43.5q-5 -9 -16.5 -24t-25 -29.5t-28 -25
t-26.5 -10.5q-5 0 -11 1.5t-8 5.5z" />
    <glyph glyph-name="uni0446" unicode="&#x446;" horiz-adv-x="552" 
d="M22 191q-6 57 -1 113.5t24 115.5q2 8 6.5 17.5t14.5 10.5q17 0 25 -13q2 -2 0 -9q-24 -60 -29 -117.5t0 -115.5q0 -3 1 -9t2.5 -13t4 -12t5.5 -5q5 0 13 8l11 11q15 17 30.5 34.5t30.5 34.5l40 48t40 47q11 13 22.5 24.5t24.5 22.5q21 18 43 18q14 0 23 -5.5t14.5 -14.5
t8.5 -20.5t4 -22.5q4 -23 5 -46.5t0 -47.5q-2 -27 -3.5 -54t-8.5 -54q-2 -12 -4 -24.5t-4 -25.5q-2 -5 4 -5q2 0 3 1q44 23 84.5 53.5t78.5 62.5q8 7 15 12.5t14 12.5q8 8 20 8q15 0 24 -11q3 -3 -1 -7l-3.5 -3.5l-3.5 -3.5q-54 -48 -111 -89t-120 -73q-11 -6 -18.5 -13.5
t-12.5 -19.5q-8 -19 -19.5 -37.5t-26.5 -32.5t-34 -23t-42 -9h-2q-28 5 -31.5 23t14.5 38q16 19 43 37t50 29q21 10 26 32q5 24 11.5 47.5t9.5 46.5q6 42 8.5 84t-1.5 83q-1 10 -2.5 19t-3.5 17q-1 6 -6 6q-3 0 -8.5 -4t-11.5 -9.5t-11 -11t-7 -7.5q-17 -20 -34.5 -39.5
t-34.5 -39.5q-20 -23 -40.5 -47t-41.5 -47q-13 -14 -30.5 -28.5t-38.5 -14.5q-14 0 -23.5 6t-15.5 16t-9 21.5t-4 23.5zM225 -56q-1 -4 1 -8q0 -1 2 -1t3 1q16 11 29 24.5t18 32.5l1 1q-13 -6 -31 -21t-23 -29z" />
    <glyph glyph-name="uni0447" unicode="&#x447;" horiz-adv-x="435" 
d="M22 236q-1 12 -0.5 24.5t1.5 24.5q2 37 11 78.5t26 75.5q4 8 15 8t21 -7q6 -4 3 -12q-19 -40 -26 -82.5t-12 -86.5v-9.5t2 -9.5q0 -3 3 -3t9.5 5.5t8.5 7.5q14 14 27 27.5t26 27.5q25 26 49.5 52t49.5 52q8 8 16 15.5t16 15.5q14 11 30 11q19 0 30 -14q3 -5 3 -9.5
t-1 -9.5q-4 -16 -7.5 -31t-7.5 -31q-10 -38 -19.5 -75.5t-16.5 -75.5q-5 -27 -6 -53t0 -52q0 -3 0.5 -11.5t2.5 -18t5 -16.5t8 -7q4 0 12 6.5t17 14.5t16.5 16.5t10.5 11.5q20 23 39 46.5t38 46.5q5 5 9.5 11t8.5 11q13 17 26 17q5 0 9.5 -1.5t11.5 -3.5q2 -2 2 -7
q-1 -3 -17 -22.5t-35.5 -43.5t-37.5 -45t-23 -27q-15 -18 -38.5 -37t-49.5 -19q-20 0 -34.5 12t-18.5 34q-8 49 -2 97q2 16 5 31.5t6 32.5q5 38 15 74.5t19 74.5q1 3 1.5 5.5t1.5 5.5q2 7 -2 7t-8 -4q-5 -4 -9 -8l-9 -9l-81 -87q-19 -20 -37.5 -39t-39.5 -36
q-15 -12 -33 -12q-15 0 -27 9t-13 26z" />
    <glyph glyph-name="uni0448" unicode="&#x448;" horiz-adv-x="718" 
d="M261 303q-3 -4 -6.5 -7t-5.5 -7q-21 -29 -41.5 -56.5t-40.5 -56.5q-14 -19 -28.5 -38t-28.5 -38q-11 -14 -25.5 -27t-33.5 -13q-15 0 -25.5 6.5t-12.5 22.5q-3 15 -3.5 30.5t1.5 32.5q9 132 47 268q2 6 5 15.5t11 9.5q5 0 10.5 -3t9.5 -5q10 -6 6 -19
q-21 -73 -33.5 -145.5t-15.5 -148.5q0 -6 0.5 -11.5t1.5 -11.5q0 -3 4 -3t10.5 8t8.5 12q15 20 29.5 39.5t28.5 39.5q29 42 59 82.5t63 79.5q11 12 24 12q3 0 5.5 -0.5t5.5 -1.5q14 -4 19.5 -11.5t3.5 -23.5q-2 -17 -5 -32.5t-5 -32.5q-5 -29 -9.5 -58t-4.5 -58q-1 -5 -1 -9
v-8q1 -5 0.5 -11t4.5 -7q7 -2 10 4.5t6 11.5q34 50 64 101t62 102q23 39 47.5 77.5t50.5 76.5q6 8 17 8q12 0 21 -10.5t6 -21.5q-2 -12 -6 -23.5t-8 -23.5q-16 -48 -29 -95.5t-24 -95.5q-10 -47 -14.5 -92.5t-1.5 -90.5q0 -4 1 -12t3 -16t5.5 -14.5t8.5 -6.5q11 0 26.5 10
t31.5 24t30 28.5t21 22.5q25 28 47.5 57.5t45.5 58.5q5 6 10 12.5t10 12.5t12 6q5 0 11.5 -3.5t10.5 -5.5q9 -5 0 -14q-31 -41 -62 -81t-67 -77q-12 -12 -25.5 -25t-29.5 -23.5t-33 -17.5t-35 -7q-35 0 -48 23t-15 52q-2 31 -0.5 62t6.5 63q5 40 15 80t21 80q2 7 4.5 13.5
t0.5 14.5q-9 -8 -13 -15.5t-9 -14.5q-29 -48 -57 -95.5t-59 -95.5q-7 -11 -14 -20.5t-14 -20.5q-9 -13 -19.5 -18.5t-21.5 -5.5q-23 0 -32.5 13.5t-11.5 33.5t-1.5 39t4.5 39q3 21 6.5 42.5t6.5 42.5q2 10 2 14q0 3 -4 3q-2 0 -3 -1zM389 -21q-22 15 -54 15h-10t-10 -1
q-42 -5 -83 -13t-83 -16q-15 -2 -30.5 -4.5t-31.5 -4.5q-9 1 -17 2t-16 5q-23 9 -20 35q0 3 3 5.5t5 0.5q15 -8 34 -8q8 0 17 1t17 3q32 5 64 11l64 12q40 9 82 12q11 0 24.5 -2t26 -6.5t22 -13t11.5 -22.5q1 -3 1.5 -7t-2.5 -7q-2 -2 -6 -2q-3 0 -8 5z" />
    <glyph glyph-name="uni0449" unicode="&#x449;" horiz-adv-x="784" 
d="M4 27q-2 37 1 73.5t11 74.5q4 21 10 47.5t13 54t15 53t17 45.5q6 13 16 13q5 0 10.5 -2t10.5 -4q8 -4 5 -11q-14 -34 -23 -68t-19 -69q-14 -51 -21 -100.5t-5 -99.5q0 -12 0.5 -24t5.5 -23q8 2 11 7q7 10 13.5 19.5t12.5 20.5q23 37 44.5 73.5t44.5 73.5q18 30 37 59
t40 57q6 8 12 15t13 14q14 15 27 15q3 0 6 -0.5t7 -1.5q14 -5 18 -11.5t0 -22.5q-5 -24 -11.5 -48t-13.5 -48q-13 -51 -17.5 -101t-2.5 -100q0 -3 1 -12.5t5 -9.5q3 0 6 3q29 44 54.5 89t50.5 92q27 51 54 100.5t53 100.5q11 17 25 17q8 0 17 -6q5 -5 2 -11q-2 -8 -2 -14.5
t1 -13.5q5 -55 5 -110t-2 -111q-3 -44 -12 -91l-2 -10l-2 -10q0 -6 5 -6q3 0 5 1q57 38 115.5 88.5t103.5 101.5q5 5 10 10.5t10 10.5q12 12 21 12q10 0 20 -7q9 -6 1 -14q-26 -29 -52.5 -56t-55.5 -53q-38 -34 -78.5 -64.5t-82.5 -60.5q-14 -9 -28 -19.5t-21 -27.5
q-6 -15 -16.5 -33t-24 -34t-29.5 -27t-34 -11q-9 0 -18 3q-25 9 -12 36q8 15 23 30t31.5 28t30.5 22q18 14 24 35q21 71 25.5 143t4.5 145q0 7 -0.5 13.5t-1.5 14.5q-6 -2 -8.5 -6t-4.5 -8q-11 -23 -23 -46t-23 -46q-13 -25 -28.5 -55t-32.5 -60t-35 -58.5t-36 -50.5
q-16 -18 -39 -18q-13 0 -24 7t-13 19q-5 23 -6 45.5t1 45.5q5 96 31 190q1 2 1 8l-1 2q-8 -2 -11 -7l-6 -10q-35 -56 -69.5 -111.5t-69.5 -112.5q-8 -14 -17 -27t-20 -25q-17 -20 -40 -20q-14 0 -25 7t-13 21q-4 26 -6 51z" />
    <glyph glyph-name="uni044A" unicode="&#x44a;" horiz-adv-x="431" 
d="M10 283q0 3 1 6t4 5q11 0 17.5 -10.5t8.5 -20.5q0 -9 11 -9q14 0 33.5 8t39.5 19t38.5 23t29.5 20q17 12 32.5 24t31.5 24q9 6 13 6q6 0 10 -6q10 -10 10 -18t-8 -22q-39 -66 -69.5 -134t-47.5 -140q-5 -23 -7 -44.5t0 -42.5q1 -7 4 -20.5t12 -13.5q5 0 12 4
q16 8 30.5 22t26 31t19 35.5t9.5 36.5q1 11 -6 11q-5 0 -7 -1q-5 -2 -10.5 -4t-10.5 -4q-7 -3 -15 -3q-15 0 -24 15q-7 12 6 20q7 3 13.5 6t12.5 4q12 2 22 6.5t21 9.5l132 75q11 6 20.5 12t20.5 12q7 3 11.5 5t7.5 2q8 0 16 -14q5 -9 4 -13t-12 -10q-39 -23 -78 -44.5
t-79 -43.5q-5 -4 -10.5 -7t-10.5 -6q-2 -2 -3 -4t0 -4q1 -3 2.5 -6t3.5 -6q10 -20 2 -47q-4 -16 -15 -36.5t-25.5 -38.5t-32.5 -30.5t-38 -12.5q-27 0 -43 21.5t-21 45.5q-6 32 0 65q9 60 31 116t48 111q2 3 3.5 6.5t-0.5 7.5h-3q-3 0 -5.5 -1.5t-5.5 -3.5
q-14 -8 -28.5 -16.5t-28.5 -16.5t-31.5 -14.5t-33.5 -6.5q-26 0 -42.5 16.5t-18.5 43.5z" />
    <glyph glyph-name="uni044B" unicode="&#x44b;" horiz-adv-x="547" 
d="M-7 39q0 35 6 75t17 80.5t26 78.5t34 67q5 8 13 8q5 0 10.5 -3t9.5 -5q9 -5 3 -17q-10 -15 -17.5 -30.5t-14.5 -32.5q-23 -60 -35 -120.5t-10 -120.5q0 -4 1 -13.5t3.5 -19.5t6 -18t8.5 -8q2 0 8 2q14 8 26.5 24t21.5 34t13.5 36.5t1.5 32.5q-5 21 -25 30q-8 4 -16 7
t-14 10q-9 8 0 18t18.5 17.5t20.5 15.5q68 48 136.5 92.5t139.5 88.5q14 7 23 7q18 0 26 -16q3 -6 1 -14q-30 -69 -48.5 -142.5t-29.5 -148.5q-4 -26 -6 -52t-1 -52q0 -7 0.5 -13.5t4.5 -13.5q12 8 19 17.5t15 18.5q28 37 53 75.5t49 76.5q17 26 33.5 51.5t33.5 51.5
q3 5 6 9t7 9q4 6 11 6t15 -4q11 -5 11.5 -10t-7.5 -17l-52 -80t-52 -81q-10 -15 -23.5 -35t-28.5 -41t-30.5 -39.5t-29.5 -30.5q-17 -13 -36 -13q-13 0 -23 7t-13 21q-4 14 -4.5 28.5t-0.5 28.5q1 38 7 81.5t15.5 88t21.5 86.5t25 76q2 3 2 11l-1 2q-3 1 -20 -8.5t-41 -24.5
t-51 -33t-51.5 -34.5t-43.5 -29.5t-25 -17q-8 -5 -14.5 -10.5t-13.5 -10.5q-8 -7 -8 -10t7 -7q6 -4 12 -7t11 -7q32 -22 25 -63q-3 -18 -12.5 -39t-23 -38.5t-31.5 -29t-39 -11.5t-34 9.5t-20 24.5t-9.5 33.5t-2.5 34.5z" />
    <glyph glyph-name="uni044C" unicode="&#x44c;" horiz-adv-x="285" 
d="M341 209l-9 -9q-35 -29 -69.5 -59t-71.5 -56q-7 -5 -9.5 -10.5t-3.5 -12.5q-2 -17 -11 -38.5t-23 -41t-31.5 -33t-37.5 -13.5q-21 0 -37 12.5t-25 31.5q-11 20 -15 42.5t-3 46.5q2 60 17 118.5t47 115.5q3 5 10 16.5t15 22.5t17 19.5t16 8.5q8 0 16 -7t10 -15
q-32 -30 -51 -66t-33 -74q-29 -83 -26 -169q0 -5 2 -17.5t5.5 -26t8.5 -24t12 -10.5q10 0 21.5 10t21 24t17 28.5t10.5 22.5q-3 2 -9 2q-4 0 -7 -0.5t-7 0.5q-13 0 -25 10q-19 15 -8 41q5 10 17.5 20.5t26.5 9.5q20 0 33 -12q5 -4 10 -4q3 0 9 3.5t12 8.5t11.5 10t8.5 7
q22 19 44 37t44 37q5 4 8.5 7t8.5 7t11 4q7 0 13.5 -6t9.5 -11q3 -4 -1 -8zM117 89q-3 -3 1 -4q0 -1 2 -1q8 2 13 6t5 8q0 3 -5 3q-7 0 -16 -12z" />
    <glyph glyph-name="uni044D" unicode="&#x44d;" horiz-adv-x="488" 
d="M-7 -135q0 10 11 10q14 -3 22 -15q4 -7 13 -7q31 0 63.5 21.5t61 52.5t51.5 65t35 59q6 12 -4 12q-1 0 -1.5 -0.5t-2.5 -0.5q-14 -2 -26.5 -5t-26.5 -5q-11 -2 -22 -3t-22 -1q-10 0 -22.5 1t-24.5 5t-22 10.5t-14 17.5q0 2 1 3t5 3q3 0 5 -2q20 -10 46 -10q8 0 15 0.5
t15 1.5q29 5 57.5 12t57.5 16q15 4 21 18q13 32 23.5 64t13.5 66q2 26 -4 48q-4 15 -14.5 21t-25.5 6q-31 0 -64.5 -13.5t-65 -34.5t-59 -45.5t-46.5 -47.5q-7 -10 -13 -10q-5 0 -10 3.5t-8 6.5q-11 9 -1 23q20 25 49 51.5t62.5 48t69 35t68.5 13.5q41 0 65 -30
q33 -40 27 -96q-1 -9 -2.5 -18t-3.5 -17q-2 -15 -5.5 -29.5t-8.5 -28.5q-3 -8 4 -8t30.5 12t51 28t51.5 30.5t33 20.5q17 11 24 11q6 0 9.5 -4.5t8.5 -15.5q3 -9 -6 -15q-22 -15 -49.5 -32t-56 -33t-57 -29t-54.5 -20q-11 -2 -18 -16q-18 -36 -43 -78.5t-57.5 -79t-71 -61
t-82.5 -24.5q-20 0 -37 7.5t-19 31.5z" />
    <glyph glyph-name="uni044E" unicode="&#x44e;" horiz-adv-x="578" 
d="M287 279q-1 -1 -1 -4q-7 1 -14 -6q-15 -16 -26.5 -37.5t-19.5 -44.5t-13.5 -47t-8.5 -45q-8 -62 15 -115q2 -5 4.5 -9t4.5 -8q5 -8 13 -8q13 0 29.5 11.5t32.5 27t29.5 32t20.5 26.5q3 4 5.5 8t0.5 9q-13 4 -25.5 8.5t-23.5 13.5q-32 27 -42.5 64t-0.5 82q2 11 6.5 20.5
t12.5 17.5q0 2 0.5 2.5t0.5 1.5zM388 107q21 37 36.5 74t20.5 79q2 20 -4 36q-6 19 -25 19q-18 0 -35 -7t-32 -19t-26.5 -27.5t-17.5 -31.5q-11 -30 -9 -57.5t15 -53.5q14 -25 46 -25q9 0 17.5 2t13.5 11zM303 297q17 19 39.5 33t48.5 14q38 0 62.5 -27t25.5 -64
q1 -25 -6 -48.5t-16 -47.5q-3 -8 -8 -16.5t-3 -17.5q9 0 25 10t33 22.5t31.5 25t21.5 18.5l18 16l18 16q10 8 14 8q6 0 11 -4.5t8 -9.5q8 -9 -4 -19q-20 -19 -40 -37t-42 -35q-25 -19 -52 -33.5t-56 -23.5q-19 -5 -30 -24q-12 -19 -28.5 -40t-36 -38.5t-42 -29t-46.5 -11.5
q-43 0 -64 39q-28 52 -22 115q1 8 2 17l2 18q0 3 -3 4q-1 0 -2 -0.5t-3 -0.5q-4 -3 -15.5 -17.5t-26.5 -35.5t-32.5 -45t-32.5 -46.5t-27 -39.5t-16 -24q-6 -11 -16 -11q-8 0 -15 4t-9 12q0 2 0.5 4.5t0.5 4.5q18 97 35.5 193t34.5 193q3 14 6 27.5t6 27.5q3 12 13 12
q2 0 3 -0.5t3 -0.5q3 -1 9 -5q11 -6 8 -21q-14 -75 -27 -148t-26 -148q-1 -5 -1.5 -10t-1.5 -10q0 -6 2 -7q1 -1 2 -1q2 0 4 2l4 4t3.5 5t3.5 5q38 48 75 96.5t75 96.5q8 10 15 20.5t15 20.5q8 11 15.5 22t15.5 22q3 4 7.5 7t9.5 3q9 0 18.5 -8t7.5 -17q0 -1 -2 -5t0 -11z
" />
    <glyph glyph-name="uni044F" unicode="&#x44f;" horiz-adv-x="566" 
d="M-9 46q-8 70 17 139q2 4 4.5 10t6 12t8 10t9.5 4q6 0 12 -3.5t10 -7.5q7 -5 1 -13q-28 -48 -31 -93.5t7 -90.5q1 -4 3.5 -11.5t6.5 -15t9 -12.5t11 -5q4 0 7 1q24 9 51 37t51.5 62.5t44 69.5t27.5 57q-3 5 -7 4.5t-9 1.5q-21 5 -36 18.5t-22.5 32t-6.5 40.5t12 44
q5 11 13.5 23t19 22.5t23 17t25.5 6.5t30 -10q20 -14 30 -34t8 -47q-1 -6 -2 -12.5t-2 -13.5q-1 -5 -2 -9.5t3 -6.5q1 -1 4 -1q4 0 7.5 3t7.5 5q11 6 21 13t21 14q5 3 9.5 6t9.5 6q17 10 24 10q8 0 21 -13q9 -10 1 -24q-39 -74 -64.5 -154.5t-29.5 -165.5q-1 -12 -0.5 -24
t3.5 -24q2 -6 6 -6q7 0 18.5 10.5t25 27t28.5 36.5t28.5 39t23.5 34t14 22q20 30 38.5 60t37.5 60l4 6t4 7q5 6 10 6q3 0 5 -2q4 -2 7.5 -5.5l6.5 -6.5q6 -8 0 -19q-2 -2 -2.5 -4t-2.5 -4q-29 -44 -55.5 -88t-56.5 -87q-9 -12 -24 -33t-33 -41t-36.5 -34.5t-35.5 -14.5
q-19 0 -32 13t-17 31q-4 25 -3 54q3 69 22.5 134t45.5 129q1 3 1.5 6t-1.5 5q-6 0 -11 -4t-11 -7q-11 -6 -22.5 -13t-24.5 -13q-18 -8 -27 -28q-8 -18 -20.5 -43.5t-29 -53t-36 -54.5t-40.5 -48.5t-43 -34.5t-43 -13t-36 8.5t-25.5 22.5t-16.5 32t-8 36zM198 269
q-1 -16 6 -30q5 -7 10 -8.5t13 -1.5q14 0 26.5 4.5t18.5 17.5q6 14 9.5 28.5t7.5 32.5q1 7 2.5 17t1.5 21q-2 27 -18 27q-9 0 -25 -11q-50 -40 -52 -97z" />
    <glyph glyph-name="uni0451" unicode="&#x451;" horiz-adv-x="284" 
d="M8 99q-4 22 -2 45t7 49q5 6 3.5 13.5t2.5 15.5q15 29 29.5 58t35.5 56q11 14 25 30t31 29.5t35.5 23t36.5 9.5q14 0 24.5 -6t17.5 -16t8.5 -23t-4.5 -27q-11 -27 -31.5 -51t-46 -43.5t-53.5 -34.5t-54 -23q-11 -3 -16 -9t-7 -16q-11 -47 -5 -89q4 -35 26 -35
q17 0 38 10.5t41.5 25t38.5 30t30 26.5q18 17 35.5 34.5t35.5 34.5q15 14 25 14q8 0 19 -8q9 -7 0 -16q-23 -23 -46.5 -45.5t-47.5 -44.5q-15 -14 -32.5 -29t-37.5 -27t-40.5 -20t-41.5 -8q-31 0 -53 17.5t-27 49.5zM79 254q-4 -6 -1 -11h6q18 9 40.5 24t42.5 33t36 38.5
t22 41.5q2 5 3 9.5t-2 7.5q-4 2 -5 2q-2 0 -5.5 -1.5t-5.5 -2.5q-20 -7 -39.5 -23.5t-37 -36.5t-31.5 -41.5t-23 -39.5zM263 437q-11 2 -16.5 7t-5.5 16q0 2 1 2.5t2 2.5l36 48t37 47q7 10 14 10q5 0 10 -4t9 -7q8 -8 1 -18q-2 -2 -2.5 -4t-2.5 -4q-17 -22 -34 -43.5
t-34 -43.5q-7 -9 -15 -9zM197 454q-12 3 -18 10.5t-3 21.5l15 84q1 5 3.5 9.5t7.5 4.5q6 0 12.5 -4.5t10.5 -8.5q5 -4 3 -13q-5 -24 -9 -48t-9 -47q-2 -10 -10 -10q-2 0 -3 1z" />
    <glyph glyph-name="A" unicode="A" horiz-adv-x="422" 
d="M-55 -1q-9 5 -4 14l18 39l83 177q1 2 2 4.5t2 4.5q2 7 -5 7q-11 0 -19 -1.5t-19 -4.5q-9 -3 -14 -3q-8 0 -11 9t-3 15q-2 13 11 16q21 6 44 9q11 2 21.5 3t19.5 6q10 6 13.5 16.5t8.5 20.5q26 52 52 103t54 102q6 10 17.5 29.5t26.5 39t30.5 34t28.5 14.5q18 0 30.5 -14
t12.5 -31q0 -49 -6 -99q-6 -43 -11 -85t-8 -84q0 -10 -1 -15q0 -10 11 -10q7 0 14 0.5t15 0.5q17 0 21.5 -3.5t6.5 -20.5q0 -2 -2 -10q-14 -2 -26.5 -3t-26.5 -3q-11 -2 -14 -5t-4 -14q-4 -63 -6 -122.5t-2 -123.5q0 -12 -6.5 -15t-16.5 -3q-8 0 -13.5 2t-5.5 12
q-1 14 -1 28.5v28.5q-1 46 1.5 91.5t6.5 91.5q0 3 0.5 6t0.5 5q0 8 -4 9.5t-11 1.5h-10q-32 -3 -64.5 -6t-65.5 -6q-17 0 -25 -18q-14 -29 -27 -56.5t-27 -55.5q-13 -27 -25.5 -54.5t-25.5 -55.5q-10 -22 -26 -22q-8 0 -16 4zM127 307q-1 -3 0.5 -5.5t5.5 -1.5
q32 2 64.5 4.5t65.5 5.5q13 2 14 15q8 83 18 165q8 50 12 99q2 8 0 17q0 4 -5 4q-4 0 -14 -12t-20 -27t-19 -29.5t-12 -19.5q-28 -50 -53 -100t-51 -101l-3.5 -7t-2.5 -7z" />
    <glyph glyph-name="B" unicode="B" horiz-adv-x="427" 
d="M23 45q-14 2 -19 7.5t-2 20.5q4 21 7 41.5t7 40.5q20 111 40 220t41 219q2 10 2.5 19t2.5 19q0 12 11 12q3 0 5 -1q14 -5 18.5 -12t2.5 -21q-2 -15 -4.5 -29.5t-5.5 -29.5q-5 -31 -11 -61.5t-11 -61.5q-1 -5 -2.5 -10.5t3.5 -13.5q15 27 42 68t59 79.5t66.5 65.5t65.5 27
t44 -29q3 -6 1 -16q-4 -29 -22.5 -58t-35.5 -51q-4 -5 -8.5 -9.5t-4.5 -11.5q21 -4 39 -10.5t31 -17.5t19.5 -27.5t6.5 -42.5q0 -25 -12.5 -62t-33.5 -78.5t-49 -82.5t-59 -74t-63.5 -53.5t-62.5 -20.5q-34 0 -55 21q-10 10 -15 21.5t-3 26.5q6 75 67 135q9 9 23 17.5
t27 8.5q19 0 35 -18q5 -7 5 -15t-2 -19t-6 -20.5t-10.5 -16t-17.5 -6.5q-16 0 -25 11q-6 8 1 12q14 9 19 24q0 2 0.5 4.5t-1.5 3.5q-1 1 -3 1q-3 0 -7 -4q-63 -56 -67 -131q-1 -33 19 -33q12 0 27 8q37 18 71 52.5t63 76t52 85t36 80.5q8 20 11.5 40.5t1.5 40.5
q-2 17 -9.5 25t-24.5 8q-26 0 -52 -10.5t-46 -27.5q-5 -5 -10 -9l-10 -8q-10 -8 -19 -8q-17 0 -23 17q-1 5 2 8q5 5 9.5 9t9.5 8q38 32 69 68t57 78q7 11 13.5 22t4.5 25q-12 -1 -28 -11.5t-32 -24.5t-30 -28t-21 -22q-42 -48 -73.5 -103.5t-55 -115.5t-39 -122.5
t-25.5 -123.5q-3 -16 -17 -16q-3 0 -4 1z" />
    <glyph glyph-name="C" unicode="C" horiz-adv-x="333" 
d="M376 209q-1 -2 -2.5 -4t-3.5 -4q-32 -39 -64 -78.5t-65 -78.5q-12 -15 -32 -36.5t-43.5 -41.5t-47.5 -34t-45 -14q-23 0 -40 12.5t-28 31.5q-11 21 -15 44.5t-2 48.5q1 46 11 96t26 99t37 96t45 87q13 23 34.5 52t47 55.5t53.5 44.5t55 18q30 0 48 -30q10 -19 4 -44
q-2 -7 -8.5 -23.5t-15.5 -33t-19 -29.5t-19 -13q-6 0 -13 4.5t-9 10.5q-3 5 1 11q17 23 32.5 49.5t19.5 57.5q0 9 -8 9q-3 0 -5 -1q-55 -18 -99 -67t-77 -110.5t-55 -127t-34 -116.5q-6 -32 -10 -63t-2 -62q0 -6 2 -20.5t6.5 -28.5t11 -25t14.5 -11q12 0 32 14t40.5 33
t38.5 38t26 28l62 74l62 74q3 3 5.5 6t5.5 6q11 14 23 14q10 0 18 -10q2 -2 1.5 -4t-0.5 -4z" />
    <glyph glyph-name="D" unicode="D" horiz-adv-x="463" 
d="M-18 -6q-2 18 -1.5 36t3.5 36q3 19 6 37t8 36q29 125 60.5 247.5t72.5 244.5q2 9 4.5 16.5t13.5 7.5q4 -2 7.5 -3.5t7.5 -3.5q13 -6 7 -21q-41 -132 -76 -263.5t-62 -266.5q-2 -8 -3.5 -15.5t1.5 -18.5q6 8 9.5 14.5t5.5 12.5q18 43 35.5 85.5t35.5 85.5q20 46 42.5 91
t48.5 89q11 19 33 51t48.5 63t54.5 53.5t52 22.5q14 0 26 -7t21 -17.5t14.5 -23.5t6.5 -26t1 -25.5t-2 -26.5q-13 -91 -43 -176.5t-77 -169.5q-10 -18 -26 -41.5t-36 -44.5t-43 -35.5t-46 -14.5q-18 0 -33 7.5t-20 26.5q-4 13 -5 25t0 26t9.5 25.5t24.5 11.5q5 -1 10.5 -3
t10.5 -4q6 -2 1 -7q-10 -11 -13.5 -21.5t-3 -20.5t3.5 -20l6 -20q0 -4 6 -4q8 0 21.5 10.5t19.5 16.5q38 37 71.5 93.5t59 120t43 126.5t23.5 113q4 25 1 52q-3 26 -15 26q-9 0 -25 -10q-38 -24 -73.5 -67t-65.5 -93t-54.5 -101t-41.5 -90q-20 -48 -39 -96.5t-42 -96.5
q-8 -14 -15 -29t-16 -29q-12 -19 -32 -19q-13 0 -19 4.5t-8 17.5z" />
    <glyph glyph-name="E" unicode="E" horiz-adv-x="335" 
d="M-24 286q-12 17 11 23l27 6q13 3 16.5 5.5t6.5 14.5q16 60 38.5 117t50.5 114q2 3 3 5.5t2 5.5q5 11 -6 9q-8 0 -17 -0.5t-18 -1.5l-15 -3h-3q-11 0 -17.5 8.5t-4.5 19.5q1 2 2.5 4t3.5 2q5 2 10.5 3t10.5 2q15 2 30.5 4t31.5 4q8 1 16 3t14 10q3 6 9 6q3 0 7 -2
q7 -6 21 -6q5 0 11 0.5t12 1.5q46 8 91 14.5t90 14.5h6q11 0 16 -9q7 -12 3.5 -18t-19.5 -9q-52 -9 -103.5 -18t-103.5 -17q-13 -2 -20.5 -7t-12.5 -16q-29 -57 -54.5 -116.5t-41.5 -122.5q-3 -9 7 -9q5 0 9 1t9 1q29 5 56.5 8.5t56.5 7.5q2 1 7 1q20 0 26 -18q2 -4 -0.5 -7
t-6.5 -4q-37 -3 -74 -10.5t-74 -14.5q-15 0 -23 -5.5t-11 -21.5q-8 -45 -13 -89t-3 -88q1 -16 5 -33t11.5 -31t20.5 -23.5t32 -9.5q17 0 38.5 9t43 21.5t40.5 27t31 25.5q16 14 27 14q8 0 15 -3q3 -2 3.5 -5t-1.5 -5q-15 -18 -38.5 -36t-50 -33t-53.5 -24t-50 -9
q-38 0 -69 18.5t-41 58.5q-5 24 -5.5 49t1.5 51q2 31 5.5 62.5t9.5 61.5q-6 2 -9 2q-5 0 -13 -2q-8 0 -13 2t-10 9z" />
    <glyph glyph-name="F" unicode="F" horiz-adv-x="266" 
d="M-21 292q-2 16 15 18l27 3q11 2 14.5 4.5t5.5 13.5l4 22l4 22q7 38 13 74.5t13 74.5l3 21q2 24 2 30t-15 6q-3 0 -7 -0.5t-9 -0.5q-13 0 -19 8.5t-3 22.5q2 6 8 8q4 1 7.5 1t7.5 1q76 2 151.5 5t151.5 6h12q9 0 11 -10q2 -5 1.5 -10t-1.5 -10q-3 -9 -11 -10q-8 0 -12 -1
q-25 -2 -49 -3l-48 -2q-29 -1 -58.5 -1.5t-59.5 -2.5q-10 -1 -12.5 -4t-4.5 -13q-8 -56 -17 -111t-19 -111q-2 -10 -2 -15q-1 -11 11 -11q6 -1 12 -1h12h52.5t52.5 -1q8 0 15.5 -1t15.5 -2q21 -1 21 -24q0 -8 -7 -8q-14 0 -28 0.5t-28 0.5q-31 0 -61.5 -1t-61.5 -3
q-15 0 -16 -14l-18 -135q-5 -32 -9.5 -65t-9.5 -66q-3 -20 -23 -20q-5 0 -10 2.5t-6 8.5q-1 3 -0.5 6t0.5 6q8 64 16 127t16 127q0 2 0.5 4.5t0.5 4.5q1 10 -9 10q-3 0 -6 -0.5t-6 -0.5q-14 0 -20 2.5t-10 17.5z" />
    <glyph glyph-name="G" unicode="G" horiz-adv-x="459" 
d="M-9 70q-5 32 -2 64.5t11 65.5q22 89 65 169.5t105 155.5q17 20 39.5 41t48 37.5t53.5 27t56 10.5q51 0 73 -44q1 -2 2 -3.5t1 -3.5q1 -4 1 -7t-3 -7q-2 -2 -4 -2q-7 0 -12.5 7.5t-7.5 13.5q-3 11 -13 12.5t-19 1.5q-39 0 -76.5 -19t-71 -50.5t-63 -72t-54 -82.5t-42 -82
t-27.5 -72q-13 -40 -18.5 -80t-0.5 -79q1 -8 5 -23t11 -30t16 -26.5t19 -11.5q15 0 33 11t35 26t31.5 31t22.5 26q30 40 55.5 81t51.5 83q2 2 3 5t-2 5q-1 1 -3 1q-6 0 -30.5 -8.5t-54 -19.5t-55.5 -21.5t-34 -14.5q-10 -4 -12 -4q-5 0 -8.5 3.5t-5.5 7.5q-5 11 -4 17t16 13
q25 11 50 21t51 19l129 42q2 1 8 1q9 0 16 -5.5t7 -15.5q1 -7 -1 -17q-11 -63 -23 -126t-23 -126q-2 -9 -5 -15.5t-14 -6.5q-8 0 -15 3.5t-6 10.5q8 69 21 138q1 5 2 10.5t-2 10.5q-7 -2 -9 -7t-5 -10q-17 -27 -39.5 -59.5t-49.5 -61t-58.5 -47.5t-66.5 -19q-22 0 -39 9
t-29 24t-19.5 34.5t-10.5 39.5z" />
    <glyph glyph-name="H" unicode="H" horiz-adv-x="445" 
d="M-37 243q-5 13 10 18q14 3 27 6l26 6q10 2 11 10q2 6 2.5 12t1.5 11q11 89 26 177t30 177q0 2 1 3q2 6 2 13.5t8 9.5q2 1 7 1q7 0 12 -3.5t10 -8.5q3 -3 2 -7.5t-2 -9.5q-14 -88 -27 -175.5t-26 -175.5q-2 -10 -1 -17q0 -8 9 -8q49 5 97.5 9t97.5 7q11 0 16.5 2.5
t8.5 13.5q5 17 8.5 33.5t8.5 33.5q20 75 41 150t47 149q2 9 10 9q4 0 8.5 -1.5t8.5 -3.5q8 -5 9 -9t-2 -14q-25 -87 -48.5 -172t-46.5 -172q-3 -9 -1 -12t13 -3h11q14 0 19 -4.5t7 -17.5q0 -10 -11 -12q-11 -1 -21 -1.5t-21 -2.5q-9 -2 -10 -10q-2 -5 -2.5 -9t-1.5 -8
q-10 -48 -19.5 -94t-19.5 -93q-3 -16 -9 -27.5t-26 -11.5q-12 0 -8 19q9 51 18 100t19 99q4 17 4 23.5t-12 6.5q-3 0 -7 -0.5t-9 -0.5q-44 -4 -86.5 -7t-85.5 -7q-7 -1 -14 -2.5t-9 -9.5t-3 -16t-3 -16q-5 -24 -8.5 -48t-8.5 -48h3q-5 -29 -10 -57t-10 -57q-3 -17 -12 -21
t-23 -4q-6 1 -6 8t0.5 13.5t1.5 12.5q18 113 33 223q2 11 -7 11q-2 0 -2.5 -0.5t-1.5 -0.5q-5 -1 -10.5 -2t-10.5 -2q-9 -3 -14 -3q-8 0 -11.5 4t-7.5 14z" />
    <glyph glyph-name="I" unicode="I" horiz-adv-x="208" 
d="M-147 22q17 4 34 4.5t34 0.5q14 0 26.5 -0.5t25.5 -1.5q5 -1 9 -1t9 -1q14 0 17 13l3 15l81 447q3 16 6 31t6 31q3 18 -8 18q-6 0 -10 -1q-22 -3 -43 -7t-43 -8q-4 -1 -10 -1q-16 0 -19 21q0 14 14 17q24 5 48.5 10t49.5 8q45 7 89 12t89 11h5q22 0 19 -27q-1 -6 -8 -8
t-12 -3q-23 -4 -46 -7l-46 -6l-12 -3q-10 -2 -12 -12q-2 -6 -2.5 -12t-2.5 -12q-22 -128 -45.5 -253t-47.5 -252q-4 -20 -1 -23.5t21 -5.5q9 -1 18 -1t17 -1q19 -2 23 -8t2 -28q-7 -3 -14 -3t-17 2q-35 2 -68.5 4t-67.5 4q-9 1 -17.5 1h-17.5h-29.5t-29.5 -1q-27 -2 -24 29
q0 6 7 8z" />
    <glyph glyph-name="J" unicode="J" horiz-adv-x="313" 
d="M390 687q8 2 9 2q7 0 10 -7.5t3 -12.5q2 -9 -7 -12q-5 -2 -10 -4.5t-10 -4.5q-11 -4 -22 -7.5t-22 -7.5q-15 -5 -20 -22q-11 -42 -20.5 -82t-20.5 -82q-7 -27 -21 -76t-33.5 -106.5t-44.5 -117t-54.5 -107.5t-63 -78.5t-69.5 -30.5q-21 0 -38.5 9t-25.5 30q-11 35 -7 71
q8 52 30.5 90.5t54.5 78.5q10 13 16 18.5t14 5.5q5 0 11 -2t14 -6q-32 -40 -58 -80.5t-36 -88.5q-3 -18 -4 -35t4 -34q4 -10 11.5 -24.5t19.5 -14.5q10 0 28 18q37 35 68.5 93t57.5 123.5t45.5 129.5t31.5 112q11 42 22 83t22 83q2 6 2 9q1 7 -6 7l-12 -3q-42 -14 -83 -28
t-83 -31q-37 -15 -73 -32t-69 -40q-4 -4 -9 -4t-10 5.5t-7 10.5q-9 14 9 25q51 31 104.5 55t110.5 44q50 17 98.5 32t98.5 32q11 3 22 6.5t22 7.5z" />
    <glyph glyph-name="K" unicode="K" horiz-adv-x="298" 
d="M-10 -22q-5 -29 -33 -29q-11 0 -9 12q1 7 1.5 13.5t2.5 13.5q10 61 19 121.5t19 120.5q20 106 42.5 211t49.5 210q2 5 2.5 10t2.5 10q3 13 14 13q1 0 2 -0.5t2 -0.5q8 -3 17 -8q6 -3 4 -13q-11 -49 -22.5 -97.5t-23.5 -97.5q-5 -22 -9.5 -44t-9.5 -44l-21 -114
q-1 -5 -1.5 -8.5t-0.5 -8.5q0 -1 2 -5q1 -3 5 1q39 32 77.5 68t76 75t73 79t68.5 78q21 25 40.5 50t35.5 54q2 5 6 5q7 0 13 -8t8 -13q3 -7 -1 -14t-7.5 -13.5t-8.5 -13.5q-80 -108 -171.5 -201t-193.5 -180q-8 -7 -9 -11t4 -9q18 -22 34 -45t34 -45q20 -22 42 -41t48 -35
q2 -2 4.5 -3t4.5 -3q5 -4 -1 -10q-16 -14 -28 -14q-8 0 -15 4q-46 25 -74 58t-57 75q-5 6 -9 11.5t-9 11.5q-1 1 -5 1q-4 -2 -4 -5q-4 -13 -5 -23q-7 -38 -13.5 -74.5t-12.5 -74.5z" />
    <glyph glyph-name="L" unicode="L" horiz-adv-x="282" 
d="M-18 49q-3 11 -4.5 22t0.5 22q3 22 5.5 41.5t4.5 30.5q26 127 65 248t84 242q4 13 15 13q5 0 8 -2q5 -1 7 -4q12 -6 7 -21q-8 -22 -15 -43.5t-15 -43.5q-39 -106 -72.5 -220t-49.5 -226q-2 -14 -2 -27.5t5 -26.5q5 -14 13 -25.5t25 -11.5q12 0 24 4t23 10q14 8 27 15.5
t27 15.5q12 8 24 15t25 15q11 8 24 8q5 0 13 -2q2 0 2.5 -3.5t-1.5 -5.5q-9 -8 -24 -18.5t-32.5 -20.5t-34 -19t-27.5 -14q-39 -17 -75 -17q-26 0 -47 10t-29 39z" />
    <glyph glyph-name="M" unicode="M" horiz-adv-x="535" 
d="M-8 54v25q2 32 6 76t10.5 92.5t16 99.5t21.5 98.5t28 87.5t35 67q11 15 26 15t27.5 -7.5t15.5 -22.5q5 -21 6 -42.5t2 -42.5q2 -27 3 -54t3 -54q0 -9 1 -18t6 -17q6 1 8.5 4.5t4.5 8.5q11 19 21.5 38t20.5 38q18 36 37 70.5t40 69.5q9 14 22 33t29.5 37t34 30.5
t35.5 12.5q22 0 39 -15t19 -37q5 -38 -1 -75q-11 -85 -27 -168.5t-34 -167.5q-12 -56 -24.5 -111t-25.5 -111l-4 -16l-4 -16q-2 -11 -11.5 -19.5t-21.5 -8.5q-9 0 -8 12q5 23 9 46.5t10 46.5q11 45 19.5 88t18.5 88q17 81 32 162t29 162q3 19 4.5 37t2.5 36q0 16 -3 31
q-1 9 -7 9q-12 0 -28 -14.5t-33.5 -37.5t-34.5 -51.5t-32.5 -55t-27 -48.5t-16.5 -33q-9 -17 -18 -33t-19 -32q-11 -18 -24.5 -34.5t-36.5 -16.5q-13 0 -23 6.5t-13 18.5q-11 53 -13 105.5t-2 106.5q0 10 -6 12q-5 -4 -7.5 -9.5t-5.5 -10.5q-22 -49 -38 -110.5t-26.5 -125
t-16.5 -126t-8 -115.5q-1 -12 -4 -19t-18 -7q-7 0 -13.5 1.5t-7.5 10.5z" />
    <glyph glyph-name="N" unicode="N" horiz-adv-x="475" 
d="M474 645q-18 -72 -35.5 -144t-34.5 -145q-10 -45 -19 -89t-18 -89q-6 -25 -11.5 -49.5t-10.5 -49.5q-5 -22 -15.5 -41t-38.5 -19q-5 0 -10.5 2.5t-7.5 7.5q-3 8 -6.5 15.5t-5.5 15.5q-8 31 -14 62t-11 63q-8 52 -14 103.5t-14 103.5q0 5 -2.5 21t-6.5 37t-9.5 44.5
t-11.5 43t-13 32t-14 12.5q-4 0 -8.5 -5.5t-9 -12.5t-7.5 -14t-4 -10q-24 -59 -40.5 -121.5t-27.5 -126.5t-17 -128.5t-11 -127.5q-2 -16 -6.5 -26t-24.5 -10q-15 0 -14 21q1 17 2.5 35t3.5 35q12 118 31.5 235t65.5 227q7 18 20 36t35 18q17 0 34.5 -10t26.5 -25
q13 -21 22 -47.5t15.5 -55t10.5 -56.5t7 -51q8 -59 16.5 -116t19.5 -114q2 -10 3 -20.5t10 -16.5q7 10 8 19.5t3 19.5q25 122 51 242t58 240q2 11 5.5 22t6.5 22q3 10 14 10q3 -1 5.5 -1.5t5.5 -1.5q11 -3 13.5 -6.5t-0.5 -15.5z" />
    <glyph glyph-name="O" unicode="O" 
d="M36 72q-19 35 -26 74.5t-5 82.5q2 69 20.5 136.5t49.5 134.5q8 17 23 42.5t34.5 50.5t41 42.5t42.5 17.5q8 0 15 -4q2 -1 7 -1q7 0 13 3q18 7 37 7q15 0 32 -5q42 -13 67.5 -39t30.5 -72q2 -23 0 -47t-7 -53q-9 -45 -25.5 -93.5t-36.5 -98.5q-13 -34 -34 -77.5t-49 -81.5
t-63 -64.5t-77 -26.5q-33 0 -54.5 22.5t-35.5 49.5zM73 379q-14 -50 -21.5 -98.5t-3.5 -96.5q4 -43 18 -80t42 -67q8 -9 14 -14t14 -5q12 0 39 20q22 17 44.5 47.5t43 69.5t39 82.5t33.5 86t25.5 80t14.5 64.5q5 23 6 45.5t-2 45.5q-4 30 -20 52.5t-50 22.5q-16 0 -34 -7.5
t-31 -15.5q-11 -8 -22 -8q-5 0 -11 3q-2 1 -6 1q-7 0 -13 -6q-44 -42 -73.5 -103.5t-45.5 -118.5z" />
    <glyph glyph-name="P" unicode="P" horiz-adv-x="326" 
d="M-13 -15q-3 17 -3 35t1 36q3 51 11.5 107t19 112.5t23 111.5t24.5 105q8 33 17 67t20 67q4 11 7 16.5t10 5.5q8 0 19 -5q6 -3 7 -6.5t-1 -12.5q-31 -113 -58 -227.5t-44 -230.5q-1 -6 -1 -11.5v-11.5q0 -2 1.5 -3t3.5 -4q11 36 22 69.5t22 66.5q8 25 22 61t32.5 75
t41 77.5t48.5 69t55 49.5t59 19q26 0 42 -15t17 -41q1 -21 -3 -43t-11 -44q-12 -36 -30.5 -81.5t-45.5 -85t-62 -67t-79 -27.5q-5 0 -14.5 2.5t-11.5 7.5q2 7 9 7q39 0 71.5 30t57.5 72.5t42.5 88t26.5 76.5q7 21 9.5 42.5t0.5 41.5q-1 13 -10 13q-6 0 -15.5 -4.5t-19 -11
t-17.5 -13.5t-13 -11q-36 -33 -65 -80.5t-52 -100t-41 -106t-33 -98.5l-54 -171q-5 -16 -12.5 -24.5t-25.5 -9.5q-9 0 -13.5 3t-6.5 12z" />
    <glyph glyph-name="Q" unicode="Q" horiz-adv-x="409" 
d="M6 98q-11 48 -9 99q2 77 20 151.5t54 149.5q5 10 18 33t28.5 46t32.5 41t29 18q3 0 8.5 -1.5t7.5 -3.5q11 -11 21 -11q11 0 24 10q10 7 22 7q5 0 10.5 -1t10.5 -3q38 -11 63 -35t34 -64q6 -26 7 -52t-2 -53q-4 -36 -15.5 -81.5t-30 -93t-44 -93.5t-56.5 -81.5t-68 -57.5
t-79 -22q-20 0 -34.5 9t-24.5 23.5t-16.5 32t-10.5 33.5zM124 512q-48 -88 -67.5 -177t-15.5 -180q2 -56 25 -101q5 -10 14.5 -23t23.5 -13q2 0 8 2q32 9 62.5 37t56.5 68.5t48 89.5t38 98t24.5 94t8.5 79q0 16 -2 37t-9 40.5t-20 33t-34 13.5q-12 0 -23 -8
q-12 -8 -23.5 -17t-22.5 -18q-5 -4 -8.5 -8.5t-5.5 -10.5q-2 -8 -9 -6q-16 1 -24 16q-3 8 4 15q-12 -3 -19 -13q-8 -12 -15.5 -24t-14.5 -24zM-33 -48q0 11 12 16q15 4 32 6q27 2 54.5 3t54.5 1h62h76q15 0 19 -4t4 -18q0 -10 -4 -13.5t-15 -4.5q-23 -2 -46.5 -3t-46.5 -1
h-36h-50h-32q-15 0 -30.5 -1t-31.5 -5q-2 0 -4 -0.5t-4 -0.5q-8 0 -11 9t-3 16zM174 576q2 5 7 9t6 11q5 -1 8 4l4 2t0 3t-6 -2q-6 -2 -6 -7q-8 -3 -10 -8.5t-3 -11.5z" />
    <glyph glyph-name="R" unicode="R" horiz-adv-x="350" 
d="M-11 -27q-4 18 -4.5 36.5t1.5 37.5q6 88 21 174t37 174q11 43 22.5 85.5t22.5 86.5q4 16 8 31.5t9 32.5q3 9 10 9q2 0 6 -2q6 -4 9 -5q15 -9 9 -27q-13 -45 -24 -89t-22 -89q-18 -69 -33 -139.5t-23 -142.5q8 6 10.5 12t4.5 13q18 48 36 94.5t39 93.5q8 18 21.5 45.5
t30.5 57.5t37 60.5t41.5 54.5t44 39t44.5 15q19 0 37 -16q26 -27 17 -67q-7 -33 -24 -66.5t-39.5 -63.5t-49.5 -55t-55 -42q-17 -11 -33 -20t-32 -19q-9 -6 -11 -9.5t1 -12.5q8 -30 18 -61t22.5 -60.5t29 -57t38.5 -50.5q6 -6 16 -14t21.5 -16t23 -13t20.5 -5q4 0 7 0.5
t7 1.5q3 2 5 -2q2 -2 -2 -8q-15 -19 -41 -19q-6 0 -12 1t-12 3q-37 15 -64.5 40.5t-47 58t-33 68.5t-24.5 72q-2 6 -3.5 12.5t-9.5 11.5q-23 -52 -41 -108t-31 -111q-2 -6 -4 -12.5t-4 -13.5q-6 -19 -26 -19q-8 0 -14.5 3.5t-7.5 10.5zM361 601q-16 0 -37 -17.5t-43.5 -44.5
t-44 -60t-39 -64t-28.5 -57t-12 -38q1 0 1.5 -0.5t1.5 -0.5q2 0 8.5 4t14.5 8.5t14.5 9.5t8.5 6q59 40 98 92.5t62 116.5q6 18 5 35q-2 10 -10 10z" />
    <glyph glyph-name="S" unicode="S" horiz-adv-x="388" 
d="M3 241q-23 2 -32.5 18t-1.5 39q7 23 21 45q48 72 109 129.5t136 100.5q8 5 20 11t25 12t26 10t22 4q19 0 33 -20q3 -7 -2 -11q-3 -3 -8 -3q-4 3 -11 3t-14 -3t-15 -6q-41 -18 -87 -48t-88 -67.5t-76 -79.5t-52 -83q-10 -24 3 -24q5 0 14 3q17 5 34 9.5t34 9.5
q28 8 55.5 16t56.5 14q11 2 22.5 3t22.5 1q23 0 39 -7t31 -24q12 -13 9 -37q-2 -14 -7.5 -27.5t-12.5 -26.5q-15 -27 -43.5 -67.5t-63.5 -77.5t-73.5 -63.5t-74.5 -26.5q-19 0 -36 11q-31 21 -19 61q6 20 21 43.5t34.5 43.5t42 33t44.5 13q15 0 28.5 -5t22.5 -16q2 -2 0 -6
q0 -2 -4 -2q-5 1 -8.5 1.5t-8.5 1.5q-4 2 -13 2q-13 0 -24 -7q-15 -10 -32 -24t-31.5 -31.5t-24.5 -36.5t-11 -39q-1 -19 9 -19q7 0 15 4q32 14 70 46t72 72t59.5 82t31.5 75q0 2 0.5 5t0.5 6q0 12 -5 15t-16 3h-13.5t-14.5 -2q-34 -5 -67.5 -14.5t-67.5 -19.5
q-17 -5 -33 -9.5t-32 -9.5q-11 -2 -20.5 -2.5t-20.5 -0.5z" />
    <glyph glyph-name="T" unicode="T" horiz-adv-x="206" 
d="M363 594q-2 -3 -5 -3.5t-6 -0.5t-5 1q-10 3 -19.5 4t-19.5 1h-15t-15 -1q-28 -3 -55 -6.5t-55 -7.5q-5 0 -9 -1t-9 -2q-6 -2 -8 -8q-1 -5 -1.5 -9t-0.5 -9q-10 -64 -19 -127t-19 -127q-11 -66 -21.5 -131.5t-18.5 -131.5q-3 -23 -28 -23q-5 0 -10 3q-6 3 -4 12q1 14 2 29
t3 29l57 360q4 26 7.5 52.5t6.5 52.5q1 3 1 9q1 11 -8 11h-3q-20 -3 -39 -4t-39 -1q-24 0 -47.5 1.5t-46.5 6.5q-12 3 -20 10.5t-9 21.5q0 12 12 12q24 -6 48 -8.5t50 -2.5q47 0 93 6q11 2 13.5 5t4.5 12q1 5 1.5 10t1.5 10q3 12 14 10q10 -2 16 -4q5 -2 8 -5.5t2 -11.5
q0 -9 1 -12t7 -3q5 0 8 1q19 2 37.5 4.5t36.5 4.5t36 3t35 2q11 0 22.5 -0.5t22.5 -5.5q11 -4 13.5 -15.5t-5.5 -22.5z" />
    <glyph glyph-name="U" unicode="U" horiz-adv-x="521" 
d="M6 57q-8 47 -2 94q4 38 7.5 74.5t8.5 74.5q0 11 3 23q11 61 24 121.5t29 121.5q1 5 2.5 10t3.5 10q4 11 17 11q14 0 21 -6q6 -3 4 -12q-33 -111 -50.5 -221t-27.5 -225q-3 -35 5 -73q0 -4 2 -11t7 -7q6 0 17 12.5t22.5 28.5t21 31.5t12.5 20.5q20 35 39.5 69.5t38.5 69.5
q17 31 45.5 82t61.5 104.5t66.5 99.5t60.5 67q11 10 30 10q35 0 36 -30q1 -16 -1.5 -32t-7.5 -32q-11 -39 -21 -78.5t-18 -78.5q-9 -39 -18.5 -77.5t-17.5 -77.5q-9 -45 -15.5 -89t-5.5 -89q0 -29 6 -54.5t24 -46.5q10 -11 -5 -22q-4 -3 -10.5 -6.5t-11.5 -3.5q-6 0 -12.5 7
t-11.5 16t-8.5 18.5t-5.5 14.5q-6 25 -7 50.5t1 51.5q4 57 13.5 114t23.5 114q9 42 18.5 83t19.5 83q5 22 11 44t11 44q2 8 5 16.5t-4 15.5q-7 -3 -19 -17t-24.5 -31t-23 -33.5t-14.5 -22.5q-38 -58 -72.5 -117.5t-68.5 -119.5q-20 -38 -42 -75t-46 -73q-8 -12 -20 -28
t-26 -30.5t-30 -24t-33 -9.5q-21 0 -28.5 14.5t-9.5 31.5z" />
    <glyph glyph-name="V" unicode="V" horiz-adv-x="356" 
d="M21 209q-1 61 -0.5 121.5t4.5 121.5q2 39 5.5 77.5t5.5 76.5q2 9 3 15.5t3 13.5q2 14 7 16.5t18 2.5q1 -1 2 -1q11 -2 13.5 -4.5t0.5 -13.5q-6 -58 -11 -116t-7 -117q-2 -77 -2.5 -153t7.5 -151q0 -4 1.5 -16.5t4 -26t6.5 -24t8 -10.5q5 0 9 6q40 51 68.5 109t54.5 118
q80 188 156 375q8 20 19 20q2 0 12 -2t12.5 -5.5t-1.5 -13.5q-42 -109 -87 -216t-93 -213q-33 -76 -79 -145q-14 -22 -33 -42.5t-48 -20.5q-28 0 -37 25q-7 17 -11 42.5t-6.5 53t-3.5 53.5t-1 44z" />
    <glyph glyph-name="W" unicode="W" horiz-adv-x="569" 
d="M2 57q-11 69 -6 142q5 112 30.5 230.5t65.5 223.5q9 23 21 23q7 0 17 -5q8 -4 9 -7t-3 -11q-19 -45 -35 -99t-28.5 -111.5t-21 -114t-11.5 -105.5q-3 -42 -2 -82.5t8 -80.5q0 -2 1 -7.5t2.5 -11t3.5 -9.5t4 -4q5 0 6 3q7 9 11 18.5t9 20.5l34 74t34 75q12 25 24.5 50
t26.5 49q5 8 10.5 16t11.5 16q13 16 32 16q13 0 24.5 -5t13.5 -19q2 -12 3 -24t1 -24v-79.5t1 -78.5q1 -18 2.5 -36t4.5 -35q1 -6 5 -19.5t10 -27.5t13 -25t14 -11q6 0 13 13t14 30t12.5 33t6.5 21q34 125 55 250.5t20 256.5q0 14 0.5 27.5t1.5 27.5q0 12 11 12q3 0 5 -1
q3 -1 5.5 -1.5t5.5 -1.5q12 -4 12 -19q-1 -24 -1 -48v-47q-1 -55 -7 -119.5t-17 -130.5t-26.5 -129.5t-35.5 -115.5q-6 -15 -13 -30t-17 -27t-24 -19.5t-33 -7.5q-24 0 -39 19t-24 45t-12.5 53.5t-4.5 45.5q-2 40 -1.5 80t0.5 81q1 8 0.5 17t-1.5 17q0 5 -3 3q-5 0 -5 -2
q-5 -9 -10.5 -17.5t-10.5 -17.5q-20 -39 -38 -78.5t-37 -78.5q-15 -35 -31 -68q-11 -22 -27 -43t-44 -21q-13 0 -21.5 6t-13.5 16t-7 21.5t-4 22.5z" />
    <glyph glyph-name="X" unicode="X" horiz-adv-x="386" 
d="M396 641q-5 -8 -10.5 -15.5t-10.5 -15.5q-50 -69 -93.5 -139.5t-85.5 -142.5q-13 -23 -26 -43q-7 -12 -4 -25q18 -58 43 -112t60 -102q13 -17 28.5 -30t32.5 -26q8 -5 16 -5.5t17 -0.5q-2 -13 -15.5 -20.5t-25.5 -7.5q-8 0 -14 3t-12 8q-57 40 -92 98.5t-60 122.5
q-2 7 -4 13.5t-7 11.5q-8 -2 -10.5 -7.5t-5.5 -10.5l-60 -98l-60 -98q-2 -4 -5 -8t-5 -8q-3 -5 -6.5 -9t-9.5 -4q-17 0 -24 11q-1 2 1 9l12 21l129 216q5 7 8.5 13.5t8.5 13.5q12 18 6 36q-28 97 -43.5 197.5t-32.5 202.5q-1 1 0 2.5t1 3.5q8 3 12 3q8 0 17.5 -4.5
t11.5 -12.5q11 -66 23 -132l24 -132q4 -18 8 -35.5t8 -35.5q2 -9 7 -14q8 5 11.5 11.5t7.5 13.5q23 38 45.5 75t46.5 75t49.5 74.5t50.5 74.5q8 12 16 12q5 0 10.5 -3.5t9.5 -7.5q8 -6 1 -17z" />
    <glyph glyph-name="Y" unicode="Y" horiz-adv-x="445" 
d="M34 283q-12 54 -9 110q3 59 11 118t28 115q5 11 14 11q5 0 11 -2t10 -4q6 -3 5 -9q-9 -32 -16.5 -64t-11.5 -65q-5 -36 -8 -72.5t-1 -72.5q0 -6 2.5 -25.5t7 -39.5t11.5 -36t16 -16q6 0 15 7t18 16t16.5 18t10.5 14q20 25 36.5 51.5t33.5 53.5q25 39 49 78.5t49 78.5
q6 10 17.5 27.5t25.5 35t28.5 30.5t26.5 13q10 0 22 -6q16 -8 15 -26q-2 -23 -5.5 -43t-8.5 -42q-11 -50 -24 -99t-30 -99q-9 -27 -23.5 -66t-33.5 -81.5t-42.5 -84.5t-51 -75.5t-58 -54.5t-64.5 -21q-19 0 -35 7.5t-24 26.5q-27 63 23 127q25 32 68 32q3 0 10.5 -0.5
t15.5 -2t14 -4t6 -5.5q0 -5 -6.5 -6.5t-10.5 -1.5t-7 0.5t-7 1.5q-3 1 -8 1q-13 0 -28 -13q-14 -13 -23 -31t-12 -37t0.5 -36.5t13.5 -30.5q8 -10 15 -10t17 6q35 20 66.5 61.5t59 95.5t50.5 115t41.5 120.5t32 112.5t21.5 89q3 11 3 21q1 1 0 2t-2 1q-3 2 -5 -2l-10 -12
t-10 -13q-32 -48 -62.5 -96t-60.5 -97q-17 -28 -35 -54.5t-39 -52.5q-19 -23 -42.5 -42.5t-55.5 -19.5q-16 0 -27.5 6.5t-19 17t-12 24t-7.5 26.5z" />
    <glyph glyph-name="Z" unicode="Z" horiz-adv-x="456" 
d="M-130 -21q-2 11 7 15q8 4 13 9.5t10 11.5q45 56 92 108t97 103q8 8 11 12q7 9 -3 11q-14 1 -27.5 1.5t-27.5 1.5q-12 0 -17 4t-7 15q-3 22 18 22q22 0 44 -2.5t44 -4.5q2 0 3.5 -0.5t3.5 -0.5q17 0 31 15q19 20 38.5 40t39.5 40q50 54 101 105l102 102q7 7 13.5 14
t13.5 14q3 3 3 8q-1 3 -7 3q-16 -2 -31 -4.5t-31 -4.5l-108 -16t-109 -16q-26 -3 -51 -5t-51 -2q-18 0 -35.5 1t-34.5 4q-17 2 -28 9t-13 24q-1 3 2 5.5t6 1.5q19 -5 39 -6.5t40 -1.5q42 0 83 5t83 11q46 7 91 13.5t90 13.5q16 3 31.5 6t31.5 5q21 0 31.5 -4.5t10.5 -31.5
q0 -18 -13 -34q-8 -12 -17.5 -22.5t-19.5 -21.5q-61 -63 -121 -125t-121 -125q-5 -5 -10.5 -9.5t-3.5 -12.5q3 -5 11 -5h28.5t28.5 -1q17 -1 21.5 -5.5t4.5 -20.5q1 -13 -12 -13q-26 1 -52.5 1.5t-52.5 2.5q-14 0 -22 -2.5t-18 -12.5q-47 -49 -92.5 -97.5t-88.5 -100.5
q-4 -4 -7 -8t-6 -9t2 -7h12h11q36 0 71.5 -1.5t71.5 -3.5q32 -2 65 -2h66q50 -1 99.5 19.5t81.5 59.5q3 4 7 4t5 -4q6 -17 2 -29t-19 -26q-25 -22 -49.5 -35t-49 -19.5t-51.5 -8.5t-59 -2q-30 0 -61 1t-66 4q-24 1 -51 2.5t-56 1.5q-20 0 -39.5 -1t-39.5 -4q-4 -1 -7 -1.5
t-6 -0.5q-9 0 -13 4.5t-7 15.5z" />
    <glyph glyph-name="a" unicode="a" horiz-adv-x="546" 
d="M117 129q-8 -8 -19 -18t-23 -18.5t-25 -14.5t-25 -6q-19 0 -30 11t-10 31q2 32 13 61q12 33 33 70.5t49.5 68.5t63.5 51.5t75 20.5q31 0 56 -15q8 -6 11 -6q4 0 7 3t9 8l24 26t26 24q17 14 27 14q7 0 21 -7q17 -11 11 -31q-5 -17 -10 -33.5t-10 -33.5q-11 -34 -22 -67.5
t-22 -68.5q-13 -43 -23 -85.5t-15 -86.5q-5 -43 -2 -81q1 -6 1.5 -12t2.5 -13q2 -10 8 -8q6 1 16 11t21 22.5t20 24t13 16.5q30 41 59.5 81t58.5 80q12 17 23.5 32.5t23.5 31.5q12 14 26 14q12 0 19 -9q4 -4 1 -8q-2 -2 -3 -4t-3 -4q-42 -55 -81 -111t-83 -110
q-18 -23 -38 -47q-16 -16 -35.5 -31.5t-43.5 -14.5q-37 0 -44 33q-4 17 -5 34.5t0 35.5q5 82 27 161t48 156q5 15 9 29.5t9 28.5q2 6 -2 7q-2 0 -6 -3.5t-8.5 -7.5t-8 -8t-5.5 -6q-52 -56 -104 -110t-106 -108zM25 113q0 -8 5 -8q6 0 24 15t42 38.5t50.5 51t50 52.5t40.5 44
t22 25t3 14q-4 18 -23 18q-40 0 -74.5 -24t-62 -59.5t-46.5 -76t-28 -73.5q-2 -8 -2 -12q-1 -1 -1 -5z" />
    <glyph glyph-name="b" unicode="b" horiz-adv-x="450" 
d="M264 41q-6 -26 -16.5 -53.5t-25.5 -52.5t-34 -46.5t-42 -36.5q-13 -9 -29 -9q-9 0 -14 2q-17 5 -22 14.5t0 27.5q5 21 21 46t36.5 49.5t42 46.5t36.5 35t18 34q2 14 2.5 26.5t-1.5 25.5q0 4 -1.5 10t-3.5 12t-6 10.5t-9 4.5q-4 0 -10 -3q-33 -12 -61 -41t-49.5 -65.5
t-36.5 -75t-23 -69.5q-2 -8 -4 -17l-4 -18q-4 -14 -22 -14q-23 0 -23 26q-2 51 1 102.5t13 103.5q6 37 15 73.5t20 72.5q22 71 49 143t59.5 142t71.5 136.5t84 125.5q13 17 34.5 43.5t47 51.5t52 42.5t49.5 17.5q28 0 48 -29q14 -21 11 -51q-4 -32 -17.5 -67.5t-32 -71
t-39 -68t-38.5 -59.5q-12 -19 -36.5 -53.5t-55 -76t-65 -86t-67.5 -83.5t-62 -68.5t-49 -41.5q-22 -12 -26 -36l-10 -54t-9 -54q0 -5 2 -7q4 -1 8 4q12 21 29 46t37.5 47t44.5 37t50 15t47 -14t25 -38q2 -7 2.5 -14t1.5 -14q1 -4 5 -4q3 0 4 1q6 4 12 7.5t12 8.5
q36 26 70.5 45t74.5 39q12 5 20 5q15 0 26 -13q6 -6 -3 -9q-57 -26 -107.5 -57t-99.5 -69q-22 -16 -28 -40zM496 932q-20 0 -44 -16t-49 -41.5t-50 -57t-47 -62.5t-39 -58t-26 -43q-47 -82 -83 -166.5t-65 -171.5q-5 -13 -9 -25.5t-6 -28.5q11 7 17.5 14t13.5 14
q29 32 69.5 80.5t85 107t88 121t78.5 122t56.5 111t20.5 86.5q0 14 -11 14zM194 -13q-8 -8 -19 -21.5t-22 -28t-19.5 -29t-10.5 -25.5q0 -3 1 -3t2 -0.5t3 0.5q12 8 22.5 20.5t20 26.5t17 28.5t12.5 27.5q2 6 -1 6q-4 2 -6 -2z" />
    <glyph glyph-name="c" unicode="c" horiz-adv-x="366" 
d="M-14 24q-5 26 -2 51q10 72 32.5 134.5t65.5 122.5q11 15 27 34t35 35.5t39.5 27.5t40.5 11q9 0 20 -3.5t21 -9.5t17.5 -14.5t8.5 -18.5q0 -5 -1 -10t-6 -10q-3 -2 -8 -2q-3 0 -5.5 1t-5.5 3q-6 5 -10 10t0 16q2 5 -1 7t-8 3q-13 0 -22.5 -4t-20.5 -11q-38 -24 -69 -61
t-53.5 -80.5t-37 -90t-19.5 -89.5q-2 -15 -1.5 -29t3.5 -28q2 -10 5.5 -20t15.5 -10q21 0 56 21t72.5 48.5t71 56t50.5 43.5q22 19 43.5 38t43.5 37q8 6 16 6q19 0 24 -15q0 -4 -2 -6q-2 -3 -8 -9q-38 -32 -75.5 -64t-75.5 -64q-18 -15 -43.5 -34.5t-53.5 -37t-56 -30
t-51 -12.5q-26 0 -47 14.5t-26 42.5z" />
    <glyph glyph-name="d" unicode="d" horiz-adv-x="450" 
d="M1 80q-21 9 -19 33q1 19 7.5 39t16 40t20.5 38t22 33q10 14 26.5 30.5t35.5 30.5t39.5 23.5t39.5 9.5q10 0 16 1.5t11 11.5q20 37 43 77q32 58 64 115.5t64 116.5q1 2 4 5q4 5 7 12t11 7q17 0 25 -15q2 -4 0 -11t-4.5 -13t-4.5 -13q-25 -61 -50 -129t-46.5 -138
t-37.5 -140.5t-23 -136.5q-3 -29 -4.5 -57t2.5 -55q1 -8 1.5 -16.5t8.5 -9.5q6 0 18 13t25.5 29.5t24.5 32t14 20.5q21 31 41 61.5t40 62.5q5 8 10.5 15.5t10.5 15.5q14 21 27 21q3 0 7 -1t9 -2q11 -5 4 -16q-30 -45 -60 -90.5t-60 -90.5q-9 -12 -21.5 -29.5t-28 -33
t-32 -26.5t-32.5 -11q-19 0 -29 9t-15 23t-6 30.5t-1 30.5q2 101 24 197.5t54 192.5q0 3 -1 7q-8 -5 -11 -11.5t-6 -12.5q-20 -35 -40 -69t-40 -69q-10 -17 -31 -49.5t-46.5 -64t-52.5 -55t-50 -23.5q-12 0 -21 4zM23 112q0 -4 5 -4q2 0 4 1q17 12 39.5 39t44.5 59t41 63
t30 49q2 2 2 5q0 4 -1 5q-2 2 -5 1q-30 -12 -55 -33.5t-44.5 -48.5t-34 -57t-24.5 -59l-1.5 -12t-0.5 -8z" />
    <glyph glyph-name="e" unicode="e" horiz-adv-x="318" 
d="M345 235q8 0 15.5 -6t11.5 -12q-4 -6 -6 -8q-33 -29 -66 -57t-67 -57q-15 -13 -34 -27.5t-40 -27t-42.5 -20.5t-42.5 -8q-31 0 -53.5 17t-29.5 48q-2 11 -2.5 22.5t0.5 22.5q7 82 42 155t93 139q19 21 48.5 41t58.5 20q33 0 52 -30q12 -18 3 -43q-12 -29 -38.5 -60.5
t-59.5 -59.5t-67.5 -50t-61.5 -34q-20 -8 -24 -30q-3 -23 -6.5 -45t-1.5 -45q1 -13 7 -29t22 -16q14 0 31.5 7t35 17.5t33.5 21.5t27 20q26 21 51 43l50 44q12 11 24 21t25 21q7 5 12 5zM64 249q-2 -4 3 -4h2q16 7 46.5 29.5t61 51t53.5 58.5t25 51q3 14 -7 14
q-11 0 -25 -6.5t-27.5 -15.5t-25 -19.5t-18.5 -18.5q-8 -9 -22 -28t-28.5 -40t-25.5 -41t-12 -31z" />
    <glyph glyph-name="f" unicode="f" horiz-adv-x="245" 
d="M-75 203q-6 18 14 21q15 2 30 3t30 3q4 1 7 1t7 1q8 1 11 4t5 12q5 18 9.5 36t9.5 37q23 93 57 182q5 15 14 37.5t22 43t28.5 35.5t34.5 15q32 0 52.5 -23.5t21.5 -54.5q1 -25 -5.5 -49.5t-18.5 -48.5q-5 -8 -11.5 -18.5t-17.5 -10.5q-9 0 -19 5q-9 6 -2 17q18 27 28 62
q5 17 7.5 34.5t0.5 34.5l-4 18t-13 10t-22 -10.5t-22 -29.5t-20.5 -40t-17.5 -43t-14 -38t-8 -25q-12 -41 -23 -81.5t-22 -81.5l-3 -15q-2 -9 7 -9q3 -1 9 -1q38 0 77.5 0.5t77.5 3.5q5 1 15 1q18 0 24.5 -5t8.5 -22q1 -10 -10 -12q-48 -2 -94.5 -2.5t-93.5 -2.5h-21
q-10 -1 -13 -11q-18 -73 -28.5 -146.5t-18.5 -148.5q-2 -11 -3 -23t-3 -24q-2 -9 -8 -11.5t-14 -2.5t-13.5 2.5t-5.5 12.5q0 7 0.5 14t1.5 15q5 38 9 73.5t7 59.5q8 45 15.5 88t15.5 88q2 9 -8 9q-14 -1 -26.5 -1.5t-26.5 -3.5q-8 -2 -9 -2q-12 0 -18 18z" />
    <glyph glyph-name="g" unicode="g" horiz-adv-x="454" 
d="M-50 -325q-1 19 5 41q13 42 42 87t65 88.5t74.5 82t69.5 66.5q8 8 12 11q15 11 21 30q23 64 45 127l44 126q5 12 4 20q-1 0 -1.5 0.5t-1.5 0.5q-6 0 -10 -4l-8 -8q-57 -49 -116 -101q-32 -28 -63 -54t-66 -49q-10 -5 -17 -6t-18 -1q-35 5 -27 40q4 17 13.5 37t21.5 39.5
t25.5 37t25.5 30.5q13 15 31.5 30t39.5 27.5t43.5 20.5t43.5 8q23 0 41 -11q5 -3 11 -3t15 6q14 7 27 7q16 0 25 -11t7 -30q-2 -18 -7.5 -35.5t-10.5 -34.5q-12 -36 -25 -72t-25 -72q-2 -5 -4.5 -11t-0.5 -12q8 0 13.5 4.5t10.5 9.5q60 44 122 80q8 4 11 6q11 8 22 8t21 -9
q2 -2 4 -3.5t1 -5.5q-4 -6 -10.5 -9t-12.5 -6q-51 -29 -98.5 -63t-94.5 -71q-11 -9 -18.5 -19t-12.5 -23q-14 -38 -29.5 -74.5t-32.5 -73.5q-12 -24 -34.5 -63t-51 -76.5t-60.5 -64.5t-62 -27q-16 0 -27 7.5t-12 24.5zM-4 -300q-2 -8 -4.5 -16.5t5.5 -11.5h3q6 0 12 5.5
t11 10.5q30 27 55 60.5t45.5 70t38 75t32.5 75.5q1 1 0 2t-1 3q-6 -1 -9.5 -5t-7.5 -8q-21 -21 -50 -53t-56.5 -68.5t-48.5 -73t-25 -66.5zM54 190l-4 -8t1 -8q0 -1 2 -1t8 4t13 9.5t12.5 10.5t7.5 6q45 39 88.5 78t87.5 78q4 3 7 7q2 2 1 6t-4 5t-8 1q-9 0 -18 -3
q-69 -20 -116.5 -71t-77.5 -114z" />
    <glyph glyph-name="h" unicode="h" horiz-adv-x="455" 
d="M17 202q-11 6 -1 14q13 12 18.5 25.5t9.5 28.5q21 89 55 173.5t79 168.5q9 16 23.5 40t32.5 46.5t38.5 38.5t40.5 16q15 0 29 -8q33 -20 27 -64q-4 -29 -18.5 -63.5t-36 -71.5t-47 -74t-51.5 -71.5t-50.5 -64.5t-42.5 -52q-16 -16 -26.5 -29t-16.5 -26.5t-9 -30t-5 -40.5
q0 -2 1 -2.5t2 -2.5q7 4 10 10t7 11q20 29 43 56t52 46q14 8 30 8q17 0 29.5 -9t12.5 -28q0 -11 -0.5 -22.5t-1.5 -23.5q-2 -29 -5.5 -57t-3.5 -56q0 -21 2 -42t11 -41q2 -6 7 -6q7 0 20 9.5t27 22.5t26 25t17 18q22 25 42 51.5t40 53.5q7 9 13.5 18t13.5 17q9 10 17 10
q4 0 7 -1t6.5 -1.5t6.5 -2.5q10 -5 2 -14q-30 -41 -60 -81.5t-65 -78.5q-10 -11 -23 -23t-27.5 -22.5t-30 -17t-30.5 -6.5q-29 0 -41.5 19t-16.5 43q-6 38 -3 77q1 20 3 39.5t4 39.5q1 14 1.5 26.5t1.5 25.5q0 7 -5 7q-4 0 -7 -3q-34 -26 -59 -62t-46 -72q-6 -9 -11.5 -18.5
t-11.5 -18.5q-12 -18 -28 -18q-7 0 -11 1q-19 4 -18 27q2 20 4 39.5t4 39.5q1 2 1 5t1 6q5 17 -9 23zM104 334q0 -2 2 -4q3 -2 6 1q26 30 60 74.5t66 93.5t57.5 96.5t34.5 84.5q2 13 3.5 22t-0.5 18q-3 6 -7 6t-6 -2q-22 -11 -45 -37.5t-45 -62t-42.5 -77t-37 -81
t-28.5 -74.5t-18 -58z" />
    <glyph glyph-name="i" unicode="i" horiz-adv-x="253" 
d="M1 43q-3 28 -1.5 55.5t10.5 71.5q1 7 5 22t10 34.5t13.5 40t15.5 38t16 28.5t15 11t19 -10q7 -5 2 -15q-26 -56 -44 -107t-24 -115q-3 -39 3 -77q1 -3 2 -8t3 -10t4.5 -8.5t5.5 -3.5q8 0 22 12t31.5 30t36.5 40.5t35.5 43.5t29.5 38t18 24q14 20 33 43q10 14 19 14
q5 0 9.5 -2.5t9.5 -4.5q10 -6 3 -16q-34 -43 -66 -86t-68 -84q-13 -14 -26 -27.5t-28 -26.5q-25 -22 -52 -22q-17 0 -28.5 7t-18.5 18t-10 24.5t-5 27.5zM122 400q-11 8 -3 22q25 52 55 101q6 11 13 11q6 0 10 -4q13 -7 13 -20q-2 -6 -4 -10q-14 -25 -27.5 -49t-27.5 -49
q-7 -10 -14 -10q-4 0 -8 2.5t-7 5.5z" />
    <glyph glyph-name="dotlessi" unicode="&#x131;" horiz-adv-x="254" 
d="M3 40q-3 28 -1 55.5t10 71.5q1 7 5.5 22t10.5 34.5t13.5 40.5t15.5 38t16 28t15 11q6 0 19 -10q7 -5 2 -15q-26 -55 -44.5 -107.5t-23.5 -114.5q-3 -39 3 -77q0 -3 1 -8t3 -10t4.5 -8.5t6.5 -3.5q2 0 7 3t10 7t9.5 8t6.5 5q40 36 74 79.5t65 85.5q8 11 16.5 21.5
t16.5 21.5q11 14 19 14q5 0 10 -2.5l9 -4.5q12 -6 3 -16q-33 -43 -65 -86t-68 -84q-25 -28 -54 -54q-26 -22 -52 -22q-17 0 -28.5 7t-18.5 18t-10.5 24.5t-5.5 27.5z" />
    <glyph glyph-name="j" unicode="j" horiz-adv-x="186" 
d="M-249 -340q-9 21 -6 44q5 40 30 86.5t58.5 91.5t69.5 85t64 66q13 12 20 20t11 15.5t5.5 17t4.5 26.5q12 73 15.5 144t1.5 143q0 2 -0.5 4t-0.5 4q2 8 8 8q32 2 32 -29q2 -60 1 -120.5t-10 -122.5q-1 -5 -1 -9t-1 -9q0 -5 5 -5q1 0 1.5 0.5t1.5 0.5q5 5 10 8.5t10 7.5
q7 6 25 20.5t38 30t38.5 27.5t26.5 12q6 0 12.5 -3.5t17.5 -11.5q-46 -30 -88 -63.5t-83 -69.5q-10 -10 -16 -15.5t-9.5 -11.5t-6 -13.5t-6.5 -20.5q-6 -26 -18 -64t-28 -81t-36 -86t-44 -77t-51 -55.5t-56 -21.5q-16 0 -28 6t-18 21zM-212 -286q-2 -9 -2 -18.5t2 -18.5
q4 -21 12 -21q5 0 9.5 3.5t12.5 10.5q29 27 53 64.5t43 80t33 85.5t25 80q0 4 -2 4q-1 1 -6 -1q-24 -22 -52.5 -55t-54 -70t-45.5 -75t-28 -69zM16 589q0 15 12 15q2 0 4 -0.5t4 -0.5q22 -7 21 -31q-2 -21 0 -43q0 -16 1 -31t10 -28q-8 -5 -13 -5q-19 0 -27 14t-9 30
q-1 20 -1.5 40t-1.5 40z" />
    <glyph glyph-name="k" unicode="k" horiz-adv-x="314" 
d="M3 -46q-9 2 -12.5 5.5t-2.5 13.5q14 201 56.5 394t104.5 384q4 13 15 13q5 0 8.5 -1t7.5 -3q8 -4 9.5 -7.5t-1.5 -13.5l-18 -54q-14 -39 -23.5 -78.5t-19.5 -78.5q-13 -49 -24.5 -97t-22.5 -96q-3 -12 -4.5 -23.5t-3.5 -23.5q-1 -1 2 -4q1 -1 5 1q1 0 1.5 0.5t1.5 0.5
q35 34 70.5 67t64.5 73q6 9 12 9q2 0 8 -2q2 -1 2.5 -1.5t2.5 -1.5q12 -7 13 -12.5t-10 -19.5q-32 -43 -72 -80.5t-82 -71.5q-13 -11 -10 -23q2 -8 3 -15.5t3 -15.5q2 -9 9.5 -31.5t18 -46t23 -41t25.5 -17.5q8 0 22.5 11.5t30.5 26.5t29.5 29.5t18.5 20.5q12 14 23.5 28.5
t22.5 28.5q10 12 16.5 17t14.5 5t23 -6q0 -6 -7 -13q-14 -17 -28 -34.5t-28 -34.5q-12 -15 -28.5 -32t-35 -31.5t-38.5 -24.5t-40 -10q-17 0 -30.5 7t-24.5 18t-19.5 24.5t-14.5 27.5q-4 8 -7 16.5t-7 16.5q0 1 -5 1l-1 -1q0 -1 -1 -1q-1 -1 -3.5 -21t-5 -44.5t-4.5 -46.5
t-2 -28q-1 -10 0 -18.5t-2 -18.5t-9 -12.5t-15 -2.5h-5z" />
    <glyph glyph-name="l" unicode="l" horiz-adv-x="225" 
d="M-3 -16q-3 47 3 95q7 69 19.5 137.5t26.5 137.5q21 100 46 196.5t56 193.5q3 8 11 8q6 0 10.5 -2.5t9.5 -5.5q7 -5 5 -15q-2 -7 -3.5 -13.5t-3.5 -13.5q-18 -57 -32.5 -113.5t-28.5 -113.5q-23 -92 -40 -184.5t-31 -186.5q-9 -65 -5 -124l2 -18t6 -17q9 5 15 11.5
t11 13.5q20 24 36.5 49.5t33.5 51.5q20 32 39.5 64t39.5 64q3 5 6.5 9.5t6.5 9.5q8 14 25 14q17 -1 19.5 -5t-8.5 -21q-24 -35 -45.5 -70t-43.5 -71q-18 -29 -38 -58t-43 -55q-12 -14 -29 -25t-37 -11q-11 0 -20 4.5t-12 16.5q-7 21 -7 47z" />
    <glyph glyph-name="m" unicode="m" horiz-adv-x="642" 
d="M24 78q-8 4 -10.5 10.5t-1.5 14.5q2 90 25.5 169t56.5 161q2 7 9 20.5t15 13.5q5 0 10.5 -3t9.5 -5q6 -4 6.5 -7t-2.5 -10q-12 -24 -27 -62t-28 -78.5t-22 -79.5t-9 -66q0 -1 3 -4q4 -1 7 4q3 6 6.5 12t6.5 13q31 60 65 119t69 118q21 36 45.5 70t55.5 63q10 8 20 8
q2 0 4 -0.5t4 -0.5q14 -3 22.5 -14t7.5 -26q0 -11 -2.5 -23t-6.5 -23q-13 -40 -25.5 -79.5t-25.5 -80.5q-9 -26 -16.5 -52.5t-12.5 -54.5q0 -1 3 -4q3 -2 5 2l15 21q7 10 19 26.5t27 32.5t31 28t29 12q16 0 29.5 -11.5t14.5 -27.5q1 -14 1.5 -27t0.5 -27q0 -19 1 -37.5
t4 -36.5q1 -5 3 -12.5t5.5 -14t8.5 -11.5t11 -5q10 0 25 6.5t30.5 15.5t29 19t21.5 17q14 13 28.5 25.5t29.5 25.5q6 5 17 5q17 0 23 -11q2 -3 -3 -8q-28 -25 -55.5 -50t-60.5 -43q-17 -10 -34.5 -16.5t-36.5 -6.5q-25 0 -41 10t-26 26t-14 36t-4 40v61v11q0 4 -1 7.5
t-5 4.5q-6 0 -18.5 -13.5t-26.5 -30.5t-25.5 -33.5t-15.5 -22.5q-17 -27 -34 -49q-15 -19 -31 -19q-11 0 -20.5 7t-9.5 19q1 43 14 88q11 44 25 87t29 86q8 22 14.5 43.5t13.5 43.5q1 3 1 6t1 7q-9 -2 -12.5 -6.5t-7.5 -8.5q-18 -22 -33.5 -45t-29.5 -46q-33 -57 -65 -113
t-62 -113q-11 -21 -22.5 -41.5t-23.5 -40.5q-13 -21 -32 -21q-10 0 -19 6z" />
    <glyph glyph-name="n" unicode="n" horiz-adv-x="450" 
d="M18 118q-3 31 0 62t8 63q6 24 11 48t14 48q2 5 4 8.5t4 8.5q7 16 20 16q5 0 8 -1q12 -2 14.5 -7t-2.5 -17q-19 -46 -29 -95.5t-10 -99.5l3 -3q5 -2 5 1q4 5 7 11t6 11q17 32 34.5 64.5t35.5 64.5q9 17 26 44t38 52.5t43.5 44.5t43.5 19q20 0 31 -9t11 -30q0 -17 -2 -33.5
t-6 -33.5q-10 -42 -19.5 -84.5t-18.5 -84.5q-8 -37 -12 -73.5t-6 -72.5q-1 -13 0 -26t5 -25q0 -4 6 -4q5 0 19 15.5t29.5 35t28.5 38t17 24.5l69 102q8 12 14 17t16 5q3 0 13 -2q9 -2 5 -12q-5 -9 -10 -16l-44 -64l-44 -64q-10 -14 -24.5 -32.5t-32 -35t-36 -28t-37.5 -11.5
q-28 0 -34 31q-4 19 -4 38.5t2 39.5q3 43 10 85.5t18 86.5q9 37 17 73t16 73q2 8 2.5 14.5t1.5 14.5q1 4 1 7.5t-4 5.5q-1 0 -1.5 0.5t-1.5 0.5q-6 0 -20 -15.5t-29 -35t-27.5 -38.5t-16.5 -25q-26 -42 -48.5 -84.5t-45.5 -84.5q-6 -11 -11.5 -20.5t-12.5 -20.5
q-8 -13 -16.5 -18.5t-20.5 -5.5q-10 0 -18 3t-10 14q-1 5 -1.5 11t-1.5 11z" />
    <glyph glyph-name="o" unicode="o" horiz-adv-x="380" 
d="M11 203q-10 16 -12.5 37t2 43.5t14 44t23.5 38.5q24 30 56.5 46.5t70.5 16.5q32 0 59 -12t46 -32.5t28.5 -48t6.5 -59.5q-3 -28 -11 -54.5t-19 -52.5q-3 -10 4 -10q8 0 23 7t31 16.5t30.5 19t21.5 14.5q8 5 13 8t10 3q8 0 20 -8q13 -8 -2 -18q-37 -26 -77 -46.5
t-85 -31.5q-11 -1 -17 -12q-12 -20 -27.5 -41.5t-34.5 -39.5t-41 -29.5t-47 -11.5q-35 0 -61 26q-20 20 -27.5 46t-5.5 56q2 28 10 53q3 9 3 16.5t-5 15.5zM47 304q-12 -31 -11 -61q0 -4 2 -4q5 0 8 3q3 2 7 10q3 5 9 12.5t13 15t14.5 13t13.5 5.5q10 0 21 -11q4 -3 3.5 -6
t-3 -5.5t-5.5 -4.5t-5 -5q-2 -4 -5 -6.5t-5 -5.5q-25 -29 -40 -64q-5 -11 2 -18q20 -18 47.5 -26.5t54.5 -8.5q22 0 39 4q10 2 19.5 18t17 37t13 41t6.5 28q5 27 3.5 52t-13.5 48q-22 41 -65 41q-49 0 -85 -29.5t-56 -72.5zM49 146q-13 -47 3 -93q2 -5 6 -12.5t9 -14.5
t11.5 -12t12.5 -5q14 0 30.5 11.5t32 28t27.5 34t17 29.5q-3 1 -5.5 1.5t-5.5 1.5q-69 2 -122 34q-1 1 -5 3q-4 0 -7 -0.5t-4 -5.5z" />
    <glyph glyph-name="p" unicode="p" horiz-adv-x="476" 
d="M-29 -214q-13 3 -13 15q2 43 4 85.5t9 86.5q18 131 49 257t70 253q4 13 15 13q3 0 6 -1q2 -1 3.5 -1.5t3.5 -1.5q9 -5 11 -8t-1 -14q-5 -20 -10.5 -39.5t-11.5 -39.5q-22 -74 -39.5 -148t-33.5 -149q-2 -5 -2.5 -10t1.5 -10q6 4 8.5 9.5t4.5 10.5q14 32 40 80t58 92.5
t69 76t74 31.5q26 0 43 -16.5t18 -44.5q0 -25 -6 -49.5t-16 -49.5q-4 -10 -9 -19.5t-10 -19.5q-2 -3 -3.5 -6.5t0.5 -7.5h3q4 0 7 2t7 4q15 8 37 18.5t46.5 20.5t48 17t39.5 7q11 0 20 -6q15 -8 10 -15q-4 -5 -8 -4.5t-9 -0.5q-11 -3 -22 -5t-22 -7q-66 -25 -132 -59
t-117 -85q-8 -8 -16.5 -15t-17.5 -14q-11 -8 -22 -8q-10 0 -19 6q-4 2 -4.5 6.5t3.5 8.5q6 5 11.5 10.5t12.5 10.5q27 21 52.5 51.5t46 65.5t35 72t19.5 72q1 7 1 14t-2 14q-1 9 -11 9t-22 -6.5t-24 -15.5t-22.5 -19t-16.5 -17q-40 -45 -72 -96.5t-56.5 -107t-43 -113
t-32.5 -115.5q-7 -28 -9 -58q0 -11 -6.5 -14.5t-15.5 -3.5q-6 0 -9 1z" />
    <glyph glyph-name="r" unicode="r" horiz-adv-x="358" 
d="M366 230q3 1 10 1q17 0 36 -17q-14 -4 -25 -6.5t-22 -5.5q-13 -4 -30 -4q-30 0 -47.5 11t-26.5 29t-12 40.5t-5 45.5q0 8 -2 11q0 1 -2 1t-3 -1l-5 -5t-5 -6q-45 -73 -84.5 -147.5t-75.5 -152.5q-5 -11 -11 -20.5t-12 -20.5q-11 -18 -33 -18q-13 0 -19.5 4.5t-6.5 18.5
q1 48 9 97.5t20.5 99.5t27.5 98.5t30 93.5q3 10 6.5 19t7.5 18q6 11 14 11q2 0 8 -2q4 -2 7.5 -4.5t6.5 -4.5q6 -5 2 -12q-12 -30 -26.5 -73t-27.5 -89.5t-22.5 -91.5t-11.5 -77q0 -4 3 -3l5 3q4 7 7 13l6 12q15 31 32.5 66.5t37 71.5t40 70t41.5 62q7 8 14 15.5t18 6.5
q25 -2 32 -15.5t9 -33.5q2 -17 2.5 -32.5t2.5 -32.5q1 -18 8.5 -36t29.5 -18q11 2 21 5t21 5z" />
    <glyph glyph-name="s" unicode="s" horiz-adv-x="527" 
d="M264 58q-8 -8 -17.5 -14t-18.5 -12q-19 -14 -48 -36t-57 -47t-50.5 -52t-29.5 -51q-4 -9 6 -9h3q29 8 59.5 32t58.5 54t52 62t39 56q5 9 2 16v-1zM394 227q-1 -15 -6.5 -27.5t-9.5 -26.5q-4 -8 3 -8q2 0 6.5 2t10.5 5t11 6t7 4q8 4 26.5 13t40 18t40.5 15.5t26 6.5
q14 0 24 -14q3 -7 -3 -10q-11 -5 -23 -10q-47 -17 -90.5 -38.5t-88.5 -44.5q-23 -11 -37 -36q-18 -33 -49 -79t-68.5 -88t-78.5 -71.5t-80 -29.5q-15 0 -33 8q-30 14 -13 49q15 33 50 69t77 69.5t84 61.5t72 45q21 12 29 31q7 15 14 29.5t13 29.5q5 12 8.5 24.5t4.5 25.5
q0 12 -8 12t-22.5 -4.5t-21.5 -6.5q-21 -8 -41.5 -17t-41.5 -19q-31 -14 -61 -28.5t-61 -28.5q-13 -5 -28.5 -11t-29.5 -6q-18 0 -29 8q-21 14 -13 39q12 32 32 66t44.5 66t51 61.5t50.5 52.5q7 6 22.5 18t32.5 24t33.5 21t26.5 9q12 0 21 -9q6 -5 5.5 -9t-11.5 -9
q-40 -21 -76.5 -50.5t-68 -64t-58.5 -73t-49 -77.5q-2 -3 -3.5 -6.5t-3.5 -7.5q-3 -7 -8 -14.5t0 -12.5q3 -3 6 -3q6 0 12 4t11 6l108 51q27 14 53.5 25.5t55.5 21.5q24 9 48 9q8 0 15 -1t14 -4q19 -10 26.5 -24.5t-0.5 -36.5z" />
    <glyph glyph-name="q" unicode="q" horiz-adv-x="499" 
d="M162 137q-12 -10 -28.5 -24t-35.5 -27t-38 -21.5t-35 -8.5q-23 0 -35.5 15t-9.5 40q2 12 5 23.5t8 23.5q14 35 38 72t55.5 67.5t69 50t79.5 19.5q40 0 69 -26q4 -4 7 -5q2 -2 4 -2q3 0 6 3q12 9 22 19q11 11 22 21t23 20q11 9 19 9t15 -6q2 -2 4 -3.5t4 -3.5q9 -8 4 -21
q-3 -7 -6.5 -14t-6.5 -14q-31 -59 -61.5 -117.5t-56.5 -118.5q-5 -11 -11.5 -21.5t-2.5 -22.5q11 4 20 12l18 16q6 5 22 18t37 29.5t44.5 34t44.5 32.5t37 24.5t21 9.5q8 0 14 -6.5t10 -12.5q-3 -6 -8.5 -9.5t-10.5 -7.5q-72 -48 -138.5 -101.5t-134.5 -107.5
q-19 -16 -26 -35q-8 -21 -16 -41.5t-16 -41.5q-7 -17 6 -27q9 -8 18 -16.5t17 -16.5q36 -38 39 -84t-23 -100q-8 -17 -20 -34.5t-27 -31.5t-32.5 -23.5t-38.5 -9.5q-34 0 -39 35q-3 17 -2.5 34.5t2.5 34.5q6 56 18.5 108t29.5 105q4 10 -4 18l-15 15q-14 19 2 41
q12 17 27 31t31 27q8 7 13 14.5t9 16.5q21 52 44.5 103t48.5 102q13 25 24.5 46t20.5 47q-15 -8 -41 -31t-54.5 -50t-55 -53t-43.5 -41zM17 90q0 -6 5 -6q8 0 23.5 9.5t32 22t31.5 25t21 18.5q37 33 73 66.5t73 67.5l7 7q13 13 5 26q-5 11 -13.5 13t-19.5 2
q-40 0 -81.5 -25.5t-76 -63.5t-57 -82t-23.5 -80zM150 -355q-1 -15 -2.5 -29.5t0.5 -28.5q1 -6 1.5 -12t2.5 -13q1 -4 6 -4q4 0 6 2q36 29 58 74.5t22 91.5q0 62 -51 101q-9 -18 -16.5 -41t-12.5 -48t-8.5 -49.5t-5.5 -43.5z" />
    <glyph glyph-name="t" unicode="t" horiz-adv-x="300" 
d="M-111 439q-1 -1 -3 -1q-11 0 -17 8.5t-3 20.5q3 8 11 10l30 6q44 6 87.5 12t87.5 13q4 0 12 2q17 1 24 20q6 16 13 31t14 31q4 10 14 10q5 0 10 -3l10 -6q8 -5 3 -15q-5 -11 -9.5 -21t-8.5 -21q-7 -16 5 -16h4q32 4 62.5 7t62.5 6l165 18q8 0 12.5 -1.5t4.5 -11.5
q-1 -11 -3 -19t-16 -10q-57 -8 -114 -13.5t-114 -10.5l-34 -4l-34 -4q-9 -1 -14 -2t-8.5 -3.5t-5.5 -7.5t-5 -13q-35 -100 -60.5 -199t-39.5 -205q-4 -29 -5.5 -58t0.5 -58q0 -4 2 -14.5t5 -21t7.5 -18.5t10.5 -8t16.5 8.5t21.5 19t20 21t13 15.5q29 35 54 73t48 76l72 117
q8 13 14.5 18.5t15.5 5.5q7 0 17 -3q9 -3 4 -11q-2 -4 -3 -5q-32 -52 -64.5 -103t-64.5 -102q-12 -19 -31 -45t-41.5 -50t-47 -40.5t-47.5 -16.5q-32 0 -45.5 23.5t-17.5 51.5q-6 51 2 109q9 72 22.5 142t33.5 141q10 32 20.5 64t20.5 64q2 4 6 14q3 12 -9 10
q-14 -2 -28 -3.5t-28 -3.5q-35 -5 -68.5 -10t-68.5 -10z" />
    <glyph glyph-name="u" unicode="u" horiz-adv-x="545" 
d="M55 36q-16 0 -25 7t-13.5 18.5t-6 24.5t-1.5 25q0 30 6 67.5t15.5 75.5t22 73.5t25.5 61.5q9 20 25 20q9 0 19 -10q3 -4 -1 -14q-14 -28 -26 -61.5t-21.5 -69t-15 -70.5t-7.5 -65q-1 -13 -0.5 -25.5t4.5 -24.5q1 -4 6 -4q7 0 17.5 12t15.5 17q20 25 39.5 49.5t39.5 49.5
q32 42 64.5 81.5t70.5 74.5q18 15 32 15q11 0 24 -7t12 -21q0 -17 -2.5 -34.5t-7.5 -35.5q-11 -44 -19.5 -87.5t-13.5 -87.5q-4 -27 -5.5 -54t2.5 -53q3 -22 11 -22t25.5 16t38.5 41t44.5 54.5t44 57.5t36 49.5t21.5 29.5q13 17 24 17q7 0 16 -4q13 -6 3 -18
q-35 -46 -68 -91.5t-70 -90.5q-10 -12 -24 -27t-29.5 -27.5t-32.5 -21t-35 -8.5q-17 0 -29 7t-16 24q-6 22 -4 48q0 42 6 83t14 83q7 28 13 55.5t12 55.5q2 10 2 15q0 2 -2 4l-2 1q-4 0 -21 -18t-36.5 -41.5t-36 -44.5t-21.5 -27q-18 -23 -36.5 -45.5t-36.5 -45.5
q-16 -19 -38 -38t-48 -19z" />
    <glyph glyph-name="v" unicode="v" horiz-adv-x="411" 
d="M1 37q-1 54 7.5 107.5t21.5 107.5q7 30 13 60t17 59q2 5 3.5 10.5t3.5 10.5t3.5 10t8.5 7q6 0 16 -3t12 -10q2 -6 0 -12q-20 -57 -31 -113.5t-22 -113.5q-8 -42 -10 -83t1 -82q0 -5 0.5 -9.5t1.5 -9.5q1 -4 4 -4q5 0 15 14t20.5 31.5t19 34t11.5 21.5q16 32 31 64t31 64
q4 8 6.5 15.5t4.5 15.5q5 1 15 1q18 0 30 -9q10 -8 31 -9.5t33 -1.5q23 0 45.5 3.5t45.5 8.5q13 3 25 6.5t25 6.5q2 0 2.5 0.5t2.5 0.5q8 0 11 -8q4 -11 5 -19q0 -9 -8 -12q-33 -11 -68.5 -18t-70.5 -7q-21 0 -41 2.5t-40 9.5q-4 1 -9 1q-7 0 -14 -14q-14 -27 -26.5 -54
t-26.5 -54q-10 -19 -20 -37.5t-22 -36.5q-13 -19 -30 -37t-43 -18q-33 0 -38 34q-2 17 -2.5 34.5t-0.5 34.5z" />
    <glyph glyph-name="w" unicode="w" horiz-adv-x="636" 
d="M5 72q-4 29 -1 63q7 55 22 108t38 107q2 4 6 12.5t9.5 17.5t11 15.5t11.5 6.5q5 0 10 -2t9 -4q11 -5 5 -16q-17 -26 -32 -62t-26 -74.5t-17.5 -77.5t-6.5 -71q0 -5 5 -5q2 0 3 1t3 2l8 10l8 10l81 105q11 14 21.5 26.5t21.5 24.5q11 13 26 25.5t33 12.5q19 0 31 -16
q6 -9 3 -21q-2 -11 -4.5 -20.5t-5.5 -20.5q-15 -60 -25 -119.5t-8 -119.5q0 -4 1.5 -17.5t4.5 -27.5t7 -25.5t9 -11.5q7 0 17 11.5t21 29.5t22.5 40t21.5 42t17 36t10 23q13 32 26 65t27 66q2 4 4.5 8t4.5 9q8 -4 14.5 -7t12.5 -7q13 -9 28 -11.5t30 -2.5q25 0 49.5 4
t49.5 12q11 3 20.5 6.5t20.5 6.5q3 1 8 1q9 0 12 -10q2 -2 2 -5q4 -12 1.5 -16.5t-16.5 -9.5q-31 -11 -64.5 -19t-66.5 -8q-18 0 -34.5 3.5t-32.5 11.5q-6 3 -9 3q-4 0 -10 -13q-11 -26 -20 -51.5t-20 -51.5q-9 -21 -23.5 -53.5t-34.5 -63t-43.5 -53t-50.5 -22.5
q-14 0 -26 6.5t-17 21.5q-15 43 -15 94q-1 44 5 88t17 89q4 17 8 33.5t9 33.5q1 3 1.5 6t-3.5 4q-3 1 -5.5 -1.5l-4.5 -4.5q-11 -12 -21 -24t-20 -25q-23 -29 -45 -57.5t-45 -57.5q-6 -8 -12.5 -14.5t-12.5 -14.5q-7 -8 -16 -11t-18 -3q-13 0 -23 7t-12 20z" />
    <glyph glyph-name="y" unicode="y" horiz-adv-x="475" 
d="M27 -376q-12 0 -20.5 4.5t-8.5 18.5q0 24 11 53.5t29 62t40.5 65.5t45.5 63.5t44.5 56t37.5 42.5q15 17 23 40q23 75 42.5 151.5t32.5 154.5q0 1 -3 4q-4 0 -5 -1q-10 -10 -19 -22q-26 -30 -49.5 -60.5t-46.5 -62.5q-14 -19 -28.5 -37.5t-29.5 -37.5q-13 -16 -32 -32.5
t-41 -16.5q-14 0 -23.5 7.5t-11.5 21.5q-3 15 -2.5 31t2.5 32q5 54 18.5 106.5t39.5 100.5q4 10 15 10q8 0 15 -5q4 -2 12 -8q-34 -64 -47 -128.5t-13 -129.5q1 -1 4 -1q6 0 11 7q24 29 49 61q23 29 44 58.5t44 58.5q14 18 28 35l28 34l20.5 20.5t24.5 12.5q11 0 23.5 -9
t13.5 -22q0 -27 -4.5 -55.5t-10.5 -54.5q-9 -40 -19 -79t-20 -79q-1 -4 -1.5 -7t-0.5 -7q0 -1 1.5 -2t2.5 0q3 2 6.5 4.5t5.5 4.5q12 11 40.5 34.5t61 48t61 43t40.5 18.5q6 0 11.5 -3.5t14.5 -11.5q-3 -7 -8.5 -10t-10.5 -6q-65 -38 -122.5 -85t-111.5 -100
q-21 -22 -30 -47q-7 -21 -19.5 -55t-28.5 -72.5t-36 -77t-42.5 -70t-47 -51t-50.5 -19.5zM48 -304q-8 -20 -7 -37q0 -4 6 -4q1 0 1.5 0.5t1.5 0.5q47 48 75.5 107t52.5 120q1 3 2 5.5t-1 5.5q-6 0 -11 -7q-34 -45 -66 -91t-54 -100z" />
    <glyph glyph-name="x" unicode="x" horiz-adv-x="351" 
d="M-122 -210q-2 5 2 8.5t8 5.5q28 21 47.5 48t35.5 58q25 50 45.5 101.5t40.5 104.5q-10 23 -16.5 44t-12.5 42.5t-11.5 44t-13.5 48.5l-10 52l-10 52q-2 7 -2 13.5v14.5q1 11 10.5 12.5t17.5 1.5q9 0 11 -2.5t4 -13.5q2 -18 6.5 -45t12 -59t17.5 -68t22 -71
q29 73 62.5 143.5t70.5 140.5q2 5 6 11q3 7 10 5q5 0 13 -2q13 -5 13.5 -10.5t-5.5 -16.5q-42 -81 -79 -161t-70 -165q5 -12 13.5 -31.5t20 -37.5t26 -31.5t30.5 -13.5q14 0 34.5 18.5t40.5 43.5t36.5 49t23.5 36l27 42q8 12 14.5 17t17.5 5q7 0 19 -3q0 -2 -6 -12.5
t-15.5 -24.5t-20.5 -30t-21.5 -30.5t-18.5 -25.5t-11 -15q-12 -15 -27.5 -31t-32.5 -29.5t-36.5 -22t-40.5 -8.5q-19 0 -33.5 6.5t-25.5 17.5t-20 24.5t-17 28.5q-11 -27 -21.5 -54.5t-21.5 -54.5q-10 -23 -20.5 -44.5t-23.5 -43.5q-5 -9 -16.5 -24t-25 -29.5t-28 -25
t-26.5 -10.5q-5 0 -11 1.5t-8 5.5z" />
    <glyph glyph-name="z" unicode="z" horiz-adv-x="554" 
d="M-19 0q-8 13 5 22q4 4 10 7q42 28 79.5 61.5t73.5 68.5q8 8 7.5 10.5t-8.5 6.5q-11 2 -18.5 8.5t-9.5 17.5q-2 7 2 10q2 2 5 2q1 0 1.5 -0.5t1.5 -0.5q12 -3 24.5 -6.5t24.5 -6.5q1 -1 5 -1q7 0 14 6q32 29 64 55.5t66 52.5q4 4 2 5q-3 3 -4 3h-67h-28q-24 0 -47 2t-45 9
q-10 0 -15 -8q-5 -11 -10 -21t-10 -21l-12 -24t-13 -23q-2 -4 -7.5 -12t-12 -16t-13.5 -13.5t-13 -5.5q-5 0 -13 6q-11 8 -10 14t10 14q11 11 19.5 23t15.5 26q8 15 15 30.5t15 30.5q4 7 6.5 13t6.5 12q5 8 15 8q25 -8 51 -11t52 -3q48 0 97 4.5t97 11.5q2 1 6 1
q18 0 26 -24q2 -7 -5 -10q-4 -2 -8 -4.5t-8 -4.5q-17 -10 -41.5 -25.5t-49 -33.5t-46.5 -36t-34 -32q-3 -3 -2.5 -6.5t4.5 -4.5q3 -1 8 -1q9 0 18 3q4 1 6.5 1.5t4.5 0.5q7 0 10 -6.5t5 -11.5q5 -11 -8 -16q-9 -4 -21 -4q-13 0 -26 2t-25 4q-2 0 -3.5 0.5t-3.5 0.5
q-11 0 -20 -10q-35 -35 -71.5 -68.5t-77.5 -62.5q-2 -2 -5.5 -5t-4.5 -6q-1 -2 1 -3l4 -2q30 -6 59.5 -10t59.5 -6q62 0 119 18t108.5 48.5t97 71t83.5 86.5q11 14 17 14t14 -15q8 -13 -4 -26q-36 -45 -81.5 -86t-97 -71.5t-108 -49t-115.5 -18.5h-19.5t-20.5 2
q-35 3 -69 9.5t-68 11.5q-11 2 -20.5 6t-16.5 12z" />
    <glyph glyph-name="zero" unicode="0" horiz-adv-x="340" 
d="M37 76q-20 98 -2 191q10 57 27.5 107.5t44.5 98.5q6 11 15.5 25.5t21 27.5t24 22.5t25.5 9.5q9 0 17 -4q13 -7 0 -16q-19 -12 -35 -32t-29.5 -43t-23.5 -47t-18 -44q-27 -74 -35.5 -145.5t5.5 -142.5q1 -4 3 -14t5.5 -20.5t8 -18.5t9.5 -8t10 5q31 23 61 69t55.5 99.5
t43.5 105.5t24 88q3 18 5 36.5t0 35.5q-1 5 -2 14t-4 17t-7.5 14t-11.5 6q-6 0 -14 -5q-12 -5 -20 -5q-6 0 -9 1q-11 3 -17 8.5t-2 10.5q5 7 12 8.5t15 1.5q4 1 12 1q29 0 52 -14t30 -45q7 -28 4 -62q-4 -31 -11 -61.5t-18 -60.5q-6 -18 -18 -46.5t-27.5 -60.5t-34.5 -65
t-39.5 -59.5t-43 -43t-44.5 -16.5q-17 0 -28 7t-18 17.5t-11 24.5t-7 27z" />
    <glyph glyph-name="one" unicode="1" horiz-adv-x="213" 
d="M-44 18q-2 5 0.5 9.5t9.5 4.5q15 2 30 2t29 2q11 1 14.5 4t5.5 14q13 106 36.5 209t56.5 205q5 13 8.5 26t7.5 26q2 5 3 9t-1 8q-5 1 -8 -3t-7 -7l-30 -30t-31 -30q-15 -15 -26 -15q-6 0 -17 6q-9 4 -1 14q7 9 16 16q36 35 70 72t65 76q13 16 21 16q7 0 18 -7
q10 -6 7 -16l-2 -6l-2 -6q-48 -128 -84.5 -267.5t-56.5 -273.5q-1 -3 -1.5 -5.5t-0.5 -5.5q-1 -24 19 -24q14 0 21 -4t12 -18q2 -7 -6 -9q-4 -2 -6 -2q-35 -2 -71 -4t-71 -4q-20 0 -28 18z" />
    <glyph glyph-name="two" unicode="2" horiz-adv-x="301" 
d="M2 9q-11 9 -2 22q7 9 13.5 18t13.5 17q17 21 42 53.5t52 72t54 83.5t48.5 86t35 79.5t13.5 65.5q0 30 -19 30q-21 0 -50 -15.5t-55 -38t-44 -48.5t-17 -47q0 -12 -11 -12q-10 0 -21 6q-10 7 -7 19q6 26 25.5 54.5t46.5 51.5t57.5 38t58.5 15q20 0 40 -11q37 -21 31 -68
q-4 -31 -18 -68.5t-34.5 -77.5t-46 -81t-52.5 -79t-53 -71.5t-47 -59.5q-3 -4 -6.5 -7.5t-1.5 -8.5q1 -5 7 -5q35 0 71 0.5t72 4.5q3 1 11 1q18 0 29 -8q4 -4 3 -7q0 -3 -7 -5q-49 -2 -97 -4t-97 -4h-8q-18 0 -30 9z" />
    <glyph glyph-name="three" unicode="3" horiz-adv-x="319" 
d="M21 11q-36 20 -29 63q3 17 6.5 34.5t11.5 34.5q6 15 19 15q8 0 18 -5q6 -3 6.5 -6.5t-3.5 -11.5q-12 -22 -16 -44t-6 -45q0 -8 4 -16.5t14 -8.5q3 0 5 1q34 5 66 28.5t59 56.5t47 69.5t30 65.5q6 18 9 36.5t1 36.5q-2 17 -8 30t-27 13q-17 0 -33 -3t-32 -7q-6 -2 -13 -4
t-14 -2q-13 0 -22 9q-11 10 0 23q8 9 17.5 18t17.5 18q11 11 25 26.5t27.5 33t24 35t13.5 33.5q3 17 -10 17q-18 0 -37 -7.5t-37.5 -19.5t-34 -26t-25.5 -28q-7 -10 -13 -10t-11.5 4.5t-9.5 8.5q-5 5 0 14q10 17 28 33t40 29t44.5 21t41.5 8q17 0 30 -7.5t23 -20.5
q7 -10 7 -21t-5 -23q-11 -29 -33.5 -57t-42.5 -51l-6.5 -6.5t-4.5 -11.5h19h5q17 0 34 -7t30 -20t20.5 -31.5t5.5 -42.5q-2 -29 -9.5 -56t-21.5 -54q-13 -25 -34.5 -55.5t-48.5 -56.5t-57.5 -43.5t-62.5 -17.5q-22 0 -42 11z" />
    <glyph glyph-name="four" unicode="4" horiz-adv-x="365" 
d="M14 249q-12 10 -9 25q2 8 4.5 16t5.5 16l66 156q17 38 30 77l26 78q3 13 7 23q6 17 14 17q6 0 14 -7q11 -9 7 -23q-24 -75 -50 -146t-58 -143l-14 -32t-12 -33q-3 -13 9 -13q35 3 68.5 7.5t67.5 12.5q11 2 14.5 5t6.5 14q15 59 30.5 117t32.5 116q3 10 12 10q5 0 9 -2
l8 -4q11 -6 7 -19l-21 -72q-8 -34 -16.5 -67.5t-17.5 -66.5q0 -4 -1 -6q0 -10 7 -10q2 0 3 1l24 4l24 4q3 1 10 1q6 0 16.5 -3.5t11.5 -11.5q0 -3 -2.5 -3.5t-4.5 -1.5q-18 -4 -35.5 -7t-35.5 -8q-10 -2 -15.5 -3t-9 -4t-5.5 -9t-5 -18q-11 -54 -23 -106.5t-24 -106.5
q-2 -10 -4 -14q-2 -5 -6 -7t-9 -2q-8 0 -14.5 4.5t-6.5 12.5q1 6 1.5 11.5t2.5 11.5q10 47 20 93.5t20 93.5q2 5 2.5 9t1.5 9q0 9 -9 7l-18 -3q-28 -5 -56.5 -8.5t-57.5 -3.5h-7.5t-8.5 1q-8 0 -14.5 3t-12.5 8z" />
    <glyph glyph-name="five" unicode="5" horiz-adv-x="338" 
d="M25 45q-11 38 -6 79q1 9 5 18.5t15 9.5q5 0 10 -2.5t10 -4.5q8 -4 3 -12t-5.5 -15.5t-1.5 -15.5q0 -29 6 -56q1 -6 3.5 -11t4.5 -10q3 -5 10 -5q2 0 2.5 0.5t2.5 0.5q25 8 46 30t37.5 49.5t27.5 57t15 53.5q4 20 2 39t-8 37q-3 11 -10 20.5t-20 9.5q-10 0 -23 -4.5
t-26 -10.5t-25 -13t-20 -12q-9 -6 -17 -6t-16 5q-7 5 -8.5 9t1.5 12q11 27 22 53.5t22 52.5q9 23 18.5 45.5t19.5 45.5q5 11 -7 10q-5 0 -9 -1t-9 -2h-2q-10 0 -16.5 8.5t-3.5 18.5q1 8 11 10q17 3 34.5 6t34.5 5q49 5 97.5 10t97.5 10h12q14 2 15 -12q2 -8 2 -14t-8 -8
q-9 -2 -18 -3t-17 -2q-34 -4 -67 -7.5t-67 -6.5q-5 -1 -9 -1t-9 -1q-11 -2 -16 -13q-18 -43 -36.5 -85t-33.5 -86l1 -5q8 2 15 4.5t15 5.5q12 4 27 4q22 0 39 -9t28.5 -23.5t18 -33.5t7.5 -39q2 -21 -3 -41.5t-11 -40.5q-7 -22 -20.5 -48.5t-32.5 -49.5t-42 -38.5t-49 -15.5
q-23 0 -42 12.5t-24 32.5z" />
    <glyph glyph-name="six" unicode="6" horiz-adv-x="332" 
d="M89 0q-28 0 -45 14.5t-26.5 36.5t-13 47.5t-3.5 46.5q1 53 20 112t49.5 115.5t68.5 106t76 82.5q9 8 24.5 19.5t32.5 22t34 18t30 7.5q21 0 38 -31q-5 1 -12 1q-18 0 -33.5 -6.5t-30.5 -15.5q-48 -29 -91.5 -76.5t-78.5 -103t-58 -115t-30 -113.5q-3 -26 -2.5 -50.5
t7.5 -48.5q2 -8 4.5 -15.5t6.5 -15.5q7 -16 17 -16q8 0 17 4q19 6 35.5 19.5t30 31t23.5 37t15 37.5q6 21 1 40q-3 11 -12 11q-8 0 -17 -5.5t-17 -14t-14.5 -17t-11.5 -14.5q-7 -10 -4 -19q2 -5 -1.5 -8.5t-8.5 -2.5q-8 0 -16 3q-25 10 -9 37q6 10 14.5 21.5t19 21t22.5 16
t25 6.5q12 0 24 -4.5t21.5 -12.5t16 -18.5t6.5 -23.5q0 -27 -12 -56t-32.5 -54t-46.5 -41t-53 -16z" />
    <glyph glyph-name="seven" unicode="7" horiz-adv-x="356" 
d="M352 616q-6 -18 -13 -36t-13 -36q-11 -32 -21 -63.5t-21 -63.5q-1 -2 -1 -5q-4 -15 8 -13q8 0 15 1t15 2q5 1 11 1q9 0 14 -8t5 -16q0 -1 -2 -7q-8 -3 -16.5 -4t-17.5 -3q-4 -1 -12 -1q-15 -2 -23 -3.5t-12 -5t-6.5 -10.5t-7.5 -22q-14 -42 -27.5 -84t-27.5 -84
q-8 -26 -16 -50.5t-16 -50.5q-2 -8 -3.5 -14.5t0.5 -14.5q2 -11 -4.5 -18t-17.5 -7h-4q-13 2 -17 8t-1 20q6 22 12 43.5t13 43.5l34 104l34 104q5 17 5.5 23t-9.5 6q-3 0 -8 -0.5t-11 -1.5l-72 -12q-2 -1 -6 -1q-22 0 -25 23q0 7 7 10q5 2 10 3l10 2q26 5 51 8.5t50 7.5
q13 2 17 4.5t9 16.5q15 45 30 89.5t30 89.5q2 5 3 8.5t3 8.5q2 8 -6 8q-3 1 -6.5 1h-6.5h-4q-49 -1 -97.5 -1.5t-97.5 -0.5h-7q-10 0 -16 3t-9 14q-2 10 0.5 14t13.5 5q38 4 74 4.5t73 0.5h44h32.5t31.5 -1q14 0 22.5 -12.5t3.5 -26.5z" />
    <glyph glyph-name="eight" unicode="8" horiz-adv-x="324" 
d="M39 1q-27 4 -41.5 23.5t-9.5 47.5q4 25 17.5 54.5t31.5 59.5t37 57t34 46q5 8 10 14.5t10 14.5q5 6 -3 8q-5 1 -10 1.5t-10 0.5q-14 1 -27 13q-16 14 -4 36q6 11 18 30.5t28 43t34.5 47t37.5 43t37 32t32 12.5q17 0 27 -17q2 -3 0.5 -5.5t-4.5 -3.5q-16 -3 -32.5 -15.5
t-32 -29t-28.5 -34t-22 -30.5q-14 -20 -27.5 -40t-27.5 -41q-10 -14 4 -14h5q18 2 26 2.5t13 3t10.5 9t17.5 20.5q29 33 58 65.5t58 65.5q9 11 15 11q5 0 12 -7q8 -8 7.5 -12.5t-8.5 -14.5q-29 -33 -56.5 -66t-55.5 -66q15 -3 24 -4q26 -8 43 -26q18 -20 14 -47
q-2 -12 -4.5 -24.5t-7.5 -24.5q-13 -29 -38 -70t-57 -79t-69 -64.5t-74 -26.5q-8 0 -12 1zM26 74q-8 -21 -5 -38q2 -12 11 -12q3 0 4 1q36 5 74 37t71 74t57 86.5t30 75.5q0 3 0.5 8.5t0.5 12.5q0 13 -9.5 15.5t-19.5 2.5q-8 0 -14.5 -0.5t-14.5 -0.5q-19 0 -31 -16
q-21 -26 -43.5 -55.5t-43.5 -61.5t-38.5 -64.5t-28.5 -64.5z" />
    <glyph glyph-name="nine" unicode="9" horiz-adv-x="362" 
d="M192 408q-10 -6 -26 -15.5t-33 -17.5t-33.5 -14t-28.5 -6q-23 0 -34 18t1 43q13 27 33 51.5t45 45.5t52 37.5t53 28.5q9 4 23.5 8.5t24.5 4.5q22 0 33 -35q-4 1 -8 1h-8q-13 0 -25 -4t-23 -9q-53 -23 -96 -60t-72 -88q-2 -3 0.5 -5.5t5.5 -1.5q24 9 47 21t45 26
q41 26 81 52t82 52l12 8t12 7q5 3 10 3q6 0 11 -5q9 -8 11.5 -18t-4.5 -23q-11 -21 -21 -42t-21 -42q-51 -98 -102 -195.5t-103 -196.5q-6 -13 -15 -27q-6 -10 -13 -10q-4 0 -6 1q-12 5 -14 11.5t6 20.5q35 72 72.5 143.5t75.5 143.5l40 76l40 76q2 5 5 9.5t-1 10.5
q-7 -4 -13.5 -8t-13.5 -8q-26 -17 -53 -34z" />
    <glyph glyph-name="period" unicode="." horiz-adv-x="114" 
d="M63 63q12 0 23 -7.5t13 -20.5q2 -8 -4 -18.5t-14 -13.5q-4 -2 -7 -2t-5 -1q-20 2 -29 9q-19 14 -5 38q11 16 28 16z" />
    <glyph glyph-name="comma" unicode="," horiz-adv-x="127" 
d="M63 18q-4 -18 -22 -18q-10 0 -17 7q-3 2 -1 10q3 16 5.5 31t5.5 31h1q3 15 6.5 30t6.5 31q3 14 14 14q2 0 3 -0.5t3 -0.5q3 -1 6.5 -2t6.5 -2q8 -5 7 -14q-6 -29 -12.5 -58.5t-12.5 -58.5z" />
    <glyph glyph-name="hyphen" unicode="-" horiz-adv-x="372" 
d="M253 244q17 0 32.5 1t32.5 2q16 0 19.5 -5.5t4.5 -19.5q0 -12 -10 -13q-5 0 -9 -0.5t-9 -0.5q-32 -4 -63 -3.5t-63 -0.5q-26 -2 -52.5 -3t-53.5 -3q-2 -1 -5 -1q-15 0 -18 21q-3 16 15 19q3 0 6 0.5t5 0.5q42 2 82 4t81 2h5z" />
    <glyph glyph-name="plus" unicode="+" horiz-adv-x="322" 
d="M25 213q10 2 19.5 3t19.5 2q15 2 29.5 3t29.5 3q9 2 11.5 4.5t4.5 10.5l4 28l4 28q1 6 1.5 11.5t2.5 11.5q3 9 12 8q4 0 7 -0.5t7 -1.5q8 -3 10.5 -7t1.5 -14q-2 -13 -4 -25t-4 -25q-2 -14 -1 -18.5t12 -4.5q5 0 9 1q23 1 47 2t47 2q5 1 9 1h9q11 0 13 -11q1 -5 1 -14
q-2 -11 -11 -13q-5 -1 -9 -1t-9 -1q-26 -2 -51.5 -3t-51.5 -3q-6 0 -9 -1q-13 -1 -14 -13q-3 -15 -5 -30.5t-5 -30.5l-3 -24q-3 -12 -15 -12q-14 0 -19 5.5t-3 19.5q2 17 3.5 32.5t3.5 32.5q1 8 -0.5 11t-8.5 3h-8q-7 -1 -14 -1.5t-15 -1.5q-22 -3 -44 -3q-13 -1 -19.5 7.5
t-3.5 21.5q3 7 9 7z" />
    <glyph glyph-name="asterisk" unicode="*" horiz-adv-x="223" 
d="M223 717q6 3 13 3t13.5 -3.5t8.5 -8.5q2 -2 -0.5 -4.5t-5.5 -4.5q-15 -11 -29 -22.5t-28 -23.5q-13 -11 -14 -19.5t8 -20.5q4 -5 8 -9t8 -9q2 -2 6 -4.5t0 -7.5q-2 -3 -7 -3q-4 0 -10 2q-8 4 -13 5q-5 2 -7 -4q-2 -8 -2.5 -14.5t-0.5 -14.5q0 -7 -8 -7q-24 0 -26 26
q0 5 2.5 12.5t-5.5 9.5q-6 1 -11.5 -5t-10.5 -11t-10.5 -10t-10.5 -10q-6 -6 -17 -6q-7 0 -12.5 3t-7.5 8q-2 8 5 13q11 11 22 21t22 21q6 6 13 11.5t12 13.5q-17 25 -40 50q-2 2 -4 3.5t-3 3.5q-2 2 -1.5 4t0.5 4q1 2 4 2h4q11 0 21 -7q6 -5 11.5 -10t10.5 -10q4 -6 7 -8
q2 -1 3.5 -2t3.5 -1q3 1 4 3t1 4l4 22l4 22l3 18q3 16 13 16q5 0 11 -3q17 -8 13 -25q-2 -7 -3 -14t1 -15q8 2 14 7t13 9z" />
    <glyph glyph-name="asciicircum" unicode="^" horiz-adv-x="234" 
d="M170 688q-4 -5 -7.5 -10t-7.5 -10q-12 -19 -24.5 -37t-24.5 -37q-5 -8 -14 -8t-16 5q-13 8 -4 21q16 24 31.5 48t31.5 47q13 17 25 17q15 0 30 -11t22 -23q13 -23 20 -49t15 -52q1 -4 -2.5 -6.5t-7.5 -1.5q-21 3 -27 20q-7 22 -14 43t-15 43q-2 4 -6 4q-5 -2 -5 -3z" />
    <glyph glyph-name="tilde" unicode="&#x2dc;" horiz-adv-x="283" 
d="M205 633q-12 -4 -24 -7.5t-23 -5.5q-3 -1 -9 -1q-22 0 -35.5 17.5t-8.5 40.5q1 2 1.5 4t2.5 3q10 0 15.5 -7.5t7.5 -16.5q1 -8 8 -8q4 0 6 1q11 3 21 6.5t20 6.5q11 4 20.5 7.5t20.5 6.5q15 6 32 6q22 0 34 -13.5t12 -37.5q0 -6 -3.5 -11t-10.5 -5q-8 0 -13 8.5t-7 15.5
q-1 8 -8 8q-4 0 -7 -1q-13 -5 -26 -9z" />
    <glyph glyph-name="slash" unicode="/" horiz-adv-x="340" 
d="M354 532q-45 -63 -89.5 -126t-89.5 -126q-46 -66 -90.5 -133t-89.5 -133q-3 -5 -6 -9.5t-10 -4.5q-8 0 -14 2.5t-9 9.5q-3 4 1 11q3 6 6.5 12t7.5 12q52 78 104.5 155.5t106.5 154.5q42 60 83 117.5t83 117.5q7 10 15 10t15.5 -5.5t9.5 -12.5q-1 -2 -1.5 -4t-2.5 -4
q-8 -11 -15 -22t-15 -22z" />
    <glyph glyph-name="backslash" unicode="\" horiz-adv-x="347" 
d="M97 612q5 -40 17.5 -76t25.5 -72q23 -69 47.5 -137.5t48.5 -137.5q14 -39 26.5 -79t25.5 -80q2 -5 4 -13q0 -8 -8.5 -12.5t-15.5 -4.5q-13 0 -19 11q-2 5 -3.5 10t-3.5 10q-23 69 -46 138.5t-46 138.5q-20 61 -40.5 122t-40.5 123q-5 12 -8.5 26t-3.5 28q0 17 20 16
q5 0 12.5 -2.5t7.5 -8.5z" />
    <glyph glyph-name="colon" unicode=":" horiz-adv-x="127" 
d="M100 143q6 -12 -4 -27.5t-25 -17.5q-2 -1 -5 -1q-14 0 -24.5 11t-8.5 25q5 27 33 27q11 0 20 -4.5t14 -12.5zM94 331q9 -4 18 -8.5t18 -9.5q10 -7 7 -19q-4 -14 -19 -20q-3 -1 -6.5 -1.5t-6.5 -1.5q-23 2 -35 15t-2 32q7 15 18 15q2 0 8 -2z" />
    <glyph glyph-name="semicolon" unicode=";" horiz-adv-x="139" 
d="M28 95q-10 10 -8.5 23.5t15.5 24.5q8 7 19 7q8 0 17.5 -4t15.5 -9q13 -10 14.5 -18.5t-6.5 -25.5q-7 -16 -14 -31.5t-15 -32.5q-3 -8 -8.5 -17t-15.5 -9q-9 0 -17 6q-10 6 -4 17q3 7 7 13.5t7 14.5q3 6 5.5 12.5t3.5 12.5q2 8 -5 9.5t-11 6.5zM51 274q-6 19 11 38
q9 9 16 9q21 -1 33 -17q1 -1 1 -6.5t-0.5 -12t-1 -12t-1.5 -7.5q-10 -13 -26 -13q-25 2 -32 21z" />
    <glyph glyph-name="less" unicode="&#x3c;" horiz-adv-x="226" 
d="M73 228q39 20 75.5 43.5t72.5 47.5q4 2 6 2q5 0 8 -4.5t5 -8.5q5 -11 3 -16t-13 -13q-32 -23 -64 -42.5t-66 -37.5q-8 -5 -17 -9t-17 -12q7 -7 22 -14.5t32 -14t33.5 -12l25.5 -8.5q14 -3 19.5 -11t6.5 -21q-5 -4 -10 -4q-3 0 -5.5 1t-4.5 2q-14 5 -38 13t-47.5 19
t-42.5 25t-24 30q-6 19 12 30q7 5 14 8t14 7z" />
    <glyph glyph-name="greater" unicode="&#x3e;" horiz-adv-x="241" 
d="M55 305q-1 5 2 8.5t8 2.5q6 0 9 -1l74 -20t74 -21q24 -6 27 -30q1 -8 -0.5 -14.5t-9.5 -11.5q-32 -32 -69.5 -59t-74.5 -52q-22 -18 -44 -32q-7 -5 -11 -5q-6 1 -9 7.5t-4 11.5q-2 10 6 16q5 4 9 7t9 7q32 24 65 48t65 49q6 5 12.5 9.5t11.5 12.5q-5 5 -9.5 6t-9.5 3
q-27 8 -53.5 16t-53.5 16q-21 6 -24 26z" />
    <glyph glyph-name="equal" unicode="=" horiz-adv-x="356" 
d="M94 229q-12 -1 -17.5 8.5t-4.5 19.5q0 6 8 8l18 2l18 2q48 3 94.5 6t93.5 7h15q13 0 17 -3t6 -14q2 -10 -0.5 -14t-13.5 -5q-55 -6 -107 -9l-50 -4l-50 -4h-16h-11zM54 152q-1 15 13 15h182h17.5t17.5 1q15 0 19 -8t2 -25q0 -2 -2 -4t-4 -2q-5 -1 -9 -1h-9h-96h-102
q-14 1 -20.5 6t-8.5 18z" />
    <glyph glyph-name="exclam" unicode="!" horiz-adv-x="94" 
d="M0 129q3 17 6.5 33.5t6.5 33.5q14 62 26.5 123t26.5 123q6 29 13 56.5t15 56.5q1 5 2 9t3 9q4 7 10 7q3 0 8.5 -2t8.5 -3q12 -6 8 -19q-2 -7 -3.5 -14t-3.5 -15q-12 -48 -22.5 -95t-21.5 -95q-11 -55 -22.5 -109.5t-23.5 -109.5q-3 -9 -6.5 -11.5t-12.5 -2.5q-12 2 -16 7
t-2 18zM-18 23q2 6 7.5 9t11.5 3q5 0 8.5 -1t7.5 -2q6 -2 7 -4t-1 -12q0 -9 -3 -12.5t-13 -3.5q-14 0 -21 5q-9 6 -4 18z" />
    <glyph glyph-name="question" unicode="?" horiz-adv-x="274" 
d="M36 407q-26 7 -19 33q7 28 23 53.5t38 45.5t49.5 32t56.5 12q42 0 70 -30q17 -19 8 -48q-7 -22 -21 -45q-12 -21 -26 -41t-29 -40q-35 -46 -65 -91.5t-48 -101.5q-5 -14 -10 -29t-10 -29q-4 -12 -14 -12q-4 0 -6 1q-12 2 -14.5 7.5t0.5 19.5q12 42 25.5 76t30 64t37 59
t46.5 62q15 21 29.5 41.5t25.5 43.5q13 22 16 42q2 29 -24 29q-27 0 -52.5 -12.5t-46 -32.5t-34.5 -45t-18 -51q-3 -14 -12 -14q-2 0 -3 0.5t-3 0.5zM-3 2q-11 2 -14 9t2 18q5 10 16.5 16t22.5 6t17 -6q2 -1 2 -3v-4q-4 -16 -15 -30q-5 -5 -10 -5.5t-10 -2.5q-2 1 -5 1t-6 1
z" />
    <glyph glyph-name="quotesingle" unicode="'" horiz-adv-x="88" 
d="M127 720q-7 -31 -13.5 -61t-13.5 -61q-2 -8 -5 -14t-11 -6q-11 0 -16.5 7.5t-3.5 17.5q3 16 6.5 31.5t8.5 35.5q2 14 5 30.5t7 33.5q2 9 9 9q3 0 4 -1q8 -3 17 -8q7 -4 6 -14z" />
    <glyph glyph-name="quotedbl" unicode="&#x22;" horiz-adv-x="125" 
d="M61 594q-7 4 -6 12q5 28 8.5 55.5t8.5 55.5q3 16 15 16q2 0 4 -0.5t4 -0.5q1 -1 3 -1q9 -3 12 -6.5t1 -13.5q-2 -14 -5 -28t-5 -28h2q-2 -14 -4.5 -26.5t-4.5 -26.5q-3 -13 -15 -13q-10 0 -18 5zM136 591q-13 3 -10 17q2 10 3 20t3 20q3 16 5.5 31t5.5 30t19 15q4 0 7 -1
t7 -2q11 -1 7 -12q-2 -14 -4.5 -27.5t-4.5 -27.5t-4.5 -26.5t-4.5 -26.5q-3 -14 -15 -12q-4 0 -7 0.5t-7 1.5z" />
    <glyph glyph-name="numbersign" unicode="#" 
d="M241 150q-15 -1 -30.5 -1t-31.5 -2q-8 0 -11.5 -3t-5.5 -11q-4 -18 -7 -35.5t-7 -34.5l-2 -12t-3 -12q-2 -12 -16 -12q-3 0 -11 2q-7 2 -9 5.5t-1 11.5q3 15 5.5 30t5.5 31q4 23 4 29t-13 6q-20 0 -39 -1.5t-39 -3.5q-13 0 -20 4t-11 17q-4 14 13 15q27 2 53.5 4.5
t53.5 5.5q11 1 14 14q5 24 9.5 49t9.5 50q1 13 -10 12q-15 -1 -30 -1.5t-29 -1.5q-8 -2 -12 -2q-9 0 -14 9t-5 17q0 10 8 11l54 6q8 1 17 1t18 1q8 2 11.5 4.5t5.5 10.5t3.5 15t3.5 14l24 102q2 8 6 10t12 2q7 -3 13 -5q10 -5 7 -16q-15 -60 -27 -120q-3 -13 10 -12
q17 1 32.5 1.5t32.5 2.5q11 0 14 13q6 21 11.5 42t10.5 43q4 20 16 20q6 0 14 -4q14 -6 9 -21q-4 -14 -7.5 -27.5t-6.5 -27.5l-6 -24q-2 -8 0.5 -10.5t11.5 -2.5q9 -1 18.5 -0.5t19.5 -0.5q12 -1 17.5 -10t0.5 -23q-2 -5 -10 -5q-10 -1 -19 -1h-19h-10.5t-10.5 -1
q-7 0 -11 -9q-5 -26 -9.5 -51t-9.5 -51q-3 -12 10 -13h10h9.5t9.5 1q15 0 18 -14q2 -5 2.5 -10.5t-4.5 -12.5q-13 -1 -26 -1.5t-26 -1.5q-9 -1 -12 -3.5t-5 -10.5q-3 -13 -5.5 -25t-5.5 -25q-5 -19 -9 -38t-9 -38q-3 -14 -20 -14q-17 1 -15 15q2 16 5 31.5t6 32.5q3 14 6 29
t5 29q1 13 -10 13zM183 188q17 1 33.5 1.5t33.5 2.5q11 0 14 14q2 12 4.5 24.5t4.5 24.5h1q2 12 4 23.5t4 23.5q3 14 -11 14q-16 -1 -31 -1.5t-31 -2.5q-12 0 -15 -12q-5 -23 -9 -45.5t-9 -45.5q0 -3 -0.5 -6t-0.5 -6q-2 -9 8 -9z" />
    <glyph glyph-name="at" unicode="@" horiz-adv-x="445" 
d="M93 23q-39 23 -56 58t-8 85q8 45 30.5 87.5t56 76t76 53.5t90.5 20q33 0 56.5 -11.5t39 -30t23 -42t6.5 -46.5q0 -11 -4.5 -25.5t-12.5 -28t-19 -22.5t-24 -9q-5 0 -11 -0.5t-11 -1.5q-12 -2 -18 -2.5t-9 -3t-4 -9.5l-3 -21q-2 -11 -3 -20.5t-3 -20.5q0 -8 -11 -8
q-23 1 -22 25q2 11 2.5 20.5t2.5 20.5q0 10 -10 10q-7 -1 -13.5 -2t-13.5 -1q-20 0 -30 -7t-18 -26q-5 -11 -10.5 -22.5t-10.5 -22.5q-7 -11 -17 -10q-10 2 -14 4q-11 4 -6 18l8 18t9 18q3 9 8 19q-5 2 -15 2q-7 0 -13 -1t-13 -1q-9 0 -15 5.5t-15 9.5q-9 -27 -12 -52t5 -48
q5 -14 17 -23.5t27.5 -15t31.5 -8t28 -2.5q39 0 71.5 14.5t59.5 38t49 53.5t41 60q3 5 8 5q4 0 7 -3q9 -11 9.5 -19t-9.5 -22q-20 -31 -40.5 -59t-46 -49.5t-57 -34.5t-72.5 -13q-24 0 -48 5t-44 18zM76 203q-2 -10 7 -8q16 2 31.5 4t30.5 4q10 1 16 6t11 13q8 14 17.5 29
t18.5 29q4 5 9.5 12.5t12.5 14.5t15 11.5t15 4.5q16 0 28 -12t12 -28v-40q-1 -5 -1 -9v-9q1 -5 5.5 -6.5t9.5 -1.5q16 0 28 7.5t20.5 19.5t14 26.5t6.5 28.5q3 32 -21 48q-14 11 -31.5 15.5t-38.5 5.5q-37 -2 -70.5 -15t-62 -35t-50 -51.5t-33.5 -63.5zM216 220q-4 -7 6 -9
h3h6q4 1 8 1t9 1q13 1 13 13q2 13 2 25t1 24q0 4 -3 4q-6 -1 -12.5 -9t-13 -17.5t-11.5 -18.5t-8 -14z" />
    <glyph glyph-name="dollar" unicode="$" horiz-adv-x="373" 
d="M-17 52q-3 13 11 24q6 3 11 3q8 0 13.5 -6.5t7.5 -12.5q2 -4 -3 -11q-6 -8 -6 -10t6 -4q23 -10 45 -10q32 0 69 17t71.5 43.5t61.5 58.5t37 61q6 18 1.5 33.5t-27.5 21.5q-23 5 -44 5q-9 0 -18 -0.5t-19 -1.5q-29 -3 -59 -7t-59 -7q-11 -1 -22 -1.5t-22 -0.5
q-17 0 -30 13q-20 22 1 49q29 36 71 71.5t80 60.5q18 13 21 32q9 75 21 146l2 12t9 8h6q10 0 16.5 -5t5.5 -13q0 -8 -1 -12q-2 -21 -5 -42t-5 -43q-2 -9 -5.5 -19.5t3.5 -18.5q10 1 19 6t18 8q13 5 25 9t25 9q12 3 27 3q14 0 19 -7t6 -27q-41 -2 -78 -18t-74 -38
q-19 -12 -44 -28.5t-49 -36t-45.5 -40t-34.5 -38.5q-2 -2 -1.5 -4t3.5 -2q3 -1 8 -1t9 0.5t9 0.5q25 3 49 6t49 7q20 3 38.5 3t38.5 1q29 0 49 -15t30 -37.5t8 -49t-16 -49.5q-34 -54 -75.5 -85.5t-97.5 -56.5q-9 -5 -11 -14q-7 -39 -13 -77.5t-12 -77.5q-1 -11 -6 -13.5
t-14 -2.5q-14 4 -16.5 8.5t-0.5 15.5l15 111q1 5 1.5 10t1.5 10q2 12 0 14.5t-13 4.5q-13 1 -27.5 5t-28 11t-23.5 17t-13 24z" />
    <glyph glyph-name="Euro" unicode="&#x20ac;" horiz-adv-x="480" 
d="M3 153q-5 14 12 17q14 2 29 3t30 3q11 2 14.5 4t8.5 13q5 13 11 25.5t14 24.5q5 10 4 13t-12 3q-9 0 -18.5 -0.5t-18.5 -0.5q-16 -1 -21 14q-9 20 16 23q17 2 33.5 3t33.5 1q13 0 22 4.5t18 14.5q23 26 55 51.5t68 45.5t73.5 32.5t73.5 12.5q19 0 34.5 -4.5t20.5 -25.5
q4 -8 0 -14q-3 -3 -5 -3q-3 0 -5 2.5t-4 3.5q-5 3 -10 3.5t-11 0.5q-52 0 -104 -20q-14 -6 -34 -16t-40.5 -23t-38 -27t-26.5 -26q-4 -6 3 -6q4 -1 14 -1q23 1 47 1.5t47 2.5q12 0 16 -2t6 -15q2 -6 0 -12q0 -7 -7.5 -8t-12.5 -1l-135 -6q-5 -1 -15 -1q-7 0 -16 -10
t-17.5 -23t-14.5 -26t-8 -19q4 -4 11 -4q2 0 4.5 0.5t4.5 0.5q29 2 59 4.5t59 4.5q2 1 5 1q9 0 11 -7t3 -14q2 -14 -14 -16q-37 -5 -74 -8l-74 -6q-8 -1 -11.5 -3t-6.5 -10q-10 -32 -5 -67q2 -10 8.5 -16t16 -9t19.5 -4t19 -1q25 0 51.5 5t50.5 11q28 8 56 15t56 15
q9 3 13 3q7 0 11 -7.5t6 -13.5q2 -8 -6 -12q-2 -1 -4.5 -2t-4.5 -2q-38 -10 -76.5 -20.5t-76.5 -17.5q-18 -3 -35.5 -4t-35.5 -1q-46 2 -72.5 30t-24.5 74q0 6 0.5 12t1.5 12q1 9 -10 9q-10 0 -19.5 -0.5t-19.5 -1.5q-11 0 -17 3.5t-9 14.5z" />
    <glyph glyph-name="percent" unicode="%" horiz-adv-x="439" 
d="M-31 8q-2 5 1 11q3 5 6 9.5t6 9.5q67 103 136.5 202.5t144.5 197.5q29 38 56 77t56 77l46 62l46 62q2 4 7 10t10 6q8 0 14 -8t8 -14q2 -5 -2 -9q-72 -90 -136.5 -183.5t-135.5 -185.5q-46 -59 -87 -120t-83 -123q-15 -22 -29.5 -43t-28.5 -43q-5 -9 -14 -9q-6 2 -11.5 5
t-9.5 9zM188 461q-22 22 -21 58q2 25 10 46q5 12 16 33.5t25.5 42.5t31 36.5t32.5 15.5q11 0 24 -13q9 -11 -5 -16q-10 -4 -18 -9t-15 -16q18 -12 27.5 -30.5t16.5 -38.5q8 -26 -7 -53q-6 -11 -14.5 -23.5t-20 -23t-24 -17.5t-26.5 -7q-17 0 -32 15zM116 79q3 11 11 30.5
t19 38.5t25 32.5t28 13.5q9 0 19.5 -7t10.5 -17l-27 -12q12 -3 21.5 -9.5t12.5 -19.5q5 -18 4.5 -36t-11.5 -37q-11 -17 -28.5 -33t-38.5 -16q-16 0 -27 10q-28 22 -19 62zM199 507q-2 -15 1 -25q3 -6 7 -6q11 0 23 9t22 21t18 25.5t11 22.5q5 15 2 26q-4 13 -9 26t-15 25
q-50 -60 -60 -124zM147 46q0 -9 6 -9q4 0 7 3q23 13 36.5 36.5t11.5 46.5q-2 9 -3.5 17.5t-3.5 17.5q-9 -10 -18 -24t-17 -29t-13.5 -30t-5.5 -29z" />
    <glyph glyph-name="ampersand" unicode="&#x26;" horiz-adv-x="352" 
d="M53 9q-13 -5 -25 -5q-28 0 -48.5 20t-18.5 51q1 36 19 73.5t43.5 72.5t55 65t55.5 52q5 4 11 7.5t8 11.5q-2 2 -6 2q-5 0 -8 -1q-8 -2 -17 -3.5t-18 -3.5q-4 -1 -11 -1q-18 0 -29 19q-8 15 2 30q23 38 58 73.5t72 59.5q14 9 20.5 19.5t9.5 24.5q5 27 11.5 54t12.5 54l3 9
q3 6 10 6q15 0 24 -11q3 -4 1 -14q-2 -11 -5 -23t-6 -23q-2 -11 -5 -22t-5 -22q-1 -2 -0.5 -4t0.5 -4q2 -1 6 -1q3 0 6 1l6 2q11 4 21 6.5t21 2.5q17 0 28 -9.5t16 -26.5q3 -8 -4 -14q-6 -2 -7 -2q-2 0 -5 1t-4 3q-6 13 -19 13q-12 0 -29.5 -6.5t-35.5 -16t-34.5 -19.5
t-25.5 -17q-8 -6 -24 -19t-31.5 -28.5t-28.5 -30.5t-15 -24q4 -2 6 -2t3.5 0.5t3.5 0.5q16 3 31.5 6.5t30.5 6.5q5 1 9 2t9 1q16 0 25.5 -4t14.5 -21q2 -7 -4 -11q-5 -5 -10.5 -9t-11.5 -9q-14 -11 -29 -22t-29 -23q-23 -19 -48.5 -45t-48 -55t-40 -60.5t-25.5 -62.5
q-5 -20 -3 -38q1 -13 15 -13q23 0 44.5 13t38.5 27q20 16 37.5 32.5t35.5 33.5l54 52l54 52q9 9 14 9t10 -5.5t7 -9.5q5 -7 -2 -14l-6 -6q-38 -38 -75 -76.5t-78 -73.5q-13 -12 -18 -31q-6 -29 -12.5 -58.5t-12.5 -58.5q-2 -11 -3.5 -22t-3.5 -22q-1 -12 -10 -12q-2 0 -3 1
q-14 2 -18.5 8.5t-2.5 20.5l8 48t9 48q2 14 2 19.5t-5 5.5q-3 0 -18 -5z" />
    <glyph glyph-name="braceleft" unicode="{" horiz-adv-x="226" 
d="M282 710q-3 -3 -8 -3q-17 1 -25 18q-6 10 -11 10q-4 0 -11 -4q-15 -8 -28 -22.5t-23 -32t-16.5 -35.5t-9.5 -34q-10 -58 -18 -117q-6 -38 -16.5 -71.5t-42.5 -59.5q-2 -2 -3.5 -3t-3.5 -3q0 -3 1 -3q14 -19 15.5 -41t-3.5 -46q-5 -18 -9 -36t-9 -37q-8 -33 -16.5 -66.5
t-10.5 -67.5q-1 -25 3 -51q2 -9 8.5 -22.5t18.5 -13.5q11 0 16 10q5 9 8.5 12t13.5 3q11 0 18 -6q4 -3 2 -10q-5 -16 -21 -21.5t-30 -5.5q-42 0 -60 26t-18 64q1 17 2 33.5t5 33.5l24 99q8 30 15 64q3 17 4 28.5t-1 21t-8 19t-16 21.5q30 17 45 40.5t21 52.5q7 33 12 70
q5 23 8 47t8 47q4 18 13.5 42t24 45.5t33.5 36.5t41 15q19 0 36.5 -9.5t24.5 -27.5q1 -2 1 -5t-4 -5z" />
    <glyph glyph-name="braceright" unicode="}" horiz-adv-x="186" 
d="M190 737q17 -20 13 -47q-2 -17 -7.5 -34.5t-13.5 -34.5q-13 -29 -25 -56.5t-23 -56.5q-14 -37 -17 -73q-2 -24 4 -43t27 -30q2 -1 2.5 -1.5t2.5 -1.5q7 -7 -2 -13q-15 -8 -25.5 -23.5t-17.5 -34t-11 -38t-5 -36.5q-6 -78 -24 -154q-4 -20 -14 -40t-24 -35.5t-33 -25
t-41 -9.5q-11 0 -20 6q-5 4 -4 9q2 5 7.5 6.5t10.5 1.5q2 0 3 -1q30 0 48.5 29t29 68t15 78.5t5.5 61.5q2 19 5.5 40t10 41.5t18 38t27.5 29.5q-28 18 -32.5 44.5t0.5 56.5q3 22 9.5 43t15.5 41q10 23 20 45.5t20 45.5q7 16 13 32.5t8 33.5q3 18 -2 31q-6 12 -17 12
q-15 0 -31 -10.5t-24 -21.5q-7 -8 -15 -8q-4 0 -8.5 2t-8.5 4q-14 8 -1 21q14 17 33 26t39 9q17 0 32.5 -7.5t26.5 -20.5z" />
    <glyph glyph-name="bracketleft" unicode="[" horiz-adv-x="192" 
d="M11 -26q-22 7 -21 31q15 167 42 325t70 320q3 9 5 18.5t5 18.5q3 14 9 26q3 10 15 15l18 6t25 7.5t25 6t18 2.5q5 0 9 -2.5t8 -4.5q3 -2 6 -3.5t2 -6.5t-5.5 -6t-8.5 -3q-14 -4 -28 -7t-28 -7q-22 -4 -27 -27q-2 -8 -4.5 -17t-4.5 -17q-23 -99 -46 -196t-37 -196
q-9 -61 -16 -122t-11 -122q0 -4 -0.5 -7.5t-0.5 -7.5q0 -9 10 -11q6 -1 12.5 -1.5t13.5 -0.5q11 -2 21.5 -2t20.5 -3q5 -2 8.5 -3t5.5 -6q-5 -5 -9 -5.5t-10 -0.5q-19 2 -37.5 3t-37.5 3q-5 0 -8.5 1t-8.5 2z" />
    <glyph glyph-name="bracketright" unicode="]" horiz-adv-x="161" 
d="M-52 -30q-2 2 -2 4q1 2 4 5q2 1 4.5 1t4.5 1q5 2 10 3t10 3q28 9 34 37q17 94 37.5 187t41.5 187q15 67 29 133t28 133q2 8 3 17l2 18q1 8 -1 11t-10 4q-5 0 -10.5 0.5t-10.5 0.5q-6 0 -12.5 -1t-13.5 -5q-4 -3 -11 -3q-4 0 -7.5 1t-6.5 2q-5 2 -8 6.5t-1 8.5t8 6t13.5 3
t15 1h11.5q37 0 72 -14q13 -6 12 -22q-2 -13 -3.5 -25t-3.5 -25q-14 -65 -28 -129.5t-28 -130.5q-2 -9 -4 -18.5t-4 -19.5q-17 -76 -33.5 -151.5t-30.5 -151.5q-1 -15 -6 -30q-3 -13 -12.5 -22.5t-22 -16t-26.5 -10t-26 -3.5t-18 5z" />
    <glyph glyph-name="bar" unicode="|" horiz-adv-x="93" 
d="M63 352q-20 -106 -36.5 -210t-30.5 -210q-2 -9 -7 -11.5t-13 -2.5q-2 0 -4.5 0.5t-4.5 0.5q-13 3 -12 16q0 5 0.5 10t1.5 10q14 109 33 218t39 218q9 49 20 97.5t22 97.5q11 50 22 99.5t22 99.5q3 12 13 12q5 0 9 -2t9 -4q10 -3 7 -15q-17 -75 -33 -150.5t-32 -150.5
q-7 -31 -14 -61.5t-11 -61.5z" />
    <glyph glyph-name="quotedblleft" unicode="&#x201c;" horiz-adv-x="105" 
d="M81 734q3 6 5.5 12.5t11.5 7.5q10 0 15 -3.5t10 -11.5q2 -3 -2 -11q-16 -35 -30.5 -69.5t-28.5 -69.5q-4 -8 -12 -9h-2q-11 0 -17.5 9t-1.5 20q11 28 22.5 55.5t23.5 55.5q2 4 3 7.5t3 6.5zM115 579q-12 5 -14.5 12t2.5 21q10 26 19 50.5t19 49.5q4 10 12 10q3 0 7 -2
t7 -4.5t6 -4.5q8 -6 2 -15q-10 -28 -20 -55t-21 -54q-3 -10 -12 -10q-5 0 -7 2z" />
    <glyph glyph-name="quotedblright" unicode="&#x201d;" horiz-adv-x="105" 
d="M81 734q3 6 5.5 12.5t11.5 7.5q10 0 15 -3.5t10 -11.5q2 -3 -2 -11q-16 -35 -30.5 -69.5t-28.5 -69.5q-4 -8 -12 -9h-2q-11 0 -17.5 9t-1.5 20q11 28 22.5 55.5t23.5 55.5q2 4 3 7.5t3 6.5zM115 579q-12 5 -14.5 12t2.5 21q10 26 19 50.5t19 49.5q4 10 12 10q3 0 7 -2
t7 -4.5t6 -4.5q8 -6 2 -15q-10 -28 -20 -55t-21 -54q-3 -10 -12 -10q-5 0 -7 2z" />
    <glyph glyph-name="quotedblright.1" horiz-adv-x="95" 
 />
    <glyph glyph-name="quotedblbase" unicode="&#x201e;" horiz-adv-x="105" 
d="M21 116q4 5 6.5 12t11.5 8q9 0 14 -3.5t10 -11.5q2 -3 -2 -11q-15 -35 -30 -69.5t-29 -69.5q-3 -9 -12 -10h-2q-11 0 -17.5 9.5t-1.5 20.5q11 28 23 55.5t23 55.5q2 4 6 14zM56 -40q-12 5 -15 12.5t2 21.5q10 25 19.5 50t19.5 50q3 10 11 10q2 0 8 -2q3 -2 6 -4.5t7 -5.5
q7 -5 2 -15l-42 -108q-3 -10 -12 -10q-4 0 -6 1z" />
    <glyph glyph-name="quoteleft" unicode="&#x2018;" horiz-adv-x="110" 
d="M136 728q5 6 9 6q2 0 8 -4q3 -3 7 -11q8 -11 -1 -22q-3 -5 -6.5 -9t-6.5 -9q-13 -19 -26 -37t-27 -37q-3 -7 -8 -8q-3 0 -4 1q-11 3 -14.5 13t2.5 21q2 5 8 13q15 21 29.5 41.5t29.5 41.5z" />
    <glyph glyph-name="quoteright" unicode="&#x2019;" horiz-adv-x="110" 
d="M130 729q5 6 9 6q5 0 8 -4q2 -2 4 -5l4 -6q6 -10 -2 -21q-3 -5 -6.5 -9t-6.5 -9q-13 -19 -26 -37.5t-26 -37.5q-2 -2 -4 -4.5t-5 -2.5h-4q-10 3 -13.5 13.5t1.5 20.5q2 4 4 7t4 7q15 20 29.5 41t29.5 41z" />
    <glyph glyph-name="quotesinglbase" unicode="&#x201a;" horiz-adv-x="110" 
d="M76 111q5 6 10 6t9 -6l6 -9q6 -11 -2 -22q-3 -4 -6 -8.5t-6 -9.5q-14 -18 -26.5 -36.5t-26.5 -37.5q-3 -6 -8 -8h-4q-11 4 -14.5 14t1.5 21q2 4 4.5 7t4.5 6q14 21 29 41.5t29 41.5z" />
    <glyph glyph-name="underscore" unicode="_" horiz-adv-x="466" 
d="M371 -42q-50 -2 -99.5 -3.5t-100.5 -3.5q-64 -3 -129 -9q-5 0 -8.5 1t-5.5 6q-2 7 -2.5 13.5t4.5 13.5t16 7q17 2 33 3.5t32 2.5q35 2 69.5 3t69.5 3q34 1 67.5 2t67.5 3h12q14 0 15 -13v-8t-1 -9q-2 -10 -10 -10q-8 -1 -15 -1.5t-15 -0.5z" />
    <glyph glyph-name="endash" unicode="&#x2013;" horiz-adv-x="372" 
d="M264 236q17 0 35 1t35 3q16 0 19.5 -6t4.5 -20q0 -11 -10 -12q-5 -1 -9 -1.5t-9 -0.5q-32 -3 -63 -3t-63 -1q-26 -2 -53 -3t-53 -3q-12 0 -16.5 3t-6.5 17q-3 16 15 19q4 1 11 1q42 2 82 4t81 2z" />
    <glyph glyph-name="emdash" unicode="&#x2014;" horiz-adv-x="372" 
d="M264 236q17 0 35 1t35 3q16 0 19.5 -6t4.5 -20q0 -11 -10 -12q-5 -1 -9 -1.5t-9 -0.5q-32 -3 -63 -3t-63 -1q-26 -2 -53 -3t-53 -3q-12 0 -16.5 3t-6.5 17q-3 16 15 19q4 1 11 1q42 2 82 4t81 2z" />
    <glyph glyph-name="macron" unicode="&#xaf;" horiz-adv-x="268" 
d="M233 732h23h15q12 -1 15 -4t5 -14q1 -3 1 -11q-1 -8 -10 -11h-3q-37 -2 -73.5 -4t-73.5 -4q-14 0 -20 4t-7 19q-1 16 16 17q29 2 56.5 4t55.5 4z" />
    <glyph glyph-name="parenright" unicode=")" horiz-adv-x="274" 
d="M-19 -92q0 5 -0.5 9t-1.5 9q39 29 71 75t58 101t45.5 116.5t33 122.5t21.5 118t10 103q1 17 -0.5 33t-3.5 32q-4 23 -12.5 43.5t-24.5 37.5l-16 18l-16 18q-4 6 -1 10q3 3 7 3q18 0 30 -14q11 -12 21 -23t20 -23q15 -18 22 -39.5t10 -44.5q5 -29 4 -58.5t-4 -59.5
q-9 -91 -31 -179.5t-58 -177.5q-12 -28 -30.5 -64.5t-42.5 -71t-52 -62t-58 -36.5z" />
    <glyph glyph-name="parenleft" unicode="(" horiz-adv-x="382" 
d="M18 246q-3 59 6.5 119.5t30.5 122.5q33 97 104 180q12 13 32.5 32.5t44.5 37.5t48.5 31t43.5 13q16 0 30 -7q2 -1 4.5 -2t0.5 -5t-7 -4q-16 0 -26.5 -4.5t-24.5 -12.5q-61 -39 -107.5 -91.5t-77.5 -114.5t-46 -131t-15 -140q0 -48 5 -95t17 -92q6 -21 16 -45.5t24 -47.5
t31.5 -42.5t37.5 -30.5q1 -2 1 -3.5t1 -3.5q0 -2 0.5 -4.5t0.5 -4.5l1 -3v-3q-16 1 -31 6t-27 16q-35 30 -58 68.5t-36 82t-18.5 89t-5.5 89.5z" />
    <glyph glyph-name="bullet" unicode="&#x2022;" horiz-adv-x="170" 
d="M135 278q8 -8 14 -17l12 -18q7 -11 4 -29q-4 -24 -25.5 -44t-46.5 -20q-21 0 -35.5 17t-9.5 39q2 10 9 24t17 26.5t21.5 21t23.5 8.5q8 0 16 -8z" />
    <glyph glyph-name="logicalnot" unicode="&#xac;" horiz-adv-x="253" 
d="M203 115q-14 3 -17.5 9t-1.5 17l6 30t5 31q3 12 -10 12q-12 0 -24 0.5t-24 0.5q-37 0 -75 -3q-3 -1 -8 -1q-6 0 -10 4q-9 11 -6 26q0 6 8 8q8 1 15 2t15 2q30 1 59.5 1t59.5 1q2 0 3 -0.5t3 -0.5q9 0 14.5 -0.5t8.5 -2t6 -5t7 -10.5q6 -7 2 -21q-3 -15 -6 -30.5t-6 -30.5
q-1 -5 -1.5 -10.5t-0.5 -10.5q-1 -13 -5.5 -15.5t-16.5 -2.5z" />
    <glyph glyph-name="trademark" unicode="&#x2122;" horiz-adv-x="434" 
d="M119 702q-23 3 -21 28q2 6 8 8q74 6 146 6q49 0 97 -3q15 -1 30.5 -1h30.5q16 -1 20 -15q5 -10 6.5 -20.5t-0.5 -22.5q-6 -34 -11.5 -67.5t-11.5 -66.5q-1 -5 -3.5 -10t-8.5 -5q-28 0 -23 26q2 14 4.5 29t4.5 29q2 11 3.5 21t3.5 20q0 7 -4 7q-1 0 -5 -2q-3 -2 -6 -4.5
t-7 -4.5q-5 -4 -10 -7.5t-11 -7.5q-17 -11 -33 -11q-11 0 -20 5q-2 1 -5 3t-6 2t-5 -1q-5 -9 -6 -18.5t-3 -18.5q-2 -11 -4 -21l-4 -20q-1 -9 -11 -9q-2 0 -3 1q-14 4 -18 11t-1 22q6 26 10 52.5t11 52.5q4 14 -10 15q-6 1 -12 1h-12q-9 0 -13.5 -1.5t-7 -5.5t-4.5 -11
t-5 -19q-8 -25 -12 -49.5t-9 -49.5q-1 -12 -12 -12q-3 0 -5 1q-13 4 -17 10t-2 21q2 20 7 40.5t10 40.5q2 6 3 12l2 12q2 7 -6 7q-8 1 -15 1h-14zM302 703q-1 -24 4 -40q2 -6 6 -6q3 0 10.5 4.5t15 10.5t14 11.5t9.5 8.5q2 2 1.5 5t-3.5 3q-14 1 -27.5 1.5t-29.5 1.5z" />
    <glyph glyph-name="registered" unicode="&#xae;" horiz-adv-x="466" 
d="M71 505q8 41 27 78.5t47 72.5q36 45 84 66.5t105 21.5q35 0 65.5 -10.5t55.5 -35.5q18 -18 23 -41.5t3 -49.5q-3 -46 -20.5 -88.5t-46.5 -82.5q-5 -7 -14 -16.5t-19.5 -18.5t-21.5 -15.5t-20 -6.5q-12 0 -24 13q-20 21 -40.5 40.5t-41.5 37.5q-7 -2 -9 -5.5t-3 -6.5
q-6 -17 -11.5 -33t-11.5 -33q-1 -5 -1.5 -9t-2.5 -9q-5 -11 -18 -11q-8 0 -15.5 5t-7.5 13q0 7 2 17q10 58 18.5 115.5t21.5 115.5q2 8 3.5 16t-2.5 15q-1 -5 -5 -9t-7 -8q-55 -64 -74 -139q-8 -32 -7.5 -61.5t12.5 -56.5q7 -16 20 -31q15 -15 32 -14h20.5t20.5 1
q12 2 23.5 5.5t21.5 13.5q13 11 22 11q7 0 15 -5q12 -7 1 -18q-18 -18 -46 -23.5t-52 -5.5q-35 0 -62.5 13.5t-45.5 44.5q-17 28 -19.5 60t5.5 67zM196 660h10t10 -1q17 -2 20.5 -7.5t-0.5 -22.5l-3 -15q-2 -13 -5 -26t-5 -26q0 -2 3 -4q1 0 5 2q2 2 3 3.5t3 3.5
q9 12 18.5 23.5t20.5 22.5q22 20 39 20q12 0 27 -10q12 -8 15 -17.5t-4 -23.5q-11 -25 -34 -45t-45 -35q-6 -4 -12 -7t-10 -10q1 -5 4.5 -8t6.5 -6q11 -11 22.5 -21t23.5 -21q11 -9 15.5 -14.5t9.5 -5.5t12 6.5t21 21.5q20 21 38 55t26 61q9 28 13 55.5t-1 54.5
q-6 35 -31 46.5t-56 11.5q-39 0 -77.5 -12.5t-67.5 -38.5l-6.5 -6.5t-8.5 -3.5zM277 558q-4 -5 -2 -13q5 5 9 8.5t8 7.5q5 6 10 11.5t9 13.5q1 2 1.5 4t-1.5 3q-4 2 -6 -2q-7 -8 -14 -16.5t-14 -16.5z" />
    <glyph glyph-name="copyright" unicode="&#xa9;" horiz-adv-x="466" 
d="M59 58q-18 21 -25.5 47t-5.5 56q1 11 2.5 22t2.5 22q7 40 23 77t40 72q15 22 37 44t48 39t54.5 28t56.5 11q8 0 19 -2t21.5 -6t18.5 -11t10 -16q0 -4 -4 -4t-5 1q-19 10 -40 10q-16 0 -31 -4t-31 -11q-43 -18 -77.5 -50t-59 -72t-37.5 -85.5t-13 -90.5q0 -46 25 -79
t76 -33q39 0 76 22.5t68 56.5t54.5 72.5t35.5 71.5q10 26 13 51t-3 50q-4 14 -6.5 29.5t-5.5 30.5q-1 2 -0.5 4t3.5 3q1 1 5 1q8 0 15 -10t9 -17q4 -19 8 -37.5t7 -38.5q5 -26 -1 -51t-17 -50q-14 -33 -38 -70t-55.5 -68.5t-68 -52t-76.5 -20.5q-38 0 -70.5 14.5t-57.5 43.5
zM157 84q-52 36 -40 113q6 23 20.5 55t35 61t46 49.5t53.5 20.5q17 0 31 -7.5t24 -19.5q13 -16 4 -26q-3 -3 -8 -3q-8 0 -14.5 5t-8.5 13q-2 3 -2 6.5t-5 4.5q-25 0 -47.5 -18.5t-41 -45t-31.5 -55.5t-19 -50q-13 -43 9 -81q6 -11 14 -11q10 0 26 10.5t32.5 25t30.5 29
t20 21.5q9 10 16 10q5 0 10 -3t9 -6q7 -5 1 -15q-9 -13 -25 -29.5t-34 -31t-37 -24.5t-34 -10q-18 0 -35 12z" />
    <glyph glyph-name="cent" unicode="&#xa2;" horiz-adv-x="339" 
d="M274 128q5 0 8 -3.5t5 -7.5q6 -12 3.5 -18t-16.5 -14q-27 -14 -54 -25.5t-55 -20.5q-12 -4 -15 -6.5t-5 -13.5q-5 -31 -9.5 -61.5t-8.5 -61.5q-2 -8 -0.5 -16t1.5 -16q0 -7 -7 -7q-13 0 -21.5 5t-9.5 19q-1 10 -0.5 20t1.5 20q3 23 6 45.5t6 45.5q2 11 0 13t-12 4
q-15 2 -28 4.5t-23.5 7.5t-20 13.5t-18.5 23.5q-17 28 -17.5 60t12.5 65q12 30 30 60.5t41 58t50.5 50t57.5 36.5q13 7 16 22l15 81q4 24 17 24q6 0 16 -6q10 -5 7 -16q-2 -9 -3 -18.5t-3 -19.5t-3 -14q-3 -18 -3 -24t12 -6h5.5t7.5 1q21 0 39.5 -7t24.5 -30q2 -6 -1 -11
q-2 -2 -4 -2q-4 0 -8 4q-8 6 -16.5 8t-18.5 2q-46 0 -92 -26t-83.5 -66t-62.5 -87.5t-28 -90.5q-4 -53 47 -59q15 -3 30 -3q47 0 95 20t88 42q4 2 5 2z" />
    <glyph glyph-name="sterling" unicode="&#xa3;" horiz-adv-x="370" 
d="M16 19h-3q-9 0 -15 7t-5 18q2 6 8 8q8 2 15.5 4t14.5 9q18 18 29.5 31t19 26.5t13 29.5t11.5 40q8 31 11.5 61.5t7.5 61.5q1 14 -10 14q-3 0 -5 -1q-14 -1 -27 -2l-26 -2q-5 -1 -11 -1h-11q-17 0 -22 19q-3 14 12 16q14 2 28 3t28 3q7 1 13.5 1t13.5 2q9 2 14.5 2.5t8 3
t4 8t3.5 15.5q7 40 18 80t28 79q7 17 19 39.5t27.5 42.5t34.5 33.5t40 13.5q24 0 45.5 -16t32.5 -36q15 -28 -1 -64q-4 -9 -13 -9q-4 0 -8.5 3l-7.5 5q-10 8 -4 21q6 11 7 21.5t-1 21.5q-5 27 -29 27q-12 0 -26 -9q-28 -17 -49.5 -49.5t-37 -71t-25.5 -77t-15 -68.5
q-1 -10 10 -10q17 1 32.5 1.5t32.5 2.5q13 0 16 -9q5 -19 1.5 -23t-21.5 -6q-10 -2 -19.5 -2t-18.5 -1q-6 -1 -12 -1t-12 -1q-10 -2 -13 -5t-5 -12q-2 -10 -3 -14q-2 -18 -4.5 -35.5t-4.5 -35.5q-6 -44 -19 -88t-45 -76l-6 -6t-5 -6q-10 -10 2 -13q29 -8 56 -8q86 0 146 63
q3 3 6 6.5t7 7.5q2 2 4 2t3 -1q11 -9 10.5 -22t-10.5 -25q-30 -35 -69 -50.5t-84 -15.5q-27 0 -49 7q-16 5 -33 9t-34 4h-6.5t-7.5 -1z" />
    <glyph glyph-name="yen" unicode="&#xa5;" horiz-adv-x="373" 
d="M36 112q-2 7 6 9q13 1 25.5 1.5t24.5 1.5q6 1 12 1t12 1t9.5 9.5t5 19t1.5 21v15.5q0 11 -10 11q-6 -1 -12 -1t-12 -1q-4 -1 -7.5 -1h-6.5q-27 -1 -27 27q0 7 8 9q5 2 11 2t12 1q10 1 19.5 1t18.5 1q12 2 13 12q2 19 3.5 37t3.5 36q1 4 -0.5 7t-2.5 6q-2 8 -5 16t-5 16
q-14 58 -27.5 115.5t-27.5 116.5q-2 6 -3 12t-1 12q-2 8 8 8q12 -1 20.5 -5.5t10.5 -18.5q12 -58 27.5 -114.5t29.5 -113.5q1 -4 1.5 -7t1.5 -7q3 -6 6 -6q4 0 7 5q7 9 13.5 17.5t12.5 18.5q38 57 77.5 113t81.5 111q4 5 7.5 10t11.5 5q13 0 24 -11q3 -3 0 -8q-2 -5 -5 -8.5
t-6 -7.5q-39 -54 -77.5 -107.5t-76.5 -108.5q-12 -18 -25 -35t-31 -29q-6 -4 -7.5 -15.5t-2.5 -18.5q-1 -15 -2 -24.5t-0.5 -15t3 -7.5t9.5 -2q5 0 13.5 1t21.5 2q17 0 23.5 -3.5t6.5 -21.5q2 -10 -10 -12q-15 -2 -30 -2.5t-30 -2.5q-8 -1 -10 -3t-4 -10q-2 -13 -3 -26
t-3 -26q-1 -12 12 -12q16 0 32 3q2 0 4.5 0.5t4.5 0.5q10 0 16 -17q5 -17 -13 -18q-11 -2 -22 -2.5t-22 -1.5q-11 -2 -14 -5t-5 -14t-2 -22t-1 -22q-1 -4 -1 -8t-1 -9q-1 -8 -6 -10.5t-12 -2.5q-22 0 -21 22q0 12 1 24.5t2 24.5q1 11 -2 13.5t-14 2.5h-4h-24h-16
q-12 1 -17.5 7.5t-6.5 17.5z" />
    <glyph glyph-name="florin" unicode="&#x192;" horiz-adv-x="328" 
d="M-26 8q-16 7 -20.5 21t3.5 31q2 6 6 7t9 1q7 0 15.5 -2t8.5 -11q-1 -7 -2 -13.5t1 -12.5q4 -12 15 -12q18 0 32.5 15.5t26.5 40t21 55t16 61t11.5 57t6.5 43.5h1q5 25 9 50t9 50q1 4 1.5 7t0.5 7q2 9 0.5 12t-8.5 3h-5l-24 -3q-10 0 -15.5 1.5t-11.5 12.5q-11 16 11 19
q11 2 22 3t22 3q13 2 16.5 4.5t6.5 14.5q4 15 7 29.5t8 29.5q6 24 17 56t27.5 60.5t39 48t52.5 19.5q11 0 22.5 -3t21 -9t16.5 -15.5t7 -21.5q0 -9 -3 -16.5t-8 -9.5q-2 -2 -7 -2t-9 2l-8 4q-7 4 -6 14q2 6 3 12t0 11q-3 13 -14 13q-2 0 -3.5 -0.5t-3.5 -0.5
q-27 -9 -47 -35.5t-34 -59t-22.5 -66t-13.5 -57.5q-3 -12 7 -12h3q10 1 19.5 2t19.5 2q13 2 25 3.5t25 2.5q14 0 21 -4t8 -21q0 -6 -5 -6q-5 -2 -9 -2.5t-9 -1.5q-25 -3 -49 -6.5t-49 -6.5q-11 -2 -15 -5t-6 -14q-2 -10 -3.5 -20t-3.5 -21l-16 -86l-16 -86q-5 -28 -14 -61.5
t-24 -63t-39 -49.5t-59 -20q-19 0 -38 8z" />
    <glyph glyph-name="minus" unicode="&#x2212;" horiz-adv-x="372" 
d="M253 234q16 0 32 1l32 2q16 0 19.5 -6t4.5 -20q2 -10 -9 -12q-5 -1 -9 -1t-9 -1q-32 -3 -63 -3h-63q-27 -2 -53.5 -3t-52.5 -4q-12 0 -17 3.5t-7 16.5q-2 17 15 19q4 1 12 1q41 2 81.5 4.5t81.5 2.5h5z" />
    <glyph glyph-name="plusminus" unicode="&#xb1;" horiz-adv-x="330" 
d="M36 249q-5 16 13 17q24 3 48 5.5t47 4.5q5 1 9 1t9 1q18 3 22 6.5t7 20.5q3 20 6 39.5t6 39.5q1 6 5 7.5t9 1.5q14 -4 18.5 -10.5t2.5 -21.5q-2 -16 -4 -31t-4 -31q-3 -12 10 -12q14 1 28 1.5t28 0.5q5 1 9 1h9q10 0 14.5 -2.5t6.5 -13.5q1 -3 1 -8q0 -2 -2 -10
q-21 -2 -41.5 -4t-41.5 -4q-11 -1 -17 -1.5t-9 -3.5t-4 -9t-3 -17q-4 -25 -7 -49.5t-7 -50.5q-2 -10 -10 -8q-31 1 -27 32q2 17 4.5 32.5t4.5 32.5q1 5 1.5 10t1.5 10q0 9 -2 11t-11 2q-17 -2 -34 -3t-34 -3q-8 -1 -17 -1t-18 -1q-11 0 -17 3.5t-10 14.5zM41 50q-1 -1 -3 -1
q-12 0 -18 8.5t-5 22.5q0 5 3.5 7t7.5 2h9q26 0 51.5 3.5t51.5 5.5q32 2 64 5t62 6h26q11 0 16 -1q8 0 11 -3t5 -11q0 -17 -5 -20.5t-22 -3.5l-189 -15l-32 -2t-33 -3z" />
    <glyph glyph-name="multiply" unicode="&#xd7;" horiz-adv-x="254" 
d="M65 104q-6 9 2 18q8 11 17.5 21t17.5 20q13 15 19 21.5t6.5 11t-4.5 10t-15 18.5q-9 11 -18.5 22.5t-19.5 22.5q-7 9 7 15q9 4 19 4q14 0 22 -11q2 -3 8 -9.5t13 -14t13 -13.5t9 -7q7 2 11.5 7.5t9.5 10.5l21.5 21.5l21.5 21.5q8 8 14 8q5 0 8.5 -3t7.5 -5
q8 -7 7.5 -11.5t-8.5 -12.5l-22.5 -22.5t-22.5 -23.5q-5 -5 -10.5 -11.5t-10.5 -11.5q1 -4 6.5 -12.5t12 -17t13 -16t9.5 -11.5q7 -9 7 -13t-5 -9q-13 -12 -24 -12q-7 0 -12 5q-6 7 -11.5 14t-10.5 14q-5 5 -8 10.5t-11 7.5q-5 -2 -8.5 -6t-7.5 -8q-10 -10 -19 -20l-18 -20
q-12 -13 -20 -13q-6 0 -16 10z" />
    <glyph glyph-name="divide" unicode="&#xf7;" horiz-adv-x="344" 
d="M45 197l-4 10t1 11t8 6.5t10 0.5q2 0 4 1h17t18 1q32 1 64 1.5t64 1.5q14 0 27.5 -0.5t27.5 -1.5q17 -1 24.5 -12.5t2.5 -28.5q-2 -6 -8 -6q-1 0 -2 1q-6 7 -14.5 8.5t-18.5 1.5h-12q-47 -2 -93.5 -3t-93.5 -1q-7 0 -13 1t-9 8zM133 107q-11 10 -8.5 22t16.5 22
q13 10 27 10q18 0 27 -13q5 -6 2 -21q-3 -16 -12 -24.5t-21 -8.5q-8 0 -16.5 4t-14.5 9zM162 272q-18 16 0 38q6 8 20 13.5t25 5.5q6 0 10.5 -4.5t7.5 -9.5q11 -14 -2 -35q-11 -19 -36 -19q-16 3 -25 11z" />
    <glyph glyph-name="brokenbar" unicode="&#xa6;" horiz-adv-x="105" 
d="M79 367q-8 0 -14.5 4t-6.5 13q0 5 1 10l2 10l21 120h2q8 35 15 71t13 72q3 9 15 9q5 0 15 -4q10 -3 9 -12l-3 -15q-11 -63 -23 -124t-24 -124q0 -7 -3.5 -17t-9.5 -12q-3 -1 -9 -1zM12 2q-13 5 -12 22q4 24 6.5 48t6.5 48q6 38 12.5 75.5t12.5 75.5l3 15q3 11 13 11
q4 0 7.5 -1t6.5 -2q6 -3 9.5 -7t1.5 -12q-3 -17 -5.5 -32.5t-5.5 -32.5q-3 -16 -6 -31.5t-5 -32.5h1q-5 -32 -9 -62.5t-9 -62.5q-3 -21 -16 -21q-2 0 -12 2z" />
    <glyph glyph-name="ellipsis" unicode="&#x2026;" horiz-adv-x="203" 
d="M131 7q-18 11 -14 34q2 9 7 18t16 9q5 0 11 -3q8 -4 14 -10t13 -11q27 -18 -10 -39q-7 -5 -17 -5q-9 0 -20 7zM-49 22q-2 3 -1.5 6.5t0.5 5.5q2 12 11.5 21.5t21.5 9.5q8 0 18 -5t16 -10q7 -6 -1 -14q-2 -2 -2 -6t-2 -8q-7 -20 -27 -22q-10 -1 -21 6t-13 16zM33 22
q-3 9 0 17q2 8 12 20t17 12q5 0 20 -12q7 -7 11 -14.5t1 -16.5q-3 -13 -11.5 -20.5t-17.5 -7.5q-11 0 -19 7t-13 15z" />
    <glyph glyph-name="periodcentered" unicode="&#xb7;" horiz-adv-x="134" 
d="M117 201q-8 -14 -26 -14q-25 2 -32 21q-6 19 12 39q6 8 16 8q11 0 18.5 -4.5t14.5 -11.5q1 -1 1 -6.5t-0.5 -12.5t-1.5 -12.5t-2 -6.5z" />
    <glyph glyph-name="degree" unicode="&#xb0;" horiz-adv-x="188" 
d="M90 660q2 11 8 25t15 27t21 21.5t25 8.5q6 0 14 -4.5t15.5 -11t13.5 -13t10 -11.5q8 -8 9 -19.5t-3 -23.5q-6 -22 -27 -41t-45 -19q-16 0 -31 7.5t-22 20.5q-5 8 -5 16.5t2 16.5zM132 624q8 0 17 6t16.5 15t13 19t6.5 17q2 6 -2 10q-4 6 -11 7.5t-13 5.5
q-17 -11 -25.5 -31.5t-9.5 -40.5q0 -8 8 -8z" />
    <glyph glyph-name="ordfeminine" unicode="&#xaa;" horiz-adv-x="232" 
d="M81 552q-7 16 3 37q11 20 29 31t38 11q10 0 15 -1q8 -2 14.5 -5t14.5 -6h2q5 0 7 5q5 24 12.5 48t7.5 48q0 34 -20 34q-22 0 -42 -15.5t-31 -32.5q-2 -4 -3.5 -7.5t-3.5 -6.5q-2 -5 -10 -5q-15 4 -20 14.5t5 26.5q13 20 36.5 35.5t49.5 15.5t46 -17q32 -27 26 -71
q-3 -16 -5.5 -31t-5.5 -31q-7 -22 -11.5 -43.5t-5.5 -43.5q0 -7 -2 -18t-11 -11q-6 0 -12 4t-9 9q-4 6 -11 6q-3 0 -9 -2t-12 -3.5t-12 -3.5q-9 -3 -19 -3q-17 0 -31 8.5t-20 23.5zM113 556q-2 -10 7 -10q5 0 14 3t18.5 6.5t18 8t12.5 7.5q17 14 6 28q-5 8 -17 8
q-9 0 -18.5 -4t-18 -11.5t-14.5 -17t-8 -18.5z" />
    <glyph glyph-name="ordmasculine" unicode="&#xba;" horiz-adv-x="188" 
d="M89 651q2 11 8 25t15 27t21 21.5t25 8.5q6 0 14 -4.5t15.5 -11t13.5 -13t10 -11.5q8 -9 9 -20t-2 -23q-7 -22 -28 -41.5t-45 -19.5q-16 0 -31 8t-22 21q-8 17 -3 33zM131 614q8 0 17 6.5t16.5 15.5t13 19t6.5 17q2 6 -2 10q-4 6 -11 7.5t-13 4.5q-17 -10 -25.5 -31
t-8.5 -40q0 -9 7 -9z" />
    <glyph glyph-name="onesuperior" unicode="&#xb9;" horiz-adv-x="179" 
d="M157 684q-2 1 -4 1q-5 0 -9 -5.5t-9 -9.5q-11 -11 -22.5 -21.5t-23.5 -21.5q-13 -12 -24 -12q-10 0 -19 11q-8 6 0 12q28 23 52.5 48.5t50.5 51.5q17 17 28 17t23 -14q5 -7 5 -19q-2 -8 -3 -16t-3 -16q-5 -19 -9 -37.5t-9 -38.5q-5 -26 -11 -52.5t-12 -52.5
q-2 -10 -10 -10q-2 0 -2.5 0.5t-2.5 0.5q-11 5 -14.5 11t-1.5 20l14 66l14 66q2 5 4.5 12t-2.5 9z" />
    <glyph glyph-name="twosuperior" unicode="&#xb2;" horiz-adv-x="260" 
d="M81 527q-10 11 1 23q5 6 10.5 12t11.5 11q21 21 42 41.5t42 41.5q11 11 20 22.5t16 25.5q2 5 0 8q-1 2 -4 2q-8 0 -23.5 -8t-31.5 -19.5t-29 -23.5t-16 -21q-3 -7 -9 -7t-11.5 3.5t-9.5 8.5q-8 11 0 21q8 12 23 25t32.5 23.5t35.5 17.5t32 7q23 0 40 -16q14 -14 5 -37
q-4 -11 -14 -24t-21.5 -26t-23.5 -24.5t-20 -19.5q-11 -11 -21.5 -21t-21.5 -21q-5 -5 -3 -8t6 -3q27 3 53.5 4t53.5 7q3 0 5.5 0.5t5.5 0.5q4 0 8 -2q5 -3 11 -6.5t4 -10.5q-2 -9 -9 -9t-14 -1q-29 -3 -58.5 -5.5t-59.5 -4.5q-5 -1 -9 -1h-9q-1 -1 -4 -1q-22 0 -36 15z" />
    <glyph glyph-name="threesuperior" unicode="&#xb3;" horiz-adv-x="220" 
d="M56 478q-14 11 3 19q11 5 22.5 10.5t22.5 11.5q24 12 45 31.5t30 45.5q4 14 -8 14h-5q-2 0 -4 -0.5t-4 -0.5q-5 0 -11 2q-24 11 -4 34q11 11 20.5 22.5t20.5 22.5q2 2 3 5t3 5q1 1 1 2v1l-5 2q-17 -8 -33 -17.5t-27 -26.5q-7 -9 -14 -9q-5 0 -10 2.5t-8 5.5q-9 8 -2 21
q6 9 18.5 19.5t27.5 19.5t30 14.5t25 5.5q14 0 24 -6.5t17 -16.5q4 -7 1 -16q-4 -11 -10 -20t-13 -17q-5 -8 -11.5 -14t-9.5 -15l11 -11q12 -10 13 -23t-5 -29q-13 -32 -36.5 -49t-52.5 -32q-8 -4 -15.5 -7t-15.5 -8q-7 -5 -16 -5t-18 7z" />
    <glyph glyph-name="fraction" unicode="&#x2044;" horiz-adv-x="340" 
d="M354 532q-45 -63 -89.5 -126t-89.5 -126q-46 -66 -90.5 -133t-89.5 -133q-3 -5 -6 -9.5t-10 -4.5q-8 0 -14 2.5t-9 9.5q-3 4 1 11q3 6 6.5 12t7.5 12q52 78 104.5 155.5t106.5 154.5q42 60 83 117.5t83 117.5q7 10 15 10t15.5 -5.5t9.5 -12.5q-1 -2 -1.5 -4t-2.5 -4
q-8 -11 -15 -22t-15 -22z" />
    <glyph glyph-name="onequarter" unicode="&#xbc;" horiz-adv-x="332" 
d="M-32 3q-11 6 -12 11.5t7 18.5q14 25 29 49l30 48q44 72 87 145t88 145q35 57 72 112.5t73 112.5q2 3 4.5 6t6.5 5q8 -2 11.5 -4.5t8.5 -8.5q3 -4 4 -8t-3 -10q-2 -3 -4 -6.5t-4 -6.5q-58 -88 -113.5 -176t-108.5 -179q-36 -63 -75 -123.5t-77 -122.5q-7 -11 -13 -11
q-5 0 -11 3zM171 174q-15 11 -17 23t10 31q15 25 31 49t33 48q4 6 10 6q9 0 16.5 -11t2.5 -19q-11 -17 -22 -34.5t-22 -34.5q-5 -8 -10.5 -15.5t-10.5 -15.5q-5 -11 8 -11q15 0 30.5 7t30.5 17.5t28 22t23 21.5q12 12 19 12q5 0 15 -8q7 -6 7 -10.5t-5 -15.5l-108 -209
q-1 -1 -1 -1.5t-1 -1.5q-6 -14 -10 -19t-9 -5q-3 0 -5 1q-15 6 -17 14t6 22q17 31 33.5 63t30.5 64q5 10 -3 10h-3q-7 -2 -13.5 -4.5t-13.5 -3.5q-12 -3 -25 -3q-23 0 -38 11zM20 527q-2 2 -3 5.5t3 7.5q29 23 53.5 48t49.5 51q17 17 29 17q11 0 22 -14q7 -8 5 -19
q-2 -16 -6 -32q-4 -19 -8 -37.5t-9 -38.5q-5 -26 -11 -52.5t-12 -52.5q-3 -10 -11 -10q-1 0 -2 0.5t-3 0.5q-11 5 -14.5 11t-0.5 20l14 66l14 66q1 5 3.5 12t-2.5 9q-1 1 -4 1q-5 0 -8.5 -5.5t-8.5 -9.5q-12 -11 -23.5 -21.5t-23.5 -21.5q-13 -12 -23 -12q-9 0 -20 11z" />
    <glyph glyph-name="onehalf" unicode="&#xbd;" horiz-adv-x="381" 
d="M-50 7q-7 6 -1 15l27 42q94 150 190 297t193 296q8 13 17 26l18 26q7 10 16 10q6 0 11 -4t9 -8q7 -7 0 -15q-48 -67 -91.5 -136t-88.5 -138q-63 -96 -124.5 -191t-124.5 -191q-5 -8 -10 -14.5t-10 -14.5q-7 -7 -13 -7q-9 0 -18 7zM126 47q-10 10 0 23q5 6 11 11.5
t11 11.5q21 20 42.5 41t41.5 42q11 11 20.5 22.5t15.5 25.5q2 4 0 8q0 2 -3 2q-8 0 -23.5 -8t-32 -19.5t-29.5 -24t-16 -21.5q-1 -6 -8 -6q-12 0 -22 12q-7 9 0 21q8 12 23.5 25t33 23.5t35.5 17.5t32 7q21 0 40 -17q14 -14 5 -36q-4 -10 -9.5 -18.5t-12.5 -16.5
q-14 -16 -28.5 -30.5t-28.5 -29.5q-11 -11 -22 -21t-22 -21q-2 -2 -3.5 -4t0.5 -4q3 -3 7 -3q27 3 53.5 4.5t52.5 6.5q4 1 11 1q6 0 9 -2q5 -3 11 -6.5t4 -10.5q-2 -8 -9.5 -8.5t-13.5 -0.5q-29 -3 -59 -5.5t-59 -5.5q-5 0 -9 -0.5t-9 -0.5q-12 0 -22 2.5t-18 12.5zM35 557
q-8 7 0 15q5 5 8 7q31 26 61.5 53t59.5 55q5 5 11 9t13 4q5 0 8 -1q10 -5 16.5 -11.5t4.5 -20.5t-5 -27.5t-5 -27.5l-6 -32l-6 -32h-3q-5 -26 -9.5 -52.5t-9.5 -52.5q-1 -5 -2 -10.5t-3 -10.5q-3 -6 -12 -6q-10 0 -16 7.5t-4 17.5q8 42 16 83.5t16 83.5q1 6 1.5 11.5
t1.5 11.5q0 4 -2 4q-3 2 -6 0q-5 -4 -9.5 -8t-9.5 -8q-33 -31 -70 -61q-12 -9 -21 -9q-8 0 -18 8z" />
    <glyph glyph-name="threequarters" unicode="&#xbe;" horiz-adv-x="299" 
d="M-39 23q63 126 137 244.5t151 236.5q13 20 25.5 40.5t23.5 42.5q2 4 4 7t4 7q4 5 9 5q3 0 7 -2t6 -4q9 -8 9.5 -13t-5.5 -17q-12 -25 -27 -49t-31 -48q-57 -85 -110 -171.5t-104 -175.5q-17 -29 -34 -58.5t-31 -61.5q-3 -6 -10 -6q-13 0 -21 8q-7 5 -3 15zM133 199
q17 26 32.5 52.5t31.5 52.5q8 11 15 11q5 0 9.5 -3t8.5 -7q8 -6 2 -17l-36 -60q-6 -11 -12.5 -21.5t-12.5 -21.5q-2 -3 -0.5 -5.5t4.5 -1.5q5 0 9 0.5t9 0.5q15 2 23.5 3.5t13.5 6t8.5 12.5t8.5 23q6 18 13 36l14 36q6 12 14 12q2 0 10 -2q2 -2 3 -2.5t3 -2.5q10 -6 6 -19
q-4 -10 -7.5 -19t-7.5 -19q-3 -9 -6.5 -18t-7.5 -19q-2 -7 -3 -13t4 -11q7 -8 -5 -15q-8 -4 -10.5 -10.5t-5.5 -14.5q-10 -33 -20.5 -66.5t-21.5 -66.5q-2 -8 -7.5 -20t-14.5 -12h-4.5t-4.5 2q-9 4 -11 8t1 14q10 32 19 62.5t19 62.5q2 5 3 9l2 8q2 9 -8 9q-2 0 -4.5 -0.5
t-4.5 -0.5l-16 -2l-16 -2q-12 0 -22.5 2.5t-18.5 11.5q-5 6 -6.5 13t4.5 16q2 2 2.5 4t1.5 4zM178 536q-6 -6 -13 -11.5t-12 -13.5q2 -4 4 -7t5 -7q16 -22 -3 -54q-18 -30 -43 -42.5t-56 -23.5l-9 -3t-13 -4t-13.5 -4t-8.5 -2q-11 0 -21 12t6 17q12 5 24 8t23 7
q26 8 49.5 24.5t36.5 40.5q8 15 -9 16q-5 1 -9.5 1.5t-9.5 3.5q-19 15 3 35q12 10 24 19t23 19q4 4 8 10q2 2 1 3q-3 3 -4 2q-18 -5 -34.5 -11.5t-30.5 -21.5q-7 -8 -13 -8q-5 0 -10 4t-8 8q-8 9 2 21q7 8 20 16t27 14t28 9.5t24 3.5q17 0 27.5 -9t15.5 -22q3 -7 -2 -17
t-13 -17.5t-16 -15.5z" />
    <glyph glyph-name="perthousand" unicode="&#x2030;" horiz-adv-x="538" 
d="M229 61q-11 -14 -26 -25.5t-33 -11.5q-15 0 -27 9q-29 25 -19 63q3 11 11 30.5t19 38t25 32.5t28 14q9 0 19.5 -7.5t10.5 -16.5q-8 -3 -14.5 -6t-13.5 -6q20 -5 27.5 -15t10.5 -29q13 24 41 43q5 3 9 6t8 8q8 13 27.5 23.5t35.5 10.5q9 0 16 -4t13 -10q42 -42 20 -101
q-7 -18 -19.5 -37t-29 -35t-36.5 -26t-41 -10q-28 0 -44.5 18.5t-17.5 43.5zM208 452q29 38 56 77t56 77l46 62l46 62q5 8 10 12q3 4 8 4q8 0 13.5 -8t7.5 -15q2 -4 -2 -8q-72 -90 -136.5 -183.5t-135.5 -185.5q-46 -59 -87 -120t-83 -123q-14 -22 -29 -43t-29 -43
q-5 -9 -13 -9q-16 4 -21 14q-3 5 0 11q3 5 6 9.5t6 9.5q67 103 136.5 202.5t144.5 197.5zM251 531q-6 -11 -15 -23.5t-20 -23t-24 -17.5t-26 -7q-18 0 -33 15q-23 23 -20 58q1 11 2.5 23t6.5 23q5 12 16 33.5t25.5 42.5t31 36.5t32.5 15.5q11 0 24 -13q5 -6 4.5 -9.5
t-9.5 -6.5q-9 -4 -17.5 -9t-15.5 -16q18 -12 27.5 -30.5t16.5 -38.5q7 -26 -6 -53zM261 62q0 -3 -0.5 -9.5t-0.5 -13.5q2 -12 13 -12q21 0 41 12.5t36.5 31t28 40.5t15.5 40q2 8 1.5 15t-1.5 14q-1 10 -12 10q-8 0 -18.5 -5t-16.5 -10q-2 -1 -4 -3.5t-1 -3.5q5 -12 -1.5 -13
t-13.5 -3q-5 -1 -9 -3.5t-8 -4.5q-40 -27 -49 -82zM228 594q-4 13 -9 25.5t-15 25.5q-24 -30 -39 -60.5t-20 -63.5q-3 -14 1 -25q2 -6 7 -6q11 0 22.5 9t21.5 21t18 25.5t11 22.5q5 15 2 26zM215 140q-1 8 -2.5 17t-3.5 17q-9 -10 -18 -23.5t-17 -28.5t-13.5 -30t-5.5 -29
q-1 -9 6 -9q1 0 7 2q23 14 36.5 37.5t10.5 46.5z" />
    <glyph glyph-name="mu" unicode="&#xb5;" horiz-adv-x="449" 
d="M-29 -260q-8 3 -7 13q1 6 1.5 11.5t2.5 11.5q8 43 16.5 85t17.5 85q14 62 24.5 122.5t20.5 122.5q8 55 16.5 109.5t17.5 110.5q0 5 1 8q1 6 5 7.5t9 1.5q18 -5 26.5 -19t3.5 -34q-14 -60 -16.5 -118t3.5 -115q1 -4 2.5 -14t4 -20t6.5 -18t10 -8q10 0 23.5 11.5t26.5 27.5
t24 31.5t16 23.5q29 44 55.5 88t53.5 89q5 9 10.5 18t11.5 17q8 11 17 11q1 0 9 -2q2 -1 4.5 -2t5.5 -2q13 -7 9 -21q-3 -11 -6 -21.5t-7 -21.5q-15 -48 -26 -95t-16 -95q-4 -34 0 -69q1 -4 2.5 -11t4.5 -14t7 -12t10 -5q3 0 9 2q2 1 7 1t10 -2.5t10 -4.5q3 -2 2.5 -6
t-2.5 -6q-6 -7 -11.5 -8.5t-13.5 -1.5q-29 0 -49 21.5t-24 48.5q-6 33 -1 72q5 28 9.5 55.5t9.5 56.5q-11 -8 -15 -15.5t-9 -14.5q-14 -23 -28.5 -45t-29.5 -44q-9 -13 -20 -26.5t-24 -24.5t-28 -18.5t-31 -7.5q-36 0 -56 37q-2 2 -2.5 4.5t-2.5 4.5q-1 1 -3 1
q-1 -1 -2.5 -1.5t-1.5 -1.5q-2 -5 -4 -15q-10 -57 -21.5 -114t-23.5 -114q-4 -21 -9 -42t-3 -42q1 -7 -2.5 -14t-6.5 -15q-5 -13 -16 -11q-10 0 -17 3z" />
    <glyph glyph-name="paragraph" unicode="&#xb6;" horiz-adv-x="223" 
d="M-57 224q-33 33 -49 74.5t-10 93.5q3 24 14.5 64.5t30 79t42.5 67t51 28.5q8 0 16 -2.5t14 -5.5q5 -3 5.5 -7.5t0.5 -9.5q-3 -22 -5.5 -43t-6.5 -42q-11 -74 -22.5 -147.5t-21.5 -147.5q-7 -48 -14 -95t-9 -94q-1 -12 -5.5 -19t-18.5 -7q-2 0 -4 0.5t-4 0.5q-12 2 -11 13
q3 42 8 83t11 83q2 11 0.5 20t-12.5 13zM23 0q-7 0 -14 2.5t-7 11.5q1 46 6 91t13 90q17 106 36 210t43 208q2 6 4.5 12t10.5 6q7 0 15 -4q8 -3 9.5 -6t-0.5 -13q-5 -23 -10 -44.5t-9 -43.5q-8 -38 -14 -76t-13 -76q-8 -39 -14.5 -77.5t-14.5 -77.5q-8 -45 -13 -90.5
t-7 -90.5q-1 -11 -4 -21.5t-17 -10.5z" />
    <glyph glyph-name="section" unicode="&#xa7;" horiz-adv-x="334" 
d="M2 62q-14 17 -8 33.5t29 27.5q5 3 8 3q2 0 3 -0.5t3 -0.5q6 -2 9 -4.5t11 -12.5q-5 -5 -10.5 -9.5t-10.5 -9.5q-16 -18 -5 -29q17 -17 34 -27t37 -10q17 0 34 6.5t32.5 17t29 23.5t23.5 26q16 20 20.5 40.5t2.5 41.5q-4 46 -26 72.5t-65 43.5q-3 1 -8 1q-4 0 -7.5 -0.5
t-8.5 -1.5q-9 -2 -18.5 -4.5t-19.5 -4.5q-6 -2 -10 -2q-15 0 -24 14q-6 10 5 13q5 2 9 2.5t9 1.5q10 4 14 5q2 5 0 7.5t-4 4.5q-19 17 -19.5 38t11.5 46q13 25 29 44.5t35 39.5q0 7 -3.5 7t-6.5 1q-6 2 -12.5 2.5t-12.5 2.5q-11 2 -20.5 5.5t-17.5 9.5q-19 14 -20.5 31
t15.5 39q14 18 34.5 40.5t45.5 42.5t51.5 33.5t50.5 13.5q13 0 21 -5.5t14 -16.5q1 -2 -1 -9q-2 -2 -4.5 -3t-3.5 0q-9 3 -18 3q-19 0 -45 -16.5t-51.5 -39t-46 -46t-28.5 -37.5q-7 -14 8 -17l78 -12q35 -5 66.5 -17t52.5 -43q15 -22 11.5 -49t-23.5 -51
q-14 -17 -31.5 -28.5t-37.5 -20.5q-7 -4 -15 -6t-16 -10q22 -14 39.5 -28t30 -31.5t20 -38.5t9.5 -50q3 -48 -33 -88q-23 -26 -54.5 -46t-67.5 -20q-16 0 -33.5 5t-34 14t-30.5 20t-24 23zM110 381q-2 -6 -4 -12.5t-1 -13.5q0 -27 25 -27q14 0 31 6t34 15.5t32 21t24 21.5
q24 26 22 61q-1 11 -7 18.5t-15 12t-19.5 6.5t-19.5 2q-10 0 -14.5 -2t-12.5 -9q-50 -40 -75 -100z" />
    <glyph glyph-name="dagger" unicode="&#x2020;" horiz-adv-x="295" 
d="M51 562q-4 13 0 17.5t16 6.5q37 3 77 9q12 1 14.5 3.5t5.5 14.5q2 13 4.5 25t5.5 25q2 8 5.5 13.5t12.5 5.5q13 0 22 -9q3 -3 1 -11q-3 -11 -5.5 -23t-4.5 -24q-2 -9 1 -11.5t13 -2.5q4 -1 8 -1h8q8 0 16.5 0.5t16.5 0.5q8 1 16 1h16h15q12 -1 15.5 -4t3.5 -14v-9
q-1 -12 -14 -13h-34.5t-35.5 -1q-11 -1 -22 -1.5t-22 -2.5q-8 -1 -10.5 -3.5t-4.5 -9.5q-14 -73 -27 -145.5t-24 -146.5q-8 -54 -13.5 -106t-12.5 -105q-1 -6 -0.5 -12.5t0.5 -13.5q2 -15 -10 -15h-4q-15 2 -21.5 9t-4.5 23q1 20 3 39.5t4 39.5q13 103 29 205.5t37 206.5
l3 18q1 12 -10 12h-4q-16 -2 -32 -2.5t-33 -2.5q-17 0 -20 14z" />
    <glyph glyph-name="daggerdbl" unicode="&#x2021;" horiz-adv-x="317" 
d="M-25 76q-4 14 11 17q25 3 49.5 6t48.5 5q12 2 15 4.5t5 13.5q6 29 9 61q11 91 23.5 180t29.5 179q1 3 1 6t1 6q1 9 -0.5 12t-9.5 3q-16 0 -32.5 -1t-32.5 -3q-5 0 -9 -0.5t-8 -0.5q-12 0 -19 9t-3 22q2 6 9 6q17 2 34 3.5t34 3.5q9 1 18 1t17 2t11 4.5t5 11.5
q4 14 6.5 29t6.5 29q2 11 11 11q4 0 7 -1q12 -5 15 -10.5t1 -18.5q-1 -8 -2.5 -15t-2.5 -15q-2 -13 -1 -17t11 -4h7q24 2 47.5 3.5t47.5 3.5q1 1 5 1q11 0 12 -12q2 -10 1 -15q0 -8 -9 -10q-31 -3 -61 -6t-61 -6q-11 -1 -14 -13q-16 -82 -27 -163.5t-21 -163.5
q-2 -22 -5.5 -44t-6.5 -44q-1 -6 -1.5 -11.5t-1.5 -11.5q0 -12 12 -12q13 1 26.5 2t26.5 3q2 1 5 1q12 0 15 -10t1 -21q-2 -7 -10 -7q-11 -2 -23 -3t-24 -3q-14 -2 -21.5 -2.5t-11 -3t-4.5 -10t-4 -24.5t-7.5 -25t-24.5 -8q-14 0 -11 19q2 9 2.5 17.5t2.5 17.5q0 10 -10 10
q-8 0 -16.5 -1t-16.5 -1q-13 -2 -26 -2.5t-27 -2.5q-11 0 -16.5 4t-8.5 15z" />
    <glyph glyph-name="asciitilde" unicode="~" horiz-adv-x="283" 
d="M208 677l-24 -8t-23 -6q-2 0 -4.5 -0.5t-4.5 -0.5q-22 0 -35.5 18t-8.5 41q3 5 4 6t3 1q8 0 13 -9t6 -15q2 -9 9 -9q2 0 6 2q11 3 21 6t20 7q11 3 20.5 6.5t20.5 7.5l16 4t16 2q22 0 34 -13.5t11 -37.5q0 -6 -3 -11t-10 -5q-8 0 -13.5 8.5t-6.5 15.5q-1 8 -8 8
q-2 0 -3.5 -0.5t-3.5 -0.5q-13 -5 -26 -9z" />
    <glyph glyph-name="guilsinglleft" unicode="&#x2039;" horiz-adv-x="175" 
d="M70 161q7 -5 15 -9t16 -7q9 -4 18.5 -7t18.5 -6q16 -4 24 -20q1 -1 1 -3t-1 -2q-3 -3 -7 -3q-17 5 -35.5 11t-36 15.5t-31 22.5t-20.5 31q-5 14 -3 21t14 18q4 4 10 8q26 22 52 42.5t50 43.5q7 7 14 8q5 0 13 -8t8 -14q0 -5 -3 -8q-25 -22 -49.5 -43t-50.5 -41l-15 -12
q-25 -22 -2 -38z" />
    <glyph glyph-name="guilsinglright" unicode="&#x203a;" horiz-adv-x="169" 
d="M43 102q0 5 3 8q5 5 9 9.5t8 9.5q20 22 40 43.5t40 43.5q3 4 5.5 7.5t4.5 6.5q1 7 -3 8q-5 2 -11 4.5t-11 4.5q-12 5 -24.5 10.5t-23.5 10.5q-15 5 -19 18q0 4 1 6q2 2 5 2q4 0 8 -2q21 -11 43 -18.5t44 -15.5q20 -6 30 -22q6 -11 -2 -21t-26 -32t-38 -44.5t-37 -39
t-24 -16.5q-8 0 -14 6t-8 13z" />
    <glyph glyph-name="guillemotleft" unicode="&#xab;" horiz-adv-x="175" 
d="M228 334q6 0 14 -8t7 -14q0 -5 -3 -8q-7 -6 -13.5 -12.5t-14.5 -13.5q-18 -14 -36 -29t-35 -29l-8 -6t-7 -6q-24 -21 -3 -38q13 -9 32 -16q8 -4 17.5 -7t18.5 -6q16 -4 24 -20q1 0 1 -3v-2l-4 -2t-4 -1q-17 5 -35.5 11.5t-36 15.5t-31 22t-20.5 31q-5 14 -2.5 21.5
t13.5 18.5q6 4 10 8l52 42t50 44q3 2 6 4.5t8 2.5zM21 193q-5 14 -2.5 21.5t13.5 18.5q6 4 10 8l52 42t50 44q3 2 6 4.5t8 2.5q6 0 14 -8t7 -14q0 -5 -3 -8q-7 -6 -13.5 -12.5t-14.5 -13.5q-18 -14 -36 -29t-35 -29l-8 -6t-7 -6q-24 -21 -3 -38q13 -9 32 -16q8 -4 17.5 -7
t18.5 -6q16 -4 24 -20q1 0 1 -3v-2l-4 -2t-4 -1q-17 5 -35.5 11.5t-36 15.5t-31 22t-20.5 31z" />
    <glyph glyph-name="guillemotright" unicode="&#xbb;" horiz-adv-x="196" 
d="M7 111q-2 2 2 6q12 14 31 20q11 3 21 5.5t20 6.5t19 8t18 9q28 16 11 37q-2 3 -5 6l-6 6q-13 15 -25.5 29.5t-24.5 29.5q-5 6 -9.5 12.5t-9.5 13.5q-2 4 -1 8q2 6 12.5 13.5t16.5 7.5q5 0 7 -2t4 -5q17 -23 35.5 -44t36.5 -42q2 -2 3.5 -4t3.5 -4q8 -11 7.5 -18.5
t-9.5 -20.5q-13 -18 -30.5 -31t-38 -22t-41.5 -15.5t-42 -11.5q-3 -1 -6 2zM230 236q2 -2 3.5 -4t3.5 -4q8 -11 7.5 -18.5t-9.5 -20.5q-13 -18 -30.5 -31t-38 -22t-41.5 -15.5t-42 -11.5q-3 -1 -6 2q-2 2 2 6q12 14 31 20q11 3 21 5.5t20 6.5t19 8t18 9q28 16 11 37
q-3 4 -11 12q-13 15 -25.5 29.5t-24.5 29.5q-5 6 -9.5 12.5t-9.5 13.5q-2 4 -1 8q2 6 12.5 13.5t16.5 7.5q5 0 7 -2t4 -5q17 -23 35.5 -44t36.5 -42z" />
    <glyph glyph-name="breve" unicode="&#x2d8;" horiz-adv-x="210" 
d="M139 732q4 -4 2 -10l-3 -12q-6 -25 5 -47q5 -7 11 -7q10 0 20 10.5t15 18.5q5 9 9.5 18t9.5 18q2 5 5 11t7 11q5 6 12 6q6 0 10 -3.5t9 -6.5q6 -6 1 -16l-12 -24t-12 -23q-8 -17 -22.5 -31t-35.5 -14q-13 0 -22 5q-26 11 -38.5 38.5t-6.5 56.5q2 5 4.5 10t9.5 5
q6 0 12 -4.5t10 -9.5z" />
    <glyph glyph-name="dotaccent" unicode="&#x2d9;" horiz-adv-x="130" 
d="M139 727q4 -5 7 -11t7 -12q8 -12 -4 -27q-9 -14 -26 -14q-17 1 -28 15.5t-8 33.5q3 8 9 20.5t17 12.5q6 0 13.5 -5t12.5 -13z" />
    <glyph glyph-name="ring" unicode="&#x2da;" horiz-adv-x="188" 
d="M75 679q2 11 8.5 25t15.5 27t20.5 21.5t24.5 8.5q6 0 14 -4.5t15.5 -11t14 -13t10.5 -11.5q14 -17 6 -43q-3 -11 -10.5 -21.5t-17 -19t-21 -14t-23.5 -5.5q-17 0 -31.5 7.5t-21.5 20.5q-5 8 -5.5 16.5t1.5 16.5zM117 643q8 0 17 6t17 15t13.5 19t6.5 17q0 8 -2 11
q-5 5 -12 6.5t-12 5.5q-17 -11 -26 -31.5t-9 -40.5q0 -8 7 -8z" />
    <glyph glyph-name="hungarumlaut" unicode="&#x2dd;" horiz-adv-x="146" 
d="M43 617q-12 7 -3 21q20 27 39.5 54t39.5 53q8 14 17 14q8 0 16 -6.5t9 -13.5q-1 -1 -1 -1.5t-1 -1.5l-84 -114q-2 -4 -4 -5q-4 -7 -11 -7q-3 0 -9 2.5t-8 4.5zM91 609q-1 2 -0.5 3t0.5 3q2 2 3 3.5t3 3.5q23 25 44.5 49.5t44.5 49.5q10 12 15 12q6 0 14.5 -6.5t8.5 -13.5
q-2 -6 -4 -8q-23 -26 -45 -51t-45 -51q-7 -9 -18 -9q-8 0 -13.5 4t-7.5 11z" />
    <glyph glyph-name="ogonek" unicode="&#x2db;" horiz-adv-x="202" 
d="M148 13q-16 -12 -33.5 -29t-33.5 -36.5t-29 -39.5t-20 -39q-4 -9 -8.5 -17.5t0.5 -18.5q8 0 23 7t30.5 16t29.5 18.5t21 15.5q8 7 15 7q6 0 13 -10q1 -2 1.5 -4t1.5 -4q5 -8 -3 -15q-10 -9 -26.5 -20.5t-34.5 -22t-35 -17.5t-29 -7q-23 0 -35 28q-8 22 -1 42q15 46 45 87
t65 73q3 3 11 9t13 6q4 0 9 -5t8 -10.5t2 -13.5z" />
    <glyph glyph-name="caron" unicode="&#x2c7;" horiz-adv-x="227" 
d="M185 607q-15 -12 -26 -12q-9 0 -18.5 9t-11.5 18l-33 105q-2 6 6 10q11 -3 17 -11t9 -19q5 -17 10 -33t10 -33q2 -7 7 -7q3 0 8 5q20 21 39.5 42t38.5 43q7 5 11 5t8 -3q7 -6 13 -13q6 -6 0 -10q-22 -24 -42.5 -49t-45.5 -47z" />
    <glyph glyph-name="acute" unicode="&#xb4;" horiz-adv-x="110" 
d="M128 749q5 6 10 6q4 0 7 -4q5 -5 8 -11q6 -9 -1 -21q-4 -5 -7 -9t-6 -9q-14 -19 -26.5 -37.5t-26.5 -37.5q-3 -5 -5 -6t-7 -1q-11 3 -14.5 13.5t2.5 20.5q2 4 4 7t4 7q14 20 29 41t29 41z" />
    <glyph glyph-name="grave" unicode="`" horiz-adv-x="110" 
d="M112 748q8 -20 15 -41t14 -41q2 -3 2.5 -6.5t1.5 -6.5q2 -11 -5.5 -21.5t-18.5 -13.5q-5 0 -6.5 1t-3.5 6l-27 75l-6 18q-4 10 6 22q3 2 6 5l6 6q5 3 8 3q5 0 8 -6z" />
    <glyph glyph-name="circumflex" unicode="&#x2c6;" horiz-adv-x="234" 
d="M187 718q-8 -10 -14 -20q-13 -19 -25.5 -37t-23.5 -37q-7 -8 -14 -8q-9 0 -17 5q-13 8 -4 21q16 24 31.5 48t32.5 47q11 17 24 17q15 0 30 -11t23 -23q13 -23 20 -49l14 -52q2 -4 -1.5 -6.5t-8.5 -1.5q-20 3 -26 20q-4 12 -7 24t-8 23q-3 10 -6.5 19.5t-7.5 19.5
q-2 4 -7 4q-1 -1 -2.5 -1t-2.5 -2z" />
    <glyph glyph-name="dieresis" unicode="&#xa8;" horiz-adv-x="490" 
d="M336 660q-17 1 -28 15t-8 33q3 9 9 21t17 12q14 0 26 -17q4 -6 7 -12t7 -11q8 -12 -4 -27q-10 -15 -26 -14zM219 660q-17 1 -28 15t-7 33q2 9 8 21t17 12q14 0 26 -17q4 -6 7 -12t7 -11q8 -12 -4 -27q-10 -15 -26 -14z" />
    <glyph glyph-name="cedilla" unicode="&#xb8;" horiz-adv-x="175" 
d="M-9 -185q-2 12 1.5 19.5t15.5 15.5q4 4 9 4q6 0 10 -7q1 -2 2 -4.5t2 -4.5q6 -14 -8 -23l-4.5 -4.5t0.5 -5.5q4 -4 12 -4q14 0 26 7t21.5 17.5t16 23.5t10.5 25q6 36 -26 42q-4 2 -8 2h-9h-8q-13 0 -21 4.5t-10 19.5q-3 9 3 17l60 78q3 3 6 3q8 0 11 -10t4 -16
q0 -5 -6 -13q-7 -10 -14 -19.5t-14 -19.5q-4 -5 1 -10q4 -2 8 -4.5t8 -4.5q22 -18 31.5 -41.5t3.5 -54.5q-2 -13 -9.5 -27.5t-18 -27t-24 -20.5t-28.5 -8q-21 0 -36 15.5t-18 35.5z" />
    <glyph glyph-name="Thorn" unicode="&#xde;" horiz-adv-x="304" 
d="M-27 -3q-6 3 -5 9q0 11 3 21q24 136 46.5 270t42.5 271q2 20 6 39.5t9 39.5q5 14 17 14q5 0 10 -1.5t9 -3.5q5 -2 5 -9q-2 -5 -2.5 -10.5t-1.5 -10.5q-9 -38 -14 -76t-11 -76q-1 -4 -1 -11q0 -8 5 -8q1 0 2 0.5t2 0.5q26 10 50.5 17t52.5 7q25 0 50 -6.5t45 -21.5
q26 -19 29.5 -42.5t-8.5 -52.5q-15 -37 -43.5 -61.5t-63.5 -39t-74 -21t-74 -8.5q-10 0 -13 -10l-2 -12t-2 -11q-8 -42 -15 -82.5t-15 -81.5q-1 -5 -1.5 -10.5t-2.5 -10.5q-3 -16 -19 -16q-5 1 -8.5 2t-7.5 2zM63 249q32 0 70 10.5t71.5 30.5t56.5 49t25 66q2 36 -29 48
q-11 4 -20.5 5t-20.5 1q-20 0 -43 -4.5t-44 -15t-36.5 -26t-19.5 -38.5q-5 -29 -9.5 -57t-9.5 -57q-1 -12 9 -12z" />
    <glyph glyph-name="thorn" unicode="&#xfe;" horiz-adv-x="360" 
d="M-45 -246q-15 5 -12 19l4 26l4 26q5 33 11.5 66t14.5 66q3 11 4.5 22t3.5 22q23 141 47 280.5t49 281.5q3 12 15 12q8 0 16.5 -5t7.5 -12l-3 -21q-14 -78 -26.5 -156t-25.5 -157q-1 -5 -1 -8.5t-1 -8.5q0 -5 4 -3l2 1q4 5 7.5 10.5t6.5 10.5q12 18 28 39t35.5 38.5t42 29
t45.5 11.5q31 0 52 -20t18 -54q-11 -105 -95 -183q-27 -25 -57 -32.5t-65 -7.5q-14 0 -28 3q-7 0 -10.5 -1.5t-5.5 -8.5q-8 -24 -15 -48t-11 -49q-6 -38 -13 -76l-14 -76q-1 -5 -1.5 -11t-2.5 -12q-4 -16 -20 -16q-3 1 -6 1t-5 1zM59 86q-2 -9 6 -14q7 -4 16 -4
q38 0 68.5 18t54 46.5t39 63t22.5 67.5q0 2 0.5 7.5t1.5 12.5q0 5 -0.5 12t-2 13t-5.5 10.5t-10 4.5t-19 -5q-29 -12 -56.5 -39t-50 -61t-39.5 -69t-25 -63z" />
    <glyph glyph-name="eth" unicode="&#xf0;" horiz-adv-x="298" 
d="M11 73q-31 55 -5 118q13 32 37.5 47t50.5 15q30 0 45 -14.5t18 -44.5q1 -7 -7 -12q-5 -2 -8.5 -3t-7.5 -1q-13 0 -18 16q-2 9 -5 17.5t-8 15.5q-5 8 -14 8q-6 0 -13 -5t-13 -12.5t-10.5 -15t-6.5 -12.5q-20 -60 6 -105q6 -11 17 -19.5t24 -8.5q11 0 23 9q20 17 34.5 39.5
t24.5 48.5t15.5 53t7.5 52q2 24 2.5 47.5t-1.5 47.5q0 5 -2.5 22t-6 35.5t-9 33t-11.5 14.5q-5 0 -13 -4q-13 -5 -25.5 -11t-25.5 -12q-5 -2 -9 -3t-8 -1q-12 0 -21 13q-7 9 5 14l38 18l38 18q8 3 9 6t-1 10q-11 26 -27 51t-36 45q-2 2 -5 4.5t-5 5.5q-2 2 0 5q3 3 5 3
q4 1 7 1.5t7 0.5q15 0 29 -12t26 -28.5t21.5 -34t15.5 -28.5q4 -7 9 -7q3 0 7 2q21 8 42 15.5t43 14.5q11 5 20 5t15 -7.5t8 -15.5q-10 -7 -19.5 -9.5t-18.5 -6.5q-20 -8 -39.5 -15t-39.5 -15q-9 -4 -6 -12q2 -6 3.5 -11.5t3.5 -11.5q20 -59 20 -120.5t-14 -126.5
q-6 -29 -19 -57.5t-32.5 -51.5t-45.5 -37t-59 -14q-20 0 -36.5 8.5t-25.5 25.5z" />
    <glyph glyph-name="germandbls" unicode="&#xdf;" horiz-adv-x="398" 
d="M-119 -128l-6 4t-1 6q1 6 9 8q9 3 18.5 15.5t18 27.5t14.5 30t9 23q11 34 21 68t21 68q13 42 24.5 84t28.5 84q12 32 27 62.5t35 59.5q13 19 34 44t46.5 47.5t53.5 38.5t54 16q23 0 42.5 -12.5t25.5 -33.5q5 -14 2.5 -27t-9.5 -27q-17 -34 -43 -53.5t-56 -37.5
q-4 -2 -7 -4t-5 -6q3 -5 8 -6.5t10 -4.5q28 -16 45.5 -39t22.5 -56q3 -20 4.5 -41t-2.5 -42q-9 -55 -41 -94t-83 -64q-20 -10 -42 -10q-28 0 -50.5 14.5t-30.5 38.5q-4 10 -3 17q0 6 1.5 19.5t5 27t9.5 24t16 10.5q6 0 10.5 -2.5t9.5 -5.5q7 -6 2 -15q-11 -17 -13.5 -35.5
t-4.5 -36.5q-1 -10 6 -21q6 -13 22 -13q10 0 21 4t20 9q26 15 47.5 35.5t37 44.5t24 50t6.5 52q-2 15 -3 30t-4 29q-8 35 -28 47t-52 13q-4 0 -8 -0.5t-9 -1.5q-10 0 -18 3t-13 12q-7 8 5 15q11 6 23 12l24 12q32 16 62.5 40t44.5 59q6 15 5 29q-1 17 -16 17
q-14 0 -27.5 -5.5t-24.5 -12.5q-47 -28 -81.5 -68t-60.5 -86t-44.5 -96.5t-32.5 -100.5q-14 -48 -27 -94.5t-30 -94.5q-4 -12 -11.5 -30t-18.5 -35t-24 -29.5t-28 -12.5q-10 0 -18 4z" />
    <glyph glyph-name="AE" unicode="&#xc6;" horiz-adv-x="500" 
d="M-29 55q-8 0 -15 2t-7 12q2 9 4.5 17.5t6.5 17.5q11 26 22.5 52t22.5 52q3 8 5.5 14.5t-0.5 14.5q-1 3 0 7t6 6q9 4 12.5 11l7.5 15q38 81 83 160t101 150q17 22 34.5 38.5t48.5 19.5q46 5 92 10.5t92 10.5q27 3 54.5 6t54.5 9q3 1 8 1q7 0 11 -9q2 -5 4 -15q1 -8 -8 -12
q-3 -2 -6.5 -2t-7.5 -1q-36 -6 -71.5 -10t-71.5 -8q-27 -2 -54.5 -5.5t-54.5 -6.5q-15 -1 -16 -15q-5 -51 -17.5 -101t-23.5 -101q-5 -20 -10 -40.5t-10 -40.5q-1 -5 -2 -9t-1 -9q-3 -11 8 -11q8 0 12 1l68 6l68 6q15 0 20 -3t9 -18q4 -14 -11 -14q-40 -5 -80 -8.5t-80 -5.5
q-5 -1 -10 -1.5t-10 -2.5q-6 -1 -9 -8q-2 -8 -3 -11q-10 -40 -19.5 -79t-19.5 -79q-2 -8 -2 -12q0 -7 6 -7h9t8 1q33 4 65.5 7.5t65.5 7.5q11 2 22 2.5t22 2.5q28 0 30 -29q0 -5 -6 -5l-27 -3q-47 -5 -93 -11t-94 -11q-7 -1 -13 -2t-13 -5q-5 -4 -13 -4q-4 0 -10 2
q-14 4 -10 18q14 51 26 102t24 103q4 15 -9 15h-3q-31 -2 -61 -6t-61 -9q-18 -3 -25 -20q-14 -35 -30 -68.5t-26 -68.5q-4 -13 -19 -13zM79 275q-3 -10 6 -10h2q26 3 50.5 6t50.5 6q11 1 17.5 1.5t10 3.5t6 10t5.5 20q10 44 20 87t21 88t18 90q1 5 1.5 10t0.5 10q0 1 -3 4
q-4 0 -6 -2q-11 -11 -21 -23.5t-19 -25.5q-47 -63 -84.5 -129t-70.5 -135q-2 -3 -3 -5.5t-2 -5.5z" />
    <glyph glyph-name="ae" unicode="&#xe6;" horiz-adv-x="504" 
d="M168 30q-20 -25 -47.5 -46.5t-61.5 -21.5q-19 0 -33.5 7.5t-23.5 21t-10.5 31t5.5 36.5q11 29 30.5 52t48.5 38q29 14 60 24t63 18q14 4 18 15q11 24 18.5 48.5t11.5 49.5q5 27 -5 47q-6 13 -20 13q-5 0 -8 -1q-41 -10 -74 -37t-50 -65q-2 -3 -3.5 -6t-4.5 -4
q-2 -1 -7 -1q-11 0 -21 10q-5 4 -4 8.5t4 9.5q11 19 27 38.5t35 35t41 25t46 9.5q36 0 59.5 -23t22.5 -52v-9q2 -4 5 -4q2 0 4 2q25 23 52.5 42.5t63.5 19.5q27 0 48 -18q14 -12 15 -25t-10 -31q-13 -21 -35 -39t-48 -31.5t-53 -23t-50 -14.5q-16 -3 -22 -19
q-12 -32 -19.5 -63.5t-5.5 -63.5q0 -8 2.5 -20t7 -23.5t12 -19.5t18.5 -8q17 0 33.5 8.5t32 21t28.5 27.5t22 27q6 8 23.5 31t38 49t38 49t23.5 31q11 15 24 15q11 0 19 -11q3 -5 -1 -11q-11 -15 -33.5 -45t-48 -63t-49 -62.5t-37.5 -42.5q-21 -20 -44.5 -32t-52.5 -12
q-42 0 -63.5 25t-26.5 63q-2 6 -2.5 12t-1.5 14q-10 -6 -14.5 -13t-9.5 -13zM36 48q-11 -25 -5 -48q4 -16 14 -16q6 0 13 3q23 8 43.5 26.5t38 42t31 48.5t22.5 46v8q-52 -11 -94 -35t-63 -75zM417 336q-46 -11 -79 -46t-56 -74q5 -3 9 -3q3 0 9 2q17 6 37 16t38.5 22.5
t34 28t23.5 32.5q11 23 -6 23q-6 0 -10 -1z" />
    <glyph glyph-name="uni0451.1" horiz-adv-x="521" 
 />
    <glyph glyph-name="currency" unicode="&#xa4;" horiz-adv-x="604" 
 />
    <glyph glyph-name="exclamdown" unicode="&#xa1;" horiz-adv-x="94" 
d="M0 9v17q10 91 22 179.5t25 179.5q2 17 4.5 33.5t5.5 33.5q4 25 30 25q13 0 10 -14q-7 -55 -14.5 -109.5t-15.5 -109.5q-7 -48 -13 -95t-10 -95q-1 -8 -2 -14.5t-1 -14.5q-1 -11 -12.5 -17.5t-22.5 -6.5q-6 0 -6 8zM91 546q-6 0 -10.5 3t-4.5 10q0 13 11.5 17.5t22.5 4.5
q8 0 12 -5q2 -2 0.5 -5t-3.5 -6q-1 -10 -2 -12t-9 -4q-5 -1 -8.5 -2t-8.5 -1z" />
    <glyph glyph-name="questiondown" unicode="&#xbf;" horiz-adv-x="274" 
d="M-38 33q-18 19 -8 48q4 12 9 23t12 22q12 21 26.5 41t28.5 40q35 47 64.5 91.5t48.5 101.5q5 14 10 29t10 29q4 12 14 12h7q11 -3 14 -8.5t-1 -19.5q-13 -48 -31.5 -93.5t-48.5 -88.5q-15 -20 -29.5 -39.5t-28.5 -39.5q-15 -21 -29.5 -41.5t-26.5 -42.5
q-5 -11 -9.5 -21.5t-5.5 -21.5q-3 -29 23 -29q27 0 52.5 12.5t46 32.5t34.5 45t18 51q3 14 13 14q1 0 2 -0.5t3 -0.5q27 -7 20 -33q-7 -27 -23 -53t-38.5 -46t-50 -32t-56.5 -12q-40 0 -70 30zM175 541q-3 3 -1 8q3 16 15 29q4 5 9 6l10 2q3 0 5.5 -0.5t5.5 -0.5
q23 -5 12 -28q-5 -10 -16.5 -16t-22.5 -6t-17 6z" />
    <glyph glyph-name="fi" unicode="&#xfb01;" horiz-adv-x="514" 
d="M250 201q-45 -2 -89.5 -3t-89.5 -1q-6 -2 -10 -4q-4 -48 0 -96q0 -5 3 -22.5t8 -36t11.5 -33.5t14.5 -15q2 0 6.5 3t9 7t8.5 8l5 5q34 36 60.5 79.5t49.5 85.5q3 6 6.5 12t6.5 11zM160 510q-1 -2 -1 -4.5t-2 -5.5q-9 -25 -18 -49t-19 -49q-4 -9 -10 -9q-5 -18 -9.5 -35.5
t-9.5 -34.5q0 -3 -1 -4q-1 -4 -2 -7t-2 -7l-6 -22l-6 -22l-3 -15q-2 -9 7 -9q3 -1 9 -1q38 0 77.5 0.5t77.5 3.5q5 1 15 1q19 0 26 -7q8 -1 16 -6q12 -6 6 -16q-26 -43 -50 -86t-53 -84q-21 -28 -45 -54q-22 -22 -48 -22q-18 0 -31 7.5t-22 19.5t-15 27t-10 30
q-6 -40 -11 -79.5t-9 -79.5q-2 -11 -3 -23t-3 -24q-2 -9 -8 -11.5t-14 -2.5t-13.5 2.5t-5.5 12.5q0 7 0.5 14t1.5 15q5 38 9 73.5t7 59.5q8 45 15.5 88t15.5 88q2 9 -8 9q-14 -1 -26.5 -1.5t-26.5 -3.5q-8 -2 -9 -2q-12 0 -18 18t14 21q15 2 30 3t30 3q4 1 7 1t7 1
q10 1 13 7q4 23 9.5 47.5t15.5 45.5q23 86 54 171q5 15 14 37.5t22 43t28.5 35.5t34.5 15q32 0 52.5 -23.5t21.5 -54.5q1 -25 -5.5 -49.5t-18.5 -48.5q-5 -8 -11.5 -18.5t-17.5 -10.5q-9 0 -19 5q-9 6 -2 17q18 27 28 62q5 17 7.5 34.5t0.5 34.5l-4 18t-13 10q-10 1 -17 -6
t-13 -15q-13 -15 -22 -32t-17 -35q4 -2 4.5 -5t1.5 -7z" />
    <glyph glyph-name="fl" unicode="&#xfb02;" horiz-adv-x="480" 
d="M-85 203q-6 18 14 21q15 2 30 3t30 3q4 1 7 1t7 1q8 1 11 4t5 12q5 18 9.5 36t9.5 37q23 93 57 182q5 15 14 37.5t22 43t28.5 35.5t34.5 15q32 0 52.5 -23.5t21.5 -54.5q1 -25 -5.5 -49.5t-18.5 -48.5q-5 -8 -11.5 -18.5t-17.5 -10.5q-9 0 -19 5q-9 6 -2 17q18 27 28 62
q5 17 7.5 34.5t0.5 34.5l-4 18t-13 10t-22 -10.5t-22 -29.5t-20.5 -40t-17.5 -43t-14 -38t-8 -25q-12 -41 -23 -81.5t-22 -81.5l-3 -15q-2 -9 7 -9q3 -1 9 -1q38 0 77.5 0.5t77.5 3.5q5 1 15 1q18 0 24.5 -5t8.5 -22q1 -10 -10 -12q-48 -2 -94.5 -2.5t-93.5 -2.5h-21
q-10 -1 -13 -11q-18 -73 -28.5 -146.5t-18.5 -148.5q-2 -11 -3 -23t-3 -24q-2 -9 -8 -11.5t-14 -2.5t-13.5 2.5t-5.5 12.5q0 7 0.5 14t1.5 15q5 38 9 73.5t7 59.5q8 45 15.5 88t15.5 88q2 9 -8 9q-14 -1 -26.5 -1.5t-26.5 -3.5q-8 -2 -9 -2q-12 0 -18 18zM227 -16
q-3 47 3 95q7 69 19.5 137.5t26.5 137.5q21 100 46 196.5t56 193.5q3 8 11 8q6 0 10.5 -2.5t9.5 -5.5q7 -5 5 -15q-2 -7 -3.5 -13.5t-3.5 -13.5q-18 -57 -32.5 -113.5t-28.5 -113.5q-23 -92 -40 -184.5t-31 -186.5q-9 -65 -5 -124l2 -18t6 -17q9 5 15 11.5t11 13.5
q20 24 36.5 49.5t33.5 51.5q20 32 39.5 64t39.5 64q3 5 6.5 9.5t6.5 9.5q8 14 25 14q17 -1 19.5 -5t-8.5 -21q-24 -35 -45.5 -70t-43.5 -71q-18 -29 -38 -58t-43 -55q-12 -14 -29 -25t-37 -11q-11 0 -20 4.5t-12 16.5q-7 21 -7 47z" />
    <glyph glyph-name="Agrave" unicode="&#xc0;" horiz-adv-x="422" 
d="M-71 -1q-9 5 -4 14l18 39l83 177q1 2 2 4.5t2 4.5q2 7 -5 7q-11 0 -19 -1.5t-19 -4.5q-9 -3 -14 -3q-8 0 -11 9t-3 15q-2 13 11 16q21 6 44 9q11 2 21.5 3t19.5 6q10 6 13.5 16.5t8.5 20.5q26 52 52 103t54 102q6 10 17.5 29.5t26.5 39t30.5 34t28.5 14.5q18 0 30.5 -14
t12.5 -31q0 -49 -6 -99q-6 -43 -11 -85t-8 -84q0 -10 -1 -15q0 -10 11 -10q7 0 14 0.5t15 0.5q17 0 21.5 -3.5t6.5 -20.5q0 -2 -2 -10q-14 -2 -26.5 -3t-26.5 -3q-11 -2 -14 -5t-4 -14q-4 -63 -6 -122.5t-2 -123.5q0 -12 -6.5 -15t-16.5 -3q-8 0 -13.5 2t-5.5 12
q-1 14 -1 28.5v28.5q-1 46 1.5 91.5t6.5 91.5q0 3 0.5 6t0.5 5q0 8 -4 9.5t-11 1.5h-10q-32 -3 -64.5 -6t-65.5 -6q-17 0 -25 -18q-14 -29 -27 -56.5t-27 -55.5q-13 -27 -25.5 -54.5t-25.5 -55.5q-10 -22 -26 -22q-8 0 -16 4zM111 307q-1 -3 0.5 -5.5t5.5 -1.5
q32 2 64.5 4.5t65.5 5.5q13 2 14 15q8 83 18 165q8 50 12 99q2 8 0 17q0 4 -5 4q-4 0 -14 -12t-20 -27t-19 -29.5t-12 -19.5q-28 -50 -53 -100t-51 -101l-3.5 -7t-2.5 -7zM293 827q8 -20 15 -41t14 -41q2 -3 2.5 -6.5t1.5 -6.5q2 -11 -5.5 -21.5t-18.5 -13.5q-5 0 -6.5 1
t-3.5 6l-27 75l-6 18q-4 10 6 22q3 2 6 5l6 6q5 3 8 3q5 0 8 -6z" />
    <glyph glyph-name="Aacute" unicode="&#xc1;" horiz-adv-x="422" 
d="M-69 -1q-9 5 -4 14l18 39l83 177q1 2 2 4.5t2 4.5q2 7 -5 7q-11 0 -19 -1.5t-19 -4.5q-9 -3 -14 -3q-8 0 -11 9t-3 15q-2 13 11 16q21 6 44 9q11 2 21.5 3t19.5 6q10 6 13.5 16.5t8.5 20.5q26 52 52 103t54 102q6 10 17.5 29.5t26.5 39t30.5 34t28.5 14.5q18 0 30.5 -14
t12.5 -31q0 -49 -6 -99q-6 -43 -11 -85t-8 -84q0 -10 -1 -15q0 -10 11 -10q7 0 14 0.5t15 0.5q17 0 21.5 -3.5t6.5 -20.5q0 -2 -2 -10q-14 -2 -26.5 -3t-26.5 -3q-11 -2 -14 -5t-4 -14q-4 -63 -6 -122.5t-2 -123.5q0 -12 -6.5 -15t-16.5 -3q-8 0 -13.5 2t-5.5 12
q-1 14 -1 28.5v28.5q-1 46 1.5 91.5t6.5 91.5q0 3 0.5 6t0.5 5q0 8 -4 9.5t-11 1.5h-10q-32 -3 -64.5 -6t-65.5 -6q-17 0 -25 -18q-14 -29 -27 -56.5t-27 -55.5q-13 -27 -25.5 -54.5t-25.5 -55.5q-10 -22 -26 -22q-8 0 -16 4zM113 307q-1 -3 0.5 -5.5t5.5 -1.5
q32 2 64.5 4.5t65.5 5.5q13 2 14 15q8 83 18 165q8 50 12 99q2 8 0 17q0 4 -5 4q-4 0 -14 -12t-20 -27t-19 -29.5t-12 -19.5q-28 -50 -53 -100t-51 -101l-3.5 -7t-2.5 -7zM355 803q5 6 10 6q4 0 7 -4q5 -5 8 -11q6 -9 -1 -21q-4 -5 -7 -9t-6 -9q-14 -19 -26.5 -37.5
t-26.5 -37.5q-3 -5 -5 -6t-7 -1q-11 3 -14.5 13.5t2.5 20.5q2 4 4 7t4 7q14 20 29 41t29 41z" />
    <glyph glyph-name="Acircumflex" unicode="&#xc2;" horiz-adv-x="422" 
d="M-69 -1q-9 5 -4 14l18 39l83 177q1 2 2 4.5t2 4.5q2 7 -5 7q-11 0 -19 -1.5t-19 -4.5q-9 -3 -14 -3q-8 0 -11 9t-3 15q-2 13 11 16q21 6 44 9q11 2 21.5 3t19.5 6q10 6 13.5 16.5t8.5 20.5q26 52 52 103t54 102q6 10 17.5 29.5t26.5 39t30.5 34t28.5 14.5q18 0 30.5 -14
t12.5 -31q0 -49 -6 -99q-6 -43 -11 -85t-8 -84q0 -10 -1 -15q0 -10 11 -10q7 0 14 0.5t15 0.5q17 0 21.5 -3.5t6.5 -20.5q0 -2 -2 -10q-14 -2 -26.5 -3t-26.5 -3q-11 -2 -14 -5t-4 -14q-4 -63 -6 -122.5t-2 -123.5q0 -12 -6.5 -15t-16.5 -3q-8 0 -13.5 2t-5.5 12
q-1 14 -1 28.5v28.5q-1 46 1.5 91.5t6.5 91.5q0 3 0.5 6t0.5 5q0 8 -4 9.5t-11 1.5h-10q-32 -3 -64.5 -6t-65.5 -6q-17 0 -25 -18q-14 -29 -27 -56.5t-27 -55.5q-13 -27 -25.5 -54.5t-25.5 -55.5q-10 -22 -26 -22q-8 0 -16 4zM113 307q-1 -3 0.5 -5.5t5.5 -1.5
q32 2 64.5 4.5t65.5 5.5q13 2 14 15q8 83 18 165q8 50 12 99q2 8 0 17q0 4 -5 4q-4 0 -14 -12t-20 -27t-19 -29.5t-12 -19.5q-28 -50 -53 -100t-51 -101l-3.5 -7t-2.5 -7zM316 781q-8 -10 -14 -20q-13 -19 -25.5 -37t-23.5 -37q-7 -8 -14 -8q-9 0 -17 5q-13 8 -4 21
q16 24 31.5 48t32.5 47q11 17 24 17q15 0 30 -11t23 -23q13 -23 20 -49l14 -52q2 -4 -1.5 -6.5t-8.5 -1.5q-20 3 -26 20q-4 12 -7 24t-8 23q-3 10 -6.5 19.5t-7.5 19.5q-2 4 -7 4q-1 -1 -2.5 -1t-2.5 -2z" />
    <glyph glyph-name="Atilde" unicode="&#xc3;" horiz-adv-x="422" 
d="M-63 -1q-9 5 -4 14l18 39l83 177q1 2 2 4.5t2 4.5q2 7 -5 7q-11 0 -19 -1.5t-19 -4.5q-9 -3 -14 -3q-8 0 -11 9t-3 15q-2 13 11 16q21 6 44 9q11 2 21.5 3t19.5 6q10 6 13.5 16.5t8.5 20.5q26 52 52 103t54 102q6 10 17.5 29.5t26.5 39t30.5 34t28.5 14.5q18 0 30.5 -14
t12.5 -31q0 -49 -6 -99q-6 -43 -11 -85t-8 -84q0 -10 -1 -15q0 -10 11 -10q7 0 14 0.5t15 0.5q17 0 21.5 -3.5t6.5 -20.5q0 -2 -2 -10q-14 -2 -26.5 -3t-26.5 -3q-11 -2 -14 -5t-4 -14q-4 -63 -6 -122.5t-2 -123.5q0 -12 -6.5 -15t-16.5 -3q-8 0 -13.5 2t-5.5 12
q-1 14 -1 28.5v28.5q-1 46 1.5 91.5t6.5 91.5q0 3 0.5 6t0.5 5q0 8 -4 9.5t-11 1.5h-10q-32 -3 -64.5 -6t-65.5 -6q-17 0 -25 -18q-14 -29 -27 -56.5t-27 -55.5q-13 -27 -25.5 -54.5t-25.5 -55.5q-10 -22 -26 -22q-8 0 -16 4zM119 307q-1 -3 0.5 -5.5t5.5 -1.5
q32 2 64.5 4.5t65.5 5.5q13 2 14 15q8 83 18 165q8 50 12 99q2 8 0 17q0 4 -5 4q-4 0 -14 -12t-20 -27t-19 -29.5t-12 -19.5q-28 -50 -53 -100t-51 -101l-3.5 -7t-2.5 -7zM302 687q-12 -4 -24 -7.5t-23 -5.5q-3 -1 -9 -1q-22 0 -35.5 17.5t-8.5 40.5q1 2 1.5 4t2.5 3
q10 0 15.5 -7.5t7.5 -16.5q1 -8 8 -8q4 0 6 1q11 3 21 6.5t20 6.5q11 4 20.5 7.5t20.5 6.5q15 6 32 6q22 0 34 -13.5t12 -37.5q0 -6 -3.5 -11t-10.5 -5q-8 0 -13 8.5t-7 15.5q-1 8 -8 8q-4 0 -7 -1q-13 -5 -26 -9z" />
    <glyph glyph-name="Adieresis" unicode="&#xc4;" horiz-adv-x="422" 
d="M-63 -1q-9 5 -4 14q5 10 9 19.5t9 19.5l83 177q1 2 2 4.5t2 4.5q2 7 -5 7q-11 0 -19 -1.5t-19 -4.5q-9 -3 -13 -3q-8 0 -11 9t-4 15q-2 13 11 16q22 6 44 9q11 2 21.5 3t19.5 6q10 6 13.5 16.5t8.5 20.5q26 52 52 103t54 102q6 10 17.5 29.5t26.5 39t30.5 34t28.5 14.5
q18 0 30.5 -14t12.5 -31q1 -25 -1 -49.5t-5 -49.5q-5 -43 -10 -85t-8 -84q-1 -4 -1 -7.5t-1 -7.5q0 -10 11 -10q8 0 14.5 0.5t14.5 0.5q17 0 21.5 -3.5t6.5 -20.5q0 -2 -0.5 -4.5t-0.5 -5.5q-14 -2 -27 -3t-27 -3q-11 -2 -14 -5t-4 -14q-4 -63 -6 -122.5t-2 -123.5
q0 -12 -6.5 -15t-16.5 -3q-8 0 -13 2t-6 12q-1 14 -1 28.5v28.5q-1 46 2 91.5t6 91.5q0 3 0.5 6t0.5 5q0 8 -3.5 9.5t-10.5 1.5h-10q-33 -3 -65.5 -6t-65.5 -6q-17 0 -25 -18q-26 -56 -52 -111t-52 -111q-12 -22 -26 -22q-9 0 -17 4zM119 307q-1 -3 0.5 -5.5t5.5 -1.5
q32 2 64.5 4.5t65.5 5.5q12 1 15 15q6 83 18 165q3 25 6 49.5t5 49.5q1 4 1 8v9q-2 4 -5 4q-5 0 -14.5 -12t-20 -27t-19 -29.5t-11.5 -19.5q-28 -50 -53.5 -100t-51.5 -101q-2 -4 -3 -7t-3 -7zM241 708q2 9 5.5 21t14.5 12q14 0 29 -17q5 -6 9 -12t9 -11q9 -12 1 -27
q-9 -15 -24 -14q-17 1 -30.5 15t-13.5 33zM124 708q2 9 5.5 21t14.5 12q14 0 29 -17q5 -6 9 -12t9 -11q9 -12 1 -27q-9 -15 -24 -14q-17 1 -30.5 15t-13.5 33z" />
    <glyph glyph-name="Aring" unicode="&#xc5;" horiz-adv-x="422" 
d="M-70 -1q-9 5 -4 14l18 39l83 177q1 2 2 4.5t2 4.5q2 7 -5 7q-11 0 -19 -1.5t-19 -4.5q-9 -3 -14 -3q-8 0 -11 9t-3 15q-2 13 11 16q21 6 44 9q11 2 21.5 3t19.5 6q10 6 13.5 16.5t8.5 20.5q26 52 52 103t54 102q6 10 17.5 29.5t26.5 39t30.5 34t28.5 14.5q18 0 30.5 -14
t12.5 -31q0 -49 -6 -99q-6 -43 -11 -85t-8 -84q0 -10 -1 -15q0 -10 11 -10q7 0 14 0.5t15 0.5q17 0 21.5 -3.5t6.5 -20.5q0 -2 -2 -10q-14 -2 -26.5 -3t-26.5 -3q-11 -2 -14 -5t-4 -14q-4 -63 -6 -122.5t-2 -123.5q0 -12 -6.5 -15t-16.5 -3q-8 0 -13.5 2t-5.5 12
q-1 14 -1 28.5v28.5q-1 46 1.5 91.5t6.5 91.5q0 3 0.5 6t0.5 5q0 8 -4 9.5t-11 1.5h-10q-32 -3 -64.5 -6t-65.5 -6q-17 0 -25 -18q-14 -29 -27 -56.5t-27 -55.5q-13 -27 -25.5 -54.5t-25.5 -55.5q-10 -22 -26 -22q-8 0 -16 4zM112 307q-1 -3 0.5 -5.5t5.5 -1.5
q32 2 64.5 4.5t65.5 5.5q13 2 14 15q8 83 18 165q8 50 12 99q2 8 0 17q0 4 -5 4q-4 0 -14 -12t-20 -27t-19 -29.5t-12 -19.5q-28 -50 -53 -100t-51 -101l-3.5 -7t-2.5 -7zM261 742q2 11 8.5 25t15.5 27t20.5 21.5t24.5 8.5q6 0 14 -4.5t15.5 -11t14 -13t10.5 -11.5
q14 -17 6 -43q-3 -11 -10.5 -21.5t-17 -19t-21 -14t-23.5 -5.5q-17 0 -31.5 7.5t-21.5 20.5q-5 8 -5.5 16.5t1.5 16.5zM303 706q8 0 17 6t17 15t13.5 19t6.5 17q0 8 -2 11q-5 5 -12 6.5t-12 5.5q-17 -11 -26 -31.5t-9 -40.5q0 -8 7 -8z" />
    <glyph glyph-name="Ccedilla" unicode="&#xc7;" horiz-adv-x="325" 
d="M364 209q-1 -2 -2.5 -4t-3.5 -4q-32 -39 -64 -78.5t-65 -78.5q-12 -15 -32 -36.5t-43.5 -41.5t-47.5 -34t-45 -14q-23 0 -40 12.5t-28 31.5q-11 21 -15 44.5t-2 48.5q1 46 11 96t26 99t37 96t45 87q13 23 34.5 52t47 55.5t53.5 44.5t55 18q30 0 48 -30q10 -19 4 -44
q-2 -7 -8.5 -23.5t-15.5 -33t-19 -29.5t-19 -13q-6 0 -13 4.5t-9 10.5q-3 5 1 11q17 23 32.5 49.5t19.5 57.5q0 9 -8 9q-3 0 -5 -1q-55 -18 -99 -67t-77 -110.5t-55 -127t-34 -116.5q-6 -32 -10 -63t-2 -62q0 -6 2 -20.5t6.5 -28.5t11 -25t14.5 -11q12 0 32 14t40.5 33
t38.5 38t26 28l62 74l62 74q3 3 5.5 6t5.5 6q11 14 23 14q10 0 18 -10q2 -2 1.5 -4t-0.5 -4zM-38 -291q-2 12 1.5 19.5t15.5 15.5q4 4 9 4q6 0 10 -7q1 -2 2 -4.5t2 -4.5q6 -14 -8 -23l-4.5 -4.5t0.5 -5.5q4 -4 12 -4q14 0 26 7t21.5 17.5t16 23.5t10.5 25q6 36 -26 42
q-4 2 -8 2h-9h-8q-13 0 -21 4.5t-10 19.5q-3 9 3 17l60 78q3 3 6 3q8 0 11 -10t4 -16q0 -5 -6 -13q-7 -10 -14 -19.5t-14 -19.5q-4 -5 1 -10q4 -2 8 -4.5t8 -4.5q22 -18 31.5 -41.5t3.5 -54.5q-2 -13 -9.5 -27.5t-18 -27t-24 -20.5t-28.5 -8q-21 0 -36 15.5t-18 35.5z" />
    <glyph glyph-name="Eth" unicode="&#xd0;" horiz-adv-x="449" 
d="M-32 -6q-2 18 -1.5 36t3.5 36q3 19 6 37t8 36q29 125 60.5 247.5t72.5 244.5q2 9 4.5 16.5t13.5 7.5q4 -2 7.5 -3.5t7.5 -3.5q13 -6 7 -21q-41 -132 -76 -263.5t-62 -266.5q-2 -8 -3.5 -15.5t1.5 -18.5q6 8 9.5 14.5t5.5 12.5q18 43 35.5 85.5t35.5 85.5q20 46 42.5 91
t48.5 89q11 19 33 51t48.5 63t54.5 53.5t52 22.5q14 0 26 -7t21 -17.5t14.5 -23.5t6.5 -26t1 -25.5t-2 -26.5q-13 -91 -43 -176.5t-77 -169.5q-10 -18 -26 -41.5t-36 -44.5t-43 -35.5t-46 -14.5q-18 0 -33 7.5t-20 26.5q-4 13 -5 25t0 26t9.5 25.5t24.5 11.5q5 -1 10.5 -3
t10.5 -4q6 -2 1 -7q-10 -11 -13.5 -21.5t-3 -20.5t3.5 -20l6 -20q0 -4 6 -4q8 0 21.5 10.5t19.5 16.5q38 37 71.5 93.5t59 120t43 126.5t23.5 113q4 25 1 52q-3 26 -15 26q-9 0 -25 -10q-38 -24 -73.5 -67t-65.5 -93t-54.5 -101t-41.5 -90q-20 -48 -39 -96.5t-42 -96.5
q-8 -14 -15 -29t-16 -29q-12 -19 -32 -19q-13 0 -19 4.5t-8 17.5zM160 360q17 0 32.5 1t32.5 2q16 0 19.5 -5.5t4.5 -19.5q0 -12 -10 -13q-5 0 -9 -0.5t-9 -0.5q-32 -4 -63 -3.5t-63 -0.5q-26 -2 -52.5 -3t-53.5 -3q-2 -1 -5 -1q-15 0 -18 21q-3 16 15 19q3 0 6 0.5t5 0.5
q42 2 82 4t81 2h5z" />
    <glyph glyph-name="Dcroat" unicode="&#x110;" horiz-adv-x="473" 
d="M-12 -6q-2 18 -1.5 36t3.5 36q3 19 6 37t8 36q29 125 60.5 247.5t72.5 244.5q2 9 4.5 16.5t13.5 7.5q4 -2 7.5 -3.5t7.5 -3.5q13 -6 7 -21q-41 -132 -76 -263.5t-62 -266.5q-2 -8 -3.5 -15.5t1.5 -18.5q6 8 9.5 14.5t5.5 12.5q18 43 35.5 85.5t35.5 85.5q20 46 42.5 91
t48.5 89q11 19 33 51t48.5 63t54.5 53.5t52 22.5q14 0 26 -7t21 -17.5t14.5 -23.5t6.5 -26t1 -25.5t-2 -26.5q-13 -91 -43 -176.5t-77 -169.5q-10 -18 -26 -41.5t-36 -44.5t-43 -35.5t-46 -14.5q-18 0 -33 7.5t-20 26.5q-4 13 -5 25t0 26t9.5 25.5t24.5 11.5q5 -1 10.5 -3
t10.5 -4q6 -2 1 -7q-10 -11 -13.5 -21.5t-3 -20.5t3.5 -20l6 -20q0 -4 6 -4q8 0 21.5 10.5t19.5 16.5q38 37 71.5 93.5t59 120t43 126.5t23.5 113q4 25 1 52q-3 26 -15 26q-9 0 -25 -10q-38 -24 -73.5 -67t-65.5 -93t-54.5 -101t-41.5 -90q-20 -48 -39 -96.5t-42 -96.5
q-8 -14 -15 -29t-16 -29q-12 -19 -32 -19q-13 0 -19 4.5t-8 17.5zM333 703h23h15q12 -1 15 -4t5 -14q1 -3 1 -11q-1 -8 -10 -11h-3q-37 -2 -73.5 -4t-73.5 -4q-14 0 -20 4t-7 19q-1 16 16 17q29 2 56.5 4t55.5 4z" />
    <glyph glyph-name="Egrave" unicode="&#xc8;" horiz-adv-x="335" 
d="M-37 286q-12 17 11 23l27 6q13 3 16.5 5.5t6.5 14.5q16 60 38.5 117t50.5 114q2 3 3 5.5t2 5.5q5 11 -6 9q-8 0 -17 -0.5t-18 -1.5l-15 -3h-3q-11 0 -17.5 8.5t-4.5 19.5q1 2 2.5 4t3.5 2q5 2 10.5 3t10.5 2q15 2 30.5 4t31.5 4q8 1 16 3t14 10q3 6 9 6q3 0 7 -2
q7 -6 21 -6q5 0 11 0.5t12 1.5q46 8 91 14.5t90 14.5h6q11 0 16 -9q7 -12 3.5 -18t-19.5 -9q-52 -9 -103.5 -18t-103.5 -17q-13 -2 -20.5 -7t-12.5 -16q-29 -57 -54.5 -116.5t-41.5 -122.5q-3 -9 7 -9q5 0 9 1t9 1q29 5 56.5 8.5t56.5 7.5q2 1 7 1q20 0 26 -18q2 -4 -0.5 -7
t-6.5 -4q-37 -3 -74 -10.5t-74 -14.5q-15 0 -23 -5.5t-11 -21.5q-8 -45 -13 -89t-3 -88q1 -16 5 -33t11.5 -31t20.5 -23.5t32 -9.5q17 0 38.5 9t43 21.5t40.5 27t31 25.5q16 14 27 14q8 0 15 -3q3 -2 3.5 -5t-1.5 -5q-15 -18 -38.5 -36t-50 -33t-53.5 -24t-50 -9
q-38 0 -69 18.5t-41 58.5q-5 24 -5.5 49t1.5 51q2 31 5.5 62.5t9.5 61.5q-6 2 -9 2q-5 0 -13 -2q-8 0 -13 2t-10 9zM270 814q8 -20 15 -41t14 -41q2 -3 2.5 -6.5t1.5 -6.5q2 -11 -5.5 -21.5t-18.5 -13.5q-5 0 -6.5 1t-3.5 6l-27 75l-6 18q-4 10 6 22q3 2 6 5l6 6q5 3 8 3
q5 0 8 -6z" />
    <glyph glyph-name="Eacute" unicode="&#xc9;" horiz-adv-x="335" 
d="M-37 286q-12 17 11 23l27 6q13 3 16.5 5.5t6.5 14.5q16 60 38.5 117t50.5 114q2 3 3 5.5t2 5.5q5 11 -6 9q-8 0 -17 -0.5t-18 -1.5l-15 -3h-3q-11 0 -17.5 8.5t-4.5 19.5q1 2 2.5 4t3.5 2q5 2 10.5 3t10.5 2q15 2 30.5 4t31.5 4q8 1 16 3t14 10q3 6 9 6q3 0 7 -2
q7 -6 21 -6q5 0 11 0.5t12 1.5q46 8 91 14.5t90 14.5h6q11 0 16 -9q7 -12 3.5 -18t-19.5 -9q-52 -9 -103.5 -18t-103.5 -17q-13 -2 -20.5 -7t-12.5 -16q-29 -57 -54.5 -116.5t-41.5 -122.5q-3 -9 7 -9q5 0 9 1t9 1q29 5 56.5 8.5t56.5 7.5q2 1 7 1q20 0 26 -18q2 -4 -0.5 -7
t-6.5 -4q-37 -3 -74 -10.5t-74 -14.5q-15 0 -23 -5.5t-11 -21.5q-8 -45 -13 -89t-3 -88q1 -16 5 -33t11.5 -31t20.5 -23.5t32 -9.5q17 0 38.5 9t43 21.5t40.5 27t31 25.5q16 14 27 14q8 0 15 -3q3 -2 3.5 -5t-1.5 -5q-15 -18 -38.5 -36t-50 -33t-53.5 -24t-50 -9
q-38 0 -69 18.5t-41 58.5q-5 24 -5.5 49t1.5 51q2 31 5.5 62.5t9.5 61.5q-6 2 -9 2q-5 0 -13 -2q-8 0 -13 2t-10 9zM324 814q5 6 10 6q4 0 7 -4q5 -5 8 -11q6 -9 -1 -21q-4 -5 -7 -9t-6 -9q-14 -19 -26.5 -37.5t-26.5 -37.5q-3 -5 -5 -6t-7 -1q-11 3 -14.5 13.5t2.5 20.5
q2 4 4 7t4 7q14 20 29 41t29 41z" />
    <glyph glyph-name="Ecircumflex" unicode="&#xca;" horiz-adv-x="335" 
d="M-39 286q-12 17 11 23l27 6q13 3 16.5 5.5t6.5 14.5q16 60 38.5 117t50.5 114q2 3 3 5.5t2 5.5q5 11 -6 9q-8 0 -17 -0.5t-18 -1.5l-15 -3h-3q-11 0 -17.5 8.5t-4.5 19.5q1 2 2.5 4t3.5 2q5 2 10.5 3t10.5 2q15 2 30.5 4t31.5 4q8 1 16 3t14 10q3 6 9 6q3 0 7 -2
q7 -6 21 -6q5 0 11 0.5t12 1.5q46 8 91 14.5t90 14.5h6q11 0 16 -9q7 -12 3.5 -18t-19.5 -9q-52 -9 -103.5 -18t-103.5 -17q-13 -2 -20.5 -7t-12.5 -16q-29 -57 -54.5 -116.5t-41.5 -122.5q-3 -9 7 -9q5 0 9 1t9 1q29 5 56.5 8.5t56.5 7.5q2 1 7 1q20 0 26 -18q2 -4 -0.5 -7
t-6.5 -4q-37 -3 -74 -10.5t-74 -14.5q-15 0 -23 -5.5t-11 -21.5q-8 -45 -13 -89t-3 -88q1 -16 5 -33t11.5 -31t20.5 -23.5t32 -9.5q17 0 38.5 9t43 21.5t40.5 27t31 25.5q16 14 27 14q8 0 15 -3q3 -2 3.5 -5t-1.5 -5q-15 -18 -38.5 -36t-50 -33t-53.5 -24t-50 -9
q-38 0 -69 18.5t-41 58.5q-5 24 -5.5 49t1.5 51q2 31 5.5 62.5t9.5 61.5q-6 2 -9 2q-5 0 -13 -2q-8 0 -13 2t-10 9zM286 805q-8 -10 -14 -20q-13 -19 -25.5 -37t-23.5 -37q-7 -8 -14 -8q-9 0 -17 5q-13 8 -4 21q16 24 31.5 48t32.5 47q11 17 24 17q15 0 30 -11t23 -23
q13 -23 20 -49l14 -52q2 -4 -1.5 -6.5t-8.5 -1.5q-20 3 -26 20q-4 12 -7 24t-8 23q-3 10 -6.5 19.5t-7.5 19.5q-2 4 -7 4q-1 -1 -2.5 -1t-2.5 -2z" />
    <glyph glyph-name="Edieresis" unicode="&#xcb;" horiz-adv-x="335" 
d="M-31 286q-11 17 12 23l27 6q13 3 16 5.5t7 14.5q15 60 38 117t51 114q2 3 3 5.5t2 5.5q4 11 -6 9q-9 0 -17.5 -0.5t-17.5 -1.5l-15 -3h-3q-11 0 -17.5 8.5t-4.5 19.5q1 2 2.5 4t3.5 2q5 2 10 3l10 2q16 2 31.5 4t31.5 4q8 1 15.5 3t14.5 10q3 6 9 6q3 0 7 -2q7 -6 21 -6
q5 0 11 0.5t12 1.5q45 8 90.5 14.5t90.5 14.5h6q11 0 16 -9q7 -12 3.5 -18t-19.5 -9q-52 -9 -103.5 -18t-104.5 -17q-22 -3 -33 -23q-29 -57 -54 -116.5t-42 -122.5q-1 -9 8 -9q5 0 9 1t9 1q28 5 56 8.5t56 7.5q3 1 8 1q19 0 26 -18q2 -4 -0.5 -7t-6.5 -4
q-38 -3 -74.5 -10.5t-74.5 -14.5q-15 0 -23 -5.5t-10 -21.5q-8 -45 -13 -89t-3 -88q1 -16 4.5 -33t11.5 -31t20.5 -23.5t31.5 -9.5q17 0 38.5 9t43.5 21.5t41 27t30 25.5q16 14 28 14q6 0 15 -3q7 -4 1 -10q-15 -18 -38 -36t-49.5 -33t-53.5 -24t-50 -9q-38 0 -69.5 18
t-40.5 59q-5 24 -6 49t1 51t5.5 53t8.5 55q1 4 1 8v8q-6 2 -8 2q-5 0 -13 -2q-8 0 -13.5 2t-10.5 9zM241 708q2 9 5.5 21t14.5 12q14 0 29 -17q5 -6 9 -12t9 -11q9 -12 1 -27q-9 -15 -24 -14q-17 1 -30.5 15t-13.5 33zM168 660q-17 1 -30.5 15t-13.5 33q2 9 5.5 21t14.5 12
q14 0 29 -17q5 -6 9 -12t9 -11q9 -12 1 -27q-9 -15 -24 -14z" />
    <glyph glyph-name="Igrave" unicode="&#xcc;" horiz-adv-x="208" 
d="M-162 22q17 4 34 4.5t34 0.5q14 0 26.5 -0.5t25.5 -1.5q5 -1 9 -1t9 -1q14 0 17 13l3 15l81 447q3 16 6 31t6 31q3 18 -8 18q-6 0 -10 -1q-22 -3 -43 -7t-43 -8q-4 -1 -10 -1q-16 0 -19 21q0 14 14 17q24 5 48.5 10t49.5 8q45 7 89 12t89 11h5q22 0 19 -27q-1 -6 -8 -8
t-12 -3q-23 -4 -46 -7l-46 -6l-12 -3q-10 -2 -12 -12q-2 -6 -2.5 -12t-2.5 -12q-22 -128 -45.5 -253t-47.5 -252q-4 -20 -1 -23.5t21 -5.5q9 -1 18 -1t17 -1q19 -2 23 -8t2 -28q-7 -3 -14 -3t-17 2q-35 2 -68.5 4t-67.5 4q-9 1 -17.5 1h-17.5h-29.5t-29.5 -1q-27 -2 -24 29
q0 6 7 8zM127 800q8 -20 15 -41t14 -41q2 -3 2.5 -6.5t1.5 -6.5q2 -11 -5.5 -21.5t-18.5 -13.5q-5 0 -6.5 1t-3.5 6l-27 75l-6 18q-4 10 6 22q3 2 6 5l6 6q5 3 8 3q5 0 8 -6z" />
    <glyph glyph-name="Iacute" unicode="&#xcd;" horiz-adv-x="208" 
d="M-160 22q17 4 34 4.5t34 0.5q14 0 26.5 -0.5t25.5 -1.5q5 -1 9 -1t9 -1q14 0 17 13l3 15l81 447q3 16 6 31t6 31q3 18 -8 18q-6 0 -10 -1q-22 -3 -43 -7t-43 -8q-4 -1 -10 -1q-16 0 -19 21q0 14 14 17q24 5 48.5 10t49.5 8q45 7 89 12t89 11h5q22 0 19 -27q-1 -6 -8 -8
t-12 -3q-23 -4 -46 -7l-46 -6l-12 -3q-10 -2 -12 -12q-2 -6 -2.5 -12t-2.5 -12q-22 -128 -45.5 -253t-47.5 -252q-4 -20 -1 -23.5t21 -5.5q9 -1 18 -1t17 -1q19 -2 23 -8t2 -28q-7 -3 -14 -3t-17 2q-35 2 -68.5 4t-67.5 4q-9 1 -17.5 1h-17.5h-29.5t-29.5 -1q-27 -2 -24 29
q0 6 7 8zM193 784q5 6 10 6q4 0 7 -4q5 -5 8 -11q6 -9 -1 -21q-4 -5 -7 -9t-6 -9q-14 -19 -26.5 -37.5t-26.5 -37.5q-3 -5 -5 -6t-7 -1q-11 3 -14.5 13.5t2.5 20.5q2 4 4 7t4 7q14 20 29 41t29 41z" />
    <glyph glyph-name="Icircumflex" unicode="&#xce;" horiz-adv-x="208" 
d="M-163 22q17 4 34 4.5t34 0.5q14 0 26.5 -0.5t25.5 -1.5q5 -1 9 -1t9 -1q14 0 17 13l3 15l81 447q3 16 6 31t6 31q3 18 -8 18q-6 0 -10 -1q-22 -3 -43 -7t-43 -8q-4 -1 -10 -1q-16 0 -19 21q0 14 14 17q24 5 48.5 10t49.5 8q45 7 89 12t89 11h5q22 0 19 -27q-1 -6 -8 -8
t-12 -3q-23 -4 -46 -7l-46 -6l-12 -3q-10 -2 -12 -12q-2 -6 -2.5 -12t-2.5 -12q-22 -128 -45.5 -253t-47.5 -252q-4 -20 -1 -23.5t21 -5.5q9 -1 18 -1t17 -1q19 -2 23 -8t2 -28q-7 -3 -14 -3t-17 2q-35 2 -68.5 4t-67.5 4q-9 1 -17.5 1h-17.5h-29.5t-29.5 -1q-27 -2 -24 29
q0 6 7 8zM152 786q-8 -10 -14 -20q-13 -19 -25.5 -37t-23.5 -37q-7 -8 -14 -8q-9 0 -17 5q-13 8 -4 21q16 24 31.5 48t32.5 47q11 17 24 17q15 0 30 -11t23 -23q13 -23 20 -49l14 -52q2 -4 -1.5 -6.5t-8.5 -1.5q-20 3 -26 20q-4 12 -7 24t-8 23q-3 10 -6.5 19.5t-7.5 19.5
q-2 4 -7 4q-1 -1 -2.5 -1t-2.5 -2z" />
    <glyph glyph-name="Idieresis" unicode="&#xcf;" horiz-adv-x="208" 
d="M-139 -15q-27 -2 -24 29q0 6 7 8q17 4 34 4.5t34 0.5q14 0 26.5 -0.5t26.5 -1.5q4 -1 8 -1t9 -1q14 0 17 13q2 4 2 7.5t1 7.5l81 447q3 16 6 31t6 31q3 18 -8 18q-6 0 -10 -1q-22 -3 -43 -7t-43 -8q-4 -1 -10 -1q-16 0 -19 21q0 14 14 17q25 5 49 10t49 8q45 7 89 12
t89 11h5q22 0 19 -27q-1 -6 -8 -8t-12 -3q-23 -4 -46 -7l-46 -6l-12 -3q-8 -1 -12 -12q-2 -6 -2.5 -12t-2.5 -12q-22 -128 -45.5 -253t-47.5 -252q-4 -20 -1 -23.5t21 -5.5q9 -1 18 -1t17 -1q20 -2 23.5 -8t1.5 -28q-7 -3 -14 -3t-17 2q-35 2 -68.5 4t-67.5 4q-9 1 -17.5 1
h-17.5h-29t-30 -1zM241 708q2 9 5.5 21t14.5 12q14 0 29 -17q5 -6 9 -12t9 -11q9 -12 1 -27q-9 -15 -24 -14q-17 1 -30.5 15t-13.5 33zM168 660q-17 1 -30.5 15t-13.5 33q2 9 5.5 21t14.5 12q14 0 29 -17q5 -6 9 -12t9 -11q9 -12 1 -27q-9 -15 -24 -14z" />
    <glyph glyph-name="Lslash" unicode="&#x141;" horiz-adv-x="303" 
d="M-29 268q20 16 39.5 32.5t39.5 33.5q23 82 50.5 161.5t56.5 159.5q6 13 15 13q5 0 8.5 -2t7.5 -4q12 -7 6 -21q-8 -22 -14.5 -43.5t-14.5 -43.5q-17 -44 -31.5 -87t-27.5 -88q2 1 2.5 2t2.5 2q14 11 27 22.5t27 22.5q11 10 18 10q5 0 10.5 -3.5t9.5 -6.5q8 -7 1 -14
q-4 -4 -7.5 -7t-7.5 -6q-24 -22 -49 -41.5t-51 -39.5q-15 -54 -26.5 -106t-19.5 -106q-2 -14 -2.5 -27.5t4.5 -26.5q5 -14 13.5 -25.5t25.5 -11.5q12 0 23.5 4t22.5 10q26 14 51.5 29.5t51.5 31.5q11 8 25 8q4 0 12 -2q3 0 3.5 -3.5t-1.5 -5.5q-9 -8 -24.5 -18.5t-33 -20.5
t-34 -19t-27.5 -14q-39 -17 -74 -17q-27 0 -47.5 10t-28.5 39q-7 20 -4 44q7 49 15 91t20 90q-10 -8 -19.5 -17t-19.5 -17q-9 -9 -18 -9q-7 0 -16 6q-13 9 0 22q6 6 10 9z" />
    <glyph glyph-name="Ntilde" unicode="&#xd1;" horiz-adv-x="475" 
d="M469 645q-18 -72 -35.5 -144t-34.5 -145q-10 -45 -19 -89t-18 -89q-6 -25 -11.5 -49.5t-10.5 -49.5q-5 -22 -15.5 -41t-38.5 -19q-5 0 -10.5 2.5t-7.5 7.5q-3 8 -6.5 15.5t-5.5 15.5q-8 31 -14 62t-11 63q-8 52 -14 103.5t-14 103.5q0 5 -2.5 21t-6.5 37t-9.5 44.5
t-11.5 43t-13 32t-14 12.5q-4 0 -8.5 -5.5t-9 -12.5t-7.5 -14t-4 -10q-24 -59 -40.5 -121.5t-27.5 -126.5t-17 -128.5t-11 -127.5q-2 -16 -6.5 -26t-24.5 -10q-15 0 -14 21q1 17 2.5 35t3.5 35q12 118 31.5 235t65.5 227q7 18 20 36t35 18q17 0 34.5 -10t26.5 -25
q13 -21 22 -47.5t15.5 -55t10.5 -56.5t7 -51q8 -59 16.5 -116t19.5 -114q2 -10 3 -20.5t10 -16.5q7 10 8 19.5t3 19.5q25 122 51 242t58 240q2 11 5.5 22t6.5 22q3 10 14 10q3 -1 5.5 -1.5t5.5 -1.5q11 -3 13.5 -6.5t-0.5 -15.5zM279 673q-12 -4 -24 -7.5t-23 -5.5
q-3 -1 -9 -1q-22 0 -35.5 17.5t-8.5 40.5q1 2 1.5 4t2.5 3q10 0 15.5 -7.5t7.5 -16.5q1 -8 8 -8q4 0 6 1q11 3 21 6.5t20 6.5q11 4 20.5 7.5t20.5 6.5q15 6 32 6q22 0 34 -13.5t12 -37.5q0 -6 -3.5 -11t-10.5 -5q-8 0 -13 8.5t-7 15.5q-1 8 -8 8q-4 0 -7 -1q-13 -5 -26 -9z
" />
    <glyph glyph-name="Ograve" unicode="&#xd2;" 
d="M21 72q-19 35 -26 74.5t-5 82.5q2 69 20.5 136.5t49.5 134.5q8 17 23 42.5t34.5 50.5t41 42.5t42.5 17.5q8 0 15 -4q2 -1 7 -1q7 0 13 3q18 7 37 7q15 0 32 -5q42 -13 67.5 -39t30.5 -72q2 -23 0 -47t-7 -53q-9 -45 -25.5 -93.5t-36.5 -98.5q-13 -34 -34 -77.5t-49 -81.5
t-63 -64.5t-77 -26.5q-33 0 -54.5 22.5t-35.5 49.5zM58 379q-14 -50 -21.5 -98.5t-3.5 -96.5q4 -43 18 -80t42 -67q8 -9 14 -14t14 -5q12 0 39 20q22 17 44.5 47.5t43 69.5t39 82.5t33.5 86t25.5 80t14.5 64.5q5 23 6 45.5t-2 45.5q-4 30 -20 52.5t-50 22.5q-16 0 -34 -7.5
t-31 -15.5q-11 -8 -22 -8q-5 0 -11 3q-2 1 -6 1q-7 0 -13 -6q-44 -42 -73.5 -103.5t-45.5 -118.5zM266 821q8 -20 15 -41t14 -41q2 -3 2.5 -6.5t1.5 -6.5q2 -11 -5.5 -21.5t-18.5 -13.5q-5 0 -6.5 1t-3.5 6l-27 75l-6 18q-4 10 6 22q3 2 6 5l6 6q5 3 8 3q5 0 8 -6z" />
    <glyph glyph-name="Oacute" unicode="&#xd3;" 
d="M21 72q-19 35 -26 74.5t-5 82.5q2 69 20.5 136.5t49.5 134.5q8 17 23 42.5t34.5 50.5t41 42.5t42.5 17.5q8 0 15 -4q2 -1 7 -1q7 0 13 3q18 7 37 7q15 0 32 -5q42 -13 67.5 -39t30.5 -72q2 -23 0 -47t-7 -53q-9 -45 -25.5 -93.5t-36.5 -98.5q-13 -34 -34 -77.5t-49 -81.5
t-63 -64.5t-77 -26.5q-33 0 -54.5 22.5t-35.5 49.5zM58 379q-14 -50 -21.5 -98.5t-3.5 -96.5q4 -43 18 -80t42 -67q8 -9 14 -14t14 -5q12 0 39 20q22 17 44.5 47.5t43 69.5t39 82.5t33.5 86t25.5 80t14.5 64.5q5 23 6 45.5t-2 45.5q-4 30 -20 52.5t-50 22.5q-16 0 -34 -7.5
t-31 -15.5q-11 -8 -22 -8q-5 0 -11 3q-2 1 -6 1q-7 0 -13 -6q-44 -42 -73.5 -103.5t-45.5 -118.5zM327 821q5 6 10 6q4 0 7 -4q5 -5 8 -11q6 -9 -1 -21q-4 -5 -7 -9t-6 -9q-14 -19 -26.5 -37.5t-26.5 -37.5q-3 -5 -5 -6t-7 -1q-11 3 -14.5 13.5t2.5 20.5q2 4 4 7t4 7
q14 20 29 41t29 41z" />
    </font>
</defs>
</svg>
