<svg id="donate_icon" xmlns="http://www.w3.org/2000/svg" viewBox="0 0 50 50">
 <g transform="matrix(.95144 0 0 .95144 -9.0149 -10.407)">
  <path fill="#fff" d="m35.751 63.49c-14.489 0-26.276-11.787-26.276-26.276s11.787-26.276 26.276-26.276 26.276 11.787 26.276 26.276-11.787 26.276-26.276 26.276zm0-50.606c-13.415 0-24.33 10.914-24.33 24.33 0 13.415 10.914 24.33 24.33 24.33 13.415 0 24.33-10.914 24.33-24.33 0-13.415-10.914-24.33-24.33-24.33z"/>
  <path fill="#fff" d="m35.751 60.57c-12.878 0-23.357-10.478-23.357-23.357 0-12.878 10.478-23.357 23.357-23.357 12.878 0 23.357 10.478 23.357 23.357 0 12.878-10.477 23.357-23.357 23.357zm0-44.767c-11.806 0-21.41 9.6044-21.41 21.41s9.6044 21.41 21.41 21.41 21.41-9.6044 21.41-21.41-9.6044-21.41-21.41-21.41z"/>
  <path fill="#fff" d="m35.762 52.42c-0.24914 0-0.49828-0.09539-0.68805-0.28515l-11.29-11.286c-3.4899-3.4889-3.4899-9.1684 0-12.66 1.6914-1.6963 3.9414-2.6305 6.3335-2.6305 2.0817 0 4.0534 0.70751 5.6455 2.0077 1.5921-1.3031 3.5677-2.0106 5.6533-2.0106 2.3863 0 4.6324 0.92842 6.3238 2.615 3.4675 3.4908 3.4821 9.1431 0.04574 12.631-0.01458 0.0175-0.02921 0.0331-0.04477 0.04866l-11.291 11.284c-0.18977 0.19074-0.43891 0.28515-0.68805 0.28515zm-5.644-24.916c-1.8714 0-3.631 0.73087-4.9565 2.0593-2.7318 2.7337-2.7318 7.1783-0.000972 9.909l10.602 10.6 10.532-10.527c0.037-0.04574 0.0769-0.0876 0.12068-0.12457 2.6734-2.7337 2.6558-7.1481-0.05255-9.874-1.3206-1.3167-3.0792-2.0437-4.9467-2.0437-1.8763 0-3.6378 0.73282-4.9613 2.0622-0.36689 0.36689-1.017 0.36689-1.3819 0-1.3226-1.3294-3.0831-2.0602-4.9545-2.0602z"/>
  <path fill="#fff" d="m35.761 42.688c-2.6831 0-4.866-2.1829-4.866-4.866s2.1829-4.866 4.866-4.866 4.866 2.1829 4.866 4.866-2.1829 4.866-4.866 4.866zm0-7.7855c-1.6097 0-2.9196 1.3099-2.9196 2.9196s1.3099 2.9196 2.9196 2.9196 2.9196-1.3099 2.9196-2.9196-1.3099-2.9196-2.9196-2.9196z"/>
  <path fill="#fff" d="m41.815 46.372c-0.35132 0-0.69194-0.19074-0.86517-0.52552-1.0092-1.9483-2.9984-3.158-5.1891-3.158-2.1897 0-4.1779 1.2097-5.1871 3.1561-0.24816 0.47783-0.83792 0.66177-1.3119 0.41653-0.47686-0.24719-0.66372-0.83403-0.41653-1.3119 1.3459-2.5955 3.9959-4.2071 6.9155-4.2071 2.9215 0 5.5715 1.6126 6.9165 4.2091 0.24719 0.47686 0.06129 1.0647-0.41652 1.3119-0.14209 0.07396-0.29488 0.109-0.44572 0.109z"/>
 </g>
</svg>
