<svg width="29" height="29" viewBox="0 0 29 29" fill="none" xmlns="http://www.w3.org/2000/svg">
<g id="facebook-light">
	<path class="path" fill="#fff" d="M14.4783 0C6.4926 0 0 6.48132 0 14.4531C0 22.4249 6.4926 28.9062 14.4783 28.9062C22.4639 28.9062 28.9565 22.4249 28.9565 14.4531C28.9565 6.48132 22.4639 0 14.4783 0Z"/>
	<path class="vector" fill="#65746E" d="M15.445 24.0884L15.445 15.298H18.4007L18.8432 11.8723H15.445V9.68503C15.445 8.69322 15.7209 8.01724 17.1458 8.01724L18.963 8.0164V4.95247C18.6485 4.91087 17.5699 4.81763 16.315 4.81763C13.695 4.81763 11.9012 6.41404 11.9012 9.34593V11.8724H8.93787V15.2981H11.9011L11.9011 24.0885L15.445 24.0884Z"/>
</g>
</svg>