<svg width="29" height="29" viewBox="0 0 29 29" fill="none" xmlns="http://www.w3.org/2000/svg">
<g id="instagram-dark">
	<path class="path" fill="#65746E" d="M15.4348 0C7.4428 0 0.956543 6.3 0.956543 14.0625C0.956543 21.825 7.4428 28.125 15.4348 28.125C23.4268 28.125 29.9131 21.825 29.9131 14.0625C29.9131 6.3 23.4268 0 15.4348 0Z"/>
	<path class="vector" fill="#fff" d="M12.4193 14.0625C12.4193 12.4445 13.7694 11.1326 15.4352 11.1326C17.1009 11.1326 18.4517 12.4445 18.4517 14.0625C18.4517 15.6805 17.1009 16.9924 15.4352 16.9924C13.7694 16.9924 12.4193 15.6805 12.4193 14.0625ZM10.7886 14.0625C10.7886 16.5551 12.8689 18.5756 15.4352 18.5756C18.0014 18.5756 20.0817 16.5551 20.0817 14.0625C20.0817 11.5699 18.0014 9.54942 15.4352 9.54942C12.8689 9.54942 10.7886 11.5699 10.7886 14.0625ZM19.1797 9.37048C19.1797 9.57907 19.2433 9.78301 19.3625 9.9565C19.4817 10.13 19.6513 10.2652 19.8497 10.3451C20.048 10.425 20.2664 10.446 20.477 10.4054C20.6877 10.3648 20.8812 10.2644 21.0331 10.117C21.185 9.96953 21.2885 9.78165 21.3305 9.57707C21.3725 9.3725 21.3511 9.16043 21.269 8.96768C21.1869 8.77493 21.0478 8.61015 20.8692 8.49419C20.6907 8.37823 20.4808 8.3163 20.266 8.31621H20.2656C19.9777 8.31634 19.7017 8.42744 19.4981 8.62512C19.2945 8.82279 19.18 9.09087 19.1797 9.37048ZM11.7794 21.2166C10.8972 21.1776 10.4176 21.0348 10.099 20.9142C9.6765 20.7545 9.37506 20.5642 9.05814 20.2568C8.74121 19.9494 8.54503 19.6569 8.38128 19.2466C8.25705 18.9372 8.1101 18.4713 8.06999 17.6144C8.02613 16.688 8.01737 16.4097 8.01737 14.0626C8.01737 11.7155 8.02685 11.4379 8.06999 10.5107C8.11017 9.65384 8.25821 9.18886 8.38128 8.87857C8.54575 8.46823 8.74164 8.17545 9.05814 7.86762C9.37463 7.55979 9.67578 7.36924 10.099 7.2102C10.4175 7.08954 10.8972 6.94681 11.7794 6.90785C12.7332 6.86524 13.0197 6.85673 15.4352 6.85673C17.8506 6.85673 18.1374 6.86595 19.092 6.90785C19.9742 6.94688 20.453 7.09066 20.7724 7.2102C21.1949 7.36924 21.4963 7.56021 21.8133 7.86762C22.1302 8.17502 22.3256 8.46823 22.4901 8.87857C22.6143 9.18795 22.7613 9.65384 22.8014 10.5107C22.8453 11.4379 22.854 11.7155 22.854 14.0626C22.854 16.4097 22.8453 16.6872 22.8014 17.6144C22.7612 18.4713 22.6135 18.9371 22.4901 19.2466C22.3256 19.6569 22.1298 19.9497 21.8133 20.2568C21.4968 20.5639 21.1949 20.7545 20.7724 20.9142C20.4539 21.0349 19.9742 21.1776 19.092 21.2166C18.1382 21.2592 17.8516 21.2677 15.4352 21.2677C13.0187 21.2677 12.7329 21.2592 11.7794 21.2166ZM11.7045 5.32666C10.7412 5.36927 10.0829 5.51763 9.50805 5.7349C8.9127 5.95927 8.40871 6.26027 7.90509 6.74866C7.40146 7.23706 7.09235 7.72734 6.86135 8.30559C6.63766 8.8643 6.48492 9.5033 6.44105 10.4389C6.39645 11.3761 6.38625 11.6757 6.38625 14.0625C6.38625 16.4493 6.39645 16.7489 6.44105 17.6861C6.48492 18.6218 6.63766 19.2607 6.86135 19.8194C7.09235 20.3973 7.40153 20.8882 7.90509 21.3763C8.40864 21.8645 8.9127 22.1651 9.50805 22.3901C10.084 22.6074 10.7412 22.7557 11.7045 22.7983C12.6698 22.8409 12.9778 22.8516 15.4352 22.8516C17.8925 22.8516 18.201 22.8417 19.1658 22.7983C20.1292 22.7557 20.787 22.6074 21.3623 22.3901C21.9572 22.1651 22.4616 21.8647 22.9652 21.3763C23.4688 20.8879 23.7773 20.3973 24.009 19.8194C24.2326 19.2607 24.3861 18.6217 24.4293 17.6861C24.4731 16.7482 24.4833 16.4493 24.4833 14.0625C24.4833 11.6757 24.4731 11.3761 24.4293 10.4389C24.3854 9.50323 24.2326 8.86395 24.009 8.30559C23.7773 7.7277 23.4681 7.23783 22.9652 6.74866C22.4624 6.2595 21.9572 5.95927 21.363 5.7349C20.787 5.51763 20.1291 5.36857 19.1666 5.32666C18.2017 5.28405 17.8933 5.27344 15.4359 5.27344C12.9785 5.27344 12.6698 5.28335 11.7045 5.32666Z"/>
</g>
</svg>
