<svg width="29" height="29" viewBox="0 0 29 29" fill="none" xmlns="http://www.w3.org/2000/svg">
<g id="vkontakte-light">
	<path class="path" fill="#fff" d="M15 0C7.22401 0 0.913055 6.3 0.913055 14.0625C0.913055 21.825 7.22401 28.125 15 28.125C22.776 28.125 29.087 21.825 29.087 14.0625C29.087 6.3 22.776 0 15 0Z"/>
	<path class="vector" fill="#65746E" fill-rule="evenodd" clip-rule="evenodd" d="M23.9604 9.68831C24.091 9.25374 23.9604 8.93433 23.3389 8.93433H21.2841C20.7616 8.93433 20.5209 9.21022 20.3902 9.51454C20.3902 9.51454 19.3452 12.0571 17.8649 13.7086C17.3859 14.1867 17.1683 14.3387 16.907 14.3387C16.7764 14.3387 16.5873 14.1867 16.5873 13.7522V9.68831C16.5873 9.16671 16.4357 8.93433 16.0002 8.93433H12.7712C12.4448 8.93433 12.2484 9.17638 12.2484 9.40582C12.2484 9.90032 12.9885 10.0143 13.0648 11.4051V14.4258C13.0648 15.0881 12.945 15.2083 12.6838 15.2083C11.9872 15.2083 10.2928 12.6541 9.28771 9.73183C9.09074 9.16377 8.89318 8.93433 8.36803 8.93433H6.3132C5.72611 8.93433 5.60869 9.21022 5.60869 9.51454C5.60869 10.0578 6.30542 12.7526 8.85238 16.3165C10.5505 18.7502 12.9427 20.0697 15.1196 20.0697C16.4259 20.0697 16.5873 19.7767 16.5873 19.2719V17.4324C16.5873 16.8463 16.7111 16.7294 17.1245 16.7294C17.4295 16.7294 17.9519 16.8815 19.1711 18.055C20.5643 19.4456 20.7939 20.0697 21.5776 20.0697H23.6325C24.2196 20.0697 24.5131 19.7767 24.3437 19.1984C24.1585 18.622 23.4933 17.786 22.6106 16.7946C22.1317 16.2295 21.4132 15.621 21.1957 15.3168C20.8909 14.9256 20.9779 14.7518 21.1957 14.4043C21.1957 14.4043 23.6991 10.8838 23.9604 9.68846V9.68831Z"/>
</g>
</svg>
