<svg width="29" height="29" viewBox="0 0 29 29" fill="none" xmlns="http://www.w3.org/2000/svg">
<g id="youtube-dark">
	<path class="path" fill="#65746E" d="M14.5217 0C6.52973 0 0.0434723 6.475 0.0434723 14.4531C0.0434723 22.4312 6.52973 28.9062 14.5217 28.9062C22.5137 28.9062 29 22.4312 29 14.4531C29 6.475 22.5137 0 14.5217 0Z"/>
	<path class="vector" fill="#fff" fill-rule="evenodd" clip-rule="evenodd" d="M22.2735 14.5553C22.0871 13.8639 21.541 13.3187 20.8484 13.1326C19.583 12.7869 14.5217 12.7869 14.5217 12.7869C14.5217 12.7869 9.46038 12.7869 8.19505 13.1193C7.51577 13.3054 6.95636 13.8639 6.76989 14.5553C6.4369 15.8184 6.4369 18.4377 6.4369 18.4377C6.4369 18.4377 6.4369 21.0704 6.76989 22.3202C6.95636 23.0116 7.50245 23.5568 8.19505 23.7429C9.4737 24.0886 14.5217 24.0886 14.5217 24.0886C14.5217 24.0886 19.583 24.0886 20.8484 23.7562C21.541 23.5701 22.0871 23.0249 22.2735 22.3335C22.6065 21.0704 22.6065 18.451 22.6065 18.451C22.6065 18.451 22.6198 15.8184 22.2735 14.5553ZM18.9718 19.7168V19.9518C18.9718 20.2476 18.9805 20.4739 18.998 20.6218C19.0154 20.7697 19.0503 20.8829 19.1113 20.9438C19.1636 21.0134 19.2508 21.0482 19.3728 21.0482C19.5297 21.0482 19.6343 20.9873 19.6953 20.8655C19.7563 20.7436 19.7825 20.5435 19.7912 20.2563L20.6891 20.3085C20.6978 20.352 20.6978 20.4043 20.6978 20.4739C20.6978 20.9003 20.5845 21.2222 20.3491 21.4311C20.1137 21.6399 19.7825 21.7443 19.3554 21.7443C18.8411 21.7443 18.4837 21.579 18.2744 21.257C18.0652 20.9351 17.9606 20.4391 17.9606 19.7603V18.951C17.9606 18.2549 18.0652 17.7502 18.2832 17.4282C18.5011 17.1062 18.8672 16.9496 19.3815 16.9496C19.7389 16.9496 20.0178 17.0192 20.2096 17.1498C20.4014 17.2803 20.5322 17.4891 20.6106 17.7589C20.6891 18.0373 20.7239 18.4202 20.7239 18.9075V19.6994H18.9718V19.7168ZM19.1026 17.7676C19.0503 17.8372 19.0154 17.9416 18.998 18.0896C18.9805 18.2375 18.9718 18.4637 18.9718 18.7683V19.099H19.7389V18.7683C19.7389 18.4724 19.7302 18.2462 19.7128 18.0896C19.6953 17.9329 19.6517 17.8285 19.5994 17.7676C19.5471 17.7067 19.46 17.6719 19.3554 17.6719C19.2333 17.6632 19.1549 17.698 19.1026 17.7676ZM13.9334 21.6922V17.0541H12.8873V20.735C12.8524 20.822 12.7914 20.8916 12.7042 20.9438C12.6171 21.0047 12.5299 21.0309 12.4427 21.0309C12.3381 21.0309 12.2597 20.9873 12.2161 20.9003C12.1725 20.8133 12.1464 20.6654 12.1464 20.4565V17.0541H11.1003V20.5174C11.1003 20.9525 11.1701 21.2658 11.3182 21.4659C11.4664 21.6661 11.6931 21.7705 11.9982 21.7705C12.4427 21.7705 12.7827 21.553 13.0006 21.1266H13.0268L13.114 21.6922H13.9334ZM11.4141 16.1839H10.3768L10.3768 21.6835H9.35691L9.35691 16.1839H8.31959V15.3399H11.4141V16.1839ZM17.0889 17.1585C17.2284 17.289 17.333 17.4979 17.394 17.7937C17.455 18.0809 17.4812 18.4899 17.4899 19.0207V19.7516C17.4899 20.4391 17.4027 20.9525 17.2371 21.2745C17.0715 21.5964 16.8187 21.7618 16.4613 21.7618C16.2608 21.7618 16.0865 21.7096 15.9208 21.6225C15.7552 21.5268 15.6332 21.405 15.5547 21.2484H15.5286L15.424 21.6835H14.561L14.561 15.1048H15.5722V17.5501H15.5809C15.668 17.376 15.7988 17.2281 15.9644 17.1237C16.13 17.0106 16.3131 16.9583 16.5049 16.9583C16.749 16.9583 16.9494 17.028 17.0889 17.1585ZM16.3916 20.4739C16.4177 20.2825 16.4351 20.0214 16.4351 19.682H16.4439V19.0729C16.4439 18.7161 16.4351 18.4377 16.409 18.2375C16.3828 18.0461 16.348 17.9068 16.287 17.8198C16.2347 17.7415 16.1475 17.698 16.0429 17.698C15.947 17.698 15.8511 17.7415 15.7639 17.8198C15.6768 17.9068 15.6157 18.0113 15.5809 18.1331L15.5809 20.7611C15.6245 20.8394 15.6855 20.9003 15.7552 20.9438C15.825 20.9873 15.9034 21.0047 15.9906 21.0047C16.0952 21.0047 16.1824 20.9612 16.2521 20.8829C16.3131 20.8046 16.3654 20.6653 16.3916 20.4739Z"/>
	<path class="vector" fill="#fff" d="M13.5411 11.0308C13.3319 10.8916 13.1837 10.6741 13.0966 10.3695C13.0094 10.0736 12.9658 9.67334 12.9658 9.18604V8.51599C12.9658 8.01999 13.0181 7.6197 13.114 7.31513C13.2186 7.01057 13.3755 6.79302 13.5847 6.65379C13.8026 6.51456 14.0816 6.44495 14.4303 6.44495C14.7702 6.44495 15.0492 6.51456 15.2584 6.65379C15.4676 6.79302 15.6158 7.01927 15.7117 7.31513C15.8075 7.611 15.8598 8.01128 15.8598 8.51599V9.18604C15.8598 9.68204 15.8163 10.0736 15.7204 10.3782C15.6245 10.6741 15.4763 10.9003 15.2671 11.0395C15.0579 11.1788 14.7702 11.2484 14.4128 11.2484C14.0467 11.2397 13.7503 11.1701 13.5411 11.0308ZM14.7179 10.2999C14.7789 10.1519 14.8051 9.89959 14.8051 9.56022V8.11571C14.8051 7.78503 14.7789 7.54138 14.7179 7.38475C14.6569 7.22811 14.561 7.1585 14.4128 7.1585C14.2733 7.1585 14.1687 7.23682 14.1164 7.38475C14.0554 7.54138 14.0293 7.78503 14.0293 8.11571V9.56022C14.0293 9.89959 14.0554 10.1519 14.1164 10.2999C14.1687 10.4478 14.2733 10.5261 14.4215 10.5261C14.561 10.5261 14.6569 10.4565 14.7179 10.2999Z"/>
	<path class="vector" fill="#fff" d="M10.9957 9.10777L9.81021 4.81775H10.8475L11.266 6.75827C11.3706 7.23687 11.449 7.64586 11.5013 7.98523H11.5275C11.5623 7.74158 11.6408 7.34129 11.7628 6.76697L12.1987 4.81775H13.236L12.033 9.10777L12.033 11.1614H11.0044L11.0044 9.10777H10.9957Z"/>
	<path class="vector" fill="#fff" d="M19.2333 6.53198V11.1701H18.4139L18.3268 10.6045H18.3006C18.0827 11.0309 17.7427 11.2484 17.2982 11.2484C16.9931 11.2484 16.7664 11.144 16.6182 10.9438C16.47 10.7437 16.4003 10.4304 16.4003 9.99533V6.53198H17.4463V9.93442C17.4463 10.1433 17.4725 10.2912 17.5161 10.3782C17.5597 10.4652 17.6381 10.5087 17.7427 10.5087C17.8299 10.5087 17.9171 10.4826 18.0042 10.4217C18.0914 10.3695 18.1524 10.2999 18.1873 10.2129V6.53198L19.2333 6.53198Z"/>
</g>
</svg>