<svg width="1920" height="5544" viewBox="0 0 1920 5544" fill="none" xmlns="http://www.w3.org/2000/svg">
<g opacity="0.4">
<g clip-path="url(#clip0)">
<path d="M22.322 2L223.628 184.468L256.156 417.315L464.213 485.51L555.66 578.28L705.412 555.548L879.1 573.365L1105.57 600.397L1244.89 704.226L1349.22 744.16L1435.15 838.158" stroke="#B6B4BA" stroke-width="0.998823" stroke-linecap="round" stroke-linejoin="round"/>
<path d="M212.581 4.4574L223.628 184.468L80.0134 342.361L140.16 503.941L238.972 456.02L464.213 485.51L539.703 410.556L705.412 555.548L682.704 278.467" stroke="#B6B4BA" stroke-width="0.998823" stroke-linecap="round" stroke-linejoin="round"/>
<path d="M682.704 277.852L774.765 103.371L906.718 110.129L1022.1 182.011L1193.33 205.971L1249.8 115.044L1408.14 2" stroke="#B6B4BA" stroke-width="0.998823" stroke-linecap="round" stroke-linejoin="round"/>
<path d="M1375.61 2L1407.53 2.61437L1419.8 107.672L1429.62 198.599" stroke="#B6B4BA" stroke-width="0.998823" stroke-linecap="round" stroke-linejoin="round"/>
<path d="M1407.53 2.61438L1391.57 142.077L1247.34 116.273L1019.65 180.782L1007.99 237.918L1193.33 205.971L1286.01 226.86L1389.12 144.534L1419.8 107.672" stroke="#B6B4BA" stroke-width="0.998823" stroke-linecap="round" stroke-linejoin="round"/>
<path d="M1390.96 142.077L1384.21 317.172L1286.01 226.86L1249.18 116.273L1267.6 2" stroke="#B6B4BA" stroke-width="0.998823" stroke-linecap="round" stroke-linejoin="round"/>
<path d="M1057.08 2L1249.18 116.273" stroke="#B6B4BA" stroke-width="0.998823" stroke-linecap="round" stroke-linejoin="round"/>
<path d="M977.912 2L1019.65 180.782" stroke="#B6B4BA" stroke-width="0.998823" stroke-linecap="round" stroke-linejoin="round"/>
<path d="M942.929 2L906.719 110.129L1007.99 237.918L1046.04 411.785L1315.47 402.57L1429.62 474.451" stroke="#B6B4BA" stroke-width="0.998823" stroke-linecap="round" stroke-linejoin="round"/>
<path d="M1429.62 416.7L1386.66 320.244L1417.96 109.515" stroke="#B6B4BA" stroke-width="0.998823" stroke-linecap="round" stroke-linejoin="round"/>
<path d="M1386.66 320.244L1303.81 303.042L1193.33 205.971" stroke="#B6B4BA" stroke-width="0.998823" stroke-linecap="round" stroke-linejoin="round"/>
<path d="M1286.01 226.86L1303.81 303.042L1315.47 403.184L1384.82 322.087" stroke="#B6B4BA" stroke-width="0.998823" stroke-linecap="round" stroke-linejoin="round"/>
<path d="M1303.81 303.042L1046.04 411.171L1193.33 205.971" stroke="#B6B4BA" stroke-width="0.998823" stroke-linecap="round" stroke-linejoin="round"/>
<path d="M1007.99 237.918L682.704 277.852L906.719 110.129" stroke="#B6B4BA" stroke-width="0.998823" stroke-linecap="round" stroke-linejoin="round"/>
<path fill-rule="evenodd" clip-rule="evenodd" d="M879.1 573.365L682.704 278.467L1046.04 411.785L879.1 573.365Z" stroke="#B6B4BA" stroke-width="0.998823" stroke-linecap="round" stroke-linejoin="round"/>
<path d="M1046.04 411.785L1105.57 600.397L1315.47 403.184L1244.89 704.226L1167.56 768.735L1095.75 777.95L1105.57 600.397L1167.56 768.735L1191.49 914.955L1266.37 1055.03L1429.62 991.751" stroke="#B6B4BA" stroke-width="0.998823" stroke-linecap="round" stroke-linejoin="round"/>
<path d="M1429.62 951.203L1278.03 840.616L1166.94 768.735" stroke="#B6B4BA" stroke-width="0.998823" stroke-linecap="round" stroke-linejoin="round"/>
<path d="M1429.62 528.516L1244.89 703.611L1276.8 838.773L1191.49 914.955" stroke="#B6B4BA" stroke-width="0.998823" stroke-linecap="round" stroke-linejoin="round"/>
<path d="M1429.62 572.75L1349.22 744.16L1276.19 839.387L1423.49 873.177" stroke="#B6B4BA" stroke-width="0.998823" stroke-linecap="round" stroke-linejoin="round"/>
<path d="M1276.19 839.387L1266.37 1055.03L1297.67 1096.81L1425.94 1102.34L1429.62 1142.89" stroke="#B6B4BA" stroke-width="0.998823" stroke-linecap="round" stroke-linejoin="round"/>
<path d="M1429.62 1003.42L1297.67 1096.81L1246.73 1137.36L1266.37 1055.03L1189.04 1048.27L1191.49 914.955L1093.91 937.072L1095.75 777.95L1191.49 914.955" stroke="#B6B4BA" stroke-width="0.998823" stroke-linecap="round" stroke-linejoin="round"/>
<path d="M1428.4 1093.74L1363.95 1325.35L1316.08 1351.77L1259 1192.04L983.436 1241.19L1001.23 1091.28L1189.04 1048.27L1246.73 1137.36L1259 1192.04" stroke="#B6B4BA" stroke-width="0.998823" stroke-linecap="round" stroke-linejoin="round"/>
<path d="M1246.73 1137.36L1001.23 1091.28L929.427 1048.27L752.67 1102.95L983.436 1241.19L929.427 1048.27L936.792 1009.57L1001.23 1091.28L1093.91 937.072L1189.04 1048.27" stroke="#B6B4BA" stroke-width="0.998823" stroke-linecap="round" stroke-linejoin="round"/>
<path d="M1297.67 1096.81L1259 1191.42L1425.94 1102.34L1328.97 1313.68L1316.08 1351.77" stroke="#B6B4BA" stroke-width="0.998823" stroke-linecap="round" stroke-linejoin="round"/>
<path d="M1328.97 1313.68L1259 1192.04L1185.97 1466.66L1316.08 1351.77L1346.15 1384.95L1185.97 1466.66L1109.87 1473.42" stroke="#B6B4BA" stroke-width="0.998823" stroke-linecap="round" stroke-linejoin="round"/>
<path d="M1429.62 1472.19L1346.15 1384.95" stroke="#B6B4BA" stroke-width="0.998823" stroke-linecap="round" stroke-linejoin="round"/>
<path d="M1363.95 1325.35L1429.62 1440.24" stroke="#B6B4BA" stroke-width="0.998823" stroke-linecap="round" stroke-linejoin="round"/>
<path d="M1230.16 1474.03L1185.97 1466.66L984.05 1240.57L1246.73 1137.36" stroke="#B6B4BA" stroke-width="0.998823" stroke-linecap="round" stroke-linejoin="round"/>
<path d="M862.529 1474.03L984.05 1240.57L841.662 1325.97L842.89 1474.03" stroke="#B6B4BA" stroke-width="0.998823" stroke-linecap="round" stroke-linejoin="round"/>
<path d="M792.563 1474.03L589.416 1340.1L841.662 1325.97L719.528 1237.5L752.67 1102.95L841.662 1325.97" stroke="#B6B4BA" stroke-width="0.998823" stroke-linecap="round" stroke-linejoin="round"/>
<path d="M404.681 1474.03L589.416 1340.1L719.528 1237.5L541.544 1307.54L589.416 1340.1" stroke="#B6B4BA" stroke-width="0.998823" stroke-linecap="round" stroke-linejoin="round"/>
<path d="M386.882 1474.03L541.544 1307.54L588.802 1104.18L719.528 1237.5" stroke="#B6B4BA" stroke-width="0.998823" stroke-linecap="round" stroke-linejoin="round"/>
<path d="M752.67 1102.95L588.802 1104.18L454.394 1129.37L541.544 1307.54" stroke="#B6B4BA" stroke-width="0.998823" stroke-linecap="round" stroke-linejoin="round"/>
<path d="M360.491 1474.03L455.006 1128.76L0.840271 1353.62L269.044 1474.03" stroke="#B6B4BA" stroke-width="0.998823" stroke-linecap="round" stroke-linejoin="round"/>
<path d="M-1 1356.69L0.841214 1353.62L43.8029 1008.34L455.007 1128.76L409.591 1022.47L588.802 1104.18L696.206 841.845L936.792 1009.57L752.67 1102.95L763.104 890.38L911.628 813.584L936.792 1009.57L1093.91 937.072L911.628 813.584L1033.15 781.636L1093.91 937.072" stroke="#B6B4BA" stroke-width="0.998823" stroke-linecap="round" stroke-linejoin="round"/>
<path d="M588.802 1104.18L427.389 955.503L410.204 923.556L414.501 803.139L696.206 841.845L410.204 923.556" stroke="#B6B4BA" stroke-width="0.998823" stroke-linecap="round" stroke-linejoin="round"/>
<path d="M428.003 956.118L696.206 841.845L911.628 813.584L879.1 573.365L1033.15 781.636L1105.57 600.397" stroke="#B6B4BA" stroke-width="0.998823" stroke-linecap="round" stroke-linejoin="round"/>
<path d="M879.1 573.365L632.378 733.715L911.628 813.584" stroke="#B6B4BA" stroke-width="0.998823" stroke-linecap="round" stroke-linejoin="round"/>
<path d="M696.206 841.845L632.378 733.715L705.412 555.548" stroke="#B6B4BA" stroke-width="0.998823" stroke-linecap="round" stroke-linejoin="round"/>
<path fill-rule="evenodd" clip-rule="evenodd" d="M413.887 803.139L632.378 733.715L555.66 578.28L413.887 803.139Z" stroke="#B6B4BA" stroke-width="0.998823" stroke-linecap="round" stroke-linejoin="round"/>
<path d="M555.66 578.28L378.29 601.626L413.887 803.139L285.616 873.792L410.205 923.556V1021.86L427.389 955.503" stroke="#B6B4BA" stroke-width="0.998823" stroke-linecap="round" stroke-linejoin="round"/>
<path d="M283.161 817.884L334.101 710.984L413.887 803.139L283.161 817.884ZM283.161 817.884L206.443 807.44L132.181 648.318L274.568 687.638L334.101 710.984L378.29 601.626L274.568 687.638L283.161 817.884ZM283.161 817.884L285.616 873.792L43.8029 1008.34L409.591 1022.47L285.616 873.792L206.443 807.44L43.8029 1008.34L53.6227 818.499L206.443 807.44L83.6958 677.193L132.181 648.318L140.16 503.941L274.568 687.638L238.972 456.02L378.29 601.626L502.879 524.215L537.248 412.4L555.66 578.28" stroke="#B6B4BA" stroke-width="0.998823" stroke-linecap="round" stroke-linejoin="round"/>
<path d="M-1 930.928L44.4166 1008.34L-1 1050.73" stroke="#B6B4BA" stroke-width="0.998823" stroke-linecap="round" stroke-linejoin="round"/>
<path d="M-1 1351.77L0.841214 1353.62M43.8029 1006.5L-1 1226.44L43.8029 1006.5Z" stroke="#B6B4BA" stroke-width="0.998823" stroke-linecap="round" stroke-linejoin="round"/>
<path d="M-1 803.139L53.6227 818.499L83.6958 677.193L-1 722.657" stroke="#B6B4BA" stroke-width="0.998823" stroke-linecap="round" stroke-linejoin="round"/>
<path d="M-1 637.874L5.75112 628.044L83.6958 677.193" stroke="#B6B4BA" stroke-width="0.998823" stroke-linecap="round" stroke-linejoin="round"/>
<path d="M-1 628.044H5.75112L132.181 648.318" stroke="#B6B4BA" stroke-width="0.998823" stroke-linecap="round" stroke-linejoin="round"/>
<path d="M-1 620.671L5.75112 628.044L-1 613.913" stroke="#B6B4BA" stroke-width="0.998823" stroke-linecap="round" stroke-linejoin="round"/>
<path d="M5.75112 628.044L140.16 503.941L-1 476.294" stroke="#B6B4BA" stroke-width="0.998823" stroke-linecap="round" stroke-linejoin="round"/>
<path d="M-1 360.792L80.6272 344.204L238.972 456.02L256.156 417.315L80.6272 344.204L0.841214 312.257L-1 315.329M140.16 503.941L-1 396.426L140.16 503.941Z" stroke="#B6B4BA" stroke-width="0.998823" stroke-linecap="round" stroke-linejoin="round"/>
<path d="M-1 307.957L0.841214 312.257L223.628 184.468" stroke="#B6B4BA" stroke-width="0.998823" stroke-linecap="round" stroke-linejoin="round"/>
<path d="M0.841214 312.257L27.8457 11.2157L-1 32.1043" stroke="#B6B4BA" stroke-width="0.998823" stroke-linecap="round" stroke-linejoin="round"/>
<path d="M27.8457 11.2156L78.786 2" stroke="#B6B4BA" stroke-width="0.998823" stroke-linecap="round" stroke-linejoin="round"/>
<path d="M224.242 4.4574L261.066 49.9208L223.628 184.468L356.809 164.194L261.066 49.9208L450.711 7.52925L356.809 164.194" stroke="#B6B4BA" stroke-width="0.998823" stroke-linecap="round" stroke-linejoin="round"/>
<path d="M261.066 49.9208L346.989 4.4574" stroke="#B6B4BA" stroke-width="0.998823" stroke-linecap="round" stroke-linejoin="round"/>
<path d="M450.711 7.5293L503.493 280.31L356.809 164.194L256.156 417.315L503.493 280.31L464.213 485.51" stroke="#B6B4BA" stroke-width="0.998823" stroke-linecap="round" stroke-linejoin="round"/>
<path fill-rule="evenodd" clip-rule="evenodd" d="M569.163 340.518L539.703 410.556L613.965 358.335L569.163 340.518Z" stroke="#B6B4BA" stroke-width="0.998823" stroke-linecap="round" stroke-linejoin="round"/>
<path d="M539.703 410.556L503.493 280.31L569.163 340.518L682.704 278.467L503.493 280.31" stroke="#B6B4BA" stroke-width="0.998823" stroke-linecap="round" stroke-linejoin="round"/>
<path d="M681.477 279.081L613.966 358.335L705.412 555.548" stroke="#B6B4BA" stroke-width="0.998823" stroke-linecap="round" stroke-linejoin="round"/>
<path d="M503.493 280.31L653.245 149.449L774.765 103.371L738.554 2" stroke="#B6B4BA" stroke-width="0.998823" stroke-linecap="round" stroke-linejoin="round"/>
<path d="M748.374 2L906.719 110.129" stroke="#B6B4BA" stroke-width="0.998823" stroke-linecap="round" stroke-linejoin="round"/>
<path d="M729.962 2.61437L653.245 149.449L609.056 10.6012L669.202 2" stroke="#B6B4BA" stroke-width="0.998823" stroke-linecap="round" stroke-linejoin="round"/>
<path d="M593.098 2L609.056 10.6012L450.711 7.52934L653.245 149.449L682.704 278.467" stroke="#B6B4BA" stroke-width="0.998823" stroke-linecap="round" stroke-linejoin="round"/>
<path fill-rule="evenodd" clip-rule="evenodd" d="M1727.29 440.661C1800.93 440.661 1860.47 500.255 1860.47 573.979C1860.47 647.089 1800.93 706.683 1727.29 706.683C1654.25 706.683 1594.72 647.089 1594.72 573.979C1594.72 500.255 1654.25 440.661 1727.29 440.661Z" stroke="#B6B4BA" stroke-width="0.998823" stroke-linecap="round" stroke-linejoin="round"/>
<path fill-rule="evenodd" clip-rule="evenodd" d="M454.394 839.387C614.579 839.387 744.078 969.019 744.078 1129.37C744.078 1289.11 614.579 1419.35 454.394 1419.35C294.208 1419.35 164.709 1289.11 164.709 1129.37C164.709 969.019 294.208 839.387 454.394 839.387Z" stroke="#B6B4BA" stroke-width="0.998823" stroke-linecap="round" stroke-linejoin="round"/>
<path fill-rule="evenodd" clip-rule="evenodd" d="M401.612 737.402C576.528 737.402 717.687 879.321 717.687 1054.42C717.687 1228.9 576.528 1370.82 401.612 1370.82C226.697 1370.82 84.9233 1228.9 84.9233 1054.42C84.9233 879.321 226.697 737.402 401.612 737.402Z" stroke="#557E83" stroke-width="0.499412" stroke-linecap="round" stroke-linejoin="round"/>
<path fill-rule="evenodd" clip-rule="evenodd" d="M173.915 1023.7C290.526 1023.7 385.041 1118.31 385.041 1235.04C385.041 1351.77 290.526 1446.39 173.915 1446.39C100.881 1446.39 37.0518 1409.52 -1 1353.62V1116.47C37.0518 1060.56 100.881 1023.7 173.915 1023.7Z" stroke="#557E83" stroke-width="0.499412" stroke-linecap="round" stroke-linejoin="round"/>
<path d="M1870.29 2L1920 29.0323L1899.75 2M1726.06 2L1764.11 84.3257L1551.14 2L1540.1 209.657L1607.61 131.632L1734.04 226.86L1788.05 265.565L1886.24 190.612L1764.11 84.3257L1920 33.9473L1726.06 2ZM1920 142.691L1886.24 190.612L1611.9 132.247L1419.8 107.672L1479.95 2L1920 142.691Z" stroke="#B6B4BA" stroke-width="0.998823" stroke-linecap="round" stroke-linejoin="round"/>
<path d="M1606.38 131.632L1764.11 84.3257" stroke="#B6B4BA" stroke-width="0.998823" stroke-linecap="round" stroke-linejoin="round"/>
<path d="M1734.04 226.86L1540.1 209.657L1419.8 107.672" stroke="#B6B4BA" stroke-width="0.998823" stroke-linecap="round" stroke-linejoin="round"/>
<path fill-rule="evenodd" clip-rule="evenodd" d="M1429.62 198.599L1386.66 320.244L1494.07 253.278L1600.24 417.929L1540.1 209.043L1496.52 256.349L1429.62 198.599Z" stroke="#B6B4BA" stroke-width="0.998823" stroke-linecap="round" stroke-linejoin="round"/>
<path d="M1920 459.092L1811.37 361.407L1920 308.571M1386.66 320.244L1600.24 417.929L1429.62 416.7V474.451L1426.55 530.973L1600.24 417.929L1623.56 496.568L1426.55 530.973L1429.62 572.75L1623.56 496.568L1383.59 671.05L1730.97 591.181L1623.56 496.568L1600.24 417.929L1709.49 473.222L1734.04 226.86L1840.83 483.667L1788.05 265.565L1920 321.473L1386.66 320.244Z" stroke="#B6B4BA" stroke-width="0.998823" stroke-linecap="round" stroke-linejoin="round"/>
<path d="M1920 644.017L1748.77 704.226L1730.97 591.181L1920 632.344M1920 461.549L1840.21 481.209L1730.97 591.181L1709.49 473.222L1920 617.599V461.549Z" stroke="#B6B4BA" stroke-width="0.998823" stroke-linecap="round" stroke-linejoin="round"/>
<path d="M1920 652.618L1818.12 750.303L1694.14 673.507L1730.97 591.181" stroke="#B6B4BA" stroke-width="0.998823" stroke-linecap="round" stroke-linejoin="round"/>
<path d="M1920 726.343L1818.12 750.303L1762.27 806.825L1560.96 758.905M1694.14 673.507L1560.96 758.905L1383.59 671.05L1435.15 838.158L1560.96 758.905L1586.13 921.098L1429.62 951.203L1424.1 873.178L1435.15 838.158L1586.13 921.098L1762.27 806.825L1920 871.949L1694.14 673.507Z" stroke="#B6B4BA" stroke-width="0.998823" stroke-linecap="round" stroke-linejoin="round"/>
<path d="M1748.77 704.226L1762.27 806.825L1745.7 956.118L1586.13 921.098L1429.62 991.751V951.203L1584.29 1005.88L1586.13 921.098" stroke="#B6B4BA" stroke-width="0.998823" stroke-linecap="round" stroke-linejoin="round"/>
<path d="M1429.62 991.751V1003.42L1425.94 1102.34L1584.29 1005.88L1429.62 1142.89L1637.68 1216L1584.29 1005.88L1745.7 956.118L1826.71 833.243L1920 1041.52" stroke="#B6B4BA" stroke-width="0.998823" stroke-linecap="round" stroke-linejoin="round"/>
<path d="M1745.7 956.118L1920 890.38" stroke="#B6B4BA" stroke-width="0.998823" stroke-linecap="round" stroke-linejoin="round"/>
<path d="M1920 1115.24L1859.85 1184.05L1862.31 912.497L1637.68 1216L1778.23 1227.06L1775.16 1029.84L1859.85 1184.05L1779.45 1362.22L1778.23 1227.06L1560.96 1272.52L1637.68 1216L1685.55 997.895M1651.18 985.607L1920 1082.06L1651.18 985.607Z" stroke="#B6B4BA" stroke-width="0.998823" stroke-linecap="round" stroke-linejoin="round"/>
<path d="M1594.72 1201.25L1560.96 1272.52L1363.95 1325.35L1429.62 1142.89L1560.96 1272.52L1429.62 1440.24V1472.19L1551.76 1479.56" stroke="#B6B4BA" stroke-width="0.998823" stroke-linecap="round" stroke-linejoin="round"/>
<path d="M1560.96 1272.52L1779.45 1362.22" stroke="#B6B4BA" stroke-width="0.998823" stroke-linecap="round" stroke-linejoin="round"/>
<path d="M1779.45 1362.22L1635.23 1257.16L1637.68 1216" stroke="#B6B4BA" stroke-width="0.998823" stroke-linecap="round" stroke-linejoin="round"/>
<path d="M1920 1405.22L1817.51 1479.56L1779.45 1362.22L1692.3 1479.56L1670.21 1317.37L1429.62 1440.24L1550.53 1479.56M1859.85 1184.05L1920 1227.67L1859.85 1184.05ZM1920 1243.64L1779.45 1362.22L1920 1390.48V1243.64Z" stroke="#B6B4BA" stroke-width="0.998823" stroke-linecap="round" stroke-linejoin="round"/>
<path d="M1609.45 1348.09L1681.26 1398.46L1434.53 1441.47" stroke="#B6B4BA" stroke-width="0.998823" stroke-linecap="round" stroke-linejoin="round"/>
<path fill-rule="evenodd" clip-rule="evenodd" d="M1778.84 1161.93C1851.88 1161.93 1911.41 1221.53 1911.41 1294.64C1911.41 1368.36 1851.88 1427.95 1778.84 1427.95C1705.19 1427.95 1646.27 1368.36 1646.27 1294.64C1646.27 1221.53 1705.19 1161.93 1778.84 1161.93Z" stroke="#B6B4BA" stroke-width="0.998823" stroke-linecap="round" stroke-linejoin="round"/>
<path fill-rule="evenodd" clip-rule="evenodd" d="M1668.37 1110.32C1718.08 1110.32 1757.97 1150.26 1757.97 1200.64C1757.97 1250.4 1718.08 1290.34 1668.37 1290.34C1618.65 1290.34 1578.15 1250.4 1578.15 1200.64C1578.15 1150.26 1618.65 1110.32 1668.37 1110.32Z" stroke="#B6B4BA" stroke-width="0.998823" stroke-linecap="round" stroke-linejoin="round"/>
<path fill-rule="evenodd" clip-rule="evenodd" d="M1567.1 1056.26C1600.86 1056.26 1628.47 1083.91 1628.47 1117.08C1628.47 1150.87 1600.86 1178.52 1567.1 1178.52C1533.35 1178.52 1506.34 1150.87 1506.34 1117.08C1506.34 1083.91 1533.35 1056.26 1567.1 1056.26Z" stroke="#B6B4BA" stroke-width="0.998823" stroke-linecap="round" stroke-linejoin="round"/>
<path fill-rule="evenodd" clip-rule="evenodd" d="M1513.71 263.107C1630.32 263.107 1724.83 357.72 1724.83 474.451C1724.83 591.181 1630.32 685.794 1513.71 685.794C1396.48 685.794 1301.97 591.181 1301.97 474.451C1301.97 357.72 1396.48 263.107 1513.71 263.107Z" stroke="#557E83" stroke-width="0.499412" stroke-linecap="round" stroke-linejoin="round"/>
<path d="M1230.16 1474.03L1429.62 1472.8" stroke="#B6B4BA" stroke-width="0.998823" stroke-linecap="round" stroke-linejoin="round"/>
<path fill-rule="evenodd" clip-rule="evenodd" d="M1716.96 1494.39C1813.27 1494.39 1894.85 1558.61 1920 1646.68V1762.89C1894.85 1850.96 1813.27 1915.18 1716.96 1915.18C1600.41 1915.18 1505.94 1820.99 1505.94 1704.79C1505.94 1588.58 1600.41 1494.39 1716.96 1494.39Z" stroke="#557E83" stroke-width="0.499412" stroke-linecap="round" stroke-linejoin="round"/>
<path fill-rule="evenodd" clip-rule="evenodd" d="M1716.96 1561.06C1796.7 1561.06 1861.11 1625.28 1861.11 1704.79C1861.11 1784.3 1796.7 1848.52 1716.96 1848.52C1637.83 1848.52 1572.81 1784.3 1572.81 1704.79C1572.81 1625.28 1637.83 1561.06 1716.96 1561.06Z" stroke="#557E83" stroke-width="0.499412" stroke-linecap="round" stroke-linejoin="round"/>
<path fill-rule="evenodd" clip-rule="evenodd" d="M269.904 1507.85C342.901 1507.85 402.403 1567.17 402.403 1640.57C402.403 1713.35 342.901 1772.68 269.904 1772.68C196.294 1772.68 137.406 1713.35 137.406 1640.57C137.406 1567.17 196.294 1507.85 269.904 1507.85Z" stroke="#B6B4BA" stroke-width="0.998823" stroke-linecap="round" stroke-linejoin="round"/>
<path d="M269.904 1474.21H405.47H793.15H863.08L1120.1 1555.55L1110.29 1473.6L863.08 1474.21" stroke="#B6B4BA" stroke-width="0.998823" stroke-linecap="round" stroke-linejoin="round"/>
<path d="M1444.6 2206.92L1436.01 2195.3V2191.02L1447.67 2206.92H1444.6Z" fill="#878597" stroke="#B6B4BA" stroke-width="0.998823" stroke-linecap="round" stroke-linejoin="round"/>
<path d="M23.3099 2935.97L224.511 2757.99L257.022 2526.19L464.971 2458.3L556.371 2365.94L706.045 2388.57L879.642 2370.84L1105.99 2343.93L1245.24 2240.56L1349.52 2200.81L1435.4 2107.23" stroke="#B6B4BA" stroke-width="0.998823" stroke-linecap="round" stroke-linejoin="round"/>
<path d="M213.47 2935.97L224.511 2757.99L81.5847 2598.97L141.086 2439.95L239.847 2487.66L464.971 2458.3L540.422 2532.91L706.045 2388.57L683.348 2664.41" stroke="#B6B4BA" stroke-width="0.998823" stroke-linecap="round" stroke-linejoin="round"/>
<path d="M683.348 2665.02L775.361 2838.72L907.246 2831.99L1022.57 2760.44L1193.71 2736.58L1250.15 2827.1L1408.41 2935.97" stroke="#B6B4BA" stroke-width="0.998823" stroke-linecap="round" stroke-linejoin="round"/>
<path d="M1375.9 2935.97L1404.11 2932.3L1420.06 2834.44L1429.88 2743.92" stroke="#B6B4BA" stroke-width="0.998823" stroke-linecap="round" stroke-linejoin="round"/>
<path d="M1404.12 2932.3L1391.85 2800.19L1247.69 2825.88L1020.11 2761.66L1008.46 2704.78L1193.71 2736.58L1286.34 2715.79L1389.39 2797.74L1420.06 2834.44L1429.88 2864.41" stroke="#B6B4BA" stroke-width="0.998823" stroke-linecap="round" stroke-linejoin="round"/>
<path d="M1391.23 2800.19L1386.94 2622.82L1286.34 2715.79L1249.53 2825.88L1267.94 2935.97" stroke="#B6B4BA" stroke-width="0.998823" stroke-linecap="round" stroke-linejoin="round"/>
<path d="M1057.53 2935.97L1249.53 2825.88" stroke="#B6B4BA" stroke-width="0.998823" stroke-linecap="round" stroke-linejoin="round"/>
<path d="M978.403 2935.97L1020.11 2761.66" stroke="#B6B4BA" stroke-width="0.998823" stroke-linecap="round" stroke-linejoin="round"/>
<path d="M943.438 2935.97L907.246 2831.99L1008.46 2704.78L1046.49 2531.69L1315.78 2540.87L1429.88 2469.31" stroke="#B6B4BA" stroke-width="0.998823" stroke-linecap="round" stroke-linejoin="round"/>
<path d="M1429.88 2526.8L1386.94 2622.82L1418.22 2832.61" stroke="#B6B4BA" stroke-width="0.998823" stroke-linecap="round" stroke-linejoin="round"/>
<path d="M1386.94 2622.82L1304.13 2639.95L1193.71 2736.58" stroke="#B6B4BA" stroke-width="0.998823" stroke-linecap="round" stroke-linejoin="round"/>
<path d="M1286.34 2715.79L1304.13 2639.95L1315.78 2540.25L1386.94 2622.82" stroke="#B6B4BA" stroke-width="0.998823" stroke-linecap="round" stroke-linejoin="round"/>
<path d="M1304.13 2639.95L1046.49 2532.3L1193.71 2736.58" stroke="#B6B4BA" stroke-width="0.998823" stroke-linecap="round" stroke-linejoin="round"/>
<path d="M1008.46 2704.78L683.348 2665.02L907.246 2831.99" stroke="#B6B4BA" stroke-width="0.998823" stroke-linecap="round" stroke-linejoin="round"/>
<path fill-rule="evenodd" clip-rule="evenodd" d="M879.642 2370.84L683.348 2664.41L1046.49 2531.69L879.642 2370.84Z" stroke="#B6B4BA" stroke-width="0.998823" stroke-linecap="round" stroke-linejoin="round"/>
<path d="M1046.49 2531.69L1105.99 2343.93L1315.78 2540.25L1245.24 2240.56L1167.95 2176.95L1096.18 2167.17L1105.99 2343.93L1167.95 2176.95L1191.87 2030.78L1266.71 1891.33L1436.63 1941.48" stroke="#B6B4BA" stroke-width="0.998823" stroke-linecap="round" stroke-linejoin="round"/>
<path d="M1429.88 1994.69L1278.36 2104.78L1167.34 2176.34" stroke="#B6B4BA" stroke-width="0.998823" stroke-linecap="round" stroke-linejoin="round"/>
<path d="M1429.88 2416.1L1245.24 2241.17L1277.14 2106.62L1191.87 2030.78" stroke="#B6B4BA" stroke-width="0.998823" stroke-linecap="round" stroke-linejoin="round"/>
<path d="M1429.88 2371.45L1349.52 2200.81L1276.52 2106.01L1429.88 2071.14" stroke="#B6B4BA" stroke-width="0.998823" stroke-linecap="round" stroke-linejoin="round"/>
<path d="M1276.52 2106.01L1266.71 1891.33L1297.99 1849.74L1426.2 1844.24L1429.88 1803.87" stroke="#B6B4BA" stroke-width="0.998823" stroke-linecap="round" stroke-linejoin="round"/>
<path d="M1436.63 1941.48L1297.99 1849.74L1247.08 1809.37L1266.71 1891.33L1189.42 1898.06L1191.87 2030.78L1094.34 2008.76L1096.18 2167.17L1191.87 2030.78" stroke="#B6B4BA" stroke-width="0.998823" stroke-linecap="round" stroke-linejoin="round"/>
<path d="M1426.2 1843.62L1364.24 1622.22L1316.4 1595.92L1259.35 1754.94L983.923 1706.62L1004.17 1854.63L1189.42 1898.06L1247.08 1809.37L1259.35 1754.94" stroke="#B6B4BA" stroke-width="0.998823" stroke-linecap="round" stroke-linejoin="round"/>
<path d="M1247.08 1809.37L1001.71 1855.86L932.396 1898.06L753.278 1843.62L983.923 1706.62L929.942 1898.06L937.304 1937.2L1001.71 1855.86L1094.34 2008.76L1189.42 1898.06" stroke="#B6B4BA" stroke-width="0.998823" stroke-linecap="round" stroke-linejoin="round"/>
<path d="M1297.99 1849.74L1259.35 1755.55L1426.2 1844.24L1329.28 1633.84L1316.4 1595.92" stroke="#B6B4BA" stroke-width="0.998823" stroke-linecap="round" stroke-linejoin="round"/>
<path d="M1329.28 1633.84L1259.35 1754.94L1186.35 1481.55L1316.4 1595.92L1346.45 1562.89L1186.35 1481.55L1110.29 1474.82" stroke="#B6B4BA" stroke-width="0.998823" stroke-linecap="round" stroke-linejoin="round"/>
<path d="M1429.88 1472.98L1346.45 1562.89" stroke="#B6B4BA" stroke-width="0.998823" stroke-linecap="round" stroke-linejoin="round"/>
<path d="M1364.24 1622.22L1429.88 1507.85" stroke="#B6B4BA" stroke-width="0.998823" stroke-linecap="round" stroke-linejoin="round"/>
<path d="M1230.52 1474.21L1186.35 1481.55L984.537 1706.62L1247.08 1809.37" stroke="#B6B4BA" stroke-width="0.998823" stroke-linecap="round" stroke-linejoin="round"/>
<path d="M863.08 1474.21L984.537 1706.62L842.224 1621.61L843.45 1474.21" stroke="#B6B4BA" stroke-width="0.998823" stroke-linecap="round" stroke-linejoin="round"/>
<path d="M793.15 1474.21L590.109 1607.54L842.224 1621.61L720.153 1709.68L753.278 1843.62L842.224 1621.61" stroke="#B6B4BA" stroke-width="0.998823" stroke-linecap="round" stroke-linejoin="round"/>
<path d="M405.47 1474.21L590.109 1607.54L720.153 1709.68L542.262 1639.96L590.109 1607.54" stroke="#B6B4BA" stroke-width="0.998823" stroke-linecap="round" stroke-linejoin="round"/>
<path d="M387.681 1474.21L542.262 1639.96L589.495 1842.4L720.153 1709.68" stroke="#B6B4BA" stroke-width="0.998823" stroke-linecap="round" stroke-linejoin="round"/>
<path d="M753.278 1843.62L589.495 1842.4L455.156 1817.32L542.262 1639.96" stroke="#B6B4BA" stroke-width="0.998823" stroke-linecap="round" stroke-linejoin="round"/>
<path d="M361.303 1474.21L455.769 1817.94L1.83929 1594.08L269.903 1474.21" stroke="#B6B4BA" stroke-width="0.998823" stroke-linecap="round" stroke-linejoin="round"/>
<path d="M0 1591.03L1.84026 1594.08L44.7795 1937.81L455.77 1817.94L410.377 1923.75L589.495 1842.4L696.843 2103.56L939.144 1935.37L750.211 1840.57L763.706 2055.24L912.153 2131.69L937.303 1936.59L1094.34 2008.76L912.153 2131.69L1033.61 2163.5L1094.34 2008.76" stroke="#B6B4BA" stroke-width="0.998823" stroke-linecap="round" stroke-linejoin="round"/>
<path d="M589.495 1842.4L428.166 1990.41L410.99 2022.22L415.284 2142.09L696.843 2103.56L410.99 2022.22" stroke="#B6B4BA" stroke-width="0.998823" stroke-linecap="round" stroke-linejoin="round"/>
<path d="M428.78 1990.41L696.843 2103.56L912.153 2131.69L879.642 2370.84L1033.61 2163.5L1105.99 2343.93" stroke="#B6B4BA" stroke-width="0.998823" stroke-linecap="round" stroke-linejoin="round"/>
<path d="M879.642 2370.84L633.048 2211.21L912.153 2131.7" stroke="#B6B4BA" stroke-width="0.998823" stroke-linecap="round" stroke-linejoin="round"/>
<path d="M696.843 2103.56L633.048 2211.2L706.045 2388.57" stroke="#B6B4BA" stroke-width="0.998823" stroke-linecap="round" stroke-linejoin="round"/>
<path fill-rule="evenodd" clip-rule="evenodd" d="M414.671 2142.09L633.048 2211.21L556.371 2365.94L414.671 2142.09Z" stroke="#B6B4BA" stroke-width="0.998823" stroke-linecap="round" stroke-linejoin="round"/>
<path d="M556.371 2365.94L379.093 2342.7L414.671 2142.09L286.466 2071.76L410.99 2022.22V1924.36L428.166 1990.41" stroke="#B6B4BA" stroke-width="0.998823" stroke-linecap="round" stroke-linejoin="round"/>
<path d="M284.013 2127.41L334.927 2233.83L414.671 2142.09L284.013 2127.41ZM284.013 2127.41L207.335 2137.81L133.112 2296.22L275.425 2257.08L334.927 2233.83L379.093 2342.7L275.425 2257.08L284.013 2127.41ZM284.013 2127.41L286.466 2071.76L44.7795 1937.81L410.377 1923.75L286.466 2071.76L207.335 2137.81L44.7795 1937.81L54.5942 2126.8L207.335 2137.81L84.6518 2267.47L133.112 2296.22L141.086 2439.95L275.425 2257.08L239.847 2487.66L379.093 2342.7L503.617 2419.77L540.422 2532.91L556.371 2365.94" stroke="#B6B4BA" stroke-width="0.998823" stroke-linecap="round" stroke-linejoin="round"/>
<path d="M0 2014.88L45.393 1937.81L0 1895.61" stroke="#B6B4BA" stroke-width="0.998823" stroke-linecap="round" stroke-linejoin="round"/>
<path d="M0 1595.92L1.84026 1594.08M44.7795 1937.81L0 1719.47L44.7795 1937.81Z" stroke="#B6B4BA" stroke-width="0.998823" stroke-linecap="round" stroke-linejoin="round"/>
<path d="M0 2142.09L54.5942 2126.8L84.6518 2267.47L0 2222.21" stroke="#B6B4BA" stroke-width="0.998823" stroke-linecap="round" stroke-linejoin="round"/>
<path d="M0 2306.62L6.7476 2316.4L84.6518 2267.47" stroke="#B6B4BA" stroke-width="0.998823" stroke-linecap="round" stroke-linejoin="round"/>
<path d="M0 2316.4H6.7476L133.112 2296.22" stroke="#B6B4BA" stroke-width="0.998823" stroke-linecap="round" stroke-linejoin="round"/>
<path d="M0 2323.74L6.7476 2316.4L0 2330.47" stroke="#B6B4BA" stroke-width="0.998823" stroke-linecap="round" stroke-linejoin="round"/>
<path d="M6.7476 2316.4L141.086 2439.95L0 2467.47" stroke="#B6B4BA" stroke-width="0.998823" stroke-linecap="round" stroke-linejoin="round"/>
<path d="M0 2582.46L81.5847 2598.97L239.847 2487.66L257.022 2526.19L81.5847 2598.97L1.84026 2630.77L0 2627.72M141.086 2439.95L0 2546.98L141.086 2439.95Z" stroke="#B6B4BA" stroke-width="0.998823" stroke-linecap="round" stroke-linejoin="round"/>
<path d="M0 2635.05L1.84026 2630.77L224.511 2757.99" stroke="#B6B4BA" stroke-width="0.998823" stroke-linecap="round" stroke-linejoin="round"/>
<path d="M1.84026 2630.77L28.8307 2930.46L0 2909.67" stroke="#B6B4BA" stroke-width="0.998823" stroke-linecap="round" stroke-linejoin="round"/>
<path d="M28.8306 2930.46L79.7444 2935.97" stroke="#B6B4BA" stroke-width="0.998823" stroke-linecap="round" stroke-linejoin="round"/>
<path d="M225.738 2935.97L261.93 2891.93L224.511 2757.99L357.623 2778.17L261.93 2891.93L451.476 2934.13L357.623 2778.17" stroke="#B6B4BA" stroke-width="0.998823" stroke-linecap="round" stroke-linejoin="round"/>
<path d="M261.93 2891.93L345.355 2935.97" stroke="#B6B4BA" stroke-width="0.998823" stroke-linecap="round" stroke-linejoin="round"/>
<path d="M451.476 2934.13L504.23 2662.58L357.623 2778.17L257.022 2526.19L504.23 2662.58L464.971 2458.3" stroke="#B6B4BA" stroke-width="0.998823" stroke-linecap="round" stroke-linejoin="round"/>
<path fill-rule="evenodd" clip-rule="evenodd" d="M569.866 2602.64L540.422 2532.91L614.645 2584.9L569.866 2602.64Z" stroke="#B6B4BA" stroke-width="0.998823" stroke-linecap="round" stroke-linejoin="round"/>
<path d="M540.422 2532.91L504.23 2662.58L569.866 2602.64L683.348 2664.41L504.23 2662.58" stroke="#B6B4BA" stroke-width="0.998823" stroke-linecap="round" stroke-linejoin="round"/>
<path d="M682.121 2663.8L614.645 2584.9L706.045 2388.57" stroke="#B6B4BA" stroke-width="0.998823" stroke-linecap="round" stroke-linejoin="round"/>
<path d="M504.23 2662.58L653.904 2792.85L775.361 2838.72L739.169 2935.97" stroke="#B6B4BA" stroke-width="0.998823" stroke-linecap="round" stroke-linejoin="round"/>
<path d="M748.984 2935.97L907.246 2831.99" stroke="#B6B4BA" stroke-width="0.998823" stroke-linecap="round" stroke-linejoin="round"/>
<path d="M730.581 2935.97L653.904 2792.85L609.738 2931.69L669.853 2935.97" stroke="#B6B4BA" stroke-width="0.998823" stroke-linecap="round" stroke-linejoin="round"/>
<path d="M593.789 2935.97L609.738 2931.69L451.476 2934.13L653.904 2792.85L683.348 2664.41" stroke="#B6B4BA" stroke-width="0.998823" stroke-linecap="round" stroke-linejoin="round"/>
<path fill-rule="evenodd" clip-rule="evenodd" d="M1278.36 2236.89C1351.97 2236.89 1411.48 2177.57 1411.48 2104.78C1411.48 2031.39 1351.97 1972.06 1278.36 1972.06C1205.37 1972.06 1145.87 2031.39 1145.87 2104.78C1145.87 2177.57 1205.37 2236.89 1278.36 2236.89Z" stroke="#B6B4BA" stroke-width="0.998823" stroke-linecap="round" stroke-linejoin="round"/>
<path fill-rule="evenodd" clip-rule="evenodd" d="M455.156 2106.62C615.259 2106.62 744.69 1976.96 744.69 1817.32C744.69 1658.3 615.259 1528.64 455.156 1528.64C295.054 1528.64 165.623 1658.3 165.623 1817.32C165.623 1976.96 295.054 2106.62 455.156 2106.62Z" stroke="#B6B4BA" stroke-width="0.998823" stroke-linecap="round" stroke-linejoin="round"/>
<path fill-rule="evenodd" clip-rule="evenodd" d="M81.5847 2914.56C255.795 2914.56 397.495 2773.28 397.495 2598.97C397.495 2425.27 255.795 2283.99 81.5847 2283.99C53.3674 2283.99 25.7636 2287.66 0 2294.38V2904.17C25.7636 2910.89 53.3674 2914.56 81.5847 2914.56Z" stroke="#557E83" stroke-width="0.499412" stroke-linecap="round" stroke-linejoin="round"/>
<path fill-rule="evenodd" clip-rule="evenodd" d="M1081.46 2556.77C1198.01 2556.77 1292.47 2462.58 1292.47 2346.37C1292.47 2230.16 1198.01 2135.98 1081.46 2135.98C964.907 2135.98 870.441 2230.16 870.441 2346.37C870.441 2462.58 964.907 2556.77 1081.46 2556.77Z" stroke="#557E83" stroke-width="0.499412" stroke-linecap="round" stroke-linejoin="round"/>
<path d="M1429.88 1472.98V1507.85L1550.72 1479.71H1691.19L1550.72 1518.86V1479.71" stroke="#B6B4BA" stroke-width="0.998823" stroke-linecap="round" stroke-linejoin="round"/>
<path d="M1429.88 1507.85L1550.72 1518.86L1682.61 1603.26L1811.42 1526.81L1805.9 1479.71H1817.56L1811.42 1526.81" stroke="#B6B4BA" stroke-width="0.998823" stroke-linecap="round" stroke-linejoin="round"/>
<path fill-rule="evenodd" clip-rule="evenodd" d="M1739.65 1569.62L1692.42 1479.71H1805.9L1739.65 1569.62Z" stroke="#B6B4BA" stroke-width="0.998823" stroke-linecap="round" stroke-linejoin="round"/>
<path fill-rule="evenodd" clip-rule="evenodd" d="M1811.42 1526.81L1920 1629.56V1550.66L1811.42 1526.81Z" stroke="#B6B4BA" stroke-width="0.998823" stroke-linecap="round" stroke-linejoin="round"/>
<path d="M1920 1636.29L1739.65 1569.62" stroke="#B6B4BA" stroke-width="0.998823" stroke-linecap="round" stroke-linejoin="round"/>
<path d="M1739.65 1569.62L1720.64 1683.38L1682.61 1603.26L1364.24 1622.22L1550.72 1518.86L1484.47 1614.88L1720.64 1683.38L1618.81 1780.63L1484.47 1614.88L1429.88 1803.87L1364.24 1622.22" stroke="#B6B4BA" stroke-width="0.998823" stroke-linecap="round" stroke-linejoin="round"/>
<path fill-rule="evenodd" clip-rule="evenodd" d="M1593.05 1858.91L1429.88 1803.87L1618.81 1780.63L1472.2 1658.92L1538.45 1791.02L1593.05 1858.91Z" stroke="#B6B4BA" stroke-width="0.998823" stroke-linecap="round" stroke-linejoin="round"/>
<path d="M1920 1648.52L1783.82 1746.99L1720.64 1683.38M1618.81 1780.63L1593.05 1858.91L1702.85 1800.81L1720.64 1683.38L1920 1642.4L1618.81 1780.63Z" stroke="#B6B4BA" stroke-width="0.998823" stroke-linecap="round" stroke-linejoin="round"/>
<path fill-rule="evenodd" clip-rule="evenodd" d="M1835.35 1791.64L1783.82 1746.99L1702.85 1800.81L1835.35 1791.64Z" stroke="#B6B4BA" stroke-width="0.998823" stroke-linecap="round" stroke-linejoin="round"/>
<path d="M1920 1814.27L1835.35 1791.64L1777.69 2005.09L1721.25 2044.23L1835.35 1791.64" stroke="#B6B4BA" stroke-width="0.998823" stroke-linecap="round" stroke-linejoin="round"/>
<path d="M1702.85 1800.81L1721.25 2044.23L1593.05 1858.91L1530.48 2063.19L1721.25 2044.23" stroke="#B6B4BA" stroke-width="0.998823" stroke-linecap="round" stroke-linejoin="round"/>
<path fill-rule="evenodd" clip-rule="evenodd" d="M1426.2 1843.62L1593.05 1858.91L1487.54 2020.99L1426.2 1843.62Z" stroke="#B6B4BA" stroke-width="0.998823" stroke-linecap="round" stroke-linejoin="round"/>
<path d="M1426.2 1843.62L1436.63 1941.48L1487.54 2020.99L1429.88 1994.69L1436.63 1941.48" stroke="#B6B4BA" stroke-width="0.998823" stroke-linecap="round" stroke-linejoin="round"/>
<path d="M1429.88 1994.69L1418.22 2030.78L1487.54 2020.99L1429.88 2071.14L1418.22 2030.78L1278.36 2104.78" stroke="#B6B4BA" stroke-width="0.998823" stroke-linecap="round" stroke-linejoin="round"/>
<path d="M1429.88 2071.14L1435.4 2107.23L1530.48 2063.19L1487.54 2020.99" stroke="#B6B4BA" stroke-width="0.998823" stroke-linecap="round" stroke-linejoin="round"/>
<path d="M1435.4 2107.23L1418.22 2162.89L1349.52 2200.81" stroke="#B6B4BA" stroke-width="0.998823" stroke-linecap="round" stroke-linejoin="round"/>
<path fill-rule="evenodd" clip-rule="evenodd" d="M1530.48 2063.19L1418.22 2162.89L1540.91 2146.98L1530.48 2063.19Z" stroke="#B6B4BA" stroke-width="0.998823" stroke-linecap="round" stroke-linejoin="round"/>
<path d="M1530.48 2063.19L1601.02 2137.81L1721.25 2044.23" stroke="#B6B4BA" stroke-width="0.998823" stroke-linecap="round" stroke-linejoin="round"/>
<path fill-rule="evenodd" clip-rule="evenodd" d="M1553.79 2282.76L1540.91 2146.99L1601.02 2137.81L1758.06 2185.52L1553.79 2282.76Z" stroke="#B6B4BA" stroke-width="0.998823" stroke-linecap="round" stroke-linejoin="round"/>
<path d="M1418.22 2162.89L1473.43 2348.21L1349.52 2200.81" stroke="#B6B4BA" stroke-width="0.998823" stroke-linecap="round" stroke-linejoin="round"/>
<path fill-rule="evenodd" clip-rule="evenodd" d="M1429.88 2416.1V2371.45L1473.43 2348.21L1553.79 2282.76L1499.19 2378.18L1473.43 2348.21L1429.88 2416.1Z" stroke="#B6B4BA" stroke-width="0.998823" stroke-linecap="round" stroke-linejoin="round"/>
<path d="M1553.79 2282.76L1701.01 2313.34L1758.06 2185.52L1875.22 2082.77L1601.02 2137.81" stroke="#B6B4BA" stroke-width="0.998823" stroke-linecap="round" stroke-linejoin="round"/>
<path d="M1920 2142.7L1875.22 2082.77M1920 1807.54L1803.45 1908.46L1920 1967.17V1807.54ZM1920 1946.38L1777.69 2005.09L1875.22 2082.77L1920 2098.06V1946.38Z" stroke="#B6B4BA" stroke-width="0.998823" stroke-linecap="round" stroke-linejoin="round"/>
<path d="M1758.06 2185.52L1920 2236.89M1920 2255.85L1881.35 2369.61L1701.01 2313.34L1920 2240.56" stroke="#B6B4BA" stroke-width="0.998823" stroke-linecap="round" stroke-linejoin="round"/>
<path fill-rule="evenodd" clip-rule="evenodd" d="M1608.38 2450.35L1701.01 2313.34L1499.19 2378.18L1429.88 2416.1L1608.38 2450.35Z" stroke="#B6B4BA" stroke-width="0.998823" stroke-linecap="round" stroke-linejoin="round"/>
<path fill-rule="evenodd" clip-rule="evenodd" d="M1813.88 2507.23L1701.01 2313.34L1707.14 2423.44L1608.38 2450.35L1813.88 2507.23Z" stroke="#B6B4BA" stroke-width="0.998823" stroke-linecap="round" stroke-linejoin="round"/>
<path d="M1701.01 2313.34L1809.58 2374.51L1775.85 2442.4L1881.35 2369.61L1809.58 2374.51" stroke="#B6B4BA" stroke-width="0.998823" stroke-linecap="round" stroke-linejoin="round"/>
<path d="M1920 2419.77L1775.85 2442.4M1881.35 2369.61L1920 2394.08L1881.35 2369.61Z" stroke="#B6B4BA" stroke-width="0.998823" stroke-linecap="round" stroke-linejoin="round"/>
<path d="M1813.88 2507.23L1920 2436.28" stroke="#B6B4BA" stroke-width="0.998823" stroke-linecap="round" stroke-linejoin="round"/>
<path d="M1431.11 2413.65L1429.88 2469.31L1608.38 2450.35L1429.88 2526.8V2469.31" stroke="#B6B4BA" stroke-width="0.998823" stroke-linecap="round" stroke-linejoin="round"/>
<path d="M1608.38 2450.35L1586.91 2583.68L1484.47 2503.56L1504.1 2461.36L1586.91 2583.68L1386.94 2622.82" stroke="#B6B4BA" stroke-width="0.998823" stroke-linecap="round" stroke-linejoin="round"/>
<path d="M1386.94 2622.82L1702.24 2701.11L1608.38 2450.35" stroke="#B6B4BA" stroke-width="0.998823" stroke-linecap="round" stroke-linejoin="round"/>
<path d="M1813.88 2507.23L1662.98 2595.91L1648.87 2687.65L1429.88 2743.92L1386.94 2622.82" stroke="#B6B4BA" stroke-width="0.998823" stroke-linecap="round" stroke-linejoin="round"/>
<path d="M1920 2551.87L1702.24 2701.11L1808.97 2718.85L1820.63 2619.76L1915.71 2656.46L1863.57 2699.27L1820.63 2619.76L1813.88 2507.23M1429.88 2864.41L1648.87 2687.65L1693.65 2740.86L1702.24 2701.11L1813.88 2507.23L1920 2545.15L1429.88 2864.41Z" stroke="#B6B4BA" stroke-width="0.998823" stroke-linecap="round" stroke-linejoin="round"/>
<path fill-rule="evenodd" clip-rule="evenodd" d="M1920 2757.99L1863.57 2699.27L1808.97 2718.85L1693.65 2740.86L1429.88 2864.41L1486.93 2913.34L1404.11 2932.3L1408.41 2935.97H1480.18L1486.93 2913.34L1579.55 2794.07L1777.07 2913.34L1693.65 2740.86L1874.61 2797.74L1808.97 2718.85L1920 2761.05V2757.99Z" stroke="#B6B4BA" stroke-width="0.998823" stroke-linecap="round" stroke-linejoin="round"/>
<path d="M1870.31 2935.97L1777.07 2913.34M1920 2765.33L1874.61 2797.74L1735.36 2827.1L1899.76 2935.97L1920 2765.33Z" stroke="#B6B4BA" stroke-width="0.998823" stroke-linecap="round" stroke-linejoin="round"/>
<path d="M1874.61 2797.74L1838.42 2894.99L1777.07 2913.34L1726.16 2935.97" stroke="#B6B4BA" stroke-width="0.998823" stroke-linecap="round" stroke-linejoin="round"/>
<path d="M1486.93 2913.34L1551.34 2935.97" stroke="#B6B4BA" stroke-width="0.998823" stroke-linecap="round" stroke-linejoin="round"/>
<path d="M1874.61 2797.74L1920 2861.35" stroke="#B6B4BA" stroke-width="0.998823" stroke-linecap="round" stroke-linejoin="round"/>
<path d="M23.3099 2935.97L224.511 3118.44L257.022 3351.28L464.97 3419.48L556.369 3512.25L706.043 3489.52L879.64 3507.33L1105.99 3534.37L1245.24 3638.2L1349.52 3678.13L1435.4 3772.13" stroke="#B6B4BA" stroke-width="0.998823" stroke-linecap="round" stroke-linejoin="round"/>
<path d="M213.469 2938.43L224.511 3118.44L80.9711 3276.33L141.086 3437.91L239.846 3389.99L464.97 3419.48L540.42 3344.53L706.043 3489.52L683.347 3212.44" stroke="#B6B4BA" stroke-width="0.998823" stroke-linecap="round" stroke-linejoin="round"/>
<path d="M683.347 3211.82L775.359 3037.34L907.244 3044.1L1022.57 3115.98L1193.71 3139.94L1250.14 3049.01L1408.41 2935.97" stroke="#B6B4BA" stroke-width="0.998823" stroke-linecap="round" stroke-linejoin="round"/>
<path d="M1375.89 2935.97L1407.79 2936.58L1420.06 3041.64L1429.88 3132.57" stroke="#B6B4BA" stroke-width="0.998823" stroke-linecap="round" stroke-linejoin="round"/>
<path d="M1407.79 2936.58L1391.84 3076.05L1247.69 3050.24L1020.11 3114.75L1008.46 3171.89L1193.71 3139.94L1286.34 3160.83L1389.39 3078.5L1420.06 3041.64" stroke="#B6B4BA" stroke-width="0.998823" stroke-linecap="round" stroke-linejoin="round"/>
<path d="M1391.23 3076.05L1384.48 3251.14L1286.34 3160.83L1249.53 3050.24L1267.93 2935.97" stroke="#B6B4BA" stroke-width="0.998823" stroke-linecap="round" stroke-linejoin="round"/>
<path d="M1057.53 2935.97L1249.53 3050.24" stroke="#B6B4BA" stroke-width="0.998823" stroke-linecap="round" stroke-linejoin="round"/>
<path d="M978.4 2935.97L1020.11 3114.75" stroke="#B6B4BA" stroke-width="0.998823" stroke-linecap="round" stroke-linejoin="round"/>
<path d="M943.436 2935.97L907.244 3044.1L1008.46 3171.89L1046.49 3345.76L1315.78 3336.54L1429.88 3408.42" stroke="#B6B4BA" stroke-width="0.998823" stroke-linecap="round" stroke-linejoin="round"/>
<path d="M1429.88 3350.67L1386.94 3254.21L1418.22 3043.48" stroke="#B6B4BA" stroke-width="0.998823" stroke-linecap="round" stroke-linejoin="round"/>
<path d="M1386.94 3254.21L1304.12 3237.01L1193.71 3139.94" stroke="#B6B4BA" stroke-width="0.998823" stroke-linecap="round" stroke-linejoin="round"/>
<path d="M1286.34 3160.83L1304.12 3237.01L1315.78 3337.15L1385.1 3256.06" stroke="#B6B4BA" stroke-width="0.998823" stroke-linecap="round" stroke-linejoin="round"/>
<path d="M1304.12 3237.01L1046.49 3345.14L1193.71 3139.94" stroke="#B6B4BA" stroke-width="0.998823" stroke-linecap="round" stroke-linejoin="round"/>
<path d="M1008.46 3171.89L683.347 3211.82L907.244 3044.1" stroke="#B6B4BA" stroke-width="0.998823" stroke-linecap="round" stroke-linejoin="round"/>
<path fill-rule="evenodd" clip-rule="evenodd" d="M879.64 3507.33L683.347 3212.44L1046.49 3345.75L879.64 3507.33Z" stroke="#B6B4BA" stroke-width="0.998823" stroke-linecap="round" stroke-linejoin="round"/>
<path d="M1046.49 3345.76L1105.99 3534.37L1315.78 3337.15L1245.24 3638.2L1167.95 3702.7L1096.18 3711.92L1105.99 3534.37L1167.95 3702.7L1191.87 3848.92L1266.71 3989L1429.88 3925.72" stroke="#B6B4BA" stroke-width="0.998823" stroke-linecap="round" stroke-linejoin="round"/>
<path d="M1429.88 3885.17L1278.36 3774.59L1167.33 3702.7" stroke="#B6B4BA" stroke-width="0.998823" stroke-linecap="round" stroke-linejoin="round"/>
<path d="M1429.88 3462.49L1245.24 3637.58L1277.13 3772.74L1191.87 3848.92" stroke="#B6B4BA" stroke-width="0.998823" stroke-linecap="round" stroke-linejoin="round"/>
<path d="M1429.87 3506.72L1349.52 3678.13L1276.52 3773.36L1423.74 3807.15" stroke="#B6B4BA" stroke-width="0.998823" stroke-linecap="round" stroke-linejoin="round"/>
<path d="M1276.52 3773.36L1266.71 3989L1297.99 4030.78L1426.19 4036.31L1429.88 4076.86" stroke="#B6B4BA" stroke-width="0.998823" stroke-linecap="round" stroke-linejoin="round"/>
<path d="M1429.87 3937.39L1297.99 4030.78L1247.08 4071.33L1266.71 3989L1189.42 3982.24L1191.87 3848.92L1094.34 3871.04L1096.18 3711.92L1191.87 3848.92" stroke="#B6B4BA" stroke-width="0.998823" stroke-linecap="round" stroke-linejoin="round"/>
<path d="M1428.65 4027.71L1364.24 4259.32L1316.39 4285.74L1259.35 4126.01L983.921 4175.16L1001.71 4025.25L1189.42 3982.24L1247.08 4071.33L1259.35 4126.01" stroke="#B6B4BA" stroke-width="0.998823" stroke-linecap="round" stroke-linejoin="round"/>
<path d="M1247.08 4071.33L1001.71 4025.25L929.94 3982.24L753.276 4036.92L983.921 4175.16L929.94 3982.24L937.301 3943.54L1001.71 4025.25L1094.34 3871.04L1189.42 3982.24" stroke="#B6B4BA" stroke-width="0.998823" stroke-linecap="round" stroke-linejoin="round"/>
<path d="M1297.99 4030.78L1259.35 4125.39L1426.19 4036.31L1329.27 4247.65L1316.39 4285.74" stroke="#B6B4BA" stroke-width="0.998823" stroke-linecap="round" stroke-linejoin="round"/>
<path d="M1329.27 4247.65L1259.35 4126.01L1186.35 4400.63L1316.39 4285.74L1346.45 4318.92L1186.35 4400.63L1110.29 4407.39" stroke="#B6B4BA" stroke-width="0.998823" stroke-linecap="round" stroke-linejoin="round"/>
<path d="M1429.88 4406.16L1346.45 4318.92" stroke="#B6B4BA" stroke-width="0.998823" stroke-linecap="round" stroke-linejoin="round"/>
<path d="M1364.24 4259.32L1429.88 4374.21" stroke="#B6B4BA" stroke-width="0.998823" stroke-linecap="round" stroke-linejoin="round"/>
<path d="M1230.51 4408L1186.35 4400.63L984.534 4174.54L1247.08 4071.33" stroke="#B6B4BA" stroke-width="0.998823" stroke-linecap="round" stroke-linejoin="round"/>
<path d="M863.078 4408L984.534 4174.54L842.222 4259.94L843.448 4408" stroke="#B6B4BA" stroke-width="0.998823" stroke-linecap="round" stroke-linejoin="round"/>
<path d="M793.148 4408L590.107 4274.07L842.222 4259.94L720.152 4171.47L753.276 4036.92L842.222 4259.94" stroke="#B6B4BA" stroke-width="0.998823" stroke-linecap="round" stroke-linejoin="round"/>
<path d="M405.469 4408L590.107 4274.07L720.152 4171.47L542.261 4241.51L590.107 4274.07" stroke="#B6B4BA" stroke-width="0.998823" stroke-linecap="round" stroke-linejoin="round"/>
<path d="M387.68 4408L542.261 4241.51L589.494 4038.15L720.152 4171.47" stroke="#B6B4BA" stroke-width="0.998823" stroke-linecap="round" stroke-linejoin="round"/>
<path d="M753.276 4036.92L589.494 4038.15L455.155 4063.34L542.261 4241.51" stroke="#B6B4BA" stroke-width="0.998823" stroke-linecap="round" stroke-linejoin="round"/>
<path d="M361.303 4408L455.769 4062.73L1.84027 4287.59L269.904 4408" stroke="#B6B4BA" stroke-width="0.998823" stroke-linecap="round" stroke-linejoin="round"/>
<path d="M0 4290.66L1.84025 4287.58L44.7794 3942.31L455.769 4062.73L410.376 3956.44L589.494 4038.15L696.842 3775.81L937.301 3943.54L753.276 4036.92L763.704 3824.35L912.151 3747.55L937.301 3943.54L1094.34 3871.04L912.151 3747.55L1033.61 3715.61L1094.34 3871.04" stroke="#B6B4BA" stroke-width="0.998823" stroke-linecap="round" stroke-linejoin="round"/>
<path d="M589.494 4038.15L428.165 3889.47L410.989 3857.53L415.283 3737.11L696.842 3775.81L410.989 3857.53" stroke="#B6B4BA" stroke-width="0.998823" stroke-linecap="round" stroke-linejoin="round"/>
<path d="M428.779 3890.09L696.842 3775.81L912.151 3747.55L879.64 3507.33L1033.61 3715.61L1105.99 3534.37" stroke="#B6B4BA" stroke-width="0.998823" stroke-linecap="round" stroke-linejoin="round"/>
<path d="M879.64 3507.33L633.046 3667.69L912.151 3747.55" stroke="#B6B4BA" stroke-width="0.998823" stroke-linecap="round" stroke-linejoin="round"/>
<path d="M696.842 3775.81L633.046 3667.69L706.043 3489.52" stroke="#B6B4BA" stroke-width="0.998823" stroke-linecap="round" stroke-linejoin="round"/>
<path fill-rule="evenodd" clip-rule="evenodd" d="M414.67 3737.11L633.046 3667.69L556.369 3512.25L414.67 3737.11Z" stroke="#B6B4BA" stroke-width="0.998823" stroke-linecap="round" stroke-linejoin="round"/>
<path d="M556.369 3512.25L379.092 3535.6L414.67 3737.11L286.466 3807.76L410.989 3857.53V3955.82L428.165 3889.47" stroke="#B6B4BA" stroke-width="0.998823" stroke-linecap="round" stroke-linejoin="round"/>
<path d="M284.012 3751.85L334.926 3644.95L414.67 3737.11L284.012 3751.85ZM284.012 3751.85L207.335 3741.41L133.111 3582.29L275.424 3621.61L334.926 3644.95L379.092 3535.6L275.424 3621.61L284.012 3751.85ZM284.012 3751.85L286.466 3807.76L44.7794 3942.31L410.376 3956.44L286.466 3807.76L207.335 3741.41L44.7794 3942.31L54.5941 3752.47L207.335 3741.41L84.6515 3611.16L133.111 3582.29L141.086 3437.91L275.424 3621.61L239.846 3389.99L379.092 3535.6L503.615 3458.18L537.967 3346.37L556.369 3512.25" stroke="#B6B4BA" stroke-width="0.998823" stroke-linecap="round" stroke-linejoin="round"/>
<path d="M0 3864.9L45.3929 3942.31L0 3984.7" stroke="#B6B4BA" stroke-width="0.998823" stroke-linecap="round" stroke-linejoin="round"/>
<path d="M0 4285.74L1.84025 4287.58M44.7794 3940.47L0 4160.41L44.7794 3940.47Z" stroke="#B6B4BA" stroke-width="0.998823" stroke-linecap="round" stroke-linejoin="round"/>
<path d="M0 3737.11L54.5941 3752.47L84.6515 3611.16L0 3656.63" stroke="#B6B4BA" stroke-width="0.998823" stroke-linecap="round" stroke-linejoin="round"/>
<path d="M0 3571.84L6.74759 3562.01L84.6515 3611.16" stroke="#B6B4BA" stroke-width="0.998823" stroke-linecap="round" stroke-linejoin="round"/>
<path d="M0 3562.01H6.74759L133.111 3582.29" stroke="#B6B4BA" stroke-width="0.998823" stroke-linecap="round" stroke-linejoin="round"/>
<path d="M0 3554.64L6.74759 3562.01L0 3547.88" stroke="#B6B4BA" stroke-width="0.998823" stroke-linecap="round" stroke-linejoin="round"/>
<path d="M6.74759 3562.01L141.086 3437.91L0 3410.26" stroke="#B6B4BA" stroke-width="0.998823" stroke-linecap="round" stroke-linejoin="round"/>
<path d="M0 3294.76L81.5845 3278.17L239.846 3389.99L257.022 3351.28L81.5845 3278.17L1.84025 3246.23L0 3249.3M141.086 3437.91L0 3330.4L141.086 3437.91Z" stroke="#B6B4BA" stroke-width="0.998823" stroke-linecap="round" stroke-linejoin="round"/>
<path d="M0 3241.93L1.84025 3246.23L224.511 3118.44" stroke="#B6B4BA" stroke-width="0.998823" stroke-linecap="round" stroke-linejoin="round"/>
<path d="M1.84025 3246.23L28.8306 2945.19L0 2966.07" stroke="#B6B4BA" stroke-width="0.998823" stroke-linecap="round" stroke-linejoin="round"/>
<path d="M28.8306 2945.19L79.7442 2935.97" stroke="#B6B4BA" stroke-width="0.998823" stroke-linecap="round" stroke-linejoin="round"/>
<path d="M225.124 2938.43L261.929 2983.89L224.511 3118.44L357.622 3098.16L261.929 2983.89L451.475 2941.5L357.622 3098.16" stroke="#B6B4BA" stroke-width="0.998823" stroke-linecap="round" stroke-linejoin="round"/>
<path d="M261.929 2983.89L347.807 2938.43" stroke="#B6B4BA" stroke-width="0.998823" stroke-linecap="round" stroke-linejoin="round"/>
<path d="M451.475 2941.5L504.229 3214.28L357.622 3098.16L257.022 3351.28L504.229 3214.28L464.97 3419.48" stroke="#B6B4BA" stroke-width="0.998823" stroke-linecap="round" stroke-linejoin="round"/>
<path fill-rule="evenodd" clip-rule="evenodd" d="M569.864 3274.49L540.42 3344.53L614.644 3292.3L569.864 3274.49Z" stroke="#B6B4BA" stroke-width="0.998823" stroke-linecap="round" stroke-linejoin="round"/>
<path d="M540.42 3344.53L504.229 3214.28L569.864 3274.49L683.347 3212.44L504.229 3214.28" stroke="#B6B4BA" stroke-width="0.998823" stroke-linecap="round" stroke-linejoin="round"/>
<path d="M682.12 3213.05L614.644 3292.3L706.043 3489.52" stroke="#B6B4BA" stroke-width="0.998823" stroke-linecap="round" stroke-linejoin="round"/>
<path d="M504.229 3214.28L653.903 3083.42L775.359 3037.34L739.167 2935.97" stroke="#B6B4BA" stroke-width="0.998823" stroke-linecap="round" stroke-linejoin="round"/>
<path d="M748.982 2935.97L907.244 3044.1" stroke="#B6B4BA" stroke-width="0.998823" stroke-linecap="round" stroke-linejoin="round"/>
<path d="M730.58 2936.58L653.903 3083.42L609.737 2944.57L669.851 2935.97" stroke="#B6B4BA" stroke-width="0.998823" stroke-linecap="round" stroke-linejoin="round"/>
<path d="M593.788 2935.97L609.737 2944.57L451.475 2941.5L653.903 3083.42L683.347 3212.44" stroke="#B6B4BA" stroke-width="0.998823" stroke-linecap="round" stroke-linejoin="round"/>
<path fill-rule="evenodd" clip-rule="evenodd" d="M1727.38 3374.63C1800.99 3374.63 1860.49 3434.22 1860.49 3507.95C1860.49 3581.06 1800.99 3640.65 1727.38 3640.65C1654.39 3640.65 1594.88 3581.06 1594.88 3507.95C1594.88 3434.22 1654.39 3374.63 1727.38 3374.63Z" stroke="#B6B4BA" stroke-width="0.998823" stroke-linecap="round" stroke-linejoin="round"/>
<path fill-rule="evenodd" clip-rule="evenodd" d="M455.155 3773.36C615.257 3773.36 744.688 3902.99 744.688 4063.34C744.688 4223.08 615.257 4353.32 455.155 4353.32C295.054 4353.32 165.623 4223.08 165.623 4063.34C165.623 3902.99 295.054 3773.36 455.155 3773.36Z" stroke="#B6B4BA" stroke-width="0.998823" stroke-linecap="round" stroke-linejoin="round"/>
<path fill-rule="evenodd" clip-rule="evenodd" d="M402.402 3671.37C577.225 3671.37 718.311 3813.29 718.311 3988.39C718.311 4162.87 577.225 4304.79 402.402 4304.79C227.578 4304.79 85.8784 4162.87 85.8784 3988.39C85.8784 3813.29 227.578 3671.37 402.402 3671.37Z" stroke="#557E83" stroke-width="0.499412" stroke-linecap="round" stroke-linejoin="round"/>
<path fill-rule="evenodd" clip-rule="evenodd" d="M174.824 3957.67C291.373 3957.67 385.839 4052.28 385.839 4169.01C385.839 4285.74 291.373 4380.35 174.824 4380.35C101.827 4380.35 38.0319 4343.49 0 4287.59V4050.44C38.0319 3994.53 101.827 3957.67 174.824 3957.67Z" stroke="#557E83" stroke-width="0.499412" stroke-linecap="round" stroke-linejoin="round"/>
<path d="M1870.31 2935.97L1920 2963L1899.75 2935.97M1726.16 2935.97L1764.19 3018.3L1551.33 2935.97L1540.29 3143.63L1607.77 3065.6L1734.13 3160.83L1788.11 3199.53L1886.26 3124.58L1764.19 3018.3L1920 2967.92L1726.16 2935.97ZM1920 3076.66L1886.26 3124.58L1612.06 3066.22L1420.06 3041.64L1480.18 2935.97L1920 3076.66Z" stroke="#B6B4BA" stroke-width="0.998823" stroke-linecap="round" stroke-linejoin="round"/>
<path d="M1606.54 3065.6L1764.19 3018.3" stroke="#B6B4BA" stroke-width="0.998823" stroke-linecap="round" stroke-linejoin="round"/>
<path d="M1734.13 3160.83L1540.29 3143.63L1420.06 3041.64" stroke="#B6B4BA" stroke-width="0.998823" stroke-linecap="round" stroke-linejoin="round"/>
<path fill-rule="evenodd" clip-rule="evenodd" d="M1429.88 3132.57L1386.94 3254.21L1494.28 3187.25L1600.41 3351.9L1540.29 3143.01L1496.74 3190.32L1429.88 3132.57Z" stroke="#B6B4BA" stroke-width="0.998823" stroke-linecap="round" stroke-linejoin="round"/>
<path d="M1920 3393.06L1811.42 3295.38L1920 3242.54M1386.94 3254.21L1600.41 3351.9L1429.88 3350.67V3408.42L1426.81 3464.94L1600.41 3351.9L1623.71 3430.54L1426.81 3464.94L1429.88 3506.72L1623.71 3430.54L1383.87 3605.02L1731.06 3525.15L1623.71 3430.54L1600.41 3351.9L1709.59 3407.19L1734.13 3160.83L1840.86 3417.64L1788.11 3199.53L1920 3255.44L1386.94 3254.21Z" stroke="#B6B4BA" stroke-width="0.998823" stroke-linecap="round" stroke-linejoin="round"/>
<path d="M1920 3577.99L1748.85 3638.2L1731.06 3525.15L1920 3566.31M1920 3395.52L1840.25 3415.18L1731.06 3525.15L1709.59 3407.19L1920 3551.57V3395.52Z" stroke="#B6B4BA" stroke-width="0.998823" stroke-linecap="round" stroke-linejoin="round"/>
<path d="M1920 3586.59L1818.17 3684.27L1694.26 3607.48L1731.06 3525.15" stroke="#B6B4BA" stroke-width="0.998823" stroke-linecap="round" stroke-linejoin="round"/>
<path d="M1920 3660.31L1818.17 3684.27L1762.35 3740.8L1561.15 3692.87M1694.26 3607.48L1561.15 3692.87L1383.87 3605.02L1435.4 3772.13L1561.15 3692.87L1586.3 3855.07L1429.88 3885.17L1424.35 3807.15L1435.4 3772.13L1586.3 3855.07L1762.35 3740.8L1920 3805.92L1694.26 3607.48Z" stroke="#B6B4BA" stroke-width="0.998823" stroke-linecap="round" stroke-linejoin="round"/>
<path d="M1748.85 3638.2L1762.35 3740.8L1745.78 3890.09L1586.3 3855.07L1429.88 3925.72V3885.17L1584.46 3939.85L1586.3 3855.07" stroke="#B6B4BA" stroke-width="0.998823" stroke-linecap="round" stroke-linejoin="round"/>
<path d="M1429.88 3925.72V3937.39L1426.19 4036.31L1584.46 3939.85L1429.88 4076.86L1637.82 4149.97L1584.46 3939.85L1745.79 3890.09L1826.76 3767.21L1920 3975.48" stroke="#B6B4BA" stroke-width="0.998823" stroke-linecap="round" stroke-linejoin="round"/>
<path d="M1745.78 3890.09L1920 3824.35" stroke="#B6B4BA" stroke-width="0.998823" stroke-linecap="round" stroke-linejoin="round"/>
<path d="M1920 4049.21L1859.88 4118.02L1862.33 3846.47L1637.82 4149.97L1778.3 4161.02L1775.23 3963.81L1859.88 4118.02L1779.52 4296.19L1778.3 4161.02L1561.15 4206.49L1637.82 4149.97L1685.67 3931.86M1651.32 3919.58L1920 4016.03L1651.32 3919.58Z" stroke="#B6B4BA" stroke-width="0.998823" stroke-linecap="round" stroke-linejoin="round"/>
<path d="M1594.88 4135.22L1561.15 4206.49L1364.24 4259.32L1429.88 4076.86L1561.15 4206.49L1429.88 4374.21V4406.16L1551.95 4413.53" stroke="#B6B4BA" stroke-width="0.998823" stroke-linecap="round" stroke-linejoin="round"/>
<path d="M1561.15 4206.49L1779.52 4296.19" stroke="#B6B4BA" stroke-width="0.998823" stroke-linecap="round" stroke-linejoin="round"/>
<path d="M1779.52 4296.19L1635.37 4191.13L1637.82 4149.97" stroke="#B6B4BA" stroke-width="0.998823" stroke-linecap="round" stroke-linejoin="round"/>
<path d="M1920 4339.19L1817.55 4413.53L1779.52 4296.19L1692.42 4413.53L1670.33 4251.34L1429.88 4374.21L1550.72 4413.53M1859.88 4118.02L1920 4161.64L1859.88 4118.02ZM1920 4177.61L1779.52 4296.19L1920 4324.45V4177.61Z" stroke="#B6B4BA" stroke-width="0.998823" stroke-linecap="round" stroke-linejoin="round"/>
<path d="M1609.61 4282.06L1681.38 4332.43L1434.78 4375.44" stroke="#B6B4BA" stroke-width="0.998823" stroke-linecap="round" stroke-linejoin="round"/>
<path fill-rule="evenodd" clip-rule="evenodd" d="M1778.91 4095.9C1851.91 4095.9 1911.41 4155.5 1911.41 4228.61C1911.41 4302.33 1851.91 4361.92 1778.91 4361.92C1705.3 4361.92 1646.41 4302.33 1646.41 4228.61C1646.41 4155.5 1705.3 4095.9 1778.91 4095.9Z" stroke="#B6B4BA" stroke-width="0.998823" stroke-linecap="round" stroke-linejoin="round"/>
<path fill-rule="evenodd" clip-rule="evenodd" d="M1668.49 4044.29C1718.18 4044.29 1758.05 4084.23 1758.05 4134.61C1758.05 4184.37 1718.18 4224.31 1668.49 4224.31C1618.81 4224.31 1578.32 4184.37 1578.32 4134.61C1578.32 4084.23 1618.81 4044.29 1668.49 4044.29Z" stroke="#B6B4BA" stroke-width="0.998823" stroke-linecap="round" stroke-linejoin="round"/>
<path fill-rule="evenodd" clip-rule="evenodd" d="M1567.28 3990.23C1601.02 3990.23 1628.62 4017.88 1628.62 4051.05C1628.62 4084.84 1601.02 4112.49 1567.28 4112.49C1533.54 4112.49 1506.55 4084.84 1506.55 4051.05C1506.55 4017.88 1533.54 3990.23 1567.28 3990.23Z" stroke="#B6B4BA" stroke-width="0.998823" stroke-linecap="round" stroke-linejoin="round"/>
<path fill-rule="evenodd" clip-rule="evenodd" d="M1513.91 3197.08C1630.46 3197.08 1724.93 3291.69 1724.93 3408.42C1724.93 3525.15 1630.46 3619.76 1513.91 3619.76C1396.75 3619.76 1302.28 3525.15 1302.28 3408.42C1302.28 3291.69 1396.75 3197.08 1513.91 3197.08Z" stroke="#557E83" stroke-width="0.499412" stroke-linecap="round" stroke-linejoin="round"/>
<path d="M1230.51 4408L1429.88 4406.77" stroke="#B6B4BA" stroke-width="0.998823" stroke-linecap="round" stroke-linejoin="round"/>
<path fill-rule="evenodd" clip-rule="evenodd" d="M1717.06 4429.36C1813.32 4429.36 1894.86 4493.58 1920 4581.65V4697.86C1894.86 4785.93 1813.32 4850.15 1717.06 4850.15C1600.58 4850.15 1506.16 4755.96 1506.16 4639.76C1506.16 4523.55 1600.58 4429.36 1717.06 4429.36Z" stroke="#557E83" stroke-width="0.499412" stroke-linecap="round" stroke-linejoin="round"/>
<path fill-rule="evenodd" clip-rule="evenodd" d="M1717.06 4496.03C1796.77 4496.03 1861.14 4560.25 1861.14 4639.76C1861.14 4719.27 1796.77 4783.49 1717.06 4783.49C1637.97 4783.49 1572.99 4719.27 1572.99 4639.76C1572.99 4560.25 1637.97 4496.03 1717.06 4496.03Z" stroke="#557E83" stroke-width="0.499412" stroke-linecap="round" stroke-linejoin="round"/>
<path fill-rule="evenodd" clip-rule="evenodd" d="M270.762 4442.82C343.721 4442.82 403.192 4502.14 403.192 4575.54C403.192 4648.32 343.721 4707.65 270.762 4707.65C197.19 4707.65 138.333 4648.32 138.333 4575.54C138.333 4502.14 197.19 4442.82 270.762 4442.82Z" stroke="#B6B4BA" stroke-width="0.998823" stroke-linecap="round" stroke-linejoin="round"/>
<path d="M270.762 4409.18H406.257H793.736H863.629L1120.52 4490.52L1110.71 4408.57L863.629 4409.18" stroke="#B6B4BA" stroke-width="0.998823" stroke-linecap="round" stroke-linejoin="round"/>
<path d="M1444.85 5141.89L1436.26 5130.27V5125.99L1447.91 5141.89H1444.85Z" fill="#878597" stroke="#B6B4BA" stroke-width="0.998823" stroke-linecap="round" stroke-linejoin="round"/>
<path d="M24.2962 5870.94L225.393 5692.96L257.887 5461.16L465.728 5393.27L557.08 5300.91L706.676 5323.54L880.183 5305.81L1106.42 5278.89L1245.59 5175.53L1349.82 5135.78L1435.65 5042.2" stroke="#B6B4BA" stroke-width="0.998823" stroke-linecap="round" stroke-linejoin="round"/>
<path d="M214.357 5870.94L225.393 5692.96L82.5406 5533.94L142.011 5374.92L240.72 5422.62L465.728 5393.27L541.139 5467.88L706.676 5323.54L683.991 5599.38" stroke="#B6B4BA" stroke-width="0.998823" stroke-linecap="round" stroke-linejoin="round"/>
<path d="M943.945 5870.94L907.773 5766.96L1008.93 5639.75L1046.95 5466.66L1316.1 5475.84L1430.13 5404.28" stroke="#B6B4BA" stroke-width="0.998823" stroke-linecap="round" stroke-linejoin="round"/>
<path d="M1430.13 5461.77L1387.22 5557.79L1418.48 5767.58" stroke="#B6B4BA" stroke-width="0.998823" stroke-linecap="round" stroke-linejoin="round"/>
<path d="M1286.67 5650.76L1304.45 5574.92L1316.1 5475.22L1387.22 5557.79" stroke="#B6B4BA" stroke-width="0.998823" stroke-linecap="round" stroke-linejoin="round"/>
<path d="M1304.45 5574.92L1046.95 5467.27L1194.09 5671.55" stroke="#B6B4BA" stroke-width="0.998823" stroke-linecap="round" stroke-linejoin="round"/>
<path fill-rule="evenodd" clip-rule="evenodd" d="M880.183 5305.81L683.991 5599.38L1046.95 5466.66L880.183 5305.81Z" stroke="#B6B4BA" stroke-width="0.998823" stroke-linecap="round" stroke-linejoin="round"/>
<path d="M1046.95 5466.66L1106.42 5278.9L1316.1 5475.22L1245.59 5175.53L1168.34 5111.92L1096.61 5102.14L1106.42 5278.9L1168.34 5111.92L1192.25 4965.75L1267.05 4826.3L1436.88 4876.45" stroke="#B6B4BA" stroke-width="0.998823" stroke-linecap="round" stroke-linejoin="round"/>
<path d="M1430.13 4929.66L1278.7 5039.75L1167.73 5111.31" stroke="#B6B4BA" stroke-width="0.998823" stroke-linecap="round" stroke-linejoin="round"/>
<path d="M1430.13 5351.07L1245.59 5176.14L1277.47 5041.59L1192.25 4965.75" stroke="#B6B4BA" stroke-width="0.998823" stroke-linecap="round" stroke-linejoin="round"/>
<path d="M1430.13 5306.42L1349.82 5135.78L1276.86 5040.98L1430.13 5006.11" stroke="#B6B4BA" stroke-width="0.998823" stroke-linecap="round" stroke-linejoin="round"/>
<path d="M1276.86 5040.98L1267.05 4826.3L1298.32 4784.71L1426.45 4779.21L1430.13 4738.84" stroke="#B6B4BA" stroke-width="0.998823" stroke-linecap="round" stroke-linejoin="round"/>
<path d="M1436.88 4876.45L1298.32 4784.71L1247.43 4744.34L1267.05 4826.3L1189.8 4833.03L1192.25 4965.75L1094.77 4943.73L1096.61 5102.14L1192.25 4965.75" stroke="#B6B4BA" stroke-width="0.998823" stroke-linecap="round" stroke-linejoin="round"/>
<path d="M1426.45 4778.59L1364.53 4557.19L1316.71 4530.89L1259.69 4689.91L984.41 4641.59L1004.64 4789.6L1189.8 4833.03L1247.43 4744.34L1259.69 4689.91" stroke="#B6B4BA" stroke-width="0.998823" stroke-linecap="round" stroke-linejoin="round"/>
<path d="M1247.43 4744.34L1002.19 4790.83L932.91 4833.03L753.885 4778.59L984.41 4641.59L930.457 4833.03L937.814 4872.17L1002.19 4790.83L1094.77 4943.73L1189.8 4833.03" stroke="#B6B4BA" stroke-width="0.998823" stroke-linecap="round" stroke-linejoin="round"/>
<path d="M1298.32 4784.71L1259.69 4690.52L1426.45 4779.21L1329.59 4568.81L1316.71 4530.89" stroke="#B6B4BA" stroke-width="0.998823" stroke-linecap="round" stroke-linejoin="round"/>
<path d="M1329.59 4568.81L1259.69 4689.91L1186.73 4416.52L1316.71 4530.89L1346.75 4497.86L1186.73 4416.52L1110.71 4409.79" stroke="#B6B4BA" stroke-width="0.998823" stroke-linecap="round" stroke-linejoin="round"/>
<path d="M1430.13 4407.95L1346.75 4497.86" stroke="#B6B4BA" stroke-width="0.998823" stroke-linecap="round" stroke-linejoin="round"/>
<path d="M1364.53 4557.19L1430.13 4442.82" stroke="#B6B4BA" stroke-width="0.998823" stroke-linecap="round" stroke-linejoin="round"/>
<path d="M1230.88 4409.18L1186.73 4416.52L985.023 4641.59L1247.43 4744.34" stroke="#B6B4BA" stroke-width="0.998823" stroke-linecap="round" stroke-linejoin="round"/>
<path d="M863.629 4409.18L985.023 4641.59L842.784 4556.58L844.01 4409.18" stroke="#B6B4BA" stroke-width="0.998823" stroke-linecap="round" stroke-linejoin="round"/>
<path d="M793.736 4409.18L590.8 4542.51L842.784 4556.58L720.777 4644.65L753.885 4778.59L842.784 4556.58" stroke="#B6B4BA" stroke-width="0.998823" stroke-linecap="round" stroke-linejoin="round"/>
<path d="M406.257 4409.18L590.8 4542.51L720.777 4644.65L542.978 4574.93L590.8 4542.51" stroke="#B6B4BA" stroke-width="0.998823" stroke-linecap="round" stroke-linejoin="round"/>
<path d="M388.477 4409.18L542.978 4574.93L590.187 4777.37L720.777 4644.65" stroke="#B6B4BA" stroke-width="0.998823" stroke-linecap="round" stroke-linejoin="round"/>
<path d="M753.885 4778.59L590.187 4777.37L455.918 4752.29L542.978 4574.93" stroke="#B6B4BA" stroke-width="0.998823" stroke-linecap="round" stroke-linejoin="round"/>
<path d="M362.114 4409.18L456.531 4752.91L2.83771 4529.05L270.762 4409.18" stroke="#B6B4BA" stroke-width="0.998823" stroke-linecap="round" stroke-linejoin="round"/>
<path d="M0.998413 4526L2.83771 4529.05L45.7547 4872.78L456.531 4752.91L411.162 4858.71L590.187 4777.37L697.479 5038.53L939.654 4870.34L750.819 4775.54L764.307 4990.21L912.677 5066.66M912.677 5066.66L937.814 4871.56L1094.77 4943.73M912.677 5066.66L1094.77 4943.73M912.677 5066.66L1034.07 5098.47L1094.77 4943.73" stroke="#B6B4BA" stroke-width="0.998823" stroke-linecap="round" stroke-linejoin="round"/>
<path d="M590.187 4777.37L428.942 4925.38L411.775 4957.19L416.067 5077.06L697.479 5038.53L411.775 4957.19" stroke="#B6B4BA" stroke-width="0.998823" stroke-linecap="round" stroke-linejoin="round"/>
<path d="M429.555 4925.38L697.48 5038.53L912.677 5066.66L880.183 5305.81L1034.07 5098.47L1106.42 5278.9" stroke="#B6B4BA" stroke-width="0.998823" stroke-linecap="round" stroke-linejoin="round"/>
<path d="M880.183 5305.81L633.717 5146.17L912.677 5066.66" stroke="#B6B4BA" stroke-width="0.998823" stroke-linecap="round" stroke-linejoin="round"/>
<path d="M697.479 5038.53L633.717 5146.17L706.676 5323.54" stroke="#B6B4BA" stroke-width="0.998823" stroke-linecap="round" stroke-linejoin="round"/>
<path fill-rule="evenodd" clip-rule="evenodd" d="M415.454 5077.06L633.717 5146.17L557.08 5300.91L415.454 5077.06Z" stroke="#B6B4BA" stroke-width="0.998823" stroke-linecap="round" stroke-linejoin="round"/>
<path d="M557.08 5300.91L379.894 5277.67L415.454 5077.06L287.316 5006.73L411.775 4957.19V4859.33L428.942 4925.38" stroke="#B6B4BA" stroke-width="0.998823" stroke-linecap="round" stroke-linejoin="round"/>
<path d="M284.864 5062.38L335.751 5168.8L415.454 5077.06L284.864 5062.38ZM284.864 5062.38L208.226 5072.78L134.041 5231.19L276.28 5192.05L335.751 5168.8L379.894 5277.67L276.28 5192.05L284.864 5062.38ZM284.864 5062.38L287.316 5006.73L45.7547 4872.78L411.162 4858.72L287.316 5006.73L208.226 5072.78L45.7547 4872.78L55.5643 5061.77L208.226 5072.78L85.6062 5202.44L134.041 5231.19L142.011 5374.92L276.28 5192.05L240.72 5422.63L379.894 5277.67L504.353 5354.74L541.139 5467.88L557.08 5300.91" stroke="#B6B4BA" stroke-width="0.998823" stroke-linecap="round" stroke-linejoin="round"/>
<path d="M0.998413 4949.85L46.3678 4872.78L0.998413 4830.58" stroke="#B6B4BA" stroke-width="0.998823" stroke-linecap="round" stroke-linejoin="round"/>
<path d="M0.998413 4530.89L2.83771 4529.05M45.7547 4872.78L0.998413 4654.44L45.7547 4872.78Z" stroke="#B6B4BA" stroke-width="0.998823" stroke-linecap="round" stroke-linejoin="round"/>
<path d="M0.998413 5077.06L55.5643 5061.77L85.6061 5202.44L0.998413 5157.18" stroke="#B6B4BA" stroke-width="0.998823" stroke-linecap="round" stroke-linejoin="round"/>
<path d="M0.998413 5241.59L7.74251 5251.37L85.6061 5202.44" stroke="#B6B4BA" stroke-width="0.998823" stroke-linecap="round" stroke-linejoin="round"/>
<path d="M0.998413 5251.37H7.74251L134.041 5231.19" stroke="#B6B4BA" stroke-width="0.998823" stroke-linecap="round" stroke-linejoin="round"/>
<path d="M0.998413 5258.71L7.74251 5251.37L0.998413 5265.44" stroke="#B6B4BA" stroke-width="0.998823" stroke-linecap="round" stroke-linejoin="round"/>
<path d="M7.74251 5251.37L142.011 5374.92L0.998413 5402.44" stroke="#B6B4BA" stroke-width="0.998823" stroke-linecap="round" stroke-linejoin="round"/>
<path d="M0.998413 5517.43L82.5406 5533.94L240.72 5422.62L257.887 5461.16L82.5406 5533.94L2.83771 5565.74L0.998413 5562.69M142.011 5374.92L0.998413 5481.95L142.011 5374.92Z" stroke="#B6B4BA" stroke-width="0.998823" stroke-linecap="round" stroke-linejoin="round"/>
<path d="M452.24 5869.1L504.966 5597.55L358.435 5713.14L257.887 5461.16L504.966 5597.55L465.728 5393.27" stroke="#B6B4BA" stroke-width="0.998823" stroke-linecap="round" stroke-linejoin="round"/>
<path fill-rule="evenodd" clip-rule="evenodd" d="M570.568 5537.61L541.139 5467.88L615.324 5519.87L570.568 5537.61Z" stroke="#B6B4BA" stroke-width="0.998823" stroke-linecap="round" stroke-linejoin="round"/>
<path d="M541.139 5467.88L504.966 5597.55L570.568 5537.61L683.991 5599.38L504.966 5597.55" stroke="#B6B4BA" stroke-width="0.998823" stroke-linecap="round" stroke-linejoin="round"/>
<path d="M682.765 5598.77L615.324 5519.87L706.676 5323.54" stroke="#B6B4BA" stroke-width="0.998823" stroke-linecap="round" stroke-linejoin="round"/>
<path fill-rule="evenodd" clip-rule="evenodd" d="M1278.7 5171.86C1352.27 5171.86 1411.74 5112.54 1411.74 5039.75C1411.74 4966.36 1352.27 4907.03 1278.7 4907.03C1205.74 4907.03 1146.27 4966.36 1146.27 5039.75C1146.27 5112.54 1205.74 5171.86 1278.7 5171.86Z" stroke="#B6B4BA" stroke-width="0.998823" stroke-linecap="round" stroke-linejoin="round"/>
<path fill-rule="evenodd" clip-rule="evenodd" d="M455.918 5041.59C615.937 5041.59 745.301 4911.93 745.301 4752.29C745.301 4593.27 615.937 4463.61 455.918 4463.61C295.899 4463.61 166.535 4593.27 166.535 4752.29C166.535 4911.93 295.899 5041.59 455.918 5041.59Z" stroke="#B6B4BA" stroke-width="0.998823" stroke-linecap="round" stroke-linejoin="round"/>
<path fill-rule="evenodd" clip-rule="evenodd" d="M82.5406 5849.53C256.661 5849.53 398.287 5708.25 398.287 5533.94C398.287 5360.24 256.661 5218.96 82.5406 5218.96C54.3381 5218.96 26.7486 5222.63 0.998413 5229.35V5839.13C26.7486 5845.86 54.3381 5849.53 82.5406 5849.53Z" stroke="#557E83" stroke-width="0.499412" stroke-linecap="round" stroke-linejoin="round"/>
<path fill-rule="evenodd" clip-rule="evenodd" d="M1081.89 5491.74C1198.38 5491.74 1292.8 5397.55 1292.8 5281.34C1292.8 5165.13 1198.38 5070.95 1081.89 5070.95C965.404 5070.95 870.987 5165.13 870.987 5281.34C870.987 5397.55 965.404 5491.74 1081.89 5491.74Z" stroke="#557E83" stroke-width="0.499412" stroke-linecap="round" stroke-linejoin="round"/>
<path d="M1430.13 4407.95V4442.82L1550.91 4414.68H1691.31L1550.91 4453.83V4414.68" stroke="#B6B4BA" stroke-width="0.998823" stroke-linecap="round" stroke-linejoin="round"/>
<path d="M1430.13 4442.82L1550.91 4453.83L1682.73 4538.23L1811.48 4461.78L1805.96 4414.68H1817.61L1811.48 4461.78" stroke="#B6B4BA" stroke-width="0.998823" stroke-linecap="round" stroke-linejoin="round"/>
<path fill-rule="evenodd" clip-rule="evenodd" d="M1739.75 4504.59L1692.54 4414.68H1805.96L1739.75 4504.59Z" stroke="#B6B4BA" stroke-width="0.998823" stroke-linecap="round" stroke-linejoin="round"/>
<path fill-rule="evenodd" clip-rule="evenodd" d="M1811.48 4461.78L1920 4564.53V4485.63L1811.48 4461.78Z" stroke="#B6B4BA" stroke-width="0.998823" stroke-linecap="round" stroke-linejoin="round"/>
<path d="M1920 4571.26L1739.75 4504.59" stroke="#B6B4BA" stroke-width="0.998823" stroke-linecap="round" stroke-linejoin="round"/>
<path d="M1739.75 4504.59L1720.74 4618.35L1682.73 4538.23L1364.53 4557.19L1550.91 4453.83L1484.7 4549.85L1720.74 4618.35L1618.97 4715.6L1484.7 4549.85L1430.13 4738.84L1364.53 4557.19" stroke="#B6B4BA" stroke-width="0.998823" stroke-linecap="round" stroke-linejoin="round"/>
<path fill-rule="evenodd" clip-rule="evenodd" d="M1593.22 4793.88L1430.13 4738.84L1618.97 4715.6L1472.44 4593.89L1538.65 4725.99L1593.22 4793.88Z" stroke="#B6B4BA" stroke-width="0.998823" stroke-linecap="round" stroke-linejoin="round"/>
<path d="M1920 4583.49L1783.89 4681.96L1720.74 4618.35M1618.97 4715.6L1593.22 4793.88L1702.96 4735.78L1720.74 4618.35L1920 4577.37L1618.97 4715.6Z" stroke="#B6B4BA" stroke-width="0.998823" stroke-linecap="round" stroke-linejoin="round"/>
<path fill-rule="evenodd" clip-rule="evenodd" d="M1835.39 4726.61L1783.89 4681.96L1702.96 4735.78L1835.39 4726.61Z" stroke="#B6B4BA" stroke-width="0.998823" stroke-linecap="round" stroke-linejoin="round"/>
<path d="M1920 4749.24L1835.39 4726.61L1777.76 4940.06L1721.36 4979.2L1835.39 4726.61" stroke="#B6B4BA" stroke-width="0.998823" stroke-linecap="round" stroke-linejoin="round"/>
<path d="M1702.96 4735.78L1721.36 4979.2L1593.22 4793.88L1530.68 4998.16L1721.36 4979.2" stroke="#B6B4BA" stroke-width="0.998823" stroke-linecap="round" stroke-linejoin="round"/>
<path fill-rule="evenodd" clip-rule="evenodd" d="M1426.45 4778.59L1593.22 4793.88L1487.76 4955.96L1426.45 4778.59Z" stroke="#B6B4BA" stroke-width="0.998823" stroke-linecap="round" stroke-linejoin="round"/>
<path d="M1426.45 4778.59L1436.88 4876.45L1487.76 4955.96L1430.13 4929.66L1436.88 4876.45" stroke="#B6B4BA" stroke-width="0.998823" stroke-linecap="round" stroke-linejoin="round"/>
<path d="M1430.13 4929.66L1418.48 4965.75L1487.76 4955.96L1430.13 5006.11L1418.48 4965.75L1278.7 5039.75" stroke="#B6B4BA" stroke-width="0.998823" stroke-linecap="round" stroke-linejoin="round"/>
<path d="M1430.13 5006.11L1435.65 5042.2L1530.68 4998.16L1487.76 4955.96" stroke="#B6B4BA" stroke-width="0.998823" stroke-linecap="round" stroke-linejoin="round"/>
<path d="M1435.65 5042.2L1418.48 5097.86L1349.82 5135.78" stroke="#B6B4BA" stroke-width="0.998823" stroke-linecap="round" stroke-linejoin="round"/>
<path fill-rule="evenodd" clip-rule="evenodd" d="M1530.68 4998.16L1418.48 5097.86L1541.1 5081.95L1530.68 4998.16Z" stroke="#B6B4BA" stroke-width="0.998823" stroke-linecap="round" stroke-linejoin="round"/>
<path d="M1530.68 4998.16L1601.19 5072.78L1721.36 4979.2" stroke="#B6B4BA" stroke-width="0.998823" stroke-linecap="round" stroke-linejoin="round"/>
<path fill-rule="evenodd" clip-rule="evenodd" d="M1553.98 5217.73L1541.1 5081.95L1601.19 5072.78L1758.14 5120.49L1553.98 5217.73Z" stroke="#B6B4BA" stroke-width="0.998823" stroke-linecap="round" stroke-linejoin="round"/>
<path d="M1418.48 5097.86L1473.66 5283.18L1349.82 5135.78" stroke="#B6B4BA" stroke-width="0.998823" stroke-linecap="round" stroke-linejoin="round"/>
<path fill-rule="evenodd" clip-rule="evenodd" d="M1430.13 5351.07V5306.42L1473.66 5283.18L1553.98 5217.73L1499.41 5313.15L1473.66 5283.18L1430.13 5351.07Z" stroke="#B6B4BA" stroke-width="0.998823" stroke-linecap="round" stroke-linejoin="round"/>
<path d="M1553.98 5217.73L1701.12 5248.31L1758.14 5120.49L1875.24 5017.74L1601.19 5072.78" stroke="#B6B4BA" stroke-width="0.998823" stroke-linecap="round" stroke-linejoin="round"/>
<path d="M1920 5077.67L1875.24 5017.74M1920 4742.51L1803.51 4843.42L1920 4902.14V4742.51ZM1920 4881.35L1777.76 4940.06L1875.24 5017.74L1920 5033.03V4881.35Z" stroke="#B6B4BA" stroke-width="0.998823" stroke-linecap="round" stroke-linejoin="round"/>
<path d="M1920 5190.82L1881.37 5304.58L1701.12 5248.31L1920 5175.53M1758.14 5120.49L1920 5171.86L1758.14 5120.49Z" stroke="#B6B4BA" stroke-width="0.998823" stroke-linecap="round" stroke-linejoin="round"/>
<path fill-rule="evenodd" clip-rule="evenodd" d="M1608.55 5385.32L1701.12 5248.31L1499.41 5313.15L1430.13 5351.07L1608.55 5385.32Z" stroke="#B6B4BA" stroke-width="0.998823" stroke-linecap="round" stroke-linejoin="round"/>
<path fill-rule="evenodd" clip-rule="evenodd" d="M1813.93 5442.2L1701.12 5248.31L1707.25 5358.41L1608.55 5385.32L1813.93 5442.2Z" stroke="#B6B4BA" stroke-width="0.998823" stroke-linecap="round" stroke-linejoin="round"/>
<path d="M1701.12 5248.31L1809.64 5309.48L1775.92 5377.37L1881.37 5304.58L1809.64 5309.48" stroke="#B6B4BA" stroke-width="0.998823" stroke-linecap="round" stroke-linejoin="round"/>
<path d="M1920 5354.74L1775.92 5377.37M1881.37 5304.58L1920 5329.05L1881.37 5304.58Z" stroke="#B6B4BA" stroke-width="0.998823" stroke-linecap="round" stroke-linejoin="round"/>
<path d="M1813.93 5442.2L1920 5371.25" stroke="#B6B4BA" stroke-width="0.998823" stroke-linecap="round" stroke-linejoin="round"/>
<path d="M1431.36 5348.62L1430.13 5404.28L1608.55 5385.32L1430.13 5461.77V5404.28" stroke="#B6B4BA" stroke-width="0.998823" stroke-linecap="round" stroke-linejoin="round"/>
<path d="M1608.55 5385.32L1587.09 5518.65L1484.7 5438.53L1504.32 5396.33L1587.09 5518.65L1387.22 5557.79" stroke="#B6B4BA" stroke-width="0.998823" stroke-linecap="round" stroke-linejoin="round"/>
<path d="M1387.22 5557.79L1702.35 5636.08L1608.55 5385.32" stroke="#B6B4BA" stroke-width="0.998823" stroke-linecap="round" stroke-linejoin="round"/>
<path d="M1813.93 5442.2L1663.11 5530.88L1649.01 5622.62L1430.13 5678.89L1387.22 5557.79" stroke="#B6B4BA" stroke-width="0.998823" stroke-linecap="round" stroke-linejoin="round"/>
<path d="M1920 5486.84L1702.35 5636.08L1809.03 5653.82L1820.68 5554.73L1915.71 5591.43L1863.59 5634.24L1820.68 5554.73L1813.93 5442.2M1430.13 5799.38L1649.01 5622.62L1693.77 5675.83L1702.35 5636.08L1813.93 5442.2L1920 5480.12L1430.13 5799.38Z" stroke="#B6B4BA" stroke-width="0.998823" stroke-linecap="round" stroke-linejoin="round"/>
</g>
</g>
<defs>
<clipPath id="clip0">
<rect y="-3" width="1923" height="5722" fill="white"/>
</clipPath>
</defs>
</svg>
