<?xml version="1.0" encoding="UTF-8"?>
<svg xmlns="http://www.w3.org/2000/svg" id="logo-menu" viewBox="0 0 585 582">
   <g transform="translate(-277,-85)">
      <g fill-rule="nonzero" fill="#fff">
         <path d="m582 267h1c4 0 8 1 11 3s4 5 5 9c0 3-1 6-3 8-2 3-5 4-7 6-5 2-11 3-16 4-6 0-11 0-17-2-5-1-10-3-15-6s-7-5-11-10c0 0-1-1-1-2l1 1h1c4 1 7 2 12 2 4 1 8 0 13 0 3-1 6-2 8-3 3-1 6-3 7-5 2-1 4-3 6-4 2 0 3-1 5-1zm1 2c-2 0-4 0-5 1-2 1-4 2-5 4-2 1-5 3-8 5-3 1-6 2-9 3-4 0-9 1-13 0-4 0-7-1-10-2 2 3 5 6 9 8 4 3 9 5 15 6 5 1 10 2 16 1 5 0 10-2 15-4 3-1 5-3 6-5 2-2 3-4 3-7s-2-6-4-8c-3-2-6-2-10-2z" />
         <polygon points="862 373 862 375 277 375 277 373" />
         <polygon points="803 140 804 142 333 612 332 611" />
         <path d="m569 270c29 0 55 12 74 31 19 18 30 44 30 73s-11 55-30 74-45 30-74 30c-28 0-54-11-73-30s-31-45-31-74 12-55 31-73c18-19 45-31 73-31zm72 32c-18-18-44-30-72-30s-53 12-72 30c-18 18-30 44-30 72s12 54 30 72c19 19 44 30 72 30s54-11 72-30c19-18 30-44 30-72s-11-54-30-72z" />
         <path d="m569 166c58 0 110 23 148 61 37 38 61 90 61 147 0 58-24 110-61 147-38 38-90 61-148 61-57 0-109-23-147-61-38-37-61-89-61-147 0-57 23-109 61-147s90-61 147-61zm146 62c-37-37-89-60-146-60s-108 23-146 60c-37 38-60 89-60 146s23 109 60 146c38 37 89 60 146 60s109-23 146-60 61-89 61-146-24-108-61-146z" />
         <path d="m569 373c29 0 55 12 74 31 18 19 30 45 30 73 0 29-12 55-30 74-19 18-45 30-74 30-28 0-54-12-73-30-19-19-31-45-31-74 0-28 12-54 31-73s45-31 73-31zm72 32c-18-18-44-30-72-30s-53 12-72 30c-18 19-30 44-30 72s12 54 30 72c19 19 44 30 72 30s54-11 72-30c19-18 30-44 30-72s-11-53-30-72z" />
         <path d="m570 147c53 22 107 45 160 67 22 54 44 107 66 160-22 54-44 107-66 161-54 22-107 44-161 66-53-22-107-44-160-66-23-54-45-107-67-161 22-53 45-107 67-161 54-22 107-44 160-66h1zm79 35-80-33-158 66-67 159 66 159 159 66 159-66 66-159-65-159-80-33z" />
         <path d="m569 166c12 0 23 5 31 13 7 7 12 18 12 30s-5 23-12 30c-8 8-19 13-31 13s-22-5-30-13c-8-7-13-18-13-30s5-23 13-30c8-8 18-13 30-13zm29 14c-7-7-17-12-29-12-11 0-21 5-29 12-7 8-12 18-12 29s5 22 12 29c8 7 18 12 29 12 12 0 22-5 29-12 8-7 12-18 12-29s-4-21-12-29z" />
         <polygon points="568 85 570 85 570 667 568 667" />
         <polygon points="338 142 339 141 806 610 805 611" />
         <path d="m643 199c29 0 56 11 75 30s30 46 30 74c0 29-11 56-30 75s-46 30-75 30-55-11-74-30-31-46-31-75c0-28 12-55 31-74s45-30 74-30zm73 32c-19-19-44-30-73-30-28 0-54 11-72 30-19 18-31 44-31 72 0 29 12 55 31 73 18 19 44 30 72 30 29 0 54-11 73-30 19-18 30-44 30-73 0-28-11-54-30-72z" />
         <path d="m495 199c29 0 55 11 74 30s31 46 31 74c0 29-12 56-31 75s-45 30-74 30-55-11-74-30-31-46-31-75c0-28 12-55 31-74s45-30 74-30zm73 32c-19-19-44-30-73-30-28 0-54 11-73 30-18 18-30 44-30 72 0 29 12 55 30 73 19 19 45 30 73 30 29 0 54-11 73-30 19-18 30-44 30-73 0-28-11-54-30-72z" />
      </g>
      <path d="m569 218c5 0 9 2 12 5s5 7 5 12c0 4-2 9-5 12s-7 5-12 5c-4 0-9-2-12-5s-5-8-5-12c0-5 2-9 5-12s8-5 12-5zm11 6c-3-3-7-4-11-4s-8 1-10 4c-3 3-5 7-5 11s2 8 5 10c2 3 6 5 10 5s8-2 11-5c3-2 4-6 4-10s-1-8-4-11z" stroke="#fff" fill="none" />
      <g fill="#fff">
         <path d="m569 166c12 0 23 5 31 13 7 7 12 18 12 30s-5 23-12 30c-8 8-19 13-31 13s-22-5-30-13c-8-7-13-18-13-30s5-23 13-30c8-8 18-13 30-13zm29 14c-7-7-17-12-29-12-11 0-21 5-29 12-7 8-12 18-12 29s5 22 12 29c8 7 18 12 29 12 12 0 22-5 29-12 8-7 12-18 12-29s-4-21-12-29z" fill-rule="nonzero" />
         <path d="m569 166c18 0 35 8 47 19 11 12 19 29 19 47s-8 34-19 46c-12 12-29 20-47 20s-34-8-46-20-20-28-20-46 8-35 20-47c12-11 28-19 46-19zm45 21c-11-12-27-19-45-19-17 0-33 7-45 19-11 11-19 27-19 45 0 17 8 33 19 45 12 11 28 19 45 19 18 0 34-8 45-19 12-12 19-28 19-45 0-18-7-34-19-45z" fill-rule="nonzero" />
         <path d="m629 312c-10-1-21 2-30 7-12 7-19 25-22 39-1 1-1 1-1 2v-2-2c0-5-1-11-2-17-3-13-15-26-26-32-10-6-23-7-36-5-7 1-22 4-31 16-8 11-11 21-7 36 4 14 19 23 34 21 12-2 20-8 21-20 1-6 6-13 9-15 7-4 16-4 24 4 2 1 4 4 5 7 3 8 1 17-7 22-6 4-11 8-17 14-13 17-18 36-16 56 1 8 3 15 6 22 7 17 20 23 30 37 7 10 9 19 7 27-1 7-2 13-7 21-2-1-3-2-5-2-10-4-20-7-30-7-8 0-16 1-24 4-4 2-9 5-11 8-2 2-2 4-2 6 0 6 4 11 10 11 5 0 10-5 14-7s9-5 14-6c10-3 17-3 24-1 7 1 15 5 23 8 11 4 22 6 35 5 18-1 32.179-9.1729 45.704-19.609 2.6866-2.6472 6.189-5.4364 6.2963-8.391 0-1-1-2-2-2-2 0-4 3-5 4-12 12-28 18-46 20-7 0-14-1-20-3 9-26 4-42-13-61-8-10-19-15-27-25s-14-20-15-32c-2-21 3-39 17-55 4-3 8-7 12-9 9-5 15-3 23-1 7 3 12 7 15 10 7 11 5 14-1 20-2 2-11 6-17 5-14-1-24 5-28 17-8 33 29 49 57 35 13-6 22-18 24-24 4-11 4-23 0-35-5-11-14-24-28-31-11-5-22-6-32-6l1-1c4-4 10-12 11-13 8-6 14-9 21-8 9 0 10 6 11 11 1 10 11 16 22 17 13 1 23-10 24-18 1-9 0-20-7-29-9-11-25-14-31-15z" />
         <path d="m583 267c9-1 16 5 16 12 0 6-4 11-10 13-10 5-22 6-33 3-12-3-21-8-27-18 6 3 16 4 26 3 6-1 13-4 17-8 2-3 7-5 11-5z" />
         <path d="m569 218c10 0 17 7 17 17 0 9-7 17-17 17-9 0-17-8-17-17 0-10 8-17 17-17z" />
      </g>
   </g>
</svg>