<svg width="262" height="118" viewBox="0 0 262 118" fill="none" xmlns="http://www.w3.org/2000/svg">
<path d="M261.48 59.018H0V58.6138H261.48V59.018Z" fill="#FEFEFE"/>
<path d="M107.144 11.1164L11.5448 106.717L11.1397 106.313L106.739 10.9143L107.144 11.1164Z" fill="#FEFEFE"/>
<path d="M59.3444 37.5938C65.0155 37.5938 70.4841 39.817 74.1298 43.6572C77.9781 47.4975 80.4086 52.7525 80.4086 58.6139C80.4086 64.4752 77.9781 69.7303 74.1298 73.3684C70.4841 77.2086 65.0155 79.634 59.3444 79.634C53.4707 79.634 48.2046 77.2086 44.3564 73.3684C40.5081 69.7303 38.2802 64.4752 38.2802 58.6139C38.2802 52.7525 40.5081 47.4975 44.3564 43.6572C48.2046 39.817 53.4707 37.5938 59.3444 37.5938ZM73.9273 44.0615C70.079 40.2213 65.0155 37.998 59.3444 37.998C53.6732 37.998 48.4072 40.2213 44.7614 44.0615C40.9132 47.6996 38.6852 52.9546 38.6852 58.6139C38.6852 64.2731 40.9132 69.326 44.7614 73.1662C48.4072 76.8043 53.6732 79.2297 59.3444 79.2297C65.0155 79.2297 70.079 76.8043 73.9273 73.1662C77.573 69.326 80.0035 64.2731 80.0035 58.6139C80.0035 52.9546 77.573 47.6996 73.9273 44.0615Z" fill="#FEFEFE"/>
<path d="M59.3444 16.5735C70.8892 16.5735 81.4213 21.2222 89.1179 28.9026C96.8144 36.3809 101.473 46.8909 101.473 58.6137C101.473 70.1343 96.8144 80.6444 89.1179 88.3248C81.4213 96.0052 70.8892 100.654 59.3444 100.654C47.5971 100.654 37.0649 96.0052 29.3684 88.3248C21.8744 80.6444 17.0134 70.1343 17.0134 58.6137C17.0134 46.8909 21.8744 36.3809 29.3684 28.9026C37.0649 21.2222 47.5971 16.5735 59.3444 16.5735ZM88.9153 29.1047C81.2188 21.6264 70.8892 16.9777 59.3444 16.9777C47.7996 16.9777 37.2675 21.6264 29.7735 29.1047C22.2795 36.583 17.4185 47.0931 17.4185 58.6137C17.4185 70.1343 22.2795 80.4423 29.7735 88.1227C37.2675 95.601 47.7996 100.25 59.3444 100.25C70.8892 100.25 81.2188 95.601 88.9153 88.1227C96.4093 80.4423 101.068 70.1343 101.068 58.6137C101.068 47.0931 96.4093 36.583 88.9153 29.1047Z" fill="#FEFEFE"/>
<path d="M59.3444 58.4116C65.0155 58.4116 70.2816 60.837 74.1298 64.4751C77.9781 68.3153 80.4086 73.5704 80.4086 79.4317C80.4086 85.2931 77.9781 90.346 74.1298 94.1862C70.2816 98.0264 65.0155 100.452 59.3444 100.452C53.4707 100.452 48.2046 98.0264 44.3564 94.1862C40.7106 90.346 38.2802 85.2931 38.2802 79.4317C38.2802 73.5704 40.7106 68.3153 44.3564 64.4751C48.2046 60.837 53.4707 58.4116 59.3444 58.4116ZM73.9273 64.8793C70.079 61.0391 65.0155 58.8159 59.3444 58.8159C53.6732 58.8159 48.4072 61.0391 44.7614 64.8793C40.9132 68.5174 38.6852 73.7725 38.6852 79.4317C38.6852 85.091 40.9132 90.1439 44.7614 93.9841C48.4072 97.6222 53.6732 100.048 59.3444 100.048C65.0155 100.048 70.079 97.6222 73.9273 93.9841C77.573 90.1439 80.0035 85.091 80.0035 79.4317C80.0035 73.7725 77.573 68.5174 73.9273 64.8793Z" fill="#FEFEFE"/>
<path d="M59.3444 12.7334C70.2816 17.18 81.0162 21.6265 91.7509 26.0731C96.2068 36.9874 100.865 47.6995 105.321 58.6138C100.865 69.326 96.2068 80.2403 91.7509 90.9525C81.0162 95.6011 70.079 100.048 59.3444 104.494C48.4072 100.048 37.6725 95.6011 26.7354 90.9525C22.2795 80.2403 17.8236 69.326 13.3677 58.6138C17.8236 47.6995 22.2795 36.9874 26.7354 26.0731C37.6725 21.6265 48.4072 17.18 59.3444 12.7334ZM75.3451 19.8075L59.3444 13.1376L27.1404 26.4773L13.7728 58.6138L27.1404 90.7503L59.3444 104.09L91.5483 90.7503L104.916 58.6138L91.5483 26.4773L75.3451 19.8075Z" fill="#FEFEFE"/>
<path d="M59.3444 16.5735C61.7749 16.5735 63.8003 17.5841 65.4206 18.9989C67.0409 20.6158 68.0536 22.8391 68.0536 25.2645C68.0536 27.6899 67.0409 29.7111 65.4206 31.328C63.8003 32.9449 61.7749 33.9555 59.3444 33.9555C56.9139 33.9555 54.6859 32.9449 53.0656 31.328C51.6478 29.7111 50.6351 27.6899 50.6351 25.2645C50.6351 22.8391 51.6478 20.6158 53.0656 18.9989C54.6859 17.5841 56.9139 16.5735 59.3444 16.5735ZM65.2181 19.4031C63.5977 17.7862 61.5723 16.9777 59.3444 16.9777C56.9139 16.9777 54.8885 17.7862 53.4707 19.4031C51.8504 20.8179 51.0402 22.8391 51.0402 25.2645C51.0402 27.4878 51.8504 29.5089 53.4707 31.1259C54.8885 32.5407 56.9139 33.5513 59.3444 33.5513C61.5723 33.5513 63.5977 32.5407 65.2181 31.1259C66.6358 29.5089 67.6485 27.4878 67.6485 25.2645C67.6485 22.8391 66.6358 20.8179 65.2181 19.4031Z" fill="#FEFEFE"/>
<path d="M59.5469 0V117.834H59.1418V0H59.5469Z" fill="#FEFEFE"/>
<path d="M11.9499 11.5208L107.549 105.909L107.347 106.313L11.7474 11.925L11.9499 11.5208Z" fill="#FEFEFE"/>
<path d="M74.3324 23.0413C80.206 23.0413 85.4721 25.4667 89.3204 29.3069C93.1686 33.1471 95.5991 38.4021 95.5991 44.2635C95.5991 50.1249 93.1686 55.3799 89.3204 59.2201C85.4721 63.0603 80.206 65.4857 74.3324 65.4857C68.4587 65.4857 63.1926 63.0603 59.3444 59.2201C55.4961 55.3799 53.0656 50.1249 53.0656 44.2635C53.0656 38.4021 55.4961 33.1471 59.3444 29.3069C63.1926 25.4667 68.4587 23.0413 74.3324 23.0413ZM89.1178 29.509C85.2696 25.8709 80.0035 23.4455 74.3324 23.4455C68.4587 23.4455 63.3952 25.8709 59.5469 29.509C55.6986 33.3492 53.4707 38.6042 53.4707 44.2635C53.4707 50.1249 55.6986 55.1778 59.5469 59.018C63.3952 62.8582 68.4587 65.0815 74.3324 65.0815C80.0035 65.0815 85.2696 62.8582 89.1178 59.018C92.7636 55.1778 95.194 50.1249 95.194 44.2635C95.194 38.6042 92.7636 33.3492 89.1178 29.509Z" fill="#FEFEFE"/>
<path d="M44.3564 23.0413C50.2301 23.0413 55.4961 25.4667 59.3444 29.3069C63.1927 33.1471 65.6232 38.4021 65.6232 44.2635C65.6232 50.1249 63.1927 55.3799 59.3444 59.2201C55.4961 63.0603 50.2301 65.4857 44.3564 65.4857C38.4827 65.4857 33.0141 63.0603 29.3684 59.2201C25.5201 55.3799 23.0897 50.1249 23.0897 44.2635C23.0897 38.4021 25.5201 33.1471 29.3684 29.3069C33.0141 25.4667 38.4827 23.0413 44.3564 23.0413ZM58.9393 29.509C55.2936 25.8709 50.0275 23.4455 44.3564 23.4455C38.4827 23.4455 33.4192 25.8709 29.571 29.509C25.7227 33.3492 23.4947 38.6042 23.4947 44.2635C23.4947 50.1249 25.7227 55.1778 29.571 59.018C33.4192 62.8582 38.4827 65.0815 44.3564 65.0815C50.0275 65.0815 55.2936 62.8582 58.9393 59.018C62.7876 55.1778 65.2181 50.1249 65.2181 44.2635C65.2181 38.6042 62.7876 33.3492 58.9393 29.509Z" fill="#FEFEFE"/>
<path d="M118.486 56.7947V54.5714H112.207V46.2847H113.018V53.9651H117.474V46.2847H118.284V53.9651H119.296V56.7947H118.486ZM120.309 54.5714V46.2847H124.36V47.0931H121.119V50.1249H124.157V50.7312H121.119V53.9651H124.562V54.5714H120.309ZM131.246 54.5714V50.7312H126.79V54.5714H125.98V46.2847H126.79V50.1249H131.246V46.2847H132.056V54.5714H131.246ZM136.31 47.0931V54.5714H135.5V47.0931H133.069V46.2847H138.74V47.0931H136.31ZM140.563 51.3376V54.5714H139.753V46.2847H141.981C142.386 46.2847 142.791 46.4868 142.994 46.4868C143.399 46.6889 143.601 46.6889 143.804 46.891C144.209 47.0931 144.209 47.4974 144.411 47.6995C144.614 48.1037 144.614 48.3058 144.614 48.7101C144.614 49.1143 144.614 49.5185 144.411 49.7206C144.209 50.1249 144.006 50.327 143.804 50.7312C143.601 50.9333 143.196 51.1355 142.791 51.1355C142.589 51.3376 142.183 51.3376 141.576 51.3376H140.563ZM140.563 47.0931V50.7312H141.576C142.386 50.7312 142.791 50.5291 143.196 50.1249C143.601 49.9228 143.804 49.3164 143.804 48.7101C143.804 47.6995 143.196 47.0931 141.778 47.0931H140.563ZM154.741 54.3693C154.133 54.5714 153.323 54.7736 152.513 54.7736C151.905 54.7736 151.5 54.5714 150.893 54.3693C150.488 54.1672 150.083 53.9651 149.677 53.5609C149.475 53.1566 149.07 52.7524 149.07 52.3482C148.867 51.7418 148.665 51.1355 148.665 50.7312C148.665 49.9228 148.867 49.5185 149.07 48.9122C149.272 48.3058 149.475 47.9016 149.88 47.4974C150.285 47.0931 150.69 46.6889 151.095 46.4868C151.703 46.2847 152.31 46.2847 152.918 46.2847C153.526 46.2847 154.133 46.2847 154.741 46.4868V47.2953C154.133 47.0931 153.526 46.891 152.918 46.891C152.31 46.891 151.905 47.0931 151.5 47.0931C151.095 47.2953 150.69 47.6995 150.488 47.9016C150.083 48.3058 149.88 48.7101 149.677 49.1143C149.677 49.5185 149.475 50.1249 149.475 50.5291C149.475 51.1355 149.677 51.5397 149.677 51.9439C149.88 52.3482 150.083 52.7524 150.285 52.9545C150.488 53.3587 150.893 53.5609 151.298 53.763C151.703 53.9651 152.108 53.9651 152.716 53.9651C153.526 53.9651 154.133 53.9651 154.741 53.5609V54.3693ZM161.627 54.5714L160.615 52.146H157.171L156.159 54.5714H155.349L158.589 46.2847H159.399L162.438 54.5714H161.627ZM158.994 47.6995C158.994 47.6995 158.994 47.6995 158.994 47.4974V47.2953H158.792V47.4974C158.792 47.6995 158.792 47.6995 158.792 47.6995L157.374 51.5397H160.412L158.994 47.6995ZM170.742 54.5714V48.9122C170.742 48.7101 170.742 48.1037 170.742 47.4974C170.742 47.6995 170.742 47.9016 170.742 47.9016C170.539 48.1037 170.539 48.1037 170.539 48.3058L167.704 54.5714H167.299L164.463 48.3058C164.26 48.1037 164.26 47.9016 164.26 47.4974H164.058C164.26 47.6995 164.26 47.9016 164.26 48.1037C164.26 48.3058 164.26 48.5079 164.26 48.9122V54.5714H163.45V46.2847H164.26L167.096 52.5503C167.299 52.7524 167.299 52.7524 167.299 52.9545C167.299 53.1566 167.501 53.1566 167.501 53.3587C167.501 53.1566 167.704 53.1566 167.704 52.9545C167.704 52.7524 167.704 52.7524 167.906 52.5503L170.742 46.2847H171.552V54.5714H170.742ZM176.818 54.7736C176.21 54.7736 175.603 54.5714 175.198 54.3693C174.59 54.1672 174.185 53.9651 173.982 53.5609C173.577 53.1566 173.375 52.7524 173.172 52.146C172.97 51.7418 172.97 51.1355 172.97 50.5291C172.97 49.9228 172.97 49.3164 173.172 48.7101C173.375 48.3058 173.577 47.6995 173.982 47.4974C174.185 47.0931 174.59 46.6889 175.198 46.4868C175.603 46.2847 176.21 46.2847 176.818 46.2847C177.426 46.2847 178.033 46.2847 178.438 46.4868C178.843 46.6889 179.248 47.0931 179.653 47.2953C180.059 47.6995 180.261 48.1037 180.464 48.7101C180.464 49.1143 180.666 49.7206 180.666 50.327C180.666 50.9333 180.464 51.5397 180.464 52.146C180.261 52.5503 180.059 53.1566 179.653 53.5609C179.248 53.9651 178.843 54.1672 178.438 54.3693C177.831 54.5714 177.426 54.7736 176.818 54.7736ZM176.818 46.891C176.21 46.891 175.805 47.0931 175.4 47.0931C174.995 47.2953 174.792 47.6995 174.387 47.9016C174.185 48.3058 173.982 48.7101 173.982 49.1143C173.78 49.5185 173.577 49.9228 173.577 50.5291C173.577 50.9333 173.78 51.3376 173.78 51.7418C173.982 52.3482 174.185 52.5503 174.387 52.9545C174.59 53.3587 174.995 53.5609 175.4 53.763C175.805 53.9651 176.21 53.9651 176.818 53.9651C177.223 53.9651 177.628 53.9651 178.033 53.763C178.438 53.5609 178.843 53.3587 179.046 52.9545C179.248 52.7524 179.451 52.3482 179.653 51.9439C179.856 51.5397 179.856 50.9333 179.856 50.5291C179.856 49.9228 179.856 49.5185 179.653 49.1143C179.451 48.7101 179.451 48.3058 179.046 47.9016C178.843 47.6995 178.641 47.2953 178.236 47.0931C177.831 47.0931 177.426 46.891 176.818 46.891ZM187.35 54.5714V47.0931H182.692V54.5714H182.084V46.2847H187.958V54.5714H187.35ZM193.224 54.7736C192.616 54.7736 192.211 54.5714 191.603 54.3693C191.198 54.1672 190.793 53.9651 190.388 53.5609C190.186 53.1566 189.781 52.7524 189.578 52.146C189.578 51.7418 189.375 51.1355 189.375 50.5291C189.375 49.9228 189.578 49.3164 189.578 48.7101C189.781 48.3058 190.186 47.6995 190.388 47.4974C190.793 47.0931 191.198 46.6889 191.806 46.4868C192.211 46.2847 192.819 46.2847 193.426 46.2847C194.034 46.2847 194.439 46.2847 195.047 46.4868C195.452 46.6889 195.857 47.0931 196.262 47.2953C196.464 47.6995 196.667 48.1037 196.869 48.7101C197.072 49.1143 197.275 49.7206 197.275 50.327C197.275 50.9333 197.072 51.5397 196.869 52.146C196.667 52.5503 196.464 53.1566 196.262 53.5609C195.857 53.9651 195.452 54.1672 194.844 54.3693C194.439 54.5714 193.831 54.7736 193.224 54.7736ZM193.224 46.891C192.819 46.891 192.414 47.0931 192.008 47.0931C191.603 47.2953 191.198 47.6995 190.996 47.9016C190.793 48.3058 190.591 48.7101 190.388 49.1143C190.186 49.5185 190.186 49.9228 190.186 50.5291C190.186 50.9333 190.186 51.3376 190.388 51.7418C190.591 52.3482 190.793 52.5503 190.996 52.9545C191.198 53.3587 191.603 53.5609 191.806 53.763C192.211 53.9651 192.819 53.9651 193.224 53.9651C193.831 53.9651 194.236 53.9651 194.641 53.763C195.047 53.5609 195.249 53.3587 195.654 52.9545C195.857 52.7524 196.059 52.3482 196.262 51.9439C196.262 51.5397 196.464 50.9333 196.464 50.5291C196.464 49.9228 196.262 49.5185 196.262 49.1143C196.059 48.7101 195.857 48.3058 195.654 47.9016C195.452 47.6995 195.047 47.2953 194.641 47.0931C194.236 47.0931 193.831 46.891 193.224 46.891ZM203.148 52.3482C203.148 52.5503 203.148 52.9545 202.946 53.1566C202.946 53.5609 202.743 53.763 202.338 53.9651C202.135 54.1672 201.933 54.3693 201.528 54.5714C201.123 54.5714 200.718 54.7736 200.313 54.7736C199.705 54.7736 199.3 54.7736 199.097 54.5714C198.692 54.5714 198.287 54.3693 198.085 54.1672V53.3587C198.49 53.5609 198.692 53.763 199.097 53.9651C199.502 53.9651 199.908 54.1672 200.313 54.1672C200.515 54.1672 200.92 53.9651 201.123 53.9651C201.528 53.9651 201.73 53.763 201.933 53.5609C201.933 53.3587 202.135 53.1566 202.338 52.9545C202.338 52.7524 202.338 52.5503 202.338 52.3482C202.338 51.7418 202.135 51.3376 201.73 51.1355C201.325 50.7312 200.718 50.7312 200.11 50.7312H199.3V49.9228H199.908C200.313 49.9228 200.515 49.9228 200.92 49.9228C201.123 49.7206 201.325 49.7206 201.528 49.5185C201.73 49.5185 201.73 49.3164 201.933 49.1143C201.933 48.9122 202.135 48.5079 202.135 48.3058C202.135 48.1037 202.135 47.9016 201.933 47.6995C201.933 47.4974 201.73 47.4974 201.73 47.2953C201.528 47.0931 201.325 47.0931 201.123 46.891C200.92 46.891 200.718 46.891 200.515 46.891C200.11 46.891 199.705 46.891 199.502 47.0931C199.097 47.0931 198.692 47.2953 198.49 47.4974V46.6889C198.692 46.4868 199.097 46.4868 199.3 46.2847C199.705 46.2847 200.11 46.2847 200.515 46.2847C200.92 46.2847 201.123 46.2847 201.528 46.2847C201.73 46.4868 202.135 46.6889 202.338 46.6889C202.541 46.891 202.541 47.0931 202.743 47.4974C202.743 47.6995 202.946 47.9016 202.946 48.1037C202.946 48.7101 202.743 49.1143 202.541 49.5185C202.135 49.9228 201.73 50.1249 201.325 50.327C201.528 50.327 201.73 50.327 202.135 50.5291C202.338 50.5291 202.541 50.7312 202.743 50.9333C202.946 51.1355 202.946 51.3376 203.148 51.5397C203.148 51.7418 203.148 51.9439 203.148 52.3482ZM209.832 54.5714V50.7312H205.376V54.5714H204.566V46.2847H205.376V50.1249H209.832V46.2847H210.642V54.5714H209.832ZM217.934 54.5714L216.921 52.146H213.478L212.465 54.5714H211.655L214.896 46.2847H215.503L218.744 54.5714H217.934ZM215.301 47.6995C215.301 47.6995 215.301 47.6995 215.301 47.4974C215.301 47.4974 215.301 47.2953 215.098 47.2953V47.4974C215.098 47.6995 215.098 47.6995 215.098 47.6995L213.68 51.5397H216.718L215.301 47.6995ZM225.023 54.5714V50.7312H220.567V54.5714H219.757V46.2847H220.567V50.1249H225.023V46.2847H225.833V54.5714H225.023ZM233.327 54.5714V48.3058C233.327 48.1037 233.327 48.1037 233.327 47.9016C233.327 47.6995 233.327 47.4974 233.327 47.4974L233.124 47.6995C233.124 47.9016 233.124 47.9016 232.922 47.9016L228.466 54.5714H227.656V46.2847H228.466V52.5503C228.466 52.7524 228.466 52.9545 228.466 52.9545C228.466 53.1566 228.263 53.3587 228.263 53.3587H228.466C228.466 53.3587 228.466 53.3587 228.466 53.1566C228.668 53.1566 228.668 52.9545 228.668 52.9545L233.124 46.2847H234.137V54.5714H233.327ZM235.15 54.5714L236.567 51.9439C236.77 51.9439 236.77 51.7418 236.77 51.5397C236.972 51.5397 236.972 51.3376 237.175 51.1355C237.175 51.1355 237.175 50.9333 237.378 50.9333L237.58 50.7312C237.378 50.7312 237.175 50.5291 236.972 50.5291C236.567 50.327 236.365 50.1249 236.365 49.9228C236.162 49.7206 235.96 49.5185 235.96 49.3164C235.757 49.1143 235.757 48.9122 235.757 48.5079C235.757 48.1037 235.757 47.9016 235.96 47.4974C236.162 47.2953 236.365 47.0931 236.567 46.891C236.77 46.6889 236.972 46.4868 237.378 46.4868C237.58 46.4868 237.985 46.2847 238.188 46.2847H240.618V54.5714H239.808V50.9333H238.998C238.795 50.9333 238.593 50.9333 238.39 51.1355C238.39 51.1355 238.188 51.1355 237.985 51.3376C237.985 51.3376 237.783 51.5397 237.783 51.7418C237.58 51.7418 237.378 51.9439 237.378 52.146L236.162 54.5714H235.15ZM238.39 47.0931C237.783 47.0931 237.378 47.0931 236.972 47.4974C236.77 47.6995 236.567 48.1037 236.567 48.5079C236.567 48.9122 236.567 49.1143 236.77 49.3164C236.77 49.5185 236.972 49.7206 237.175 49.9228C237.175 49.9228 237.378 50.1249 237.783 50.1249C237.985 50.327 238.188 50.327 238.39 50.327H239.808V47.0931H238.39Z" fill="#FEFEFE"/>
<path fill-rule="evenodd" clip-rule="evenodd" d="M71.6994 46.6891C69.674 46.487 67.446 47.0933 65.6232 48.1039C63.1927 49.5187 61.7749 53.1568 60.9647 55.9865C60.9647 56.1886 60.9647 56.1886 60.7622 56.3907C60.7622 56.1886 60.7622 56.1886 60.7622 55.9865C60.9647 54.7738 60.7622 53.3589 60.5597 52.1463C59.952 49.5187 57.5216 47.0933 55.2936 45.8806C53.2682 44.6679 50.4326 44.2637 48.0021 44.6679C46.5844 44.8701 43.5462 45.6785 41.7234 48.1039C40.1031 50.1251 39.4954 52.1463 40.3056 55.178C40.9132 58.0076 44.1539 59.8267 46.9894 59.4224C49.6225 59.0182 51.2428 57.8055 51.4453 55.3801C51.4453 54.1674 52.6606 52.7526 53.2682 52.3484C54.686 51.5399 56.3063 51.5399 58.1292 53.1568C58.5343 53.3589 58.7368 53.9653 58.9393 54.5716C59.7495 56.1886 59.3444 58.0076 57.5216 59.0182C56.3063 59.8267 55.2936 60.6351 54.2809 61.8478C51.6479 65.2838 50.6352 69.124 51.0403 73.1664C51.2428 74.7833 51.6479 76.1981 52.2555 77.6129C53.6733 81.0489 56.3063 82.2616 58.3317 85.0912C59.547 87.1124 60.1546 88.9314 59.7495 90.5484C59.547 91.9632 59.1419 93.1759 58.3317 94.7928C57.9266 94.5907 57.5216 94.3886 57.1165 94.3886C55.2936 93.5801 53.2682 92.9738 51.2428 92.9738C49.4199 92.9738 47.7996 93.1759 46.3818 93.7822C45.5717 94.1865 44.5589 94.7928 43.9513 95.3992C43.7488 95.8034 43.5462 96.2076 43.5462 96.6119C43.5462 97.8246 44.5589 98.8351 45.7742 98.8351C46.7869 98.8351 47.7996 97.8246 48.6098 97.4203C49.4199 97.0161 50.4326 96.6119 51.4453 96.2076C53.2682 95.8034 54.8885 95.8034 56.3063 96.0055C57.7241 96.2076 59.1419 97.0161 60.9647 97.6224C63.1927 98.4309 65.4206 98.8351 68.0537 98.633C71.6994 98.4309 74.535 97.0161 77.168 94.7928C77.5731 94.3886 77.7756 94.1865 77.9782 93.7822C78.1807 93.5801 78.5858 93.378 78.5858 93.1759C78.5858 92.7716 78.3833 92.5695 78.1807 92.5695C77.7756 92.5695 77.168 93.1759 76.9655 93.378C74.7375 95.8034 71.4969 97.0161 67.8511 97.4203C66.2308 97.4203 65.0156 97.2182 63.5978 96.814C65.6232 91.5589 64.6105 88.3251 61.1673 84.4849C59.547 82.4637 57.319 81.4531 55.6987 79.432C54.0784 77.4108 52.8631 75.3896 52.458 72.9642C52.053 68.7198 53.2682 65.0817 56.1038 62.05C56.9139 61.2415 57.5216 60.433 58.3317 60.0288C60.1546 59.0182 61.5724 59.4224 63.1927 60.0288C64.6105 60.433 65.6232 61.2415 66.2308 62.05C67.4461 64.0711 67.2435 64.6775 66.0283 65.8902C65.6232 66.2944 63.8003 67.1029 62.3825 67.1029C59.7495 66.6986 57.7241 68.1134 56.9139 70.3367C55.0911 77.0066 62.7876 80.2404 68.4588 77.6129C70.8892 76.4002 72.7121 73.7727 73.3197 72.56C74.1299 70.3367 73.9274 67.9113 73.1172 65.688C72.307 63.2627 70.4842 60.8373 67.6486 59.2203C65.4206 58.2097 63.5978 58.0076 61.5724 58.2097C61.3698 58.2097 61.1673 58.2097 60.9647 58.2097L61.1673 58.0076C61.5724 57.4013 62.9902 55.7843 63.5978 55.3801C65.2181 53.9653 66.4333 53.5611 67.6486 53.5611C69.4715 53.5611 69.674 54.7738 69.8765 55.7843C70.2816 57.8055 72.307 59.0182 74.535 59.2203C77.168 59.4224 79.1934 57.1992 79.396 55.5822C79.5985 53.7632 79.396 51.5399 77.7756 49.7209C76.1553 47.6997 72.9146 46.8912 71.6994 46.6891Z" fill="#FEFEFE"/>
<path fill-rule="evenodd" clip-rule="evenodd" d="M62.5851 37.1896C64.2054 36.9875 65.8257 38.2002 65.8257 39.615C65.8257 40.8277 64.813 41.8383 63.8003 42.2425C61.7749 43.2531 59.3444 43.4552 57.1165 42.8489C54.686 42.2425 52.8631 41.2319 51.6479 39.2108C52.8631 39.615 54.8885 40.0192 56.9139 39.8171C58.1292 39.615 59.547 39.0086 60.1546 38.2002C60.7622 37.5938 61.7749 37.1896 62.5851 37.1896Z" fill="#FEFEFE"/>
<path fill-rule="evenodd" clip-rule="evenodd" d="M59.547 26.8816C61.3698 26.8816 62.9901 28.4985 62.9901 30.3176C62.9901 32.3387 61.3698 33.7536 59.547 33.7536C57.7241 33.7536 56.1038 32.3387 56.1038 30.3176C56.1038 28.4985 57.7241 26.8816 59.547 26.8816Z" fill="#FEFEFE"/>
<path d="M132.259 92.7715H128.006V80.4424H116.258V92.7715H112.207V64.2731H116.258V76.198H128.006V64.2731H132.259V92.7715ZM158.184 92.7715H154.133V73.7726C154.133 72.1557 154.336 70.943 154.336 70.1345C154.133 70.7409 153.931 71.3472 153.526 71.9536L141.576 92.7715H137.12V64.2731H140.968V82.4636C140.968 84.4848 140.968 85.8996 140.968 86.5059C141.171 85.8996 141.576 85.4953 141.981 84.6869L153.526 64.2731H158.184V92.7715ZM180.464 91.5588C178.641 92.7715 176.21 93.3779 173.375 93.3779C169.932 93.3779 166.893 91.9631 164.868 89.3356C162.64 86.708 161.425 83.2721 161.425 79.0276C161.425 74.5811 162.64 70.943 165.273 68.1133C167.704 65.2837 170.742 63.8689 174.387 63.8689C176.818 63.8689 178.843 64.2731 180.464 65.0816V69.7303C178.843 68.5176 177.02 67.9112 174.995 67.9112C172.159 67.9112 169.932 68.9218 168.311 70.943C166.691 72.9641 165.881 75.5916 165.881 78.8255C165.881 82.0594 166.691 84.4848 168.109 86.3038C169.729 88.325 171.754 89.1334 174.387 89.1334C176.615 89.1334 178.843 88.5271 180.464 87.3144V91.5588ZM204.363 92.7715H199.908L197.68 85.4953H187.755L185.73 92.7715H181.071L190.388 64.2731H195.047L204.363 92.7715ZM196.464 81.6551L193.021 70.3366C193.021 69.9324 192.819 69.326 192.819 68.5176H192.616C192.616 69.326 192.414 69.9324 192.211 70.3366L188.97 81.6551H196.464ZM210.642 82.4636V92.7715H206.591V64.2731H214.085C216.921 64.2731 219.149 65.0816 220.769 66.4964C222.39 68.1133 223.2 70.3366 223.2 72.9641C223.2 75.7938 222.187 78.017 220.567 79.8361C218.946 81.6551 216.718 82.4636 213.883 82.4636H210.642ZM210.642 68.1133V78.6234H213.275C215.098 78.6234 216.516 78.2192 217.326 77.2086C218.339 76.198 218.744 74.9853 218.744 73.1662C218.744 69.9324 217.123 68.1133 213.68 68.1133H210.642ZM239.808 68.3155H230.086V92.7715H226.035V64.2731H239.808V68.3155ZM260.467 92.7715H255.809L253.581 85.4953H243.859L241.631 92.7715H237.175L246.492 64.2731H251.15L260.467 92.7715ZM252.568 81.6551L249.125 70.3366C248.922 69.9324 248.72 69.326 248.72 68.5176C248.517 69.326 248.315 69.9324 248.315 70.3366L244.872 81.6551H252.568Z" fill="#FEFEFE"/>
<path d="M59.3444 16.5735C62.9901 16.5735 66.4333 17.9883 68.8638 20.4137C71.2943 22.8391 72.9146 26.2751 72.9146 30.1153C72.9146 33.7534 71.2943 37.1894 68.8638 39.6148C66.4333 42.0402 62.9901 43.455 59.3444 43.455C55.4961 43.455 52.2555 42.0402 49.825 39.6148C47.192 37.1894 45.7742 33.7534 45.7742 30.1153C45.7742 26.2751 47.192 22.8391 49.825 20.4137C52.2555 17.9883 55.4961 16.5735 59.3444 16.5735ZM68.6612 20.8179C66.2308 18.3925 62.9901 16.9777 59.3444 16.9777C55.6987 16.9777 52.458 18.3925 50.0275 20.8179C47.597 23.0412 46.1793 26.4772 46.1793 30.1153C46.1793 33.5513 47.597 36.9872 50.0275 39.2105C52.458 41.6359 55.6987 43.0507 59.3444 43.0507C62.9901 43.0507 66.2308 41.6359 68.6612 39.2105C70.8892 36.9872 72.5095 33.5513 72.5095 30.1153C72.5095 26.4772 70.8892 23.0412 68.6612 20.8179Z" fill="#FEFEFE"/>
</svg>
