<svg xmlns="http://www.w3.org/2000/svg" xmlns:xlink="http://www.w3.org/1999/xlink" version="1.1" width="709px" height="709px" viewBox="0 0 709 709">

<defs>
  <style type="text/css">
   
    @keyframes str0 {
    	0% {stroke-dashoffset: 710;}
    	15% {stroke-dashoffset: 710;}
		75% {stroke-dashoffset: 0;}
        100% {stroke-dashoffset: 0;}
    }
    @keyframes str1 {
    	0% {stroke-dashoffset: 655;}
    	15% {stroke-dashoffset: 655;}
		75% {stroke-dashoffset: 0;}
        100% {stroke-dashoffset: 0;}
    }
    @keyframes str2 {
    	0% {stroke-dashoffset: 420;}
    	15% {stroke-dashoffset: 420;}
		75% {stroke-dashoffset: 0;}
        100% {stroke-dashoffset: 0;}
    }
    @keyframes str3 {
    	0% {stroke-dashoffset: 265;}
    	15% {stroke-dashoffset: 265;}
		75% {stroke-dashoffset: 0;}
        100% {stroke-dashoffset: 0;}
    }
    @keyframes str4 {
    	0% {stroke-dashoffset: 1310;}
    	15% {stroke-dashoffset: 1310;}
		75% {stroke-dashoffset: 0;}
        100% {stroke-dashoffset: 0;}
    }
    @keyframes str5{
    	0% {stroke-dashoffset: 1400;}
    	15% {stroke-dashoffset: 1400;}
		75% {stroke-dashoffset: 0;}
        100% {stroke-dashoffset: 0;}
    }
    @keyframes str6 {
    	0% {stroke-dashoffset: 655;}
    	15% {stroke-dashoffset: 655;}
		85% {stroke-dashoffset: 0;}
        100% {stroke-dashoffset: 0;}
    }
    .fil00 {animation: str0 8s 1s linear alternate infinite; stroke-dasharray: 710; stroke-dashoffset: 710;}
    .fil01 {animation: str1 8s 0s linear alternate infinite; stroke-dasharray: 655; stroke-dashoffset: 655;}
    .fil02 {animation: str2 8s 1s linear alternate infinite; stroke-dasharray: 420; stroke-dashoffset: 420;}
    .fil03 {animation: str3 8s 1s linear alternate infinite; stroke-dasharray: 265; stroke-dashoffset: 265;}
    .fil04 {animation: str4 8s 1s linear alternate infinite; stroke-dasharray: 1310; stroke-dashoffset: 1310;}
    .fil05 {animation: str5 8s 1s linear alternate infinite; stroke-dasharray: 1400; stroke-dashoffset: 1400;}
    .fil06 {animation: str6 8s 2s linear alternate infinite; stroke-dasharray: 655; stroke-dashoffset: 655;}
    .fil1 {fill:none;stroke:#4D5E58;}
    .fil2 {fill:#4D5E58}
   
  </style>
</defs>

<g>
  <line class="fil1 fil00" x1="644" y1="341" x2="60" y2="341"></line>
  <line class="fil1 fil00" x1="353" y1="51" x2="353" y2="634"></line>

  <line class="fil1 fil00" x1="588" y1="105" x2="116" y2="578"></line>
  <line class="fil1 fil00" x1="119" y1="109" x2="591" y2="576"></line>

  <circle class="fil1 fil01" cx="279" cy="270" r="104"></circle>
  <circle class="fil1 fil01" cx="427" cy="270" r="104"></circle>
  <circle class="fil1 fil01" cx="353" cy="444" r="104"></circle>

  <circle class="fil1 fil02" cx="353" cy="200" r="66"></circle>
  <circle class="fil1 fil03" cx="353" cy="176" r="42"></circle>

  <circle class="fil1 fil04" cx="353" cy="341" r="208"></circle>

  <polygon class="fil1 fil05" points="353,115 433,148 513,181 546,261 579,341 546,421 513,501 433,534 353,567 273,534 193,501 160,421 127,341 160,261 193,181 273,148 "></polygon>

  <circle class="fil1 fil06" cx="353" cy="341" r="104"></circle>
</g>

<g>
  <path class="fil2" d="M414 282c-10,-1 -21,2 -30,7 -12,7 -19,25 -23,39 0,1 0,2 -1,3 0,-2 0,-2 0,-3 1,-6 0,-13 -1,-19 -3,-13 -15,-25 -26,-31 -10,-6 -23,-8 -36,-6 -7,1 -22,5 -31,17 -8,10 -11,21 -7,35 3,15 19,23 33,21 13,-2 21,-8 22,-20 1,-6 6,-13 9,-14 7,-4 15,-5 24,3 2,2 3,4 5,7 3,9 1,17 -8,22 -6,4 -11,8 -16,14 -13,17 -18,36 -16,56 1,8 3,16 6,22 7,17 20,23 30,38 6,9 9,18 7,26 -1,7 -3,13 -7,21 -2,-1 -4,-1 -5,-2 -10,-4 -20,-7 -30,-7 -8,0 -17,2 -24,5 -4,1 -9,4 -12,7 -1,2 -2,4 -2,7 0,6 5,11 11,11 5,0 10,-5 14,-8 4,-2 9,-4 14,-6 9,-2 17,-2 24,-1 7,2 14,5 23,8 11,4 22,6 35,5 18,-1 32,-8 45,-19 2,-2 3,-3 5,-4 0,-1 2,-3 2,-4 0,-1 -1,-2 -2,-2 -2,0 -4,3 -5,4 -12,12 -28,18 -46,19 -7,0 -14,-1 -21,-2 10,-26 5,-42 -12,-62 -8,-10 -19,-15 -27,-25 -8,-9 -14,-19 -16,-32 -2,-20 4,-39 18,-54 4,-4 7,-7 12,-10 9,-5 15,-3 23,0 7,2 12,6 15,10 6,10 5,13 -1,19 -2,3 -11,6 -18,6 -13,-2 -23,5 -27,17 -9,32 29,49 57,35 13,-6 22,-19 24,-25 4,-11 4,-23 0,-34 -5,-12 -14,-24 -28,-31 -11,-6 -20,-7 -30,-6 -1,0 -2,0 -3,0 0,0 1,-1 1,-1 3,-2 9,-11 12,-13 8,-6 14,-9 20,-9 9,1 11,6 11,11 2,11 12,16 23,17 13,2 23,-9 24,-18 1,-9 0,-20 -8,-29 -8,-10 -24,-14 -30,-15z"></path>
  <path class="fil2" d="M369 235c9,-1 16,5 16,12 0,6 -4,11 -10,13 -10,5 -22,6 -33,3 -12,-3 -21,-8 -27,-18 6,2 16,4 26,3 6,-1 13,-4 17,-8 2,-3 7,-5 11,-5z"></path>
  <path class="fil2" d="M354 184c10,0 17,8 17,17 0,10 -7,18 -17,18 -9,0 -17,-8 -17,-18 0,-9 8,-17 17,-17z"></path>
</g>

</svg>