<svg xmlns="http://www.w3.org/2000/svg" xmlns:xlink="http://www.w3.org/1999/xlink" version="1.1" width="710" height="880" viewBox="0 0 710 880">

<defs>
  <style type="text/css">
   
    @keyframes str0 {
    	0% {stroke-dashoffset: 710;}
    	15% {stroke-dashoffset: 710;}
		75% {stroke-dashoffset: 0;}
        100% {stroke-dashoffset: 0;}
    }
    @keyframes str1 {
    	0% {stroke-dashoffset: 655;}
    	15% {stroke-dashoffset: 655;}
		75% {stroke-dashoffset: 0;}
        100% {stroke-dashoffset: 0;}
    }
    @keyframes str2 {
    	0% {stroke-dashoffset: 420;}
    	15% {stroke-dashoffset: 420;}
		75% {stroke-dashoffset: 0;}
        100% {stroke-dashoffset: 0;}
    }
    @keyframes str3 {
    	0% {stroke-dashoffset: 265;}
    	15% {stroke-dashoffset: 265;}
		75% {stroke-dashoffset: 0;}
        100% {stroke-dashoffset: 0;}
    }
    @keyframes str4 {
    	0% {stroke-dashoffset: 1310;}
    	15% {stroke-dashoffset: 1310;}
		75% {stroke-dashoffset: 0;}
        100% {stroke-dashoffset: 0;}
    }
    @keyframes str5{
    	0% {stroke-dashoffset: 1400;}
    	15% {stroke-dashoffset: 1400;}
		75% {stroke-dashoffset: 0;}
        100% {stroke-dashoffset: 0;}
    }
    @keyframes str6 {
    	0% {stroke-dashoffset: 655;}
    	15% {stroke-dashoffset: 655;}
		85% {stroke-dashoffset: 0;}
        100% {stroke-dashoffset: 0;}
    }
    .fil00 {animation: str0 8s 1s linear alternate infinite; stroke-dasharray: 710; stroke-dashoffset: 710;}
    .fil01 {animation: str1 8s 0s linear alternate infinite; stroke-dasharray: 655; stroke-dashoffset: 655;}
    .fil02 {animation: str2 8s 1s linear alternate infinite; stroke-dasharray: 420; stroke-dashoffset: 420;}
    .fil03 {animation: str3 8s 1s linear alternate infinite; stroke-dasharray: 265; stroke-dashoffset: 265;}
    .fil04 {animation: str4 8s 1s linear alternate infinite; stroke-dasharray: 1310; stroke-dashoffset: 1310;}
    .fil05 {animation: str5 8s 1s linear alternate infinite; stroke-dasharray: 1400; stroke-dashoffset: 1400;}
    .fil06 {animation: str6 8s 2s linear alternate infinite; stroke-dasharray: 655; stroke-dashoffset: 655;}
    .fil1 {fill:none;stroke:#4D5E58;}
    .fil2 {fill:#4D5E58}
   
  </style>
</defs>

<g>
  <line class="fil1 fil00" x1="644" y1="341" x2="60" y2="341"></line>
  <line class="fil1 fil00" x1="353" y1="51" x2="353" y2="634"></line>

  <line class="fil1 fil00" x1="588" y1="105" x2="116" y2="578"></line>
  <line class="fil1 fil00" x1="119" y1="109" x2="591" y2="576"></line>

  <circle class="fil1 fil01" cx="279" cy="270" r="104"></circle>
  <circle class="fil1 fil01" cx="427" cy="270" r="104"></circle>
  <circle class="fil1 fil01" cx="353" cy="444" r="104"></circle>

  <circle class="fil1 fil02" cx="353" cy="200" r="66"></circle>
  <circle class="fil1 fil03" cx="353" cy="176" r="42"></circle>

  <circle class="fil1 fil04" cx="353" cy="341" r="208"></circle>

  <polygon class="fil1 fil05" points="353,115 433,148 513,181 546,261 579,341 546,421 513,501 433,534 353,567 273,534 193,501 160,421 127,341 160,261 193,181 273,148 "></polygon>

  <circle class="fil1 fil06" cx="353" cy="341" r="104"></circle>
</g>

<g>
  <path class="fil2" d="M414 282c-10,-1 -21,2 -30,7 -12,7 -19,25 -23,39 0,1 0,2 -1,3 0,-2 0,-2 0,-3 1,-6 0,-13 -1,-19 -3,-13 -15,-25 -26,-31 -10,-6 -23,-8 -36,-6 -7,1 -22,5 -31,17 -8,10 -11,21 -7,35 3,15 19,23 33,21 13,-2 21,-8 22,-20 1,-6 6,-13 9,-14 7,-4 15,-5 24,3 2,2 3,4 5,7 3,9 1,17 -8,22 -6,4 -11,8 -16,14 -13,17 -18,36 -16,56 1,8 3,16 6,22 7,17 20,23 30,38 6,9 9,18 7,26 -1,7 -3,13 -7,21 -2,-1 -4,-1 -5,-2 -10,-4 -20,-7 -30,-7 -8,0 -17,2 -24,5 -4,1 -9,4 -12,7 -1,2 -2,4 -2,7 0,6 5,11 11,11 5,0 10,-5 14,-8 4,-2 9,-4 14,-6 9,-2 17,-2 24,-1 7,2 14,5 23,8 11,4 22,6 35,5 18,-1 32,-8 45,-19 2,-2 3,-3 5,-4 0,-1 2,-3 2,-4 0,-1 -1,-2 -2,-2 -2,0 -4,3 -5,4 -12,12 -28,18 -46,19 -7,0 -14,-1 -21,-2 10,-26 5,-42 -12,-62 -8,-10 -19,-15 -27,-25 -8,-9 -14,-19 -16,-32 -2,-20 4,-39 18,-54 4,-4 7,-7 12,-10 9,-5 15,-3 23,0 7,2 12,6 15,10 6,10 5,13 -1,19 -2,3 -11,6 -18,6 -13,-2 -23,5 -27,17 -9,32 29,49 57,35 13,-6 22,-19 24,-25 4,-11 4,-23 0,-34 -5,-12 -14,-24 -28,-31 -11,-6 -20,-7 -30,-6 -1,0 -2,0 -3,0 0,0 1,-1 1,-1 3,-2 9,-11 12,-13 8,-6 14,-9 20,-9 9,1 11,6 11,11 2,11 12,16 23,17 13,2 23,-9 24,-18 1,-9 0,-20 -8,-29 -8,-10 -24,-14 -30,-15z"></path>
  <path class="fil2" d="M369 235c9,-1 16,5 16,12 0,6 -4,11 -10,13 -10,5 -22,6 -33,3 -12,-3 -21,-8 -27,-18 6,2 16,4 26,3 6,-1 13,-4 17,-8 2,-3 7,-5 11,-5z"></path>
  <path class="fil2" d="M354 184c10,0 17,8 17,17 0,10 -7,18 -17,18 -9,0 -17,-8 -17,-18 0,-9 8,-17 17,-17z"></path>
</g>

<g transform="matrix(0.55,0,0,.55,30 260)">
  <path class="fil2" d="m 284,807 0,-11 -31,0 0,-41 3,0 0,38 23,0 0,-38 3,0 0,38 6,0 0,14 -4,0 z m 9,-11 0,-41 20,0 0,4 -16,0 0,15 15,0 0,3 -15,0 0,16 17,0 0,3 -21,0 z m 54,0 0,-19 -22,0 0,19 -4,0 0,-41 4,0 0,19 22,0 0,-19 4,0 0,41 -4,0 z m 25,-37 0,37 -4,0 0,-37 -12,0 0,-4 27,0 0,4 -11,0 z m 20,21 0,16 -3,0 0,-41 10,0 c 2,0 4,1 6,1 2,1 3,1 4,2 1,1 2,3 3,4 0,2 1,3 1,5 0,2 -1,4 -1,5 -1,2 -2,3 -3,5 -2,1 -3,2 -5,2 -2,1 -4,1 -6,1 l -6,0 z m 0,-21 0,18 6,0 c 3,0 6,-1 8,-3 2,-1 3,-4 3,-7 0,-5 -4,-8 -11,-8 l -6,0 z m 71,36 c -3,1 -7,2 -11,2 -3,0 -6,-1 -8,-2 -2,-1 -4,-2 -6,-4 -2,-2 -3,-4 -4,-6 -1,-3 -1,-6 -1,-8 0,-4 0,-6 1,-9 1,-3 3,-5 4,-7 2,-2 4,-4 7,-5 2,-1 5,-1 8,-1 4,0 7,0 10,1 l 0,4 c -3,-1 -6,-2 -10,-2 -2,0 -5,1 -7,1 -2,1 -3,3 -5,4 -1,2 -2,4 -3,6 -1,2 -1,5 -1,7 0,3 0,5 1,7 0,2 1,4 3,5 1,2 3,3 5,4 2,1 4,1 6,1 4,0 8,0 11,-2 l 0,4 z m 33,1 -4,-12 -18,0 -4,12 -4,0 15,-41 4,0 16,41 -5,0 z m -12,-34 c 0,0 0,0 0,-1 -1,0 -1,-1 -1,-1 l 0,0 c 0,0 0,1 0,1 0,1 -1,1 -1,1 l -6,19 15,0 -7,-19 z m 58,34 0,-28 c 0,-1 0,-4 0,-7 l 0,0 c 0,1 -1,2 -1,2 0,1 0,1 0,2 l -15,31 -1,0 -14,-31 c -1,-1 -1,-2 -2,-4 l 0,0 c 0,1 0,2 0,3 0,1 0,2 0,4 l 0,28 -3,0 0,-41 4,0 14,31 c 0,1 1,1 1,2 0,1 0,1 1,2 l 0,0 c 0,-1 0,-1 0,-2 1,-1 1,-1 1,-2 l 14,-31 4,0 0,41 -3,0 z m 29,1 c -3,0 -5,-1 -8,-2 -2,-1 -4,-2 -6,-4 -1,-2 -3,-4 -4,-7 0,-2 -1,-5 -1,-8 0,-3 1,-6 1,-9 1,-2 3,-5 4,-6 2,-2 4,-4 7,-5 2,-1 5,-1 8,-1 3,0 5,0 8,1 2,1 4,3 6,4 1,2 2,4 3,7 1,2 2,5 2,8 0,3 -1,6 -2,9 -1,2 -2,5 -3,7 -2,2 -4,3 -6,4 -3,1 -6,2 -9,2 z m 1,-39 c -3,0 -5,1 -7,1 -2,1 -4,3 -5,4 -1,2 -2,4 -3,6 -1,2 -1,4 -1,7 0,2 0,4 1,6 1,3 2,4 3,6 1,2 3,3 5,4 1,1 4,1 6,1 3,0 5,0 7,-1 2,-1 3,-2 5,-4 1,-1 2,-3 3,-5 0,-2 1,-5 1,-7 0,-3 -1,-5 -1,-7 -1,-2 -2,-4 -3,-6 -1,-1 -3,-3 -5,-4 -2,0 -4,-1 -6,-1 z m 51,38 0,-37 -22,0 0,37 -4,0 0,-41 30,0 0,41 -4,0 z m 30,1 c -3,0 -6,-1 -8,-2 -2,-1 -4,-2 -6,-4 -2,-2 -3,-4 -4,-7 -1,-2 -1,-5 -1,-8 0,-3 0,-6 1,-9 1,-2 2,-5 4,-6 2,-2 4,-4 6,-5 3,-1 5,-1 9,-1 2,0 5,0 7,1 3,1 5,3 6,4 2,2 3,4 4,7 1,2 1,5 1,8 0,3 0,6 -1,9 -1,2 -2,5 -4,7 -1,2 -3,3 -6,4 -2,1 -5,2 -8,2 z m 0,-39 c -2,0 -4,1 -6,1 -2,1 -4,3 -5,4 -2,2 -3,4 -3,6 -1,2 -1,4 -1,7 0,2 0,4 1,6 0,3 1,4 2,6 2,2 3,3 5,4 2,1 4,1 7,1 2,0 5,0 7,-1 1,-1 3,-2 4,-4 2,-1 3,-3 3,-5 1,-2 1,-5 1,-7 0,-3 0,-5 -1,-7 0,-2 -1,-4 -2,-6 -2,-1 -3,-3 -5,-4 -2,0 -4,-1 -7,-1 z m 49,27 c 0,1 0,3 -1,4 -1,2 -2,3 -3,4 -1,1 -3,2 -4,3 -2,1 -4,1 -7,1 -2,0 -4,0 -6,-1 -1,0 -3,-1 -4,-2 l 0,-4 c 1,1 3,2 5,3 2,0 4,1 5,1 2,0 4,-1 5,-1 1,0 2,-1 3,-2 1,-1 2,-2 2,-3 1,-1 1,-2 1,-3 0,-3 -1,-5 -3,-6 -2,-2 -5,-2 -9,-2 l -4,0 0,-4 4,0 c 1,0 3,0 4,0 2,-1 3,-1 4,-2 0,0 1,-1 2,-2 0,-1 0,-3 0,-4 0,-1 0,-2 0,-3 -1,-1 -1,-1 -2,-2 0,-1 -1,-1 -2,-2 -1,0 -2,0 -4,0 -2,0 -3,0 -5,1 -1,0 -3,1 -4,2 l 0,-4 c 1,-1 3,-1 4,-2 2,0 4,0 6,0 1,0 3,0 4,0 2,1 3,2 4,2 1,1 2,2 2,4 1,1 1,2 1,3 0,3 0,5 -2,7 -1,2 -3,3 -6,4 l 0,0 c 2,0 3,0 4,1 2,0 3,1 3,2 1,1 2,2 2,3 1,1 1,2 1,4 z m 33,11 0,-19 -22,0 0,19 -4,0 0,-41 4,0 0,19 22,0 0,-19 4,0 0,41 -4,0 z m 39,0 -4,-12 -18,0 -4,12 -4,0 15,-41 4,0 16,41 -5,0 z m -12,-34 c 0,0 0,0 -1,-1 0,0 0,-1 0,-1 l 0,0 c 0,0 0,1 0,1 -1,1 -1,1 -1,1 l -6,19 15,0 -7,-19 z m 48,34 0,-19 -23,0 0,19 -3,0 0,-41 3,0 0,19 23,0 0,-19 3,0 0,41 -3,0 z m 41,0 0,-31 c 0,-1 0,-1 0,-2 0,-1 0,-2 0,-2 l 0,0 c -1,0 -1,1 -1,1 0,1 -1,1 -1,1 l -23,33 -4,0 0,-41 4,0 0,31 c 0,1 0,2 0,2 0,1 0,2 0,2 l 0,0 c 0,0 1,0 1,-1 0,0 1,-1 1,-1 l 22,-33 4,0 0,41 -3,0 z m 9,0 7,-13 c 0,0 1,-1 1,-2 0,0 1,-1 1,-2 1,0 1,-1 2,-1 0,0 1,-1 1,-1 l 0,0 c -1,0 -3,-1 -4,-1 -1,-1 -2,-2 -3,-3 0,-1 -1,-2 -2,-3 0,-1 0,-2 0,-4 0,-2 0,-3 1,-5 1,-1 1,-2 3,-3 1,-1 2,-2 3,-2 2,0 3,-1 5,-1 l 12,0 0,41 -4,0 0,-18 -5,0 c -1,0 -1,0 -2,1 -1,0 -1,0 -2,1 -1,0 -1,1 -2,2 0,0 -1,1 -2,2 l -6,12 -4,0 z m 16,-37 c -3,0 -5,0 -7,2 -1,1 -2,3 -2,5 0,2 0,3 0,4 1,1 2,2 2,3 1,0 2,1 3,1 1,1 3,1 4,1 l 7,0 0,-16 -7,0 z"></path>
  <path class="fil2" d="m 303,1018 -21,0 0,-61 -58,0 0,61 -20,0 0,-141 20,0 0,60 58,0 0,-60 21,0 0,141 z m 128,0 -20,0 0,-94 c 0,-8 1,-14 1,-18 l 0,0 c -1,3 -3,6 -4,9 l -59,103 -22,0 0,-141 19,0 0,90 c 0,10 0,17 0,20 l 0,0 c 1,-2 3,-5 4,-9 l 57,-101 24,0 0,141 z m 110,-6 c -9,6 -21,9 -35,9 -18,0 -32,-7 -43,-20 -10,-13 -16,-30 -16,-51 0,-22 6,-40 18,-54 12,-14 28,-21 46,-21 12,0 22,2 30,6 l 0,23 c -8,-6 -18,-9 -28,-9 -13,0 -24,5 -32,15 -8,10 -12,23 -12,39 0,16 3,28 11,37 8,10 18,14 31,14 11,0 21,-3 30,-9 l 0,21 z m 118,6 -22,0 -12,-36 -48,0 -11,36 -22,0 46,-141 23,0 46,141 z m -39,-55 -17,-56 c -1,-2 -1,-5 -2,-9 l 0,0 c -1,4 -1,7 -2,9 l -17,56 38,0 z m 70,4 0,51 -21,0 0,-141 38,0 c 14,0 25,4 33,12 7,7 11,18 11,31 0,14 -4,25 -12,34 -8,9 -19,13 -33,13 l -16,0 z m 0,-71 0,52 13,0 c 9,0 15,-2 20,-7 5,-5 7,-11 7,-20 0,-16 -9,-25 -25,-25 l -15,0 z m 144,1 -48,0 0,121 -20,0 0,-141 68,0 0,20 z m 101,121 -22,0 -11,-36 -49,0 -10,36 -22,0 46,-141 23,0 45,141 z m -38,-55 -18,-56 c 0,-2 -1,-5 -1,-9 l -1,0 c 0,4 -1,7 -1,9 l -17,56 38,0 z"></path>
</g>

</svg>