<svg width="29" height="29" viewBox="0 0 29 29" fill="none" xmlns="http://www.w3.org/2000/svg">
<g id="facebook-light">
	<path class="path" d="M14.4783 0C6.4926 0 0 6.48132 0 14.4531C0 22.4249 6.4926 28.9062 14.4783 28.9062C22.4639 28.9062 28.9565 22.4249 28.9565 14.4531C28.9565 6.48132 22.4639 0 14.4783 0Z"/>
	<path class="vector" d="M15.445 24.0884L15.445 15.298H18.4007L18.8432 11.8723H15.445V9.68503C15.445 8.69322 15.7209 8.01724 17.1458 8.01724L18.963 8.0164V4.95247C18.6485 4.91087 17.5699 4.81763 16.315 4.81763C13.695 4.81763 11.9012 6.41404 11.9012 9.34593V11.8724H8.93787V15.2981H11.9011L11.9011 24.0885L15.445 24.0884Z"/>
</g>
<g id="instagram-light">
	<path class="path" d="M15.4348 0C7.4428 0 0.956543 6.3 0.956543 14.0625C0.956543 21.825 7.4428 28.125 15.4348 28.125C23.4268 28.125 29.9131 21.825 29.9131 14.0625C29.9131 6.3 23.4268 0 15.4348 0Z"/>
	<path class="vector" d="M12.4193 14.0625C12.4193 12.4445 13.7694 11.1326 15.4352 11.1326C17.1009 11.1326 18.4517 12.4445 18.4517 14.0625C18.4517 15.6805 17.1009 16.9924 15.4352 16.9924C13.7694 16.9924 12.4193 15.6805 12.4193 14.0625ZM10.7886 14.0625C10.7886 16.5551 12.8689 18.5756 15.4352 18.5756C18.0014 18.5756 20.0817 16.5551 20.0817 14.0625C20.0817 11.5699 18.0014 9.54942 15.4352 9.54942C12.8689 9.54942 10.7886 11.5699 10.7886 14.0625ZM19.1797 9.37048C19.1797 9.57907 19.2433 9.78301 19.3625 9.9565C19.4817 10.13 19.6513 10.2652 19.8497 10.3451C20.048 10.425 20.2664 10.446 20.477 10.4054C20.6877 10.3648 20.8812 10.2644 21.0331 10.117C21.185 9.96953 21.2885 9.78165 21.3305 9.57707C21.3725 9.3725 21.3511 9.16043 21.269 8.96768C21.1869 8.77493 21.0478 8.61015 20.8692 8.49419C20.6907 8.37823 20.4808 8.3163 20.266 8.31621H20.2656C19.9777 8.31634 19.7017 8.42744 19.4981 8.62512C19.2945 8.82279 19.18 9.09087 19.1797 9.37048ZM11.7794 21.2166C10.8972 21.1776 10.4176 21.0348 10.099 20.9142C9.6765 20.7545 9.37506 20.5642 9.05814 20.2568C8.74121 19.9494 8.54503 19.6569 8.38128 19.2466C8.25705 18.9372 8.1101 18.4713 8.06999 17.6144C8.02613 16.688 8.01737 16.4097 8.01737 14.0626C8.01737 11.7155 8.02685 11.4379 8.06999 10.5107C8.11017 9.65384 8.25821 9.18886 8.38128 8.87857C8.54575 8.46823 8.74164 8.17545 9.05814 7.86762C9.37463 7.55979 9.67578 7.36924 10.099 7.2102C10.4175 7.08954 10.8972 6.94681 11.7794 6.90785C12.7332 6.86524 13.0197 6.85673 15.4352 6.85673C17.8506 6.85673 18.1374 6.86595 19.092 6.90785C19.9742 6.94688 20.453 7.09066 20.7724 7.2102C21.1949 7.36924 21.4963 7.56021 21.8133 7.86762C22.1302 8.17502 22.3256 8.46823 22.4901 8.87857C22.6143 9.18795 22.7613 9.65384 22.8014 10.5107C22.8453 11.4379 22.854 11.7155 22.854 14.0626C22.854 16.4097 22.8453 16.6872 22.8014 17.6144C22.7612 18.4713 22.6135 18.9371 22.4901 19.2466C22.3256 19.6569 22.1298 19.9497 21.8133 20.2568C21.4968 20.5639 21.1949 20.7545 20.7724 20.9142C20.4539 21.0349 19.9742 21.1776 19.092 21.2166C18.1382 21.2592 17.8516 21.2677 15.4352 21.2677C13.0187 21.2677 12.7329 21.2592 11.7794 21.2166ZM11.7045 5.32666C10.7412 5.36927 10.0829 5.51763 9.50805 5.7349C8.9127 5.95927 8.40871 6.26027 7.90509 6.74866C7.40146 7.23706 7.09235 7.72734 6.86135 8.30559C6.63766 8.8643 6.48492 9.5033 6.44105 10.4389C6.39645 11.3761 6.38625 11.6757 6.38625 14.0625C6.38625 16.4493 6.39645 16.7489 6.44105 17.6861C6.48492 18.6218 6.63766 19.2607 6.86135 19.8194C7.09235 20.3973 7.40153 20.8882 7.90509 21.3763C8.40864 21.8645 8.9127 22.1651 9.50805 22.3901C10.084 22.6074 10.7412 22.7557 11.7045 22.7983C12.6698 22.8409 12.9778 22.8516 15.4352 22.8516C17.8925 22.8516 18.201 22.8417 19.1658 22.7983C20.1292 22.7557 20.787 22.6074 21.3623 22.3901C21.9572 22.1651 22.4616 21.8647 22.9652 21.3763C23.4688 20.8879 23.7773 20.3973 24.009 19.8194C24.2326 19.2607 24.3861 18.6217 24.4293 17.6861C24.4731 16.7482 24.4833 16.4493 24.4833 14.0625C24.4833 11.6757 24.4731 11.3761 24.4293 10.4389C24.3854 9.50323 24.2326 8.86395 24.009 8.30559C23.7773 7.7277 23.4681 7.23783 22.9652 6.74866C22.4624 6.2595 21.9572 5.95927 21.363 5.7349C20.787 5.51763 20.1291 5.36857 19.1666 5.32666C18.2017 5.28405 17.8933 5.27344 15.4359 5.27344C12.9785 5.27344 12.6698 5.28335 11.7045 5.32666Z"/>
</g>
<g id="vkontakte-light">
	<path class="path" d="M15 0C7.22401 0 0.913055 6.3 0.913055 14.0625C0.913055 21.825 7.22401 28.125 15 28.125C22.776 28.125 29.087 21.825 29.087 14.0625C29.087 6.3 22.776 0 15 0Z"/>
	<path class="vector" fill-rule="evenodd" clip-rule="evenodd" d="M23.9604 9.68831C24.091 9.25374 23.9604 8.93433 23.3389 8.93433H21.2841C20.7616 8.93433 20.5209 9.21022 20.3902 9.51454C20.3902 9.51454 19.3452 12.0571 17.8649 13.7086C17.3859 14.1867 17.1683 14.3387 16.907 14.3387C16.7764 14.3387 16.5873 14.1867 16.5873 13.7522V9.68831C16.5873 9.16671 16.4357 8.93433 16.0002 8.93433H12.7712C12.4448 8.93433 12.2484 9.17638 12.2484 9.40582C12.2484 9.90032 12.9885 10.0143 13.0648 11.4051V14.4258C13.0648 15.0881 12.945 15.2083 12.6838 15.2083C11.9872 15.2083 10.2928 12.6541 9.28771 9.73183C9.09074 9.16377 8.89318 8.93433 8.36803 8.93433H6.3132C5.72611 8.93433 5.60869 9.21022 5.60869 9.51454C5.60869 10.0578 6.30542 12.7526 8.85238 16.3165C10.5505 18.7502 12.9427 20.0697 15.1196 20.0697C16.4259 20.0697 16.5873 19.7767 16.5873 19.2719V17.4324C16.5873 16.8463 16.7111 16.7294 17.1245 16.7294C17.4295 16.7294 17.9519 16.8815 19.1711 18.055C20.5643 19.4456 20.7939 20.0697 21.5776 20.0697H23.6325C24.2196 20.0697 24.5131 19.7767 24.3437 19.1984C24.1585 18.622 23.4933 17.786 22.6106 16.7946C22.1317 16.2295 21.4132 15.621 21.1957 15.3168C20.8909 14.9256 20.9779 14.7518 21.1957 14.4043C21.1957 14.4043 23.6991 10.8838 23.9604 9.68846V9.68831Z"/>
</g>
<g id="youtube-light">
	<path class="path" d="M14.5217 0C6.52973 0 0.0434723 6.475 0.0434723 14.4531C0.0434723 22.4312 6.52973 28.9062 14.5217 28.9062C22.5137 28.9062 29 22.4312 29 14.4531C29 6.475 22.5137 0 14.5217 0Z"/>
	<path class="vector" fill-rule="evenodd" clip-rule="evenodd" d="M22.2735 14.5553C22.0871 13.8639 21.541 13.3187 20.8484 13.1326C19.583 12.7869 14.5217 12.7869 14.5217 12.7869C14.5217 12.7869 9.46038 12.7869 8.19505 13.1193C7.51577 13.3054 6.95636 13.8639 6.76989 14.5553C6.4369 15.8184 6.4369 18.4377 6.4369 18.4377C6.4369 18.4377 6.4369 21.0704 6.76989 22.3202C6.95636 23.0116 7.50245 23.5568 8.19505 23.7429C9.4737 24.0886 14.5217 24.0886 14.5217 24.0886C14.5217 24.0886 19.583 24.0886 20.8484 23.7562C21.541 23.5701 22.0871 23.0249 22.2735 22.3335C22.6065 21.0704 22.6065 18.451 22.6065 18.451C22.6065 18.451 22.6198 15.8184 22.2735 14.5553ZM18.9718 19.7168V19.9518C18.9718 20.2476 18.9805 20.4739 18.998 20.6218C19.0154 20.7697 19.0503 20.8829 19.1113 20.9438C19.1636 21.0134 19.2508 21.0482 19.3728 21.0482C19.5297 21.0482 19.6343 20.9873 19.6953 20.8655C19.7563 20.7436 19.7825 20.5435 19.7912 20.2563L20.6891 20.3085C20.6978 20.352 20.6978 20.4043 20.6978 20.4739C20.6978 20.9003 20.5845 21.2222 20.3491 21.4311C20.1137 21.6399 19.7825 21.7443 19.3554 21.7443C18.8411 21.7443 18.4837 21.579 18.2744 21.257C18.0652 20.9351 17.9606 20.4391 17.9606 19.7603V18.951C17.9606 18.2549 18.0652 17.7502 18.2832 17.4282C18.5011 17.1062 18.8672 16.9496 19.3815 16.9496C19.7389 16.9496 20.0178 17.0192 20.2096 17.1498C20.4014 17.2803 20.5322 17.4891 20.6106 17.7589C20.6891 18.0373 20.7239 18.4202 20.7239 18.9075V19.6994H18.9718V19.7168ZM19.1026 17.7676C19.0503 17.8372 19.0154 17.9416 18.998 18.0896C18.9805 18.2375 18.9718 18.4637 18.9718 18.7683V19.099H19.7389V18.7683C19.7389 18.4724 19.7302 18.2462 19.7128 18.0896C19.6953 17.9329 19.6517 17.8285 19.5994 17.7676C19.5471 17.7067 19.46 17.6719 19.3554 17.6719C19.2333 17.6632 19.1549 17.698 19.1026 17.7676ZM13.9334 21.6922V17.0541H12.8873V20.735C12.8524 20.822 12.7914 20.8916 12.7042 20.9438C12.6171 21.0047 12.5299 21.0309 12.4427 21.0309C12.3381 21.0309 12.2597 20.9873 12.2161 20.9003C12.1725 20.8133 12.1464 20.6654 12.1464 20.4565V17.0541H11.1003V20.5174C11.1003 20.9525 11.1701 21.2658 11.3182 21.4659C11.4664 21.6661 11.6931 21.7705 11.9982 21.7705C12.4427 21.7705 12.7827 21.553 13.0006 21.1266H13.0268L13.114 21.6922H13.9334ZM11.4141 16.1839H10.3768L10.3768 21.6835H9.35691L9.35691 16.1839H8.31959V15.3399H11.4141V16.1839ZM17.0889 17.1585C17.2284 17.289 17.333 17.4979 17.394 17.7937C17.455 18.0809 17.4812 18.4899 17.4899 19.0207V19.7516C17.4899 20.4391 17.4027 20.9525 17.2371 21.2745C17.0715 21.5964 16.8187 21.7618 16.4613 21.7618C16.2608 21.7618 16.0865 21.7096 15.9208 21.6225C15.7552 21.5268 15.6332 21.405 15.5547 21.2484H15.5286L15.424 21.6835H14.561L14.561 15.1048H15.5722V17.5501H15.5809C15.668 17.376 15.7988 17.2281 15.9644 17.1237C16.13 17.0106 16.3131 16.9583 16.5049 16.9583C16.749 16.9583 16.9494 17.028 17.0889 17.1585ZM16.3916 20.4739C16.4177 20.2825 16.4351 20.0214 16.4351 19.682H16.4439V19.0729C16.4439 18.7161 16.4351 18.4377 16.409 18.2375C16.3828 18.0461 16.348 17.9068 16.287 17.8198C16.2347 17.7415 16.1475 17.698 16.0429 17.698C15.947 17.698 15.8511 17.7415 15.7639 17.8198C15.6768 17.9068 15.6157 18.0113 15.5809 18.1331L15.5809 20.7611C15.6245 20.8394 15.6855 20.9003 15.7552 20.9438C15.825 20.9873 15.9034 21.0047 15.9906 21.0047C16.0952 21.0047 16.1824 20.9612 16.2521 20.8829C16.3131 20.8046 16.3654 20.6653 16.3916 20.4739Z"/>
	<path class="vector" d="M13.5411 11.0308C13.3319 10.8916 13.1837 10.6741 13.0966 10.3695C13.0094 10.0736 12.9658 9.67334 12.9658 9.18604V8.51599C12.9658 8.01999 13.0181 7.6197 13.114 7.31513C13.2186 7.01057 13.3755 6.79302 13.5847 6.65379C13.8026 6.51456 14.0816 6.44495 14.4303 6.44495C14.7702 6.44495 15.0492 6.51456 15.2584 6.65379C15.4676 6.79302 15.6158 7.01927 15.7117 7.31513C15.8075 7.611 15.8598 8.01128 15.8598 8.51599V9.18604C15.8598 9.68204 15.8163 10.0736 15.7204 10.3782C15.6245 10.6741 15.4763 10.9003 15.2671 11.0395C15.0579 11.1788 14.7702 11.2484 14.4128 11.2484C14.0467 11.2397 13.7503 11.1701 13.5411 11.0308ZM14.7179 10.2999C14.7789 10.1519 14.8051 9.89959 14.8051 9.56022V8.11571C14.8051 7.78503 14.7789 7.54138 14.7179 7.38475C14.6569 7.22811 14.561 7.1585 14.4128 7.1585C14.2733 7.1585 14.1687 7.23682 14.1164 7.38475C14.0554 7.54138 14.0293 7.78503 14.0293 8.11571V9.56022C14.0293 9.89959 14.0554 10.1519 14.1164 10.2999C14.1687 10.4478 14.2733 10.5261 14.4215 10.5261C14.561 10.5261 14.6569 10.4565 14.7179 10.2999Z"/>
	<path class="vector" d="M10.9957 9.10777L9.81021 4.81775H10.8475L11.266 6.75827C11.3706 7.23687 11.449 7.64586 11.5013 7.98523H11.5275C11.5623 7.74158 11.6408 7.34129 11.7628 6.76697L12.1987 4.81775H13.236L12.033 9.10777L12.033 11.1614H11.0044L11.0044 9.10777H10.9957Z"/>
	<path class="vector" d="M19.2333 6.53198V11.1701H18.4139L18.3268 10.6045H18.3006C18.0827 11.0309 17.7427 11.2484 17.2982 11.2484C16.9931 11.2484 16.7664 11.144 16.6182 10.9438C16.47 10.7437 16.4003 10.4304 16.4003 9.99533V6.53198H17.4463V9.93442C17.4463 10.1433 17.4725 10.2912 17.5161 10.3782C17.5597 10.4652 17.6381 10.5087 17.7427 10.5087C17.8299 10.5087 17.9171 10.4826 18.0042 10.4217C18.0914 10.3695 18.1524 10.2999 18.1873 10.2129V6.53198L19.2333 6.53198Z"/>
</g>
</svg>
